<svg xmlns="http://www.w3.org/2000/svg" id="sign-svg" viewBox="0 0 128.5201 198.64" width="128.5201" height="198.64" preserveAspectRatio="xMidYMid meet"><g id="sign-glyph" transform="translate(0.000 0.714) scale(0.949048)"><path d="M61.78 23.64c.21.01.42-.03.6-.07.12-.03.23-.05.35-.06 1.21-.05 2.42-.09 3.64-.13l2-.07c.23 0 .47-.01.71-.07.18-.05.6-.26.63-.59.03-.28-.14-.55-.27-.74-.08-.13-.22-.2-.31-.25-.03-.01-.06-.03-.08-.04a6.57 6.57 0 0 1-2.41-2.88c-.67-1.52-.79-2.82-.39-4.11.53-1.72 1.64-3.06 3.37-4.08 1.76-1.04 3.58-1.05 5.42-.03 1.19.66 2.14 1.59 2.83 2.77.66 1.14.91 2.23.77 3.34-.27 2.16-1.28 3.82-3.08 5.08-.06.04-.58.42-.58.87 0 .65.65.71.98.74.14.01.28.01.42.01l1.34.02c.93.01 1.86.03 2.79.07.6.03 1.22.1 1.82.18l.45.06c.06 0 .13.01.18.01.58 0 .75-.37.8-.61.1-.45-.14-.76-.7-.92-.18-.05-.37-.06-.53-.07l-4.82-.21c.14-.16.27-.3.38-.45 2.12-2.63 2.59-5.38 1.41-8.17-.58-1.36-1.59-2.52-3.19-3.63-1.57-1.09-3.36-1.48-5.17-1.11-2.85.57-4.91 2.3-6.12 5.15-.42.99-.59 1.99-.48 2.96.22 2.04 1.03 3.79 2.41 5.21.01.02.03.03.04.05l-1.51.06c-1.05.04-2.1.08-3.15.13-.28.01-.55.05-.79.11-.27.06-.48.21-.58.41-.08.17-.08.36 0 .54.14.3.51.51.79.53Zm21.85 2.12c-.26-.13-.56-.15-.84-.16l-7.95-.42-2.39-.13-2.19.11-8.13.42c-.44.02-.84.09-1.17.21-.22.08-.32.29-.4.46-.02.05-.05.1-.07.14l-.17.28.29.15.11.07c.13.09.29.22.49.19.24 0 .48-.04.72-.08.19-.03.38-.06.57-.07 4.81-.3 9.03-.38 12.92-.27 1.76.05 3.51.11 5.27.19.64.03 1.27.09 1.91.15l.75.07c.06 0 .14.01.21.01.17 0 .36-.03.51-.16.08-.08.18-.22.17-.45 0-.35-.41-.64-.62-.74Z" class="st0" fill="none" stroke="#BDAC82" stroke-width="1.5" stroke-linecap="round" stroke-linejoin="round"/><path d="M67.88 89.69c-.99.23-1.71.49-2.46.55-1.43.12-2.82-.76-3.19-1.89-.34-1.03.17-2.49 1.12-3.2.75-.56 1.66-.6 2.27-.11.64.52.77 1.42.28 2.02-.39.49-.74.36-1.77-.81-.18.64-.56 1.23-.39 1.57.2.42.82.81 1.3.87 1.12.14 2.12-.33 2.81-1.24.66-.86.17-1.71-.23-2.48-.87-1.67-2.42-2.34-4.18-2.53-1.56-.17-3.14-.24-4.71-.3-6.04-.24-12.08-.46-18.12-.68-.43-.02-.86 0-1.43 0v15.06c.3.18.68.37 1.03.61 1.32.93 1.9 2.22 1.46 3.78-.21.75-.19 1.27.26 1.89 2.77 3.83 5.52 7.67 8.25 11.53.44.63.92.96 1.71.9.88-.06 1.77-.06 2.64 0 .99.08 1.29.51.89 1.35-.65 1.37-1.33 2.73-2.13 4-.28.45-.98.63-1.78 1.11-.08.51-.17 1.37-.34 2.23-.22 1.11-.39 2.24-.76 3.3-.61 1.73-1.88 2.9-3.72 3.11-5.76.66-11.54 1.22-17.33.37-3.18-.47-4.46-1.96-4.71-5.15-.1-1.31-.2-2.62-.3-4.08-1.65.21-2.43-.83-3.17-1.96-.59-.9-1.27-1.73-1.85-2.62-.58-.9-.33-1.45.72-1.51 1.26-.07 2.52-.06 3.78-.02.81.02 1.39-.19 1.91-.89 2.9-3.89 5.87-7.73 8.78-11.61.31-.41.63-1.04.54-1.49-.45-2.29.55-3.76 2.45-4.75V81.49c-.53-.08-1-.21-1.48-.22-4.4-.05-8.81-.06-13.21-.15-1.05-.02-2.15-.18-3.15-.51-2.94-1-4.44-3.39-4.15-6.41.28-2.9 2.57-5.31 5.46-5.7 1.51-.2 2.9.19 4.07 1.14 1.93 1.55 1.36 4.88-.95 5.77-.84.32-1.65.21-2.27-.42-.25-.25-.24-.75-.35-1.14.38-.06.76-.2 1.13-.17.27.02.53.27.74.38 1.04-.44 1.44-1.15 1.34-2.14-.11-1.06-.91-1.43-1.78-1.73-1.94-.66-4.16.29-5.29 2.25-1.16 2.01-.89 4.26.73 5.69 1.57 1.39 3.46 1.79 5.48 1.41 5.12-.97 9.13-3.79 12.48-7.65 1.32-1.52 2.55-3.12 3.89-4.63 2.72-3.06 5.91-5.51 9.78-6.92 1.57-.57 3.29-.76 4.96-.97 1.33-.17 2.13.58 2.79 1.79.98 1.81 2.2 3.51 3.38 5.21.39.56.92 1.05 1.48 1.45 1.3.96 2.53 2.18 4.4 1.15 2.35-1.29 3.94-3.63 3.67-5.7-.08-.6-.33-1.23-.68-1.74-1.31-1.92-1.08-3.79.03-5.68.1-.16.19-.33.3-.48.7-.98 1.33-1.97 1.21-3.28-.03-.3.43-.65.66-.97.28.29.82.61.79.85-.22 1.63.8 2.72 1.53 3.96 1.06 1.81 1.25 3.62.05 5.52-1.22 1.93-.73 4.58.99 6.17.05.04.09.08.15.12 2.7 1.97 3.29 2.46 6.25.02 2.06-1.7 3.69-3.82 4.68-6.32.64-1.62 1.74-2.33 3.36-2.05 1.78.3 3.61.61 5.28 1.28 3.5 1.41 6.43 3.71 8.93 6.53 1.34 1.51 2.59 3.09 3.9 4.63 2.93 3.42 6.43 6 10.79 7.33 1.72.52 3.45.74 5.2.18 2.13-.69 3.51-2.46 3.48-4.44-.04-2.17-1.57-4.2-3.69-4.72-.7-.17-1.5-.11-2.21.03-.89.17-1.7.62-1.88 1.63-.18.98.27 1.7 1.25 2.24.26-.13.56-.36.9-.42.32-.05.84-.02.95.16.15.24.1.75-.07 1.01-.49.76-1.63.98-2.56.54-1.16-.56-1.84-1.49-1.96-2.8-.11-1.29.24-2.37 1.37-3.1 1.58-1.02 3.26-1.27 5.05-.64 2.45.86 4.21 3.26 4.31 5.9.09 2.55-1.28 4.78-3.81 5.73-1.21.45-2.57.63-3.87.67-4.59.14-9.18.16-13.78.23-.12 0-.23.09-.56.22-.28 4.92-.13 9.94-.19 15 2.06.96 2.93 2.51 2.6 4.75-.07.48.19 1.11.5 1.52 2.95 3.93 5.95 7.83 8.9 11.75.43.57.89.8 1.58.78 1.2-.03 2.4-.05 3.59.02.46.02 1.1.16 1.3.47.16.26-.11.91-.35 1.29-.53.86-1.2 1.62-1.73 2.48-.7 1.14-1.53 1.99-3.15 1.83-.05.9-.08 1.7-.14 2.51-.06.82-.15 1.63-.21 2.45-.18 2.26-1.49 3.67-3.61 4.03-2.47.41-5 .67-7.5.65-3.39-.03-6.79-.36-10.18-.63-2.6-.2-4.13-1.73-4.7-4.2-.35-1.53-.54-3.09-.82-4.79-1.25.02-1.86-.85-2.34-1.93-.39-.86-.9-1.66-1.32-2.51-.63-1.3-.39-1.72 1-1.81.31-.02.64-.06.94 0 1.89.38 2.96-.56 3.97-2.06 2.54-3.76 5.25-7.4 7.86-11.05-.63-2.58-.66-3.85 2.3-5.64V81.57c-.4-.04-.82-.12-1.23-.1-6.29.22-12.59.45-18.88.7-1.45.06-2.9.14-4.33.32-1.92.25-3.49 1.09-4.26 2.99-.34.85-.46 1.7.37 2.42.92.79 2.3 1.1 3.16.64.76-.4.79-.76.15-2.01-.11 0-.29-.04-.32 0-.23.44-.44 1.12-1.03.76-.36-.22-.62-.94-.56-1.4.13-1.11 1.46-1.51 2.55-.85.91.55 1.59 1.91 1.4 2.92-.23 1.17-.98 1.9-2.13 2.14-.6.12-1.24.12-1.86.05-.54-.06-1.07-.28-1.75-.46-1.64 13.62-1.43 26.97 2.59 40.1 2.45.48 4.82.86 7.13 1.43 2.01.5 4.01 1.1 5.94 1.86 1.39.55 2.73 1.31 3.95 2.18 2.9 2.08 3.38 4.81 1.6 7.93-1.24 2.17-2.99 3.82-5.31 4.62-3.32 1.14-6.7 2.25-10.13 2.95-9.34 1.91-18.56 1.08-27.59-1.85-1.89-.61-3.7-1.58-5.42-2.6-1.67-.99-2.67-2.67-3.36-4.45-.95-2.43-.49-4.48 1.58-6.09 1.38-1.07 2.93-1.97 4.53-2.68 3.65-1.63 7.57-2.38 11.5-2.94 1.3-.18 1.82-.73 2.13-1.91 2.31-8.84 3.46-17.8 2.97-26.94-.15-2.89-.35-5.78-.54-8.67-.06-.93-.21-1.86-.33-2.93Zm47.27-10.1c-.12-.2-.16-.35-.25-.4-3.96-2.03-7.01-5.07-9.71-8.55-1.9-2.45-4.03-4.68-6.59-6.46-2.08-1.45-4.27-2.69-6.78-3.24-2.75-.6-3.13-.4-4.37 2.08-.03.06-.05.12-.08.17-2.29 3.99-5.12 7.34-9.89 8.45-2.99.7-5.98.74-9 .3-3.88-.58-6.99-2.44-9.26-5.62-.95-1.32-1.84-2.72-2.54-4.18-.52-1.09-1.17-1.61-2.32-1.37-1.47.31-2.98.55-4.36 1.11-2.83 1.15-5.31 2.92-7.41 5.12-1.61 1.68-3.1 3.48-4.59 5.27-2.24 2.69-4.81 4.98-7.9 6.65-.29.16-.53.4-.87.65 3.2.72 5.77-.17 7.96-2.27 1.99-1.92 3.96-3.87 5.93-5.82 1.34-1.33 2.53-2.86 4.03-3.97 1.86-1.37 3.92-2.49 5.98-3.55 1.15-.59 1.53-.35 2.09.77 2.24 4.54 5.81 7.52 10.56 9.15.61.21 1.67.32 1.43 1.18-.3 1.04-1.25.46-1.92.25-1.41-.43-2.82-.69-4.27-.26-1.52.45-2.5 1.42-2.83 2.99-.31 1.49.37 2.47 1.89 2.65 1.12.13 2.26.13 3.39.23 1.54.14 2.97.61 4.15 1.65 1.4 1.23 2.35 2.81 1.94 4.66-.33 1.48-.23 2.87-.07 4.29 1.1 9.81 1.25 19.6-.54 29.36-1.25 6.86-3.15 13.48-6.54 19.62-.27.49-.53 1.02-.91 1.42-.19.19-.69.21-.99.12-.14-.04-.25-.55-.2-.81.08-.35.36-.66.52-1 1.07-2.28 2.15-4.55 3.2-6.84.25-.55.38-1.15.62-1.86-.44-.02-.68-.07-.91-.03-4.05.65-8.05 1.52-11.79 3.27-1.19.56-2.32 1.28-3.34 2.11-1.58 1.28-1.91 2.7-1.1 4.56.82 1.88 1.98 3.54 3.9 4.46 1.25.6 2.52 1.18 3.83 1.59 8.94 2.78 18.02 3.52 27.24 1.71 3.4-.67 6.77-1.45 9.95-2.91 2.12-.97 3.55-2.58 4.5-4.64.92-1.99.61-3.54-1.13-4.87-1.14-.87-2.41-1.62-3.72-2.21-3.58-1.63-7.41-2.43-11.27-3.06-.27-.04-.56.04-.96.07 1.06 3.28 2.44 6.23 4.07 9.07.28.49.74 1.02.03 1.45-.68.41-1.01-.17-1.33-.65q-.105-.165-.18-.33c-1.57-3.57-3.5-7.03-4.62-10.74-3.66-12.1-4.37-24.49-3-37.04.23-2.09.83-4.19.14-6.35-.2-.63.09-1.5.36-2.18.99-2.51 3.08-3.55 5.6-3.87 1.19-.15 2.39-.11 3.58-.26 1.39-.17 2-.95 1.86-2.33-.16-1.6-1.08-2.65-2.56-3.2-1.42-.53-2.84-.34-4.27.06-.68.19-1.4.26-2.1.39-.08-.12-.16-.25-.24-.37.19-.33.31-.77.6-.96.46-.3 1.04-.44 1.57-.64 4.38-1.63 7.73-4.46 9.78-8.68.69-1.42 1.15-1.43 2.53-.94.3.1.58.25.86.38 3.11 1.38 5.6 3.57 7.92 6.01 2.25 2.37 4.6 4.66 6.95 6.94 2.13 2.06 4.66 2.92 7.74 2.22Zm-20.66 41.85c.25 1.6.4 3.04.71 4.43.42 1.83 1.54 3.01 3.52 3.11 4.07.22 8.15.48 12.22.59 1.55.04 3.13-.22 4.67-.48 1.22-.21 2.36-.81 2.59-2.16.3-1.77.4-3.57.6-5.51H94.5Zm-68.7.02c.1 1.46.14 2.76.29 4.06.3 2.58 1.09 3.44 3.61 3.77 5.53.72 11.04.25 16.54-.35 1.55-.17 2.55-1.13 2.93-2.57.41-1.56.6-3.18.91-4.9H25.79Zm-4.26-4.57c1.27 2.89 1.45 3.02 4.1 3.01 5.55-.02 11.09-.04 16.64-.07 2.84-.01 5.67-.07 8.51-.04.94.01 1.56-.28 1.92-1.16.23-.55.53-1.08.85-1.74zm69.6.01q1.03 2.86 3.73 2.87c8.19.04 16.39.09 24.58.13 2.08 0 2.81-.63 3.37-3zm26.23-1.66c-.4-.59-.65-1-.94-1.38-1.36-1.8-2.73-3.6-4.1-5.4-1.22-1.6-2.42-3.21-3.68-4.77-.21-.26-.78-.46-1.09-.37s-.53.57-.73.91c-.08.14-.02.37-.03.56-.02 3.08-.05 6.15-.05 9.23 0 .41.13.82.19 1.22zm-79.7 0c0-3.8.04-7.49-.03-11.17-.02-.88-.99-1.15-1.65-.54-.18.17-.32.39-.47.59-2.55 3.35-5.1 6.69-7.65 10.04-.21.28-.39.59-.7 1.08h10.49Zm1.82-.09c2.58.35 7.79.2 9.23-.3-2.69-3.76-5.35-7.49-8.05-11.2-.18-.24-.77-.5-.89-.41-.29.22-.57.66-.57 1.02 0 3.46.05 6.92.1 10.38 0 .17.12.35.18.51m65.72-11.71c-1-.65-1.32.14-1.7.66-2.39 3.32-4.76 6.64-7.13 9.97-.2.28-.32.61-.49.97 2.49.39 7.88.36 9.33-.05v-11.55ZM56.47 78.39c.66-1.38-.15-1.58-.87-1.83-3.14-1.12-6.29-2.23-9.43-3.35-.64-.23-1.28-.46-1.94-.7-1.06 1.15-2.03 2.2-3.27 3.55 5.43.81 10.44 1.57 15.52 2.33Zm1.68-3.58c-2.88-2.44-5.77-4.89-8.68-7.36-1.53 1.14-2.87 2.3-4.12 3.89 4.02 1.48 7.78 2.86 11.55 4.25.71.26 1.05-.06 1.26-.78Zm29.88 3.51c5.12-.63 10.16-1.39 15.49-2.35-1.28-1.34-2.3-2.42-3.27-3.45-2.98 1.07-5.77 2.06-8.55 3.06-1.01.36-2.01.73-3.03 1.06-.73.23-1.08.62-.63 1.68Zm7.08-10.95c-3.11 2.65-5.95 5.07-8.75 7.46.36.94.88.89 1.56.64 2.41-.9 4.84-1.74 7.25-2.63 1.28-.47 2.53-1 4.11-1.62-1.51-1.4-2.82-2.61-4.17-3.85m12.62 12.42c-1.55-1.78-2.95-2.72-5.21-2.12-2.11.56-4.33.68-6.51.98-2.42.34-4.85.66-7.27 1-.54.07-1.16.09-1.06 1.2 6.62-.35 13.21-.69 20.06-1.05Zm-50.59.96c-.7-1.35-1.63-1.14-2.37-1.25-4.48-.66-8.98-1.16-13.43-1.94-2.12-.37-3.15.77-4.5 2.22 6.84.34 13.38.88 20.3.97m-6.03-14.31c.16.32.21.52.33.62 2.51 2.19 5.03 4.36 7.54 6.56.75.66 1.29.15 2.25-.22-3.43-2.11-5.73-4.88-7.38-8.31-1.06.52-1.87.92-2.73 1.35Zm33.91 7.59c2.89-2.38 5.87-4.62 8.63-7.53-1.15-.52-2.02-.91-2.97-1.34-1.73 3.48-4.07 6.2-7.44 8.3.83.26 1.3.41 1.79.57Zm-12.78-9.34c-.51 1.1-.85 2.21-1.49 3.1-.65.91-1.6 1.6-2.48 2.43 2.62.79 6.36.69 7.88-.16q-2.28-1.94-3.91-5.37m.05-2.23c2.64-3.76 1.81-5.26-.14-7.06-2.4 2.35-1.73 4.72.14 7.06M38.12 98.29c-.82-.01-1.66.97-1.67 1.96 0 .88.76 1.62 1.71 1.65 1.02.03 1.92-.75 1.93-1.67 0-.92-1.02-1.93-1.97-1.94m68.21.01c-.99.06-1.91 1.04-1.87 2 .04.95.91 1.66 1.95 1.59.97-.06 1.64-.78 1.6-1.71-.04-1.05-.83-1.93-1.69-1.88Z" class="st1" fill="none" stroke="#BDAC82" stroke-width="1.5" stroke-linecap="round" stroke-linejoin="round"/><path d="M16.68 99.19c.04-1.03-.31-1.83-1.04-2.48-.71-.64-1.54-1.08-2.43-1.39-.17-.06-.35-.09-.49-.18-.3-.18-.29-.54.03-.69.18-.09.4-.1.59-.15.4-.1.82-.15 1.2-.29 1.23-.47 1.99-1.33 2.08-2.69.02-.29 0-.6.07-.87.05-.15.27-.35.42-.35.13 0 .35.21.39.37.09.34.09.7.12 1.05.12 1.39 1 2.13 2.22 2.56.36.13.74.16 1.12.25.31.07.71.05.73.48.02.38-.37.39-.62.51-.68.33-1.4.62-2.03 1.03-1.06.68-1.64 1.67-1.53 2.98 0 .09.01.18.01.26 0 .28-.15.5-.42.44-.17-.04-.33-.27-.43-.45-.06-.11.01-.29.02-.38Zm-2.04-4.31c.87.76 1.68 1.48 2.44 2.14.8-.7 1.63-1.41 2.43-2.11-.42-.26-.89-.49-1.29-.81-.42-.34-.77-.78-1.15-1.17-.9 1.12-1.2 1.37-2.42 1.96Zm98.7 56.77c-.29-.34-.47-.46-.52-.62-.07-.25 0-.53-.06-.79-.15-.74-.28-1.5-.52-2.21-.21-.64-.74-1.04-1.33-1.35-.23-.12-.48-.23-.7-.38-.53-.35-.54-.73-.03-1.11.38-.28.79-.51 1.14-.82.94-.84 1.47-1.89 1.45-3.18v-.62c.02-.28.13-.57.46-.5.16.04.29.29.38.48.06.12 0 .29 0 .44-.02 1.67.74 2.92 2.08 3.87.14.1.3.18.45.28.66.44.67.92-.07 1.22-1.87.78-2.37 2.3-2.44 4.12 0 .2 0 .42-.05.61-.04.16-.14.31-.27.56Zm-.18-3.66c.4-.53.67-.99 1.04-1.36.35-.35.79-.62 1.12-.87l-2.09-2.39c-.69.78-1.4 1.58-2.13 2.42.89.48 1.66 1.13 2.07 2.19Zm-1.02-91.89c.42.45.85.89 1.27 1.35.2.21.43.42.53.68.07.18.04.53-.09.64-.12.1-.5.08-.64-.04-.47-.4-.88-.87-1.32-1.31-.17-.17-.36-.33-.66-.6-.06.39-.14.65-.14.9v5.96c0 .47.15 1.06-.54 1.21-.45.1-.7-.31-.7-1.2-.01-1.82 0-3.64 0-5.47 0-.4 0-.81-.23-1.35l-1.26 1.26c-.2.21-.38.46-.62.6-.17.1-.52.12-.64 0-.12-.11-.16-.48-.07-.63.21-.35.51-.64.79-.95.35-.38.71-.76 1.26-1.34h-3.98c-.37 0-.76.04-1.11-.04-.19-.04-.44-.29-.45-.46s.21-.47.38-.52c.35-.1.73-.09 1.11-.1h3.69c.03-.09.06-.18.1-.27-.66-.66-1.32-1.32-1.96-1.99-.33-.34-.9-.73-.4-1.23.5-.49.88.09 1.23.42.65.62 1.28 1.26 2.07 2.05.05-.53.1-.84.1-1.15 0-1.74 0-3.48.01-5.22 0-.54-.19-1.24.6-1.44.45-.11.63.34.63 1.5v6.3c.82-.53 1.26-1.12 1.79-1.61.27-.25.49-.59.81-.77.24-.14.66-.21.86-.09.36.22.19.59-.06.85-.6.62-1.23 1.23-1.84 1.85-.17.17-.31.36-.61.72 1.14.02 2.07.04 3.01.06.54 0 1.08 0 1.61.03.37.02.81.06.81.56 0 .52-.43.54-.81.54-1.08 0-2.15 0-3.23-.01h-1.2c-.03.09-.06.19-.09.28Zm-86.5 87.82c.42.45.85.89 1.27 1.35.19.21.43.42.53.68.07.18.04.53-.09.64-.12.1-.5.08-.64-.04-.47-.4-.88-.87-1.32-1.31-.17-.17-.36-.33-.66-.6-.06.39-.14.65-.14.9v5.96c0 .47.15 1.06-.54 1.21-.45.1-.7-.31-.7-1.2-.01-1.82 0-3.64 0-5.47 0-.4 0-.81-.23-1.35l-1.26 1.26c-.2.21-.38.46-.62.6-.17.1-.52.12-.64 0-.12-.11-.16-.48-.07-.63.21-.35.51-.64.79-.95.35-.38.71-.76 1.26-1.34H18.6c-.37 0-.76.04-1.11-.04-.19-.04-.44-.29-.45-.46s.21-.47.38-.52c.35-.1.73-.09 1.11-.1h3.69l.1-.27c-.66-.66-1.32-1.32-1.96-1.99-.33-.34-.9-.73-.4-1.23.5-.49.88.09 1.23.42.65.62 1.28 1.26 2.07 2.05.05-.53.1-.84.1-1.15 0-1.74 0-3.48.01-5.22 0-.54-.19-1.24.6-1.44.45-.11.63.34.63 1.5v6.3c.82-.53 1.26-1.12 1.79-1.61.27-.25.49-.59.81-.77.24-.14.66-.21.86-.09.36.22.19.59-.06.85-.6.62-1.23 1.23-1.84 1.85-.17.17-.31.36-.61.72 1.14.02 2.07.04 3.01.06.54 0 1.08 0 1.61.03.37.02.81.06.81.56 0 .52-.43.54-.81.54-1.08 0-2.15 0-3.23-.01h-1.2c-.03.09-.06.19-.09.28Zm1.05-57.03c0 .5-.4.9-.9.9s-.9-.4-.9-.9.4-.9.9-.9.9.4.9.9m67.03-39.5c0 .5-.4.9-.9.9s-.9-.4-.9-.9.4-.9.9-.9.9.4.9.9m25.9 15.53c0 .5-.4.9-.9.9s-.9-.4-.9-.9.4-.9.9-.9.9.4.9.9m5 71.64c0 .5-.4.9-.9.9s-.9-.4-.9-.9.4-.9.9-.9.9.4.9.9M32.24 53.91c0 .5-.4.9-.9.9s-.9-.4-.9-.9.4-.9.9-.9.9.4.9.9" class="st1" fill="none" stroke="#BDAC82" stroke-width="1.5" stroke-linecap="round" stroke-linejoin="round"/><circle cx="14.57" cy="53.91" r=".9" class="st1" fill="none" stroke="#BDAC82" stroke-width="1.5" stroke-linecap="round" stroke-linejoin="round"/><path d="M9.07 135.46c0 .5-.4.9-.9.9s-.9-.4-.9-.9.4-.9.9-.9.9.4.9.9m-.9-31.92c0 .5-.4.9-.9.9s-.9-.4-.9-.9.4-.9.9-.9.9.4.9.9m99.38 36.6c0 .5-.4.9-.9.9s-.9-.4-.9-.9.4-.9.9-.9.9.4.9.9m12.97-94.8c0 .5-.4.9-.9.9s-.9-.4-.9-.9.4-.9.9-.9.9.4.9.9" class="st1" fill="none" stroke="#BDAC82" stroke-width="1.5" stroke-linecap="round" stroke-linejoin="round"/><circle cx="24.89" cy="102.64" r=".9" class="st1" fill="none" stroke="#BDAC82" stroke-width="1.5" stroke-linecap="round" stroke-linejoin="round"/><path d="M49.58 183.35h1.67v15.29h-1.67zm1.01 15.29v-1.45h4.18v1.45zm8.36-15.29h1.67v15.29h-1.67zm7.08 0h4.84c.66 0 1.14.16 1.46.48s.48.81.48 1.46v4.4c0 .36-.08.64-.25.85s-.38.32-.66.36q.42.075.66.33c.16.17.25.44.25.8v4.67c0 .66-.16 1.14-.48 1.46s-.81.48-1.46.48h-4.84zm5.08 6v-3.79c0-.33-.04-.54-.13-.63s-.3-.14-.63-.14h-2.63v5.31h2.63q.495 0 .63-.15c.09-.1.13-.3.13-.61Zm0 7.07v-4.1c0-.33-.04-.54-.13-.63s-.3-.14-.63-.14h-2.63v5.63h2.63q.495 0 .63-.15c.09-.1.13-.3.13-.61m11.46-6.39v-4.47c0-.33-.05-.54-.14-.63s-.3-.14-.63-.14h-3.96v-1.45h4.45c.66 0 1.14.16 1.46.48s.48.81.48 1.46v5.01c0 .66-.16 1.14-.48 1.46s-.81.48-1.46.48h-3.44v-1.45h2.95q.495 0 .63-.15c.09-.1.14-.3.14-.61Zm-4.72-6.68h1.67v15.29h-1.67zm2.9 8.26h1.75l2.53 7.03h-1.82zm15.21 7.03h-1.7l-2.29-14.11-2.02 14.11h-1.7l2.38-15.29h2.68l2.63 15.29Zm-1.74-5.34v1.45h-4.28v-1.45z" class="st0" fill="none" stroke="#BDAC82" stroke-width="1.5" stroke-linecap="round" stroke-linejoin="round"/><path d="M72.28 37.68c-10.39 0-18.84-8.45-18.84-18.84S61.89 0 72.28 0s18.84 8.45 18.84 18.84-8.45 18.84-18.84 18.84m0-36.21c-9.57 0-17.36 7.79-17.36 17.36s7.79 17.36 17.36 17.36 17.36-7.79 17.36-17.36S81.86 1.47 72.28 1.47" class="st1" fill="none" stroke="#BDAC82" stroke-width="1.5" stroke-linecap="round" stroke-linejoin="round"/><path d="M17.09 172.44h110.39v1.6H17.09z" class="st0" fill="none" stroke="#BDAC82" stroke-width="1.5" stroke-linecap="round" stroke-linejoin="round"/></g></svg>