<svg xmlns="http://www.w3.org/2000/svg" id="sign-svg" viewBox="0 0 128.5201 198.64" width="128.5201" height="198.64" preserveAspectRatio="xMidYMid meet"><g id="sign-glyph" transform="translate(0.000 0.714) scale(0.949048)"><path d="M75.63 17.86c-1.02-.58-2.12-.5-3.2.22-.75.5-1.36 1.2-1.87 2.15l.42-2.16c.29-1.49.6-3.02.83-4.55.28-1.8.19-3.35-.25-4.73-.27-.84-.7-1.38-1.27-1.6-.56-.22-1.22-.11-1.96.32-.79.45-1.46.99-1.94 1.56-.57.67-1.06 1.41-1.55 2.12-.2.3-.41.61-.62.91-.02-.2-.04-.38-.08-.57l-.11-.51c-.15-.71-.3-1.44-.58-2.12-.39-.97-1.31-1.33-2.33-.93-1.08.43-1.93 1.28-2.6 2.57-.11.21-.02.44.06.62l.06.15.08.31.31-.1.13-.03c.13-.03.3-.07.44-.18.13-.1.21-.23.27-.34.03-.05.06-.1.1-.15l.2-.25c.2-.25.39-.49.61-.7.61-.56.93-.63 1.08-.58s.38.27.58 1.06l.02.09c.06.23.12.46.13.67l.06.96c.06.89.12 1.81.09 2.71-.05 1.38-.14 2.77-.24 4.12-.05.69-.1 1.37-.14 2.06-.02.3-.03.61.05.92.07.25.28.43.55.47.28.03.54-.1.67-.33.11-.21.13-.45.15-.66.02-.29.04-.59.05-.89.03-.55.06-1.13.14-1.67.08-.51.1-1.03.12-1.53.03-.87.06-1.68.4-2.48.88-2.07 1.96-3.73 3.29-5.07q.51-.51 1.35-.96c.29-.15.49-.2.61-.16.12.05.24.24.35.58.15.47.25.97.29 1.46.11 1.47.01 2.99-.29 4.53-.13.64-.26 1.27-.4 1.91-.24 1.13-.49 2.3-.68 3.46-.16 1.02-.13 1.89.09 2.6.21.68.16 1.24-.16 1.88-.3.6-.62 1.16-.94 1.66-.86 1.35-1.97 2.15-3.38 2.45-.29.06-.62.13-.89.31-.23.15-.53.52-.47.85.05.27.2.4.31.47.11.06.23.09.37.09.12 0 .25-.02.39-.07.37-.13.75-.25 1.13-.35 1.33-.35 2.38-1.05 3.13-2.07.5-.68.92-1.42 1.34-2.13.15-.27.31-.53.47-.8q.12-.21.21-.45c.05.02.1.04.14.07 1.01.55 2.09.52 3.21-.09 1.43-.78 2.4-2.09 2.89-3.88.33-1.22-.2-2.63-1.22-3.2Zm-1.07 4.62c-.65.84-1.5 1.39-2.22 1.44-.47.03-.89-.12-1.32-.48.22-1.22.63-2.26 1.24-3.15.42-.61.9-1.01 1.47-1.23.39-.15.77-.14 1.08.04.31.17.51.49.59.91.13.7-.19 1.64-.84 2.47M23.43 185.56v10.89c0 .31.05.52.15.61.1.1.3.15.61.15h.71v1.45h-1.23c-.66 0-1.14-.16-1.46-.48s-.48-.81-.48-1.46v-11.43c0-.65.16-1.14.48-1.46s.81-.48 1.46-.48h1.4v1.45h-.88c-.31 0-.52.04-.61.14q-.15.135-.15.63Zm2.88 2.31v-2.31c0-.33-.05-.54-.14-.63s-.3-.14-.63-.14h-.84v-1.45h1.35c.66 0 1.14.16 1.46.48s.48.81.48 1.46v2.58h-1.7Zm0 8.58v-2.31h1.7v2.58c0 .66-.16 1.14-.48 1.46s-.81.48-1.46.48h-1.35v-1.45h.84q.495 0 .63-.15c.09-.1.14-.3.14-.61Zm13.2 2.19h-1.7l-2.29-14.11-2.02 14.11h-1.7l2.38-15.29h2.68l2.63 15.29Zm-1.75-5.34v1.45h-4.28v-1.45zm10.64-3.02v-4.72c0-.33-.05-.54-.14-.63s-.3-.14-.63-.14h-3.96v-1.45h4.45c.66 0 1.14.16 1.46.48s.48.81.48 1.46v5.26c0 .66-.16 1.14-.48 1.46s-.81.48-1.46.48h-3.44v-1.45h2.95q.495 0 .63-.15c.135-.15.14-.3.14-.61Zm-4.72-6.93h1.67v15.29h-1.67zm15.66 6.68v-4.47c0-.33-.05-.54-.14-.63s-.3-.14-.63-.14h-3.96v-1.45h4.45c.66 0 1.14.16 1.46.48s.48.81.48 1.46v5.01c0 .66-.16 1.14-.48 1.46s-.81.48-1.46.48h-3.44v-1.45h2.95q.495 0 .63-.15c.09-.1.14-.3.14-.61Zm-4.72-6.68h1.67v15.29h-1.67zm2.9 8.26h1.75l2.53 7.03h-1.82zm8.75-8.26h1.67v15.29h-1.67zm8.65 2.21v10.89c0 .31.05.52.15.61.1.1.3.15.61.15h.71v1.45h-1.23c-.66 0-1.14-.16-1.46-.48s-.48-.81-.48-1.46v-11.43c0-.65.16-1.14.48-1.46s.81-.48 1.46-.48h1.4v1.45h-.88c-.31 0-.52.04-.61.14q-.15.135-.15.63Zm2.88 2.31v-2.31c0-.33-.05-.54-.14-.63s-.3-.14-.63-.14h-.84v-1.45h1.35c.66 0 1.14.16 1.46.48s.48.81.48 1.46v2.58h-1.7Zm0 8.58v-2.31h1.7v2.58c0 .66-.16 1.14-.48 1.46s-.81.48-1.46.48h-1.35v-1.45h.84q.495 0 .63-.15c.09-.1.14-.3.14-.61Zm8.04-10.89v9.63h-1.67v-9.91c0-.65.16-1.14.48-1.46s.81-.48 1.46-.48h1.33v1.45h-.84c-.31 0-.52.04-.61.14q-.15.135-.15.63m0 8.18v2.68c0 .31.05.52.15.61s.3.15.61.15h.76v1.45h-1.25c-.66 0-1.14-.16-1.46-.48s-.48-.81-.48-1.46v-2.95zm3.04 2.68v-2.48h1.67v2.75c0 .66-.16 1.14-.48 1.46s-.81.48-1.46.48h-1.5v-1.45h1.01q.495 0 .63-.15c.135-.15.14-.3.14-.61Zm0-1.25v-9.61c0-.33-.05-.54-.14-.63s-.3-.14-.63-.14h-.84v-1.45h1.33c.66 0 1.14.16 1.46.48s.48.81.48 1.46v9.88h-1.67Zm11.43-5.14v-4.47c0-.33-.05-.54-.14-.63s-.3-.14-.63-.14h-3.96v-1.45h4.45c.66 0 1.14.16 1.46.48s.48.81.48 1.46v5.01c0 .66-.16 1.14-.48 1.46s-.81.48-1.46.48h-3.44v-1.45h2.95q.495 0 .63-.15c.09-.1.14-.3.14-.61Zm-4.72-6.68h1.67v15.29h-1.67zm2.9 8.26h1.75l2.53 7.03h-1.82zm13.52-8.26h1.55v15.29h-1.84l-3.17-11.85v11.85H107v-15.29h1.97l3.05 11.43v-11.43Z" class="st0" fill="none" stroke="#BDAC82" stroke-width="1.5" stroke-linecap="round" stroke-linejoin="round"/><path d="M67.71 37.68c-10.39 0-18.84-8.45-18.84-18.84S57.32 0 67.71 0s18.84 8.45 18.84 18.84-8.45 18.84-18.84 18.84m0-36.21c-9.57 0-17.36 7.79-17.36 17.36s7.79 17.36 17.36 17.36 17.36-7.79 17.36-17.36S77.28 1.47 67.71 1.47" class="st1" fill="none" stroke="#BDAC82" stroke-width="1.5" stroke-linecap="round" stroke-linejoin="round"/><path d="M12.52 172.44h110.39v1.6H12.52z" class="st0" fill="none" stroke="#BDAC82" stroke-width="1.5" stroke-linecap="round" stroke-linejoin="round"/><path d="M87.47 95.53c.09.29.11.51.21.68 1.74 2.99 1.68 6.15 1.07 9.42-1.16 6.31-4.06 11.8-7.83 16.87-.85 1.15-2.09 2.01-3.13 3.03-.37.36-.79.76-.95 1.23-.8 2.34-1.53 4.71-2.24 6.91.29.48.71.9.79 1.37.45 2.7 0 5.18-2.1 7.13-1.42 1.32-2.5 2.82-2.91 4.75-.03.16-.05.35-.15.45-1.51 1.47-1.33 3.41-1.51 5.26-.05.53-.12 1.08-.3 1.58-.08.23-.45.51-.69.51-.25 0-.62-.25-.71-.49-.17-.44-.19-.94-.25-1.42-.14-1.07-.21-2.14-.4-3.2-.13-.72-.19-1.49-.94-1.98-.26-.17-.35-.65-.44-1.01-.41-1.62-1.22-3-2.48-4.08-2.23-1.91-2.82-4.39-2.48-7.16.07-.59.48-1.13.78-1.79-.67-2.17-1.39-4.53-2.15-6.88-.11-.33-.37-.65-.64-.88-5.86-4.92-9.05-11.41-10.93-18.65-.27-1.04-.53-2.11-.6-3.17-.23-3.36-.49-3.88 1.52-8.43-.27-.04-.5-.1-.73-.1-4.25-.07-7.43-2-9.56-5.63-.94-1.59-1.77-3.22-3.55-4.06-.19-.09-.41-.47-.35-.63.08-.25.37-.61.6-.62 1.55-.12 3.1-.24 4.65-.19.84.03 1.69.33 2.51.59 1.21.38 2.34.25 3.44-.33.43-.23.86-.45 1.28-.7 2.8-1.68 5.63-2.14 8.54-.05.52-.99.41-1.95.25-2.88-1.23-7.04-4.33-13.08-9.79-17.77-4.21-3.62-9-6.15-14.55-6.95-8.41-1.21-15.91 1.04-22.58 6.23-.38.3-.73.66-1.15.88-.23.12-.7.11-.85-.04-.16-.17-.12-.58-.08-.87.03-.19.22-.37.35-.53 5.89-7.1 13.07-12.18 22.26-14.06 7.99-1.63 15.19.3 21.76 4.9 4.08 2.86 7.33 6.52 9.77 10.87 2.91 5.17 4.95 10.65 5.92 16.51.06.37.13.74.22 1.11.06.26.15.52.24.84.36.05.72.13 1.08.15.32.02.64-.03 1.12-.06.2-.82.44-1.63.58-2.46.99-5.92 3.07-11.46 6.14-16.6 4.51-7.53 10.86-12.76 19.46-15.03 6.39-1.68 12.54-.67 18.49 1.84 6.14 2.59 11.17 6.69 15.39 11.81.17.21.41.42.45.65.06.33-.05.68-.09 1.03-.3-.03-.65.01-.9-.12-.37-.2-.67-.53-1.01-.8-6.66-5.21-14.18-7.63-22.56-6.23-9.71 1.63-16.9 7.02-21.48 15.76-1.53 2.92-2.63 6.03-2.93 9.36-.07.77-.01 1.56-.01 2.54.5-.27.74-.38.96-.52 1.94-1.21 3.97-1.26 6.04-.41.75.3 1.48.67 2.16 1.11 1.61 1.02 3.25 1.28 5.09.63 1.91-.67 3.9-.79 5.9-.34.21.05.43.05.63.12.67.25.84.89.25 1.19-1.93.95-2.78 2.76-3.84 4.45-2.12 3.39-5.2 5.22-9.25 5.31-.25 0-.51.04-.84.07Zm-10.81 28.76c1.46-.57 2.5-1.49 3.33-2.63 3.58-4.94 6.38-10.23 7.53-16.31.67-3.55.43-6.85-1.85-9.84-.54-.71-.95-1.61-1.13-2.48-.63-3.09-2.98-5.01-4.68-7.38-.6.21-1.06.35-1.51.52-1.74.66-3.51.74-5.21.02-1.43-.6-2.79-1.38-4.12-2.19-1.1-.67-1.53-.74-2.59.05-.22.16-.42.34-.65.48-3 1.98-6.13 2.9-9.61 1.28-.18-.08-.4-.07-.6-.1-.82 1.01-1.58 1.99-2.38 2.93-1.06 1.26-1.78 2.67-2.22 4.26-.27.97-.69 1.96-1.28 2.76-1.97 2.66-2.35 5.61-1.86 8.77 1.02 6.57 3.99 12.26 7.91 17.51.78 1.04 1.8 1.81 3.14 2.4.95-2.07 1.86-4.02 2.75-5.97 2.62-5.79 2.12-11.46-.8-16.97-1.56-2.95-3.53-5.56-6.8-6.87-.29-.12-.5-.43-.76-.67.56-.67 1.07-.43 1.56-.23 1.68.68 3.09 1.74 4.29 3.1 2.72 3.07 4.4 6.65 5.13 10.65.28 1.52.36 3.12.24 4.65-.29 3.71-1.57 7.18-3.34 10.4-1.32 2.4-1.49 4.66-.34 7.09.25.53.39 1.12.62 1.67.42 1.04 1.08 1.82 2.17 2.26 2.57 1.02 5.17.87 7.76.22 1.45-.36 2.38-1.4 2.86-2.84.29-.87.61-1.73.92-2.59.61-1.66.48-3.22-.34-4.83-.96-1.87-1.77-3.82-2.53-5.77-.93-2.38-1.56-4.89-1.41-7.42.31-5.21 2.19-9.86 5.76-13.76 1.11-1.21 2.4-2.17 3.93-2.77.34-.13.72-.24 1.08-.26.14 0 .35.22.44.38.05.1-.02.34-.12.43-.15.15-.35.25-.55.32-2.93 1.15-4.81 3.43-6.3 6.04-1.95 3.43-3.21 7.11-2.94 11.1.32 4.57 2.44 8.54 4.49 12.56Zm6.4-36.59c1.53 1.58 2.36 3.41 2.83 5.43.16.71.76.84 1.36.94 2.87.44 5.46-.4 7.39-2.42 1.7-1.78 2.95-3.98 4.48-6.11-1.64-.28-2.96.02-4.23.47-2.1.73-4.02.44-5.86-.73-.54-.34-1.1-.7-1.7-.92-.8-.3-1.64-.62-2.47-.67-1.42-.07-2.77.21-3.65 1.69.35.42.68.82 1.06 1.28 1.74-1.3 3.55-1.42 5.45-.75 1.85.65 3.55 1.88 5.69 1.51.15-.03.5.3.51.48.01.2-.2.52-.4.61-.33.15-.75.27-1.09.2-.99-.18-1.99-.4-2.95-.71-.97-.31-1.88-.82-2.85-1.11-1.18-.35-2.34-.28-3.56.83Zm-28.78-2.38c-1.42-1.64-3.18-2.1-5.23-1.35-.95.35-1.86.86-2.74 1.38-1.77 1.06-3.59 1.35-5.58.67-.81-.28-1.67-.44-2.52-.56-.54-.08-1.1 0-1.68 0 .89 1.46 1.64 2.76 2.46 4.01 2.04 3.12 4.86 4.84 8.67 4.64 1.62-.08 1.82-.24 2.18-1.84.32-1.41 1-2.6 1.84-3.74.22-.29.41-.6.63-.94-.22-.2-.36-.37-.54-.47-1-.57-2.07-.61-3.12-.22-1.06.38-2.09.87-3.13 1.29-1.12.46-2.28.71-3.46.31-.22-.07-.39-.46-.44-.73-.02-.1.4-.43.57-.4 1.84.3 3.36-.57 4.93-1.25 2-.86 3.96-.94 5.86.29.07.05.21 0 .42 0l.87-1.11Zm6.84 50.47c-.09 2.17.33 4.04 1.94 5.5 1.08.98 2.04 2.06 2.65 3.42.64 1.41 1.35 2.78 2.04 4.2.71-1.48 1.35-2.94 2.11-4.33.49-.89 1.13-1.69 1.76-2.49.4-.5.93-.9 1.35-1.39 1.2-1.42 1.53-3.06 1.3-4.88-1.11.82-2.08 1.55-3.2 2.38-.09.43-.17 1.08-.37 1.69-.37 1.18-.76 2.35-1.23 3.48-.13.3-.68.68-.93.61-.59-.16-.32-.67-.15-1.06.19-.44.41-.88.58-1.33.38-.98.67-1.98.7-3.03h-3.96c.25.99.48 1.86.69 2.74.21.89 1.09 1.62.73 2.66-.8.27-1.06-.28-1.22-.77-.48-1.42-.87-2.87-1.34-4.3-.14-.42-.36-.88-.69-1.15-.81-.66-1.71-1.23-2.76-1.97ZM38.34 48.78c-.19 1.59-.22 2.84-.52 4.02-.31 1.21-.87 2.36-1.34 3.56 1.45.67 2.85 1.32 4.28 1.98 2.6-1.83 3.81-4.29 3.73-7.64-1.98-.62-3.96-1.23-6.15-1.91ZM91 50.83c-.05 3.27 1.13 5.75 3.78 7.51 1.48-.71 2.91-1.39 4.44-2.12-1.72-2.19-1.82-4.69-2.01-7.24-2.22.28-4.18.95-6.2 1.85ZM52.41 69.57c.56 1.14 1.11 2.02 1.42 2.98.35 1.05 1.03 1.41 2.04 1.46 1.97.09 3.85-.29 5.65-1.07.42-.18.78-.51 1.24-.82-.79-1.81-1.31-3.59-2.4-5.22-2.37 1.71-4.93 2.58-7.95 2.67m30.64-.01c-3.01-.07-5.6-.99-8.08-2.75-.79 1.84-1.52 3.55-2.32 5.42 2.57 1.45 5.09 2.11 7.86 1.6.28-.05.62-.28.75-.52.61-1.18 1.16-2.4 1.79-3.75m-41.1-10.53c.86.62 1.62 1.11 2.31 1.69.63.53 1.18.55 1.89.13 2.37-1.41 3.91-3.44 4.85-6.07-1.63-1.33-3.28-2.44-5.4-3.37.01 3.25-1.27 5.66-3.65 7.62m42.58-4.17c1.07 2.95 2.85 5.18 5.82 6.45 1.04-.74 2.06-1.46 3.19-2.26-2.46-2.03-3.6-4.5-3.75-7.44-1.63.49-3.55 1.67-5.26 3.25M70.96 78.14c2.33 1.81 4.81 2.35 7.54 1.9.28-.05.7-.25.76-.47.42-1.41.76-2.84 1.16-4.39-2.97.22-5.59-.41-8.17-1.73-.45 1.63-.84 3.07-1.29 4.69m-7.73-4.78c-2.63 1.6-5.33 1.89-8.17 1.92.44 1.66.84 3.14 1.22 4.56 3.03.81 6.13.13 8.18-1.83-.38-1.42-.77-2.91-1.24-4.65ZM79.5 59.54c1.82 2.77 4.02 4.59 7.18 5.18.78-.82 1.56-1.63 2.42-2.53-2.64-1.44-4.37-3.69-5.68-6.64l-3.92 3.98Zm-33.18 2.68c.77.78 1.41 1.5 2.13 2.13.23.2.7.31 1 .23 2.85-.73 4.89-2.5 6.63-5.17l-4.1-3.66c-1.19 2.68-2.92 4.97-5.66 6.47m39.17 3.76c-1.31-.75-2.61-1.32-3.7-2.17-1.12-.87-2.03-2.01-3.18-3.17-1.08 1.74-2.05 3.32-3 4.85 1.38 1.4 3.15 2.26 5.26 2.64 2.64.47 3.16.25 4.6-2.02.02-.04.01-.1.01-.13Zm-25.53-.37c-1.08-1.72-2.07-3.28-3.17-5.03-1.9 2.53-3.98 4.4-7.05 5.24.61.83 1.06 1.48 1.56 2.09.15.18.45.32.68.33 2.89.15 5.5-.6 7.97-2.64Zm38.56-16.86c-.06 2.72.17 5.08 2.02 7.06 1.23-.3 2.46-.59 3.55-.85 0-1.15-.1-2.16.03-3.15.13-.97.5-1.92.77-2.93-2.12-.42-4.18-.4-6.38-.13Zm-67.92.2c.28 1.03.65 1.94.77 2.89.13.99.03 2.01.03 3.13 1.15.27 2.39.55 3.59.83 1.8-2.08 2.06-4.44 2.03-6.87-1.64-.5-4.3-.48-6.42.01Zm34.1 30.64c-2.65 1.61-5.3 2.07-8.26 1.73.13 1.21.25 2.26.36 3.32 3.28 1.64 5.99.45 8.72-1.34-.27-1.22-.52-2.36-.82-3.7Zm14.32 1.7c-3.03.44-5.68-.21-8.26-1.67-.28 1.35-.52 2.5-.77 3.74 2.35 1.39 4.59 2.64 7.37 1.8 1.37-.41 1.37-.4 1.5-1.88.05-.59.1-1.17.16-1.99M24.11 50.43c.35 1.48.65 2.76.97 4.16h4.75c.8-1.99.41-3.75-.82-5.56-1.7.49-3.33.95-4.91 1.4Zm82.32-1.41c-1.21 1.97-1.56 3.73-.74 5.55h4.68c.36-1.43.68-2.71 1.05-4.15-1.62-.46-3.25-.91-4.98-1.4Zm11.78 4.77c-1.88-.99-3.62-1.89-5.36-2.81-.91 1.22-1.2 2.37-.91 3.73 1.78.34 3.55.67 5.33 1 .31-.63.56-1.15.94-1.93Zm-94.55.89c.09-1.43-.11-2.59-1.1-3.69-1.76.94-3.49 1.87-5.29 2.83.39.75.67 1.31.97 1.9 1.81-.34 3.54-.68 5.42-1.04m49.52 80.06c-2.05.29-3.73.72-5.42.72-1.73 0-3.45-.43-5.45-.71 1.25 2.12 3.18 2.4 5.08 2.46 2.13.07 4.27-.15 5.78-2.48Zm-56.9-80.19c-1.81 1.19-3.34 2.35-4.55 3.92 1.73-.78 3.45-1.57 5.27-2.39-.24-.5-.44-.92-.72-1.53m102.25 1.56c1.92.87 3.68 1.67 5.44 2.47.05-.08.1-.16.15-.25-1.57-1.25-3.14-2.49-4.9-3.88-.3.73-.49 1.18-.69 1.66" class="st1" fill="none" stroke="#BDAC82" stroke-width="1.5" stroke-linecap="round" stroke-linejoin="round"/><path d="M50.76 98.02c.66.11 1.29.11 1.84.32 3.74 1.43 6.36 4.1 8.17 7.61.34.66.65 1.36.86 2.08.08.27-.19.63-.29.95-.26-.14-.68-.21-.76-.42-.29-.79-.98-.92-1.61-1.18-2.75-1.12-5.04-2.85-6.75-5.29-.9-1.28-1.25-2.21-1.45-4.07Zm8.2 7.76c-1.2-2.82-4.27-5.56-6.71-6.06 1.49 3.01 3.7 4.97 6.71 6.06M84.8 98c-.23 1.73-.75 3.04-1.62 4.23-1.72 2.37-3.97 4.06-6.67 5.16-.64.26-1.32.41-1.61 1.19-.07.2-.5.28-.76.41-.11-.32-.4-.71-.3-.93.52-1.23 1.02-2.51 1.74-3.62 1.8-2.75 4.13-4.95 7.29-6.09.56-.2 1.18-.22 1.93-.35m-8.71 8c3.44-1.11 6.7-4.24 6.8-6.44-2.93 1.37-5.03 3.48-6.8 6.44m-2.18 18.69c-.23.3-.5 1-1 1.24-1.24.61-2.58 1.02-3.89 1.46-.17.06-.55-.14-.65-.32-.09-.17-.02-.57.13-.69 1.15-.96 2.31-1.93 3.54-2.78.93-.65 1.85-.2 1.88 1.1Zm-6.56 2.27c-.37.19-.68.48-.87.42-1.32-.42-2.63-.87-3.89-1.42-.38-.17-.75-.68-.86-1.1-.1-.4 0-1.05.27-1.29.26-.23.88-.17 1.3-.07.34.08.63.39.92.62.84.66 1.67 1.32 2.49 2.01.22.19.37.47.64.82Zm49.16-3.89c.28.29.55.58.83.88.13.14.28.27.35.44.05.12.02.34-.06.42-.08.07-.33.05-.41-.02-.31-.26-.57-.57-.86-.85-.11-.11-.23-.21-.43-.39-.04.25-.09.42-.09.59v3.88c0 .31.1.69-.35.79-.3.07-.45-.2-.46-.78v-3.56c0-.26 0-.52-.15-.88l-.82.82c-.13.13-.25.3-.4.39-.11.06-.34.08-.42 0-.08-.07-.11-.31-.05-.41.14-.23.33-.42.52-.62.23-.25.46-.49.82-.87h-2.59c-.24 0-.49.02-.72-.03-.12-.03-.29-.19-.29-.3s.13-.31.25-.34c.23-.07.48-.06.72-.06h2.4l.06-.18c-.43-.43-.86-.86-1.28-1.29-.21-.22-.59-.48-.26-.8s.57.06.8.27c.42.4.83.82 1.35 1.33.03-.35.07-.55.07-.75v-3.39c0-.35-.12-.81.39-.94.29-.07.41.22.41.97v4.1c.54-.34.82-.73 1.16-1.05.18-.16.32-.38.52-.5.15-.09.43-.14.56-.06.24.14.12.38-.04.55-.39.41-.8.8-1.2 1.2-.11.11-.2.24-.4.47.74.01 1.35.03 1.96.04.35 0 .7 0 1.05.02.24.01.52.04.53.37 0 .34-.28.35-.52.35h-2.88l-.06.18ZM19.55 80.65c.28.29.55.58.83.88.13.14.28.27.35.44.05.12.02.34-.06.42-.08.07-.33.05-.41-.02-.31-.26-.57-.57-.86-.85-.11-.11-.23-.21-.43-.39-.04.25-.09.42-.09.59v3.88c0 .31.1.69-.35.79-.3.07-.45-.2-.46-.78v-3.56c0-.26 0-.52-.15-.88l-.82.82c-.13.13-.25.3-.4.39-.11.06-.34.08-.42 0-.08-.07-.11-.31-.05-.41.14-.23.33-.42.52-.62.23-.25.46-.49.82-.87h-2.59c-.24 0-.49.02-.72-.03-.12-.03-.29-.19-.29-.3s.13-.31.25-.34c.23-.07.48-.06.72-.06h2.4l.06-.18c-.43-.43-.86-.86-1.28-1.29-.21-.22-.59-.48-.26-.8s.57.06.8.27c.42.4.83.82 1.35 1.33.03-.35.07-.55.07-.75v-3.39c0-.35-.12-.81.39-.94.29-.07.41.22.41.97v4.1c.54-.34.82-.73 1.16-1.05.18-.16.32-.38.52-.5.15-.09.43-.14.56-.06.24.14.12.38-.04.55-.39.41-.8.8-1.2 1.2-.11.11-.2.24-.4.47.74.01 1.35.03 1.96.04.35 0 .7 0 1.05.02.24.01.52.04.53.37 0 .34-.28.35-.52.35h-2.88l-.06.18Zm.79 58.91c.04-.94-.29-1.68-.95-2.27-.65-.58-1.4-.99-2.22-1.28-.15-.05-.32-.09-.45-.17-.28-.17-.27-.49.02-.63.17-.08.36-.09.54-.14.37-.09.75-.13 1.09-.27 1.12-.43 1.82-1.21 1.9-2.46.02-.27 0-.55.07-.8.04-.14.25-.32.38-.32.12 0 .32.2.35.34.08.31.08.64.11.96.11 1.27.92 1.95 2.03 2.34.33.11.68.15 1.02.23.28.06.65.04.67.44.02.35-.33.35-.57.47-.63.3-1.28.57-1.86.95-.97.63-1.5 1.52-1.4 2.72 0 .08.01.16.01.24 0 .25-.14.46-.38.4-.16-.03-.3-.25-.39-.41-.05-.1 0-.26.02-.35Zm-1.86-3.94c.79.69 1.54 1.35 2.23 1.96.73-.64 1.49-1.29 2.22-1.93-.38-.24-.82-.45-1.18-.74-.39-.32-.71-.71-1.06-1.07-.82 1.02-1.1 1.25-2.22 1.79Zm81.36-58.48c.04-.94-.29-1.68-.95-2.27-.65-.58-1.4-.99-2.22-1.28-.15-.05-.32-.09-.45-.17-.28-.17-.27-.49.02-.63.17-.08.36-.09.54-.14.37-.09.75-.13 1.09-.27 1.12-.43 1.82-1.21 1.9-2.46.02-.27 0-.55.07-.8.04-.14.25-.32.38-.32.12 0 .32.2.36.34.08.31.08.64.11.96.11 1.27.92 1.95 2.03 2.34.33.11.68.15 1.02.23.28.06.65.04.67.44.02.35-.33.35-.57.47-.63.3-1.28.57-1.86.95-.97.63-1.5 1.52-1.4 2.72 0 .08.01.16.01.24 0 .25-.14.46-.38.4-.16-.03-.3-.25-.39-.41-.05-.1 0-.26.02-.35Zm-1.86-3.95c.79.69 1.54 1.35 2.23 1.96.73-.64 1.49-1.29 2.22-1.93-.38-.24-.82-.45-1.18-.74-.39-.32-.71-.71-1.06-1.07-.82 1.02-1.1 1.25-2.22 1.79ZM40.24 131.6c-.27-.31-.43-.42-.47-.57-.06-.23 0-.48-.05-.72-.14-.68-.26-1.37-.47-2.03-.19-.58-.68-.95-1.22-1.23-.21-.11-.44-.21-.64-.34-.48-.32-.49-.67-.02-1.01.35-.25.73-.47 1.04-.75.86-.77 1.35-1.73 1.33-2.91v-.56c.02-.26.12-.52.43-.45.15.03.27.27.35.44.05.11 0 .26 0 .4-.01 1.53.68 2.68 1.9 3.54.13.09.28.16.41.26.6.41.62.84-.06 1.12-1.71.71-2.17 2.11-2.24 3.76 0 .19 0 .38-.05.56-.04.15-.13.28-.25.51Zm-.16-3.34c.37-.49.62-.91.95-1.24.32-.32.73-.57 1.02-.79-.69-.79-1.34-1.53-1.91-2.19q-.945 1.065-1.95 2.22c.81.44 1.52 1.03 1.89 2m74.41-21.36c0 .46-.37.83-.83.83s-.83-.37-.83-.83.37-.83.83-.83.83.37.83.83M28 88.92c0 .46-.37.83-.83.83s-.83-.37-.83-.83.37-.83.83-.83.83.37.83.83m-13.22-2.54c0 .46-.37.83-.83.83s-.83-.37-.83-.83.37-.83.83-.83.83.37.83.83" class="st1" fill="none" stroke="#BDAC82" stroke-width="1.5" stroke-linecap="round" stroke-linejoin="round"/><circle cx="30.51" cy="142.64" r=".83" class="st1" fill="none" stroke="#BDAC82" stroke-width="1.5" stroke-linecap="round" stroke-linejoin="round"/><path d="M35.9 56.49c0 .46-.37.83-.83.83s-.83-.37-.83-.83.37-.83.83-.83.83.37.83.83m73.43 23.7c0 .46-.37.83-.83.83s-.83-.37-.83-.83.37-.83.83-.83.83.37.83.83m-11.63 54.3c0 .46-.37.83-.83.83s-.83-.37-.83-.83.37-.83.83-.83.83.37.83.83m2.76-22.46c0 .46-.37.83-.83.83s-.83-.37-.83-.83.37-.83.83-.83.83.37.83.83" class="st1" fill="none" stroke="#BDAC82" stroke-width="1.5" stroke-linecap="round" stroke-linejoin="round"/></g></svg>