<svg xmlns="http://www.w3.org/2000/svg" id="sign-svg" viewBox="0 0 128.5201 198.64" width="128.5201" height="198.64" preserveAspectRatio="xMidYMid meet"><g id="sign-glyph" transform="translate(0.000 0.714) scale(0.949048)"><path d="M82.07 18.69c-.77-.61-1.25-1.38-1.46-2.37-.09-.4-.21-.78-.36-1.12-.54-1.2-1.54-1.62-2.74-1.16-.64.25-1.24.6-1.81.95l-.19.11c-.28.17-.55.36-.81.55-.19.14-.38.27-.57.4-.2.13-.82.53-1.03.44-.2-.09-.35-.8-.4-1.03-.11-.51-.24-1.1-.48-1.65-.36-.85-1.02-1.13-1.9-.81-.45.16-.89.41-1.29.71-.37.29-.73.61-1.07.92-.23.2-.45.41-.69.6l-.17.15c-.35.3-.71.61-1.1.84-.28.17-.41.18-.47.16s-.17-.11-.32-.44c-.09-.2-.17-.4-.25-.6-.12-.31-.25-.64-.41-.94-.57-1.09-1.49-1.59-2.6-1.39-.71.12-1.43.37-2.08.72-1.88 1.01-3.4 2.5-4.74 3.81-.17.16-.36.38-.34.65 0 .11.05.28.23.42.32.26.9.03.96 0 .18-.08.31-.21.42-.34.05-.05.09-.1.14-.14.26-.22.51-.44.77-.66.61-.54 1.25-1.09 1.91-1.58.76-.55 1.55-.99 2.34-1.32.88-.36 1.42-.12 1.83.82.08.18.15.37.22.56.09.25.19.49.3.73.28.58.64.96 1.1 1.12.45.15.96.09 1.52-.19.48-.24.91-.58 1.27-.88.29-.24.57-.5.85-.76q.39-.375.81-.72l.06-.05c.4-.34.78-.66 1.31-.81l.04.09c.1.24.2.48.27.73.06.2.09.4.13.6.03.19.07.38.11.57.19.75.54 1.24 1.04 1.47.49.23 1.08.18 1.76-.15.37-.18.7-.4 1.03-.62.16-.11.33-.22.49-.32.18-.11.36-.23.54-.35.45-.29.93-.6 1.41-.83.43-.21.72-.28.9-.2.19.08.35.36.5.86l.12.45c.05.21.1.43.17.63.34 1 .95 1.85 1.79 2.52.19.15.4.23.59.23.22 0 .42-.1.58-.29q.21-.24.18-.51c-.03-.29-.27-.48-.43-.61Z" class="st0" fill="none" stroke="#BDAC82" stroke-width="1.5" stroke-linecap="round" stroke-linejoin="round"/><path d="M79.45 23.28c-.13-.35-.25-.69-.32-1.03-.08-.36-.12-.72-.16-1.11-.04-.36-.08-.73-.15-1.08-.15-.74-.53-1.27-1.07-1.49-.53-.21-1.15-.11-1.75.3-.71.48-1.37 1.05-2.01 1.6l-.46.39c-.23.2-.45.41-.66.62-.22.22-.44.44-.68.64-.5.42-.69.45-.76.42-.07-.02-.21-.15-.4-.79-.08-.26-.14-.52-.2-.79-.1-.39-.2-.8-.33-1.19-.15-.45-.38-.73-.68-.86-.31-.13-.67-.1-1.11.1-.26.12-.53.28-.85.5-.33.23-.66.47-.99.71-.44.32-.89.64-1.34.95-.38.26-.8.53-1.22.71-.26.11-.37.11-.42.08-.05-.02-.13-.11-.23-.38-.07-.19-.11-.39-.16-.59-.04-.16-.07-.31-.12-.46l-.07-.24c-.09-.31-.18-.64-.32-.95-.28-.59-.68-.98-1.15-1.13s-1.01-.07-1.56.24c-1.42.79-2.46 2-3.47 3.16l-.37.43c-.2.23-.22.72-.04.96.15.2.33.25.45.26.28.04.5-.18.64-.33.15-.16.3-.32.45-.49.3-.33.61-.67.94-.98.64-.6 1.23-1.13 1.87-1.58.37-.26.55-.28.63-.26.09.03.23.16.4.65.05.14.08.29.12.43l.06.26.09.34c.07.28.14.57.24.84.21.59.54 1 .97 1.19q.63.285 1.47-.03c.6-.23 1.15-.58 1.67-.93q.69-.465 1.35-.96c.3-.22.61-.44.91-.66.15-.11.31-.19.5-.29l.02.09.22.78.12.43c.1.36.2.74.35 1.1.26.59.63.98 1.09 1.12.46.15.98.05 1.52-.29.43-.26.8-.6 1.17-.93l.3-.27c.3-.26.59-.52.88-.79.48-.44.97-.88 1.47-1.29l.15-.13c.32-.29.5-.41.72-.3.19.09.22.28.25.66 0 .12.02.24.04.35l.06.35c.14.84.29 1.71.48 2.57.07.32.27.66.55.93.12.12.32.17.52.17.16 0 .32-.04.43-.1.3-.17.26-.69.2-.89-.08-.26-.17-.52-.26-.77ZM35.38 198.64h-1.7l-2.29-14.11-2.02 14.11h-1.7l2.38-15.29h2.68l2.63 15.29Zm-1.74-5.34v1.45h-4.28v-1.45zm7.47-7.74v9.63h-1.67v-9.91c0-.65.16-1.14.48-1.46s.81-.48 1.46-.48h1.33v1.45h-.84c-.31 0-.52.04-.61.14q-.15.135-.15.63m0 8.18v2.68c0 .31.05.52.15.61s.3.15.61.15h.76v1.45h-1.25c-.66 0-1.14-.16-1.46-.48s-.48-.81-.48-1.46v-2.95zm.98 4.01h1.65l2.16 3.27h-1.67zm2.07-1.33v-2.48h1.67v2.75c0 .66-.16 1.14-.48 1.46s-.81.48-1.46.48h-1.5v-1.45h1.01q.495 0 .63-.15c.135-.15.14-.3.14-.61Zm0-1.25v-9.61c0-.33-.05-.54-.14-.63s-.3-.14-.63-.14h-.84v-1.45h1.33c.66 0 1.14.16 1.46.48s.48.81.48 1.46v9.88h-1.67Zm8.31-11.82v13.08c0 .31.05.52.15.61.1.1.3.15.61.15h.76v1.45h-1.25c-.66 0-1.14-.16-1.46-.48s-.48-.81-.48-1.46v-13.35zm3.04 13.07v-13.08h1.67v13.35c0 .66-.16 1.14-.48 1.46s-.81.48-1.46.48h-1.5v-1.45h1.01q.495 0 .63-.15c.09-.1.13-.3.13-.61m13.47 2.22h-1.7l-2.29-14.11-2.02 14.11h-1.7l2.38-15.29h2.68l2.63 15.29Zm-1.74-5.34v1.45h-4.28v-1.45zm10.64-3.27v-4.47c0-.33-.05-.54-.14-.63s-.3-.14-.63-.14h-3.96v-1.45h4.45c.66 0 1.14.16 1.46.48s.48.81.48 1.46v5.01c0 .66-.16 1.14-.48 1.46s-.81.48-1.46.48h-3.44v-1.45h2.95q.495 0 .63-.15c.09-.1.14-.3.14-.61Zm-4.72-6.68h1.67v15.29h-1.67zm2.9 8.26h1.75l2.53 7.03h-1.82zm8.75-8.26h1.67v15.29h-1.67zm8.68 0v13.08c0 .31.05.52.15.61.1.1.3.15.61.15h.76v1.45h-1.25c-.66 0-1.14-.16-1.46-.48s-.48-.81-.48-1.46v-13.35zm3.05 13.07v-13.08h1.67v13.35c0 .66-.16 1.14-.48 1.46s-.81.48-1.46.48h-1.5v-1.45h1.01q.495 0 .63-.15c.09-.1.13-.3.13-.61m10.76 0v-4.18c0-.33-.05-.54-.14-.63s-.3-.13-.63-.13h-1.67c-.66 0-1.14-.16-1.46-.48s-.48-.81-.48-1.46v-4.25c0-.65.16-1.14.48-1.46s.81-.48 1.46-.48h2.16c.66 0 1.14.16 1.46.48s.48.81.48 1.46v2.36h-1.7v-2.09c0-.33-.05-.54-.14-.63s-.3-.14-.63-.14h-1.13c-.31 0-.52.04-.62.14q-.15.135-.15.63v3.71c0 .31.05.52.15.61.1.1.3.15.62.15h1.67c.66 0 1.14.16 1.46.48s.48.81.48 1.46v4.72c0 .66-.16 1.14-.48 1.46s-.81.48-1.46.48h-2.14c-.66 0-1.14-.16-1.46-.48s-.48-.81-.48-1.46v-2.36h1.7v2.09c0 .31.05.52.15.61.1.1.3.15.61.15h1.11q.495 0 .63-.15c.135-.15.14-.3.14-.61Z" class="st0" fill="none" stroke="#BDAC82" stroke-width="1.5" stroke-linecap="round" stroke-linejoin="round"/><path d="M68.65 37.68c-10.39 0-18.84-8.45-18.84-18.84S58.26 0 68.65 0s18.84 8.45 18.84 18.84-8.45 18.84-18.84 18.84m0-36.21c-9.57 0-17.36 7.79-17.36 17.36s7.79 17.36 17.36 17.36 17.36-7.79 17.36-17.36S78.23 1.47 68.65 1.47" class="st1" fill="none" stroke="#BDAC82" stroke-width="1.5" stroke-linecap="round" stroke-linejoin="round"/><path d="M13.46 172.44h110.39v1.6H13.46z" class="st0" fill="none" stroke="#BDAC82" stroke-width="1.5" stroke-linecap="round" stroke-linejoin="round"/><path d="M67.76 80.69c-.5 1.12-1.11 2.2-1.46 3.36-.44 1.47.16 2.08 1.63 1.66 1.01-.29 2.03-.69 2.92-1.26 4.77-3.06 8.19-7.27 10.22-12.56.26-.67.45-1.39.54-2.11.12-1.02-.36-1.49-1.38-1.38-1.45.16-2.65.87-3.69 1.85-.45.42-.84.9-1.32 1.29-.17.14-.66.19-.72.1-.15-.23-.28-.63-.18-.86.85-1.98 4.64-4 6.77-3.68.92.14 1.49.71 1.97 1.43 1.15 1.74 2.42 3.36 4.06 4.68 3.39 2.72 7.39 3.92 11.55 4.71 1.49.28 3 .4 4.48.71 8.07 1.67 14.13 6.1 17.83 13.5 1.72 3.44 2.19 7.28 2.85 11.04.04.21 0 .45-.03.66-.02.1-.11.19-.18.31-.89.26-.99-.39-1.12-1.01-.36-1.81-.67-3.64-1.08-5.44-2.17-9.52-8.42-15.03-17.55-17.56-2.26-.62-4.65-.73-6.95-1.21-4.22-.9-8.2-2.36-11.4-5.42-.88-.84-1.68-1.77-2.54-2.68-4.07 9.06-7.31 12.8-13.98 16.06.42.34.77.66 1.16.92 3.15 2.12 5.21 5.04 6.39 8.62.79 2.39 1.62 4.78 2.34 7.19 2.37 7.89 11.24 17.18 23.43 17.12.73 0 1.46 0 2.19.03.52.02 1.13.1 1.04.77-.03.24-.66.56-1.01.56-4.4.01-8.76-.31-12.79-2.33-6.92-3.47-11.87-8.72-14.29-16.19-.74-2.29-1.5-4.58-2.23-6.88-1.41-4.45-4.38-7.53-8.52-9.47-1.85-.86-2.11-2.04-1.58-3.65.24-.74.61-1.44.92-2.16.36-.83.96-1.03 1.77-.69l-.06-.04Zm-52.38 52.02c-.84.71-1.15.73-1.61.06-.84-1.23-.79-2.54-.14-3.83.62-1.23 1.66-1.79 3.01-1.77.49 0 .98.14 1.58.24.46-2.05.82-4.11 2.46-5.59 1.67-1.52 3.72-1.67 5.9-1.54.2-.56.39-1.07.56-1.59 2.66-7.81 9.4-12.38 17.61-11.71 5.53.45 9.42 3.57 12.18 8.22.66 1.1 1.16 2.3 1.69 3.47.28.62.64.95 1.38.98 3.14.11 5.65 1.62 7.89 3.71 2.35 2.19 3.89 4.89 4.9 8.06.36-.18.65-.31.91-.47 2.2-1.31 4.51-1.01 6.27.84 1.27 1.33 1.79 2.96 1.75 4.76 0 .31-.29.84-.51.88-.56.11-.68-.39-.78-.86-.21-.98-.3-2.02-.73-2.9-1.37-2.8-4.62-2.88-6.23-.86-.89 1.11-1.24 1-1.75-.36-.3-.79-.54-1.59-.84-2.38-.79-2.01-1.95-3.78-3.47-5.31-3.87-3.9-7.71-4.82-13.21-2.69-4.93 1.91-8.1 5.48-9.45 10.63-.23.88-.24.87-1.13 1.6-.07-.53-.24-.94-.16-1.3 1.02-4.73 3.43-8.53 7.71-10.9 1.65-.91 3.51-1.42 5.28-2.1.31-.12.63-.19.94-.28-1.77-6.45-7.52-11.7-14.39-11.51-7.35.21-13.68 5.34-15.04 12.4.55.42 1.17.8 1.7 1.3 2.29 2.15 2.76 4.91 2.5 7.88-.04.46-.26.97-.82.81-.25-.07-.5-.55-.53-.86-.06-.84.05-1.68 0-2.52-.19-2.99-2.21-5.2-5.07-5.62-2.36-.35-4.53.83-5.44 3.03-.54 1.3-.95 2.63-.7 4.09.05.28-.02.74-.2.86-.2.13-.61 0-.9-.09-.2-.07-.34-.29-.52-.42-1.06-.77-2.13-.77-2.88 0-.82.84-.92 2.09-.23 3.07.15.22.34.4.52.6Z" class="st1" fill="none" stroke="#BDAC82" stroke-width="1.5" stroke-linecap="round" stroke-linejoin="round"/><path d="M74.95 74.41c-.53-.25-.93-.37-1.25-.6-7.75-5.7-16.07-6.27-24.82-2.75-4.81 1.93-8.87 5.01-12.51 8.64-5.76 5.76-11 11.96-15.68 18.64-.26.37-.47.78-.79 1.08-.2.19-.56.22-.85.32-.06-.35-.18-.7-.17-1.04 0-.19.2-.39.33-.57 5.76-8.11 11.98-15.83 19.54-22.35 4.48-3.86 9.58-6.65 15.46-7.73 7.12-1.3 13.71 0 19.6 4.32.55.4 1.33.72 1.14 2.05Z" class="st1" fill="none" stroke="#BDAC82" stroke-width="1.5" stroke-linecap="round" stroke-linejoin="round"/><path d="M59.51 72.89c-3.6.12-7.38 1.34-10.77 3.73-3.43 2.42-6.27 5.41-8.7 8.82-3.04 4.27-5.29 8.97-7.5 13.69-.45.96-.85 1.95-1.37 2.88-.14.26-.6.34-.91.5-.09-.34-.2-.68-.27-1.02-.02-.09.08-.21.12-.31 2.85-6.15 5.62-12.35 9.77-17.79 2.33-3.05 5.01-5.74 8.18-7.93 7.91-5.47 16.83-4.82 24.7-.12.33.2.65.45.89.76.14.18.19.57.08.73-.1.15-.5.21-.71.14-.31-.1-.56-.36-.84-.54-3.28-2.11-8.21-3.54-12.67-3.54" class="st1" fill="none" stroke="#BDAC82" stroke-width="1.5" stroke-linecap="round" stroke-linejoin="round"/><path d="M67.82 80.73c-.92-.53-1.8-1.13-2.76-1.58-1.37-.65-2.79-.57-3.98.37-1.04.82-2.08 1.74-2.84 2.82-2.08 2.98-2.96 6.37-2.91 10.01.06 4.42 1 8.69 2.36 12.86.8 2.45 1.8 4.83 2.71 7.25.18.47.38.94.46 1.43.03.2-.16.58-.34.65-.17.07-.48-.14-.68-.28-.12-.09-.15-.29-.22-.45-2.44-5.62-4.56-11.35-5.33-17.48-.61-4.78-.34-9.41 2.16-13.7.91-1.57 2.01-2.97 3.51-4.02 1.86-1.3 3.87-1.54 5.89-.56 1.45.7 2.78 1.67 4.15 2.53.23.15.5.34.59.58.1.26.09.63-.03.87-.05.11-.54.15-.72.05-.72-.42-1.4-.92-2.09-1.38l.06.05Z" class="st1" fill="none" stroke="#BDAC82" stroke-width="1.5" stroke-linecap="round" stroke-linejoin="round"/><path d="M71.86 79.54c-.55.4-.93-.03-1.36-.25-1.58-.83-3.14-1.74-4.78-2.45-4.19-1.84-7.98-1.1-11.36 1.96-2.54 2.29-4.46 5.02-5.87 8.13-2.08 4.58-3.21 9.43-4.13 14.35-.13.72-.25 1.44-.47 2.13-.08.23-.48.36-.74.53-.16-.26-.48-.55-.44-.78.16-1.22.41-2.43.64-3.64.85-4.36 1.93-8.64 3.73-12.72 1.49-3.38 3.51-6.37 6.25-8.88 3.83-3.51 8.14-4.33 12.9-2.24 1.74.76 3.37 1.76 5.03 2.68.42.23.9.54.59 1.19Zm2.75 48.74c-.38-1.87 1.03-3.27 4.36-4.75-.4-3.79-3.45-7.07-7.8-8.2-4.18-1.08-7.97-.32-11.14 2.8-.75-.65-.54-1.16-.05-1.51 1.09-.77 2.15-1.67 3.37-2.16 5.46-2.19 13.86-.36 16.45 6.87.23.63.54 1.22.84 1.9.38.06.76.12 1.13.18 3 .44 5.3 1.99 7.07 4.4.13.18.28.38.31.58.03.19-.04.48-.17.59s-.47.17-.6.08c-.36-.25-.64-.61-.97-.9-.87-.78-1.65-1.71-2.63-2.31-3.33-2.03-6.4-1.52-9.05 1.35-.29.31-.61.59-1.11 1.06Zm25.82-8.18c-.05-.13-.18-.34-.19-.55-.02-.2.02-.48.15-.59.25-.21.57-.35.87-.49 8.56-3.94 14.36-10.33 17.27-19.32.22-.69.42-1.4.72-2.06.11-.25.49-.37.74-.56.16.32.34.62.45.96.05.13-.06.32-.11.48-2.77 9.62-8.49 16.79-17.57 21.17-.65.31-1.34.56-2.33.97Zm-1.92-40.25c0 .46.1.96-.02 1.39-2.57 9.43-8.01 16.54-16.89 20.88-.4.2-.81.41-1.25.49-.27.05-.58-.12-.88-.19.12-.27.18-.6.37-.81.18-.19.49-.26.74-.38 8.29-3.95 13.55-10.46 16.27-19.14.17-.53.27-1.1.49-1.6.14-.31.46-.54.7-.8.15.06.3.11.45.17Zm25.08 25.73c-.25.84-.44 1.61-.72 2.34-2.4 6.3-6.75 10.75-12.87 13.51-.4.18-.84.29-1.28.35-.16.02-.43-.18-.5-.34-.06-.16 0-.5.13-.59.35-.26.76-.46 1.17-.65 5.46-2.53 9.53-6.45 11.91-12.02.37-.87.57-1.82.93-2.69.12-.28.51-.45.77-.66.15.26.31.52.45.76Zm-53.47 29.67c-.02 1.79-1.35 3.43-3.15 3.88-1.88.47-3.56-.26-4.4-1.91-.85-1.68-.45-3.56 1.04-4.85.13-.11.26-.21.4-.31 1.14-.78 2.38-1.45 3.75-.77 1.57.79 2.37 2.16 2.36 3.96m-1.29-.05c-.1-1.23-.62-2.15-1.69-2.74-1.01-.56-1.67.21-2.42.62-.19.1-.35.27-.5.44-.93.98-1.08 2.09-.44 3.2.59 1.04 1.65 1.45 2.87 1.12 1.18-.31 2.18-1.53 2.17-2.63Zm-42.3-20.34c-.03 1.94-2.07 3.85-4.01 3.76-2.07-.09-4.06-2.21-4-4.26.05-1.72 1.7-3.4 3.34-3.41 2.89 0 4.72 1.52 4.68 3.91Zm-1.33-.09c0-1-.62-1.9-1.56-2.15-.54-.15-1.1-.23-1.66-.26-1.4-.09-2.46 1.14-2.14 2.5.26 1.11.94 1.9 2.03 2.28 1.47.52 3.33-.82 3.32-2.37Zm75.37-29.44c.33-.81.92-.68 1.43-.51 1.63.57 3.29 1.1 4.85 1.82 3.78 1.75 7.01 4.37 10.33 6.84.18.13.39.29.45.48.08.23.11.59-.02.75-.12.15-.52.21-.72.13-.35-.14-.65-.42-.97-.65-1.99-1.44-3.95-2.93-5.99-4.31-2.56-1.73-5.27-3.16-8.3-3.91-.27-.07-.53-.18-.78-.3-.09-.04-.14-.17-.28-.35Zm2.81 28.88c-.49.31-.74.58-1 .59-.31 0-.63-.2-.92-.37-4.95-2.9-9.61-6.17-13.43-10.52-.36-.41-1.27-.86-.67-1.47.71-.71 1.17.26 1.56.69 3.75 4.1 8.25 7.2 12.99 10.02.45.27.85.62 1.46 1.07ZM91.72 98.92c.46-.18.77-.41 1-.35.36.09.67.38.99.6 4.41 3.16 8.81 6.32 13.21 9.48.32.23.67.43.91.72.14.17.18.57.07.74-.1.16-.49.25-.71.2-.31-.07-.61-.27-.88-.47-4.52-3.29-9.04-6.58-13.54-9.88-.34-.25-.61-.6-1.05-1.06Z" class="st1" fill="none" stroke="#BDAC82" stroke-width="1.5" stroke-linecap="round" stroke-linejoin="round"/><path d="M112.39 105.25c-.56.27-.85.54-1.14.52-.3-.02-.59-.29-.87-.47l-14.05-9.49c-.37-.25-.89-.5-.46-1 .15-.18.74-.17 1.02-.04.8.39 1.57.87 2.31 1.36 3.9 2.62 7.8 5.25 11.69 7.89.44.3.84.68 1.51 1.22Zm3.07-5.48c-.25.14-.54.44-.75.39-.42-.1-.81-.36-1.17-.6-2.14-1.43-4.21-2.99-6.44-4.28-2.42-1.39-4.98-2.53-7.49-3.78-.25-.12-.57-.15-.76-.33-.17-.16-.34-.5-.28-.68.06-.17.43-.37.64-.34.49.07.99.22 1.44.44 2.41 1.18 4.88 2.27 7.2 3.61 2.32 1.35 4.49 2.96 6.72 4.45.37.24.77.44 1.15.66-.09.15-.18.3-.26.46m-31.88 5.88c.35.27.61.4.76.6 3.09 4.52 7.53 7.28 12.37 9.51.2.09.41.18.61.29.41.22.89.53.55 1.01-.16.22-.84.29-1.16.15-4.9-2.11-9.3-4.95-12.64-9.2a5.6 5.6 0 0 1-.83-1.45c-.07-.2.18-.52.34-.91m-10.44.4c.94-.03 1.93 1.02 1.98 2.1.06 1.07-.7 1.8-1.92 1.85-1.17.04-2.13-.76-2.21-1.84-.08-1.09.91-2.07 2.14-2.11Zm.69 2.36c-.12-.64-.28-1.22-1.01-1.04-.22.06-.54.68-.45.89.27.63.8.67 1.46.15m-43.87.82c-.04 1.09-.85 1.82-2 1.78-1.08-.04-1.82-.79-1.79-1.79.03-1.01 1.26-2.02 2.35-1.94.82.06 1.47.95 1.44 1.96Zm-1.67-.79c-.34.31-.63.48-.76.73-.05.1.32.57.4.54.27-.09.57-.27.71-.51.07-.11-.18-.42-.35-.77Zm34.88 20.97c-1.1 0-1.98-.82-1.95-1.83.03-1.02.85-1.71 2.05-1.71 1.01 0 1.92.92 1.88 1.92-.03.87-.95 1.63-1.99 1.63Zm.66-1.69c-.27-.65-.65-.79-1.14-.4-.1.08-.13.45-.03.55q.525.585 1.17-.15M27.05 62.58c.25.27.51.53.75.8.12.13.25.25.32.4.04.11.02.31-.05.38-.07.06-.3.05-.38-.02-.28-.24-.52-.52-.78-.78-.1-.1-.21-.19-.39-.35-.04.23-.08.38-.08.54v3.54c0 .28.09.63-.32.72-.27.06-.41-.18-.42-.71v-3.24c0-.24 0-.48-.14-.8l-.75.75c-.12.12-.22.28-.37.36-.1.06-.31.07-.38 0-.07-.06-.1-.28-.04-.37.12-.21.31-.38.47-.56.21-.23.42-.45.75-.8h-2.36c-.22 0-.45.02-.66-.03-.11-.02-.26-.17-.27-.27 0-.1.12-.28.22-.31.21-.06.44-.06.66-.06h2.19c.02-.05.04-.11.06-.16-.39-.39-.78-.78-1.16-1.18-.2-.2-.54-.43-.24-.73.3-.29.52.05.73.25.38.37.76.75 1.23 1.22.03-.32.06-.5.06-.68V57.4c0-.32-.11-.74.35-.85.27-.07.37.2.37.89v3.73c.49-.31.75-.67 1.06-.95.16-.15.29-.35.48-.45.14-.08.39-.12.51-.05.22.13.11.35-.03.5-.36.37-.73.73-1.09 1.1-.1.1-.18.21-.36.43.67.01 1.23.02 1.78.03.32 0 .64 0 .96.02.22.01.48.04.48.33 0 .31-.25.32-.48.32H27.1c-.02.06-.03.11-.05.17Zm71.15 8.77c.04-.86-.26-1.53-.86-2.07-.59-.53-1.28-.9-2.03-1.16-.14-.05-.29-.08-.41-.15-.25-.15-.25-.45.02-.57.15-.07.33-.09.5-.13.33-.08.68-.12 1-.24 1.02-.4 1.66-1.11 1.73-2.24.02-.24 0-.5.06-.73.04-.13.23-.29.35-.29.11 0 .29.18.32.31.07.28.08.58.1.87.1 1.16.84 1.78 1.85 2.14.3.1.62.14.93.21.25.06.59.04.61.4.02.32-.31.32-.52.43-.57.28-1.16.52-1.69.86-.88.57-1.37 1.39-1.28 2.48 0 .07.01.15 0 .22 0 .23-.13.42-.35.37-.14-.03-.28-.22-.36-.37-.05-.09 0-.24.02-.32Zm-1.7-3.59c.72.63 1.4 1.23 2.03 1.78l2.03-1.76c-.35-.21-.74-.41-1.08-.68-.35-.29-.64-.65-.96-.98-.75.93-1 1.14-2.02 1.64m10.47-8.8c-.24-.28-.4-.38-.43-.52-.06-.21 0-.44-.05-.66-.13-.62-.23-1.25-.43-1.85-.18-.53-.62-.87-1.11-1.13-.2-.1-.4-.19-.58-.31-.44-.29-.45-.61-.02-.92.32-.23.66-.43.95-.69.79-.7 1.23-1.58 1.21-2.65v-.51c.02-.24.11-.48.39-.41.13.03.25.25.32.4.05.1 0 .24 0 .36-.01 1.39.62 2.44 1.73 3.22.12.08.25.15.37.23.55.37.56.76-.06 1.02-1.56.65-1.98 1.92-2.04 3.43 0 .17 0 .35-.04.51-.03.13-.12.26-.22.46Zm-.15-3.05c.33-.44.56-.83.87-1.13.29-.3.66-.52.93-.72-.63-.72-1.22-1.39-1.75-1.99-.57.65-1.16 1.32-1.78 2.02.74.4 1.39.94 1.73 1.83Zm-5.94 83.89c-.24-.28-.4-.38-.43-.52-.06-.21 0-.44-.05-.66-.13-.62-.23-1.25-.43-1.85-.18-.53-.62-.87-1.11-1.13-.2-.1-.4-.19-.58-.31-.44-.29-.45-.61-.02-.92.32-.23.66-.43.95-.69.79-.7 1.23-1.58 1.21-2.65v-.51c.02-.24.11-.48.39-.41.13.03.25.25.32.4.05.1 0 .24 0 .36-.01 1.39.62 2.44 1.73 3.22.12.08.25.15.37.23.55.37.56.76-.06 1.02-1.56.65-1.98 1.92-2.04 3.43 0 .17 0 .35-.04.51-.03.13-.12.26-.22.46Zm-.14-3.05c.33-.44.56-.83.87-1.13.29-.3.66-.52.93-.72-.63-.72-1.22-1.39-1.75-1.99-.57.65-1.16 1.32-1.78 2.02.74.4 1.39.94 1.73 1.83Zm-2.22-88.51a.749.749 0 1 1-1.498.002.749.749 0 0 1 1.498-.002m19.69 18.8a.749.749 0 1 1-1.498.002.749.749 0 0 1 1.498-.002m-9.06 75.89a.749.749 0 1 1-1.498.002.749.749 0 0 1 1.498-.002m-20.4-.75a.749.749 0 1 1-1.498.002.749.749 0 0 1 1.498-.002m-61.47-.75a.749.749 0 1 1-1.498.002.749.749 0 0 1 1.498-.002m-5.3-60.66a.749.749 0 1 1-1.498.002.749.749 0 0 1 1.498-.002" class="st1" fill="none" stroke="#BDAC82" stroke-width="1.5" stroke-linecap="round" stroke-linejoin="round"/><circle cx="12.33" cy="58.7" r=".75" class="st1" fill="none" stroke="#BDAC82" stroke-width="1.5" stroke-linecap="round" stroke-linejoin="round"/></g></svg>