<svg xmlns="http://www.w3.org/2000/svg" id="sign-svg" viewBox="0 0 128.5201 198.64" width="128.5201" height="198.64" preserveAspectRatio="xMidYMid meet"><g id="sign-glyph" transform="translate(0.000 0.714) scale(0.949048)"><path d="M44.82 190.28v-4.72c0-.33-.05-.54-.14-.63s-.3-.14-.63-.14h-3.96v-1.45h4.45c.66 0 1.14.16 1.46.48s.48.81.48 1.46v5.26c0 .66-.16 1.14-.48 1.46s-.81.48-1.46.48H41.1v-1.45h2.95q.495 0 .63-.15c.135-.15.14-.3.14-.61Zm-4.72-6.93h1.67v15.29H40.1zm11.18 0h1.67v15.29h-1.67zm11.08 13.07v-4.18c0-.33-.05-.54-.14-.63s-.3-.13-.63-.13h-1.67c-.66 0-1.14-.16-1.46-.48s-.48-.81-.48-1.46v-4.25c0-.65.16-1.14.48-1.46s.81-.48 1.46-.48h2.16c.66 0 1.14.16 1.46.48s.48.81.48 1.46v2.36h-1.7v-2.09c0-.33-.05-.54-.14-.63s-.3-.14-.63-.14h-1.13c-.31 0-.52.04-.62.14q-.15.135-.15.63v3.71c0 .31.05.52.15.61.1.1.3.15.62.15h1.67c.66 0 1.14.16 1.46.48s.48.81.48 1.46v4.72c0 .66-.16 1.14-.48 1.46s-.81.48-1.46.48h-2.14c-.66 0-1.14-.16-1.46-.48s-.48-.81-.48-1.46v-2.36h1.7v2.09c0 .31.05.52.15.61.1.1.3.15.61.15h1.11q.495 0 .63-.15c.135-.15.14-.3.14-.61Zm8.07-10.86v10.89c0 .31.05.52.15.61.1.1.3.15.61.15h.71v1.45h-1.23c-.66 0-1.14-.16-1.46-.48s-.48-.81-.48-1.46v-11.43c0-.65.16-1.14.48-1.46s.81-.48 1.46-.48h1.4v1.45h-.88c-.31 0-.52.04-.61.14q-.15.135-.15.63Zm2.87 2.31v-2.31c0-.33-.05-.54-.14-.63s-.3-.14-.63-.14h-.84v-1.45h1.35c.66 0 1.14.16 1.46.48s.48.81.48 1.46v2.58h-1.7Zm0 8.58v-2.31H75v2.58c0 .66-.16 1.14-.48 1.46s-.81.48-1.46.48h-1.35v-1.45h.84q.495 0 .63-.15c.09-.1.14-.3.14-.61Zm6.49-13.1h1.7v15.29h-1.7zm5.73 0v1.45h-4.65v-1.45zm-.74 6.61v1.45h-3.91v-1.45zm.91 7.23v1.45h-4.82v-1.45zm8.31-.77v-4.18c0-.33-.05-.54-.14-.63s-.3-.13-.63-.13h-1.67c-.66 0-1.14-.16-1.46-.48s-.48-.81-.48-1.46v-4.25c0-.65.16-1.14.48-1.46s.81-.48 1.46-.48h2.16c.66 0 1.14.16 1.46.48s.48.81.48 1.46v2.36h-1.7v-2.09c0-.33-.05-.54-.14-.63s-.3-.14-.63-.14h-1.13c-.31 0-.52.04-.62.14q-.15.135-.15.63v3.71c0 .31.05.52.15.61.1.1.3.15.62.15h1.67c.66 0 1.14.16 1.46.48s.48.81.48 1.46v4.72c0 .66-.16 1.14-.48 1.46s-.81.48-1.46.48h-2.14c-.66 0-1.14-.16-1.46-.48s-.48-.81-.48-1.46v-2.36h1.7v2.09c0 .31.05.52.15.61.1.1.3.15.61.15h1.11q.495 0 .63-.15c.135-.15.14-.3.14-.61Z" class="st0" fill="none" stroke="#BDAC82" stroke-width="1.5" stroke-linecap="round" stroke-linejoin="round"/><path d="M67.71 37.68c-10.39 0-18.84-8.45-18.84-18.84S57.32 0 67.71 0s18.84 8.45 18.84 18.84-8.45 18.84-18.84 18.84m0-36.21c-9.57 0-17.36 7.79-17.36 17.36s7.79 17.36 17.36 17.36 17.36-7.79 17.36-17.36S77.28 1.47 67.71 1.47" class="st1" fill="none" stroke="#BDAC82" stroke-width="1.5" stroke-linecap="round" stroke-linejoin="round"/><path d="M76.9 19.47h-2.04c-.17 0-.34-.02-.53-.04h-.02l.03-.62c.03-.63.06-1.24.11-1.84.16-1.81.69-3.58 1.2-5.3l.13-.43c.08-.24.16-.5.17-.77 0-.22-.12-.4-.23-.55-.03-.04-.07-.09-.09-.13l-.17-.3-.28.21s-.08.06-.13.08c-.14.08-.31.18-.4.36-.11.2-.16.41-.21.61l-.06.24c-.67 2.15-1.35 4.37-1.48 6.75l-.09 1.68H62.58v-.02c-.01-.22-.02-.43-.04-.63-.02-.25-.03-.5-.04-.75-.02-.59-.05-1.19-.18-1.78-.41-1.83-.91-3.68-1.39-5.46l-.15-.55c-.06-.22-.26-.34-.42-.43-.05-.03-.1-.06-.13-.09l-.28-.21-.17.31s-.06.09-.09.13c-.1.14-.22.32-.22.53 0 .24.06.45.13.66l.06.22c.12.5.25.99.38 1.49.29 1.12.6 2.29.81 3.44.16.85.33 1.97.23 3.2h-3.01c-.32 0-.55.08-.71.24-.09.09-.19.25-.19.51 0 .21.1.72.9.74h2.85c0 .12 0 .2-.03.27l-.15.54c-.32 1.12-.63 2.25-.98 3.36-.13.43-.3.84-.46 1.26-.12.3-.23.6-.34.9-.26.74.12 1.01.38 1.1a.72.72 0 0 0 .55-.01c.26-.12.39-.39.46-.59.18-.49.37-.98.56-1.47.53-1.37 1.08-2.79 1.36-4.28l.2-1.04H73c.23 2.01.93 3.81 1.6 5.56l.14.37c.04.09.07.19.1.29.08.24.16.48.3.71s.52.53.85.47c.19-.02.35-.12.45-.27.12-.19.14-.45.05-.72-.06-.2-.14-.39-.21-.59l-.43-1.16c-.29-.78-.58-1.56-.85-2.35-.29-.86-.45-1.61-.5-2.34.15 0 .27-.02.4-.02h.66c.43 0 .86 0 1.29-.01.07-.01.15 0 .23 0 .33.02.95.07 1.13-.65.06-.24-.01-.4-.09-.5-.18-.24-.54-.33-1.24-.34ZM12.52 172.44h110.39v1.6H12.52z" class="st0" fill="none" stroke="#BDAC82" stroke-width="1.5" stroke-linecap="round" stroke-linejoin="round"/><path d="M108.02 97.27c.37.72.74 1.44 1.12 2.15.57 1.09 1.2 2.15 1.7 3.26.38.85.33 1.69-.41 2.45-.28.29-.48.93-.37 1.3.43 1.42-.02 2.74-.29 4.07-.22 1.07-1.05 1.78-1.93 1.69-.46-.04-.91-.26-1.44-.43-.08.23-.17.45-.23.67-.54 2.01-1.34 3.93-2.5 5.65-1.35 1.99-1.91 4.18-2.12 6.52-.21 2.35-.42 4.71-.65 7.06-.38 3.76-1.4 7.34-3.12 10.71-.31.61-.66 1.23-1.13 1.71-.72.73-1.64.49-1.95-.49-.16-.5-.2-1.07-.18-1.6.03-.83.14-1.67.24-2.5.13-1.08.22-2.1-1.15-2.5-.24-.07-.41-.41-.61-.62-.33-.34-.62-.75-1.01-1.02-.83-.56-1.21-1.33-1.04-2.27.19-1.11.51-2.2.77-3.3.07-.3.11-.61.19-1.05-.63.36-1.09.64-1.57.88-1.59.81-3.25 1.42-5.06 1.5-.96.04-1.81-.22-2.06-1.27-.26-1.05-.98-1.4-1.93-1.51-.54-.06-1.08-.16-1.62-.17-2.6-.06-4.5-1.56-6.38-3.08-.59-.48-.61-1.14-.07-1.67.38-.37.86-.71 1.36-.85 1.27-.35 2.57-.69 3.88-.83 2.05-.22 4.13-.24 6.19-.39 3.26-.25 6.26-1.34 8.95-3.17 2.16-1.47 3.6-3.37 2.76-6.23-.15-.52-.21-1.06-.36-1.58-.13-.43-.34-.83-.63-1.54-.49.91-.8 1.51-1.12 2.11-.74 1.37-1.72 2.49-3.13 3.24-.54.28-.96.8-1.38 1.27-.43.47-.74 1.05-1.19 1.5-.2.2-.73.37-.88.25-.25-.2-.33-.62-.44-.96-.04-.12.04-.29.09-.43.45-1.34.43-2.71.3-4.09-.21-2.27-.18-4.52.41-6.75.38-1.43.1-2.82-.26-4.22-.29-1.12-1.33-1.38-2.06-1.99-.51-.42-1.07-.5-1.77-.38-.63.11-1.41-.02-1.98-.32-2.37-1.25-4.55-2.76-6.03-5.08-1.88-2.95-3.06-6.07-2.2-9.65.1-.41.09-.85.14-1.33-1.68.01-3.15.28-4.47 1.15-1.18.77-2.49 1.21-3.91 1.11-.37-.03-.93-.28-1.03-.56-.21-.56.38-.68.79-.83.73-.28 1.55-.44 2.18-.87 1.76-1.19 3.52-2.33 5.51-3.11.5-.19.92-.53 1-1.17.22-1.72.9-3.19 2.37-4.04-.04-2.1-.86-3.68-2.16-5.15-1-1.13-1.73-2.51-2.51-3.81-.16-.27-.2-.84-.03-1.05.36-.43.8-.15 1.13.18.55.56 1.02 1.22 1.64 1.7 2.11 1.63 3.54 3.81 4.93 6.02.2.32.48.59.72.88 1.63-.37 3.16-.72 4.7-1.07 1.71-.39 3.45-.45 5.11.13 1.85.64 3.67 1.4 5.44 2.25 1.29.62 2.67 1.5 3.08 2.85.54 1.78 1.98 2.46 3.15 3.52.66.59 1.37 1.15 1.9 1.85 1.29 1.73 2.97 2.49 5.11 2.39a5.63 5.63 0 0 1 3.86 1.25c2.05 1.65 4.39 2.57 6.92 3.16 2.83.65 5.29 2.1 7.58 3.85.3.23.42.7.62 1.06-.38.17-.75.36-1.13.51-.81.32-1.71.49-2.42.96-1.25.82-2.53 1.5-4.02 1.77-.57.11-1.13.35-1.67.58-2.51 1.08-5.03 1.26-7.6.21-.76-.31-1.57-.47-2.36-.7-.08.08-.16.16-.23.24ZM90.83 86.61c4.67-.13 9.22.53 13.66 1.99.47.15.93.3 1.4.45.04.01.1 0 .15 0-.14-2.58-4.19-7.72-7.46-9.42-1.85 1.88-4.37 2.43-6.8 3.22-1.64.53-3.23 1.17-4.87 1.71-.69.23-1.12.68-1.27 1.31-.25 1.04-.49 2.11-.52 3.18-.03 1.12.25 2.25.32 3.37.11 1.56.15 3.12.24 5.02.57.39 1.44 1 2.32 1.61 2.23 1.54 4.34 3.2 6.07 5.34 2.31 2.86 3.56 6.09 3.68 9.76.08 2.53-.2 5.01-1.02 7.42-.34 1-.62 2.03-.97 3.17 1.67-.91 5.41-4.89 6.84-7.29-.62.55-1.03.97-1.5 1.29-.2.13-.61.17-.79.04-.15-.11-.16-.51-.13-.76.03-.23.21-.44.32-.66 1.51-2.97 2.17-6.12 1.82-9.43-.68-6.56-3.28-12.22-8.24-16.66-1.27-1.14-2.81-1.97-4.23-2.95-.39-.27-.77-.55-1.23-.88.69-.97 1.49-.82 2.19-.84Zm-6.32-13.98c-1.58.36-3.16.74-4.75 1.06-.9.18-1.38.66-1.79 1.5-.59 1.22-1.38 2.37-2.21 3.45-.39.51-.55.98-.58 1.59-.05 1.08-.06 2.18-.31 3.23-.74 3.16.21 5.92 1.81 8.57 1.34 2.22 3.35 3.71 5.59 4.9 1.44.77 2.12.39 2.2-1.27.06-1.12-.14-2.25-.19-3.38-.07-1.67-.25-3.34-.14-5 .13-2.01 1.14-3.53 3.18-4.19 1.78-.58 3.56-1.15 5.32-1.75 1.12-.38 2.26-.73 3.3-1.26 2.21-1.11 2.35-2.23.21-4.34-3.23-2.13-6.98-4.2-11.65-3.13Zm12.09 19.2c.44.62.69.96.92 1.32 1.16 1.81 2.31 3.63 3.49 5.43.31.47.67.97 1.12 1.28 1.86 1.26 3.77 2.46 5.66 3.68.16.11.31.26.49.32.39.14.92.44 1.18.29.58-.32.36-.95.14-1.44-.31-.67-.67-1.31-1.03-1.95-.31-.56-.67-1.09-.98-1.64-.64-1.13-1.17-2.28-.19-3.59-3.38-1.84-6.83-3.08-10.81-3.7Zm20.71 3.33c1.79.97 3.5.67 5.13-.46.75-.52 1.54-1 2.44-1.59-2.56-2.07-5.22-3.5-8.5-3.34-.73.03-1.47.14-2.2.26-2.01.31-4.01.27-6.02-.17 2.75 2.35 6.06 3.63 9.15 5.31Zm-22.3-4.79c.22.15.56.17.85.19 3.98.39 7.66 1.71 11.21 3.5 1.22.62 2.52 1.08 3.8 1.59.27.11.57.12.83.17.3-1.08-.22-1.64-.73-2.15-1.26-1.26-2.69-2.32-4.34-3.01-4.6-1.9-9.4-2.87-14.38-2.97-.14 0-.28.05-.77.13 1.31.95 2.41 1.78 3.54 2.55Zm-2.88 29.99c-2.39 1.36-5.01 1.99-7.73 2.2-1.71.13-3.43.17-5.15.29-.93.07-1.87.15-2.77.35-.78.17-1.52.53-2.42.85.67.83 1.35 1.15 2.16 1.22 2.96.25 5.89.2 8.76-.67 3.88-1.19 7.51-2.87 10.69-5.45.53-.43.54-.43.54-1.26-1.35.82-2.69 1.68-4.08 2.46Zm4.66 21.37c1.41-2.84 2.38-5.83 2.76-8.98.42-3.46.74-6.93 1.13-10.61-.72.4-1.22.78-1.36 1.47-1.19 5.73-2.37 11.46-3.52 17.19-.14.69-.08 1.42-.12 2.13.11.04.23.07.34.11.26-.43.55-.85.77-1.3Zm6.51-37.78c1.8 1.62 2.96 3.65 3.75 5.92.15.43.44.81.81 1.48 1.5-2.04 1.21-3.96.79-5.96-2.12-1.21-3.9-3.03-6.41-4.08.17 1.1.31 1.97 1.06 2.64m-13.01 8.33c.2-.54.22-1.16.28-1.74.11-1.17.1-2.37.31-3.52.2-1.1.62-2.17.99-3.43-.8-.71-1.66-1.47-2.52-2.24-.09.03-.19.06-.28.1.54 2-.17 3.89-.29 5.82-.15 2.24.02 4.5.05 6.75l.48.15c.34-.62.75-1.22 1-1.88Zm-7.12 15.34c.28.05.59-.03.87-.09 3.27-.78 6.41-1.89 9.17-3.87.97-.7 2.04-1.36 2.52-2.91-5.3 3.44-10.68 5.92-16.88 6.05 1.44.28 2.87.57 4.32.83Zm24.06-39.42c3.01.98 5.03 1.1 7.21.44-2.36-2.21-5-3.7-8.57-3.16.46.93.92 1.83 1.36 2.71Zm-9.4 37.01c-.11-.05-.22-.11-.32-.16-.34.43-.84.81-1 1.3-.81 2.37-1.54 4.77-2.29 7.17-.1.33-.15.67-.2 1.01-.19 1.31-.15 1.37 1.33 1.94.94-3.81 1.85-7.5 2.49-11.25Zm-12.16 4.74c2.04-.23 3.89-.99 5.56-2.15.88-.61 1.7-1.31 2.49-2.05.37-.34.58-.85.75-1.42-3.14 2.1-6.55 3.48-10.25 4.37.3 1.25.4 1.36 1.46 1.24Zm9.15-22.48c-.61-.86-1.19-1.69-1.89-2.68-1.47 2.46-1.07 4.99-1.25 7.43 1.56-1.25 2.03-3.13 3.14-4.75m8.7 2.96c-.08 1.45-.4 2.89-.65 4.54 1.44-1.63 2.12-3.42 2.79-5.2.06-.16.02-.39-.06-.56-.52-1.21-1.06-2.41-2.19-3.41.05 1.69.19 3.17.11 4.63m9.35-16.32c.12 1.07.39 2.04-.87 2.78 1.99.69 3.58.34 5.53-.35-1.72-.9-3.12-1.63-4.66-2.43M94.83 127.6c-1.32.96-2.47 3.33-2.67 5.37q-.07.69.64 1.48c.7-2.34 1.35-4.54 2.03-6.85M78.64 72.79c-.53-.84-1.02-1.62-1.5-2.39-.08.02-.17.04-.25.07.16.88.33 1.76.53 2.83.52-.21.82-.34 1.23-.51Zm-4.71 7.96c0-.33.02-.64.03-1.09l-2.44 1.11.07.2c.75-.07 1.51-.15 2.34-.23Zm2.94-5.95c-1.06.64-1.38 1.43-1.65 2.56.97-.7 1.33-1.47 1.65-2.56" class="st1" fill="none" stroke="#BDAC82" stroke-width="1.5" stroke-linecap="round" stroke-linejoin="round"/><path d="M89.08 89.81c-.13-.02-.39-.05-.64-.08-.02.26-.15.58-.05.77.64 1.13.59 2.12-.4 3.04-.13.12-.04.5-.05.75.22 0 .49.08.67-.01 1.43-.78 1.74-3.17.47-4.47m2.65 7.03c.36.02.62.12.79.04 1.06-.54 1.79-2.31 1.38-3.44-.09-.25-.45-.41-.68-.61-.12.23-.38.5-.34.69.22.98-.22 1.71-.76 2.44-.16.21-.22.49-.39.89Zm-2.34-2.42c0 .79.1 1.43-.05 2.01-.15.56-.56 1.06-.88 1.63 1.04.19 1.6-.22 1.95-1.27.33-.97.03-1.81-1.02-2.37m6.11 4.94c1.1.09 1.77-.38 2.08-1.31.2-.62.14-1.14-.71-1.33-.2.5-.37.98-.6 1.43-.2.39-.47.74-.78 1.21Zm-.47 3.04c-.03.17-.19.52-.08.65.13.15.56.23.73.13.4-.23.76-.57 1.08-.91.09-.09.06-.4-.03-.51s-.37-.18-.5-.12c-.39.19-.74.45-1.21.75Zm5.43.85c-.41.46-.76.8-1.02 1.19-.11.16-.05.44-.07.66.26.01.58.13.79.02.75-.39.86-.94.31-1.87Zm-7.41-4.6c-.32.64-.61 1.21-.91 1.82.87.43 1.15-.09 1.4-.53.24-.43.42-.91-.49-1.29m5.41 9.17c.03-.4.16-.74.04-.91-.3-.44-.71-.22-.96.09-.13.16-.07.49-.09.74.31.03.61.06 1.01.09Zm.72 2.28c.18.44.23.8.38.85.26.08.62.03.87-.09.11-.05.08-.41.11-.63-.29-.03-.59-.05-1.36-.12ZM78.66 83.22c.13.26.27.52.36.8.77 2.47.74 4.92-.14 7.36-.08.23-.18.46-.32.66-.5.74-1.04.79-1.46.02-.49-.9-.91-1.86-1.18-2.84-.6-2.15-.09-4.18.97-6.09.43-.77 1-.84 1.53-.28.07.11.17.23.23.36Zm-.82 7.34c.77-2.13.8-4.27-.06-6.39-1.2 2.16-1.31 4.29.06 6.39m4.48-15.9c2.48-1.55 5.13-1.78 7.9-.95.23.07.45.19.65.34.62.47.64 1.01-.02 1.39-.63.37-1.31.67-2 .91-2.21.79-4.43.7-6.62-.05-.85-.29-.92-.69-.3-1.34.09-.07.23-.21.4-.31Zm1.26.69c1.99.7 3.86.53 5.87-.63-1.98-.5-3.93-.57-5.87.63m-40 3.65c1.54-.64 2.96-1.29 4.42-1.8.77-.27 1.64-.33 2.47-.37.87-.05 1.58.35 1.78 1.24.24 1.07.97 1.4 1.91 1.53.15.02.29.06.44.06 2.87-.05 5.22 1.17 7.36 2.96.84.7.94 1.59 0 2.17-.82.51-1.77.9-2.71 1.1-1.34.28-2.73.35-4.1.46-1.52.12-3.05.15-4.57.29-3.1.27-5.93 1.36-8.54 3.02-.29.18-.58.38-.84.6-1.83 1.54-2.84 3.37-2.08 5.84.28.91.5 1.84.74 2.76.11 0 .22.01.33.02.28-.5.6-.98.85-1.49.78-1.59 1.84-2.88 3.47-3.68.46-.22.81-.69 1.16-1.09.39-.44.66-1 1.08-1.4.28-.27.77-.53 1.11-.47.56.1.43.67.37 1.11 0 .05-.02.1-.03.14-.56 1.58-.44 3.2-.3 4.82.16 1.98.05 3.92-.37 5.87-.19.9-.19 1.85-.19 2.78 0 2.03 1.27 3.21 2.94 4.04.27.14.67.15.97.07.87-.23 1.66-.04 2.42.36 4.1 2.13 6.84 5.38 8.08 9.86.37 1.36.33 2.73.11 4.1-.11.67-.19 1.34-.29 2.07 1.69-.05 3.17-.28 4.5-1.16 1.09-.72 2.29-1.14 3.61-1.14.34 0 .7.02 1.01.14.49.2.53.75.1 1.04-.12.08-.27.14-.41.17-1.67.39-3.02 1.37-4.41 2.31-.92.63-2 1.03-3.03 1.51-.81.37-1.32.84-1.47 1.82-.24 1.48-.83 2.84-2.31 3.55.17 1.73.51 3.27 1.72 4.63 1.13 1.27 1.93 2.84 2.89 4.27.25.38.57.79.14 1.18-.48.43-.92.1-1.28-.26-2.54-2.53-5.16-4.99-6.82-8.25-.04-.08-.14-.13-.32-.29-1.26.28-2.6.57-3.93.89-5.28 1.26-9.66-.65-13.58-3.98-.63-.54-.94-1.46-1.41-2.2-.23-.35-.42-.78-.74-1.01-1.64-1.19-3.18-2.45-4.49-4.03-.52-.63-1.41-1.02-2.21-1.35-.52-.22-1.16-.23-1.75-.21-1.81.06-3.4-.53-4.79-1.64-1.66-1.33-3.53-2.11-5.57-2.58-2.77-.63-5.31-1.79-7.59-3.49-.54-.4-1.03-.87-1.46-1.24.1-.76.51-.91.98-.9 1.16.03 2.1-.48 2.97-1.15 1.04-.8 2.2-1.26 3.47-1.55.71-.16 1.41-.44 2.09-.72 2.38-.97 4.75-1.14 7.19-.19.85.33 1.71.74 2.89.63-.59-1.06-1.13-1.98-1.63-2.93-.48-.91-.97-1.82-1.35-2.78-.31-.77-.26-1.56.45-2.16.54-.45.57-1.02.38-1.61-.45-1.41.04-2.74.37-4.05.38-1.48 1.45-1.79 3.27-1.04.08-.21.18-.41.24-.62.55-2.11 1.42-4.11 2.63-5.91 1.19-1.78 1.75-3.73 1.96-5.81.27-2.69.49-5.39.78-8.08.39-3.56 1.4-6.94 3.01-10.13.29-.57.57-1.17 1.01-1.62.3-.31.9-.59 1.27-.5s.8.62.9 1.03c.16.65.11 1.36.08 2.05-.05.88-.17 1.76-.25 2.65-.06.64.16 1.11.76 1.46.44.26.78.68 1.15 1.04.24.23.43.57.72.71 1.2.58 1.41 1.6 1.2 2.74-.23 1.25-.59 2.48-.92 3.79Zm-3.93 4.36c-.09-.05-.19-.1-.28-.15-2.34 2.11-4.55 4.35-6.33 6.99.24-.08.43-.21.6-.36.22-.19.4-.48.66-.58.28-.11.62-.06.93-.09.02.27.07.55.04.82-.02.18-.17.35-.26.53-1.61 3.1-2.2 6.4-1.84 9.87.26 2.47.87 4.85 1.81 7.13 1.94 4.72 4.92 8.6 9.33 11.29.59.36 1.19.7 1.75 1.1.25.18.41.48.61.73-.3.21-.57.52-.9.6-.52.13-1.07.12-1.61.12-4.57.06-9.02-.63-13.36-2.08-.48-.16-.97-.3-1.74-.53 1.9 4.08 4.02 7.53 7.84 9.62 1.3-1.33 2.82-1.99 4.42-2.52 2.29-.75 4.55-1.58 6.86-2.28 1.29-.39 1.86-1.33 1.97-2.48.14-1.5.16-3.04 0-4.55-.2-1.96-.58-3.89-.07-5.86-.29-.2-.53-.36-.76-.54-2-1.51-4.13-2.88-5.98-4.55-4.03-3.64-5.93-8.23-5.6-13.71.13-2.03.49-4 1.14-5.92.29-.86.53-1.73.79-2.6Zm17.23 30.12c-1.04-.71-2.21-1.62-3.47-2.36-1.63-.95-2.35-.52-2.43 1.38-.04.93.08 1.86.17 2.79.09.98.3 1.95.31 2.93 0 1.07-.05 2.17-.26 3.22-.3 1.53-1.13 2.71-2.69 3.24-1.35.46-2.68.97-4.03 1.42-1.21.41-2.45.73-3.65 1.18-.78.29-1.54.67-2.22 1.14-1.04.72-1.18 1.54-.38 2.51.59.71 1.27 1.39 2.04 1.89 1.86 1.23 3.9 2.12 6.09 2.55 1.09.21 2.27.32 3.36.15 2.13-.33 4.23-.9 6.35-1.36.69-.15 1.09-.52 1.33-1.2.51-1.4 1.26-2.68 2.34-3.71.43-.41.53-.88.56-1.45.06-1.18.11-2.37.34-3.52.85-4.26-1-7.54-3.75-10.8Zm-18.25 2.43c-1.77-2.28-3.27-4.62-4.46-7.17-.11-.24-.4-.41-.64-.56-2.02-1.3-4.05-2.59-6.07-3.89-.47-.3-.94-.93-1.53-.45-.55.45-.19 1.09.04 1.63.11.27.26.53.4.78.57.98 1.16 1.94 1.7 2.93.57 1.03.92 2.09-.06 3.2 3.37 1.86 6.84 3.09 10.61 3.52Zm-27.94-1.11c.29.29.47.52.69.69 2.62 1.91 5.43 3.15 8.79 2.61 1.84-.3 3.7-.53 5.58-.21.47.08.94.15 1.63.26-.3-.3-.41-.46-.56-.55-1.62-1-3.14-2.15-4.95-2.87-1.36-.54-2.62-1.35-3.93-2.02-1.61-.82-3.15-.55-4.62.36-.83.51-1.64 1.08-2.63 1.74Zm33.41 5.41c-1.33-.98-2.45-1.83-3.59-2.64-.18-.13-.47-.14-.71-.16-4.23-.4-8.14-1.8-11.87-3.78-.82-.44-1.68-.82-2.56-1.13-.52-.18-1.1-.17-1.72-.25-.05 1.13.47 1.77 1.11 2.32 1.45 1.27 3.02 2.36 4.84 3.04 4.23 1.58 8.59 2.5 13.11 2.64.38.01.76-.02 1.38-.05Zm17.17-36.39c-.63-.93-1.5-1.11-2.46-1.19-7.28-.64-13.49 1.99-19.15 6.28-.42.32-.67.67-.35 1.28.21-.15.37-.24.52-.36 2.83-2.26 6.02-3.72 9.6-4.23 1.6-.23 3.23-.27 4.85-.4 1.42-.11 2.85-.19 4.26-.36.97-.11 1.9-.4 2.73-1.02M39.81 65.04c-.1-.03-.2-.05-.3-.08-.1.1-.22.18-.29.3-.22.38-.44.77-.64 1.16-1.52 3.12-2.44 6.42-2.81 9.87-.32 2.98-.63 5.96-.94 8.95-.02.16.08.32.13.51.85-.53 1.15-1.22 1.32-2.1.66-3.32 1.45-6.62 2.14-9.94.47-2.26.88-4.53 1.28-6.8.11-.61.07-1.24.1-1.86ZM27.63 96.59c-.39.56-.65.83-.77 1.15-.15.41-.19.86-.25 1.3-.27 1.8-.3 3.49 1.66 4.49.65.33 1.17.89 1.8 1.28 1.01.63 1.91 1.47 3.24 1.81-.27-.97-.32-1.86-1.05-2.5-1.81-1.6-2.95-3.64-3.78-5.88-.18-.48-.46-.91-.85-1.64Zm15.92 7.6c.94.91 1.62 1.83 2.97 2.49-.6-1.94-.25-3.52.08-5.11.53-2.58.02-5.12-.03-7.83-1.34.87-1.57 2.05-1.61 3.23-.08 2.47-.26 4.9-1.41 7.23Zm13.54-22.76-.03-.3c-1.07-.13-2.19-.09-3.19-.43-1.62-.56-3.09-.18-4.58.31-1.3.44-2.59.91-3.85 1.46-1.76.78-3.39 1.78-4.76 3.15-.38.38-.63.89-.93 1.33 5.39-3.28 10.91-5.76 17.34-5.53Zm-36.16 37.84c3.56 2.97 5.41 3.65 8.67 3.2-.38-.76-.73-1.51-1.13-2.24-.13-.24-.34-.52-.57-.6-2.26-.74-4.56-1-6.97-.36m16.63-36.53c1.03-.29 1.41-.91 1.63-1.71.41-1.46.95-2.89 1.39-4.34.34-1.13.67-2.26.88-3.41.23-1.26.1-1.36-1.42-1.66-.83 3.71-1.66 7.42-2.49 11.14Zm13.64-3.5c-.18-1.26-.31-1.4-1.47-1.24-3.19.45-5.81 2-8.04 4.26-.32.32-.5.78-.75 1.18l.21.3c3.02-2.3 6.47-3.59 10.05-4.51Zm-7.22 16.35c-.3.18-.54.24-.63.39-.84 1.38-1.66 2.77-2.45 4.18-.09.17-.06.5.05.68.46.77.85 1.62 1.7 2.19 1.36-2.32.95-4.85 1.33-7.45Zm-11.92 6.62c-.05-1.72-.19-3.19-.11-4.65.09-1.47.4-2.92.65-4.65-1.39 1.66-2.09 3.38-2.74 5.12-.08.21-.08.5 0 .7.53 1.21 1.06 2.42 2.2 3.47Zm-13.91 9.3c1.56.82 2.92 1.53 4.18 2.19.24-1 .45-1.85.66-2.72-1.51-.53-2.94-.42-4.85.53ZM42.66 73.6c-.69 2.31-1.35 4.53-2.01 6.75 1.65-1.56 2.46-3.48 2.69-5.65.05-.45 0-.88-.69-1.1Zm14.15 61.56c.63.96 1.18 1.79 1.73 2.63.05-.03.09-.05.14-.08-.21-.97-.42-1.95-.65-3-.47.17-.77.28-1.22.45m4.72-6.87c.89-.41 1.67-.76 2.44-1.11-.02-.07-.04-.14-.06-.22-.79.09-1.58.17-2.43.26.02.38.03.66.05 1.06Zm-2.92 4.49c.07.07.15.14.22.22 1.05-.89 1.21-1.21 1.23-2.58-.57.92-1.01 1.64-1.45 2.36m1.55 7.07.05-.05-.47-.47-.05.05z" class="st1" fill="none" stroke="#BDAC82" stroke-width="1.5" stroke-linecap="round" stroke-linejoin="round"/><path d="M46.48 113.96c.16-.11.35-.3.57-.37.15-.05.41 0 .51.11s.09.35.06.52c-.02.13-.14.26-.25.35-.86.79-.9 1.68-.37 2.66.05.09.15.17.14.25-.03.26-.09.51-.15.77-.26-.08-.6-.08-.76-.25-.83-.88-.88-2.56-.16-3.55.12-.16.25-.3.41-.5Zm-2.71-2.7c-.4.67-.85 1.21-1.05 1.83-.2.61-.15 1.31-.22 2.12-.34-.15-.75-.23-.77-.37-.09-.65-.27-1.39-.05-1.97.25-.68.86-1.24 1.36-1.81.06-.07.4.1.74.2Zm2.02-1.27s.14-.18.27-.2c.22-.04.52-.09.65.02.12.1.18.5.08.61-.62.71-.94 1.45-.64 2.41.05.15-.18.39-.29.58-.23-.13-.55-.2-.66-.39-.51-.89-.26-2.13.59-3.03m-5.98-1.34c-.37.84-.66 1.58-1.02 2.28-.19.37-.57.41-.81.05-.38-.57-.13-1.09.21-1.6.6-.89.62-.92 1.62-.74Zm-4.8-4c-.42-1.09-.15-1.71.48-1.91.16-.05.41-.02.52.09.11.1.18.4.12.49-.34.46-.74.89-1.11 1.33Zm3.72 1.63c.08-.87.67-1.58 1.32-1.59.16 0 .4.12.47.25s.05.45-.05.51c-.53.36-.95 1-1.75.83Zm4.56 1.17c-.25.82-.4 1.52-1.22 1.79-.52-1.16-.12-1.83 1.22-1.79m-5.05-7.32c-.18.44-.21.78-.38.88-.24.13-.58.08-.88.11.05-.29 0-.69.18-.85.17-.16.57-.09 1.07-.13Zm-2.28-3.47c-.02.45.04.78-.06.85-.24.16-.56.2-.85.28-.03-.21-.16-.53-.06-.62.2-.2.52-.28.98-.51Zm22.44 28.46c-.44.47-1.01.48-1.38-.05-.28-.4-.49-.86-.63-1.32-.7-2.33-.66-4.66.11-6.96.14-.41.36-.82.63-1.15.33-.41.73-.41 1.11.03 1.87 2.22 2 7.08.24 9.34-.03.04-.06.08-.08.12Zm-.67-1.19c1.32-2.56 1.24-4.97-.14-6.54-.8 2.04-.78 4.59.14 6.54m-4.59 9.3c-.56.33-1.05.73-1.62.95-2.36.95-4.71.77-7.03-.17-.31-.13-.62-.3-.88-.53-.58-.52-.55-1.09.15-1.39 3.03-1.29 6.02-1.19 8.94.38.08.04.15.13.21.21.05.08.08.18.23.55m-8.3-.37c2.36 1.1 4.84 1.08 6.03.03-1.94-.72-3.84-.79-6.03-.03m-22.15 6.41c.04-.86-.26-1.53-.87-2.07-.59-.53-1.28-.9-2.03-1.16-.14-.05-.29-.08-.41-.15-.25-.15-.25-.45.02-.57.15-.07.33-.09.5-.13.33-.08.68-.12 1-.24 1.02-.4 1.66-1.11 1.73-2.25.02-.24 0-.5.06-.73.04-.13.23-.29.35-.29.11 0 .29.18.32.31.07.28.08.58.1.87.1 1.16.84 1.78 1.86 2.14.3.1.62.14.93.21.26.06.59.04.61.4.02.32-.31.32-.52.43-.57.28-1.17.52-1.7.86-.88.57-1.37 1.39-1.28 2.48 0 .07.01.15 0 .22 0 .23-.13.42-.35.37-.14-.03-.28-.22-.36-.37-.05-.09 0-.24.02-.32Zm-1.69-3.6c.72.63 1.41 1.23 2.03 1.78l2.03-1.76c-.35-.21-.74-.41-1.08-.68-.35-.29-.64-.65-.96-.98-.75.93-1 1.14-2.02 1.64m92.23-.53c-.24-.28-.4-.39-.43-.52-.06-.21 0-.44-.05-.66-.13-.62-.23-1.25-.43-1.85-.18-.53-.62-.87-1.11-1.13-.2-.1-.4-.19-.58-.31-.44-.29-.45-.61-.02-.92.32-.23.66-.43.95-.69.79-.7 1.23-1.58 1.21-2.66v-.52c.02-.24.11-.48.39-.41.13.03.25.25.32.4.05.1 0 .24 0 .36-.01 1.39.62 2.44 1.74 3.23.12.08.25.15.37.23.55.37.56.77-.06 1.02-1.56.65-1.98 1.92-2.04 3.44 0 .17 0 .35-.04.51-.03.13-.12.26-.23.47Zm-.15-3.05c.33-.45.56-.83.87-1.13.29-.3.66-.52.93-.72-.63-.72-1.22-1.39-1.75-2-.57.65-1.16 1.32-1.78 2.02.74.4 1.39.94 1.73 1.83m-.46-65.76c.35.37.71.75 1.06 1.13.16.18.36.35.44.56.06.15.03.44-.08.54-.1.09-.42.07-.53-.03-.39-.34-.73-.73-1.1-1.1-.14-.14-.3-.27-.55-.5-.05.33-.11.54-.11.75v4.98c0 .39.12.89-.45 1.01-.38.08-.58-.26-.59-1v-4.56c0-.34 0-.67-.19-1.12l-1.05 1.05c-.17.17-.32.39-.52.5-.14.08-.43.1-.53 0-.1-.09-.14-.4-.06-.53.17-.29.43-.54.66-.79.29-.32.59-.63 1.06-1.12h-3.33c-.31 0-.63.03-.93-.04-.16-.03-.37-.24-.38-.39 0-.15.17-.4.32-.44.29-.09.61-.08.92-.08h3.08c.03-.07.05-.15.08-.22-.55-.55-1.1-1.1-1.64-1.66-.28-.29-.76-.61-.33-1.02.42-.41.74.07 1.02.35.54.52 1.07 1.05 1.73 1.71.04-.44.09-.7.09-.96v-4.36c0-.45-.16-1.04.5-1.2.38-.1.53.28.53 1.25v5.26c.69-.44 1.05-.94 1.49-1.34.23-.21.41-.49.67-.64.2-.11.55-.17.72-.07.3.18.16.49-.05.71-.5.52-1.03 1.03-1.54 1.54-.14.14-.26.3-.51.6.95.02 1.73.03 2.51.05.45 0 .9 0 1.35.02.31.02.67.05.67.47 0 .43-.35.45-.67.45-.9 0-1.8 0-2.7-.01h-1c-.02.08-.05.16-.07.24ZM31.05 129a.749.749 0 1 1-1.498.002.749.749 0 0 1 1.498-.002m66.2-69.94a.749.749 0 1 1-1.498.002.749.749 0 0 1 1.498-.002m21.62 12.97a.749.749 0 1 1-1.498.002.749.749 0 0 1 1.498-.002m3.77 48.85a.749.749 0 1 1-1.498.002.749.749 0 0 1 1.498-.002M15.59 142.9a.749.749 0 1 1-1.498.002.749.749 0 0 1 1.498-.002m92.8-17.36a.749.749 0 1 1-1.498.002.749.749 0 0 1 1.498-.002M19.46 75.77c-.24-.28-.4-.39-.43-.52-.06-.21 0-.44-.05-.66-.13-.62-.23-1.25-.43-1.85-.18-.53-.62-.87-1.11-1.13-.2-.1-.4-.19-.58-.31-.44-.29-.45-.61-.02-.92.32-.23.66-.43.95-.69.79-.7 1.23-1.58 1.21-2.66v-.52c.02-.24.11-.48.39-.41.13.03.25.25.32.4.05.1 0 .24 0 .36-.01 1.39.62 2.44 1.74 3.23.12.08.25.15.37.23.55.37.56.77-.06 1.02-1.56.65-1.98 1.92-2.04 3.44 0 .17 0 .35-.04.51-.03.13-.12.26-.23.47Zm-.15-3.06c.33-.45.56-.83.87-1.13.29-.3.66-.52.93-.72-.63-.72-1.22-1.39-1.75-2-.57.65-1.16 1.32-1.78 2.02.74.4 1.39.94 1.73 1.83m7.08 7.61a.749.749 0 1 1-1.498.002.749.749 0 0 1 1.498-.002M14.62 66.16a.749.749 0 1 1-1.498.002.749.749 0 0 1 1.498-.002m-.75 21.53a.749.749 0 1 1-1.498.002.749.749 0 0 1 1.498-.002m105.75-30.34a.749.749 0 1 1-1.498.002.749.749 0 0 1 1.498-.002m-89.32 84.8a.749.749 0 1 1-1.498.002.749.749 0 0 1 1.498-.002" class="st1" fill="none" stroke="#BDAC82" stroke-width="1.5" stroke-linecap="round" stroke-linejoin="round"/></g></svg>