<svg xmlns="http://www.w3.org/2000/svg" id="sign-svg" viewBox="0 0 128.5201 198.64" width="128.5201" height="198.64" preserveAspectRatio="xMidYMid meet"><g id="sign-glyph" transform="translate(0.000 0.714) scale(0.949048)"><path d="M78.38 10.2s-.08-.1-.11-.15c-.11-.16-.24-.34-.46-.42-.89-.31-1.85-.23-2.84.24-.93.44-1.75 1.11-2.59 2.12-.26.32-.52.65-.77.97-.34.45-.7.91-1.08 1.33-.47.51-1.04 1.02-1.74 1.56-.8.61-1.64.6-2.44-.02a15 15 0 0 1-1.8-1.64c-.35-.38-.66-.8-.97-1.21-.22-.3-.45-.6-.69-.88-.9-1.08-1.71-1.76-2.64-2.21-.97-.47-1.89-.57-2.83-.3-.23.07-.48.17-.6.42-.1.19-.09.43.02.72l.08.2h.42c.18 0 .39.02.6-.02.86-.13 1.64.09 2.34.68.61.52 1.14 1.05 1.59 1.6.26.31.5.63.75.95.81 1.06 1.65 2.15 2.92 2.95-1.94.81-3.27 2.07-4.15 3.93-1.05 2.19-.51 4.37 1.46 5.99.44.36 1.01.67 1.78.97.84.33 1.74.49 2.76.49.58 0 1.21-.05 1.88-.16.79-.12 1.6-.41 2.35-.82 2.42-1.34 3.27-3.95 2.13-6.51-.4-.9-1-1.7-1.83-2.46-.73-.67-1.47-1.13-2.28-1.42.93-.59 1.74-1.39 2.64-2.59.43-.57.87-1.17 1.34-1.71 1.22-1.38 2.3-2.17 3.93-1.85.23.04.42-.08.58-.18.05-.03.1-.06.14-.09l.37-.18-.27-.3Zm-8.79 8.44c1.6.83 2.65 2.13 3.13 3.85.17.61.12 1.2-.17 1.86-.71 1.62-2.29 2.55-4.47 2.6-.09 0-.18 0-.28-.02l-.21-.02h-.03c-.81.12-1.67-.01-2.71-.42-.73-.28-1.34-.76-1.8-1.41-.74-1.03-.88-2.05-.44-3.11.81-1.95 2.08-3.15 3.88-3.67.39-.11.77-.17 1.16-.17.66 0 1.31.16 1.94.49ZM43.2 183.35v1.45h-6.59v-1.45zm-4.12 0h1.67v15.29h-1.67zm14.77 15.29h-1.7l-2.29-14.11-2.02 14.11h-1.7l2.38-15.29h2.68l2.63 15.29Zm-1.75-5.34v1.45h-4.28v-1.45zm7.52-9.95v13.08c0 .31.05.52.15.61.1.1.3.15.61.15h.76v1.45h-1.25c-.66 0-1.14-.16-1.46-.48s-.48-.81-.48-1.46v-13.35zm3.05 13.07v-13.08h1.67v13.35c0 .66-.16 1.14-.48 1.46s-.81.48-1.46.48h-1.5v-1.45h1.01q.495 0 .63-.15c.09-.1.13-.3.13-.61m11.48-6.39v-4.47c0-.33-.05-.54-.14-.63s-.3-.14-.63-.14h-3.96v-1.45h4.45c.66 0 1.14.16 1.46.48s.48.81.48 1.46v5.01c0 .66-.16 1.14-.48 1.46s-.81.48-1.46.48h-3.44v-1.45h2.95q.495 0 .63-.15c.09-.1.14-.3.14-.61Zm-4.72-6.68h1.67v15.29h-1.67zm2.9 8.26h1.75l2.53 7.03h-1.82zm10.1-8.26v13.08c0 .31.05.52.15.61.1.1.3.15.61.15h.76v1.45H82.7c-.66 0-1.14-.16-1.46-.48s-.48-.81-.48-1.46v-13.35zm3.05 13.07v-13.08h1.67v13.35c0 .66-.16 1.14-.48 1.46s-.81.48-1.46.48h-1.5v-1.45h1.01q.495 0 .63-.15c.09-.1.13-.3.13-.61m10.77 0v-4.18c0-.33-.05-.54-.14-.63s-.3-.13-.63-.13h-1.67c-.66 0-1.14-.16-1.46-.48s-.48-.81-.48-1.46v-4.25c0-.65.16-1.14.48-1.46s.81-.48 1.46-.48h2.16c.66 0 1.14.16 1.46.48s.48.81.48 1.46v2.36h-1.7v-2.09c0-.33-.05-.54-.14-.63s-.3-.14-.63-.14h-1.13c-.31 0-.52.04-.62.14q-.15.135-.15.63v3.71c0 .31.05.52.15.61.1.1.3.15.62.15h1.67c.66 0 1.14.16 1.46.48s.48.81.48 1.46v4.72c0 .66-.16 1.14-.48 1.46s-.81.48-1.46.48h-2.14c-.66 0-1.14-.16-1.46-.48s-.48-.81-.48-1.46v-2.36h1.7v2.09c0 .31.05.52.15.61.1.1.3.15.61.15h1.11q.495 0 .63-.15c.135-.15.14-.3.14-.61Z" class="st0" fill="none" stroke="#BDAC82" stroke-width="1.5" stroke-linecap="round" stroke-linejoin="round"/><path d="M67.71 37.68c-10.39 0-18.84-8.45-18.84-18.84S57.32 0 67.71 0s18.84 8.45 18.84 18.84-8.45 18.84-18.84 18.84m0-36.21c-9.57 0-17.36 7.79-17.36 17.36s7.79 17.36 17.36 17.36 17.36-7.79 17.36-17.36S77.28 1.47 67.71 1.47M32.54 80.84c2.41-.37 4.82-.7 7.23-1.11 2.67-.45 5.34-.62 8.04-.26.46.06 1.05.07 1.41-.16 2.32-1.5 4.86-1.51 7.44-1.2 2.11.25 4.23.51 6.32.88 4.21.75 8.35.19 12.5-.46 1.79-.28 3.6-.42 5.41-.54 1.85-.12 3.6.25 5.21 1.24.38.23.94.34 1.38.27 3.27-.49 6.49-.13 9.7.5 3.34.66 6.71 1.11 10.05.18 1.6-.45 3.19-1.16 4.58-2.07 3.32-2.19 4.33-4.97 3.15-8.78-.51-1.64-1.47-3.16-2.37-4.65-1.03-1.71-2.29-3.29-3.33-5-1.32-2.17-2.04-4.56-2.2-7.11-.03-.44-.07-.88 0-1.31.08-.59-.02-1.39.79-1.53.9-.16.86.71 1.11 1.24 1.47 3.03 3.54 5.6 5.99 7.88 2.42 2.27 4.88 4.5 7.29 6.78 2.87 2.73 4.58 6.07 5.07 10.01.72 5.8-.98 10.83-5.21 14.81-5.51 5.18-12.14 8.08-19.67 8.88-1.8.19-3.62.33-5.43.34-1.07 0-1.71.45-2.34 1.24-1.73 2.17-2.26 4.72-2.41 7.37-.1 1.81-.02 3.63.05 5.44.12 3.2.08 6.39-.82 9.5-1.06 3.65-3.02 6.71-6.15 8.96-.71.51-1.34 1.13-2.01 1.69-2.32 1.93-3.64 4.39-4.02 7.4-.24 1.86-.58 3.69-1.92 5.2-.41.47-.42 1.29-.63 1.95-.73 2.31-2.36 3.4-4.72 3.62q-4.305.405-8.61 0c-2.36-.22-4.01-1.3-4.69-3.65-.33-1.14-.82-2.18-1.46-3.2-.54-.87-.86-1.98-.93-3.01-.31-4.46-2.77-7.53-6.21-10-3.42-2.46-5.45-5.84-6.37-9.87-.68-3-.87-6.06-.55-9.14.29-2.75.14-5.5-.48-8.21-.34-1.5-1.04-2.79-1.92-4.03-.6-.84-1.28-1.19-2.33-1.24-2.5-.12-5.01-.25-7.47-.64-6.47-1-12.16-3.76-17.09-8.06-7.51-6.55-7.96-18.04-.93-25.09 2.34-2.35 4.86-4.52 7.28-6.79 2.66-2.51 5-5.26 6.48-8.66.13-.31.6-.48.91-.71.23.33.64.64.68.98.25 2.28-.14 4.49-.99 6.62-1.01 2.53-2.54 4.74-4.16 6.89-1.28 1.71-2.37 3.51-2.85 5.65-.75 3.3.19 5.91 2.87 7.94 2.76 2.1 5.91 2.93 9.36 3.02Zm9.65 19c2.88 5.56 5 11.01 5.19 17.03.02.5.1 1 .13 1.5.29 4.92 2.02 9.25 5.33 12.93.38.42.72.87 1.11 1.28 1.95 2.05 3.23 4.44 3.65 7.26.09.62.26 1.22.39 1.83.73 3.38 2.57 5.11 5.99 5.44 1.6.15 3.23.11 4.85.08 1.3-.03 2.66.03 3.89-.31 2.44-.67 4.23-2.11 4.66-4.82.16-.99.44-1.95.62-2.94.39-2.08 1.28-3.89 2.63-5.53 1.47-1.78 2.91-3.6 4.28-5.47 1.24-1.68 2.04-3.59 2.39-5.66.31-1.85.67-3.71.76-5.57.25-4.83 1.46-9.37 3.58-13.7.51-1.05.96-2.12 1.59-3.54-3.22.24-6.15.37-9.05.7-2.45.27-4.7 1.23-6.84 2.46-2.31 1.32-4.31 2.98-6.16 4.87-2.21 2.24-4.63 2.21-6.87.03-.54-.52-1.05-1.08-1.6-1.58-2.88-2.59-6.11-4.59-9.91-5.48-3.36-.79-6.8-.86-10.58-.8ZM55.9 79.46c-6.12-.14-9.04 2.83-8.84 7.97.07 1.8.68 3.41 1.58 4.94 2.06 3.49 5.04 6.01 8.47 8.06 2.96 1.77 5.95 3.51 8.18 6.2a3.16 3.16 0 0 0 4.88-.01c1.83-2.17 4.13-3.79 6.58-5.22 1.62-.94 3.16-2.02 4.7-3.09 2.4-1.68 4.18-3.93 5.64-6.44.94-1.6 1.38-3.34 1.33-5.2-.1-4.42-2.96-7.28-7.38-7.21-1.99.03-4 .25-5.97.56-4.35.68-8.69.93-13.06.22-2.34-.38-4.71-.6-6.12-.77ZM35.06 98.05c1.3.08 2.29.09 3.27.22 1.08.14 1.74-.3 2.26-1.23 2.95-5.27 2.45-10.49-.08-15.89-1.2.21-2.27.4-3.4.6.91 5.64.44 10.96-2.06 16.3Zm65.35 0c-2.57-5.42-2.97-10.76-2.12-16.33-1.19-.2-2.21-.37-3.28-.54-2.12 3.79-2.58 7.7-1.74 11.73.32 1.55 1.14 3.02 1.86 4.46.2.41.83.83 1.29.85 1.22.06 2.45-.09 4-.17Zm-73.5-16.52c.13 5.3-1.77 9.39-6.15 12.51 1.41.64 2.63 1.24 3.88 1.74 2.25.91 2.87.72 4.1-1.38 1.33-2.26 1.88-4.75 1.91-7.36.02-1.69-.16-3.35-.86-4.94-.93-.18-1.77-.35-2.89-.57Zm78.7.59c-1.2 3.27-1.11 6.47-.03 9.61.48 1.38 1.32 2.66 2.13 3.9.25.39 1.01.79 1.4.69 1.88-.5 3.71-1.19 5.4-2.34-4.22-3.51-4.77-4.61-6.21-12.39-.89.18-1.78.35-2.68.53ZM51.94 98.78c-.51-.55-.87-.88-1.16-1.26-1.25-1.63-2.68-3.17-3.69-4.94-1.99-3.47-2.21-7.1-.25-10.72.13-.25.21-.52.33-.86-1.77-.49-3.39-.42-5.11.08 2.53 5.78 2.79 11.44-.25 17.09 3.4.2 6.57.39 10.13.61m48.04-16.6c-1.69 3.68-.32 12.58 2.44 15.68 1.39-.18 2.86-.18 4.04-.83-.76-1.53-1.57-2.86-2.1-4.3-1.08-2.93-1.2-5.96-.63-9.03.08-.45.07-.92.12-1.52h-3.86Zm-6.3 16c-3.17-5.79-2.72-11.45-.29-17.19-1.84-.3-3.47-.57-5.16.1.14.29.22.53.35.74 1.41 2.38 1.67 4.93 1.06 7.59-.74 3.23-2.75 5.7-4.91 8.07-.33.37-.66.74-1.14 1.29 3.52-.21 6.69-.4 10.11-.6ZM31.45 82.24c.55 2.76.85 5.28.34 7.84-.5 2.51-1.35 4.85-3.2 7.09 1.79.28 3.23.51 4.56.73 2.85-4.25 3.97-12.59 2.19-15.85-1.19.06-2.42.12-3.89.19m80.5-2.1c-2.05.74-2.14.75-2.01 2.48.1 1.35.27 2.75.71 4.02.85 2.47 2.33 4.54 4.66 5.88.48.28.95.65 1.54.22.98-.72 1.98-1.43 3.13-2.26-4.09-2.52-6.85-5.76-8.03-10.34M19.1 93.12c4.31-2.31 6.24-5.84 6.42-10.44.07-1.81-.03-1.9-1.7-2.4-1.08 1.95-1.91 4-3.23 5.69-1.35 1.73-3.17 3.1-4.86 4.71 1.03.74 2.14 1.54 3.38 2.44Zm102.15-3.82c1.61-1.37 2.5-2.93 3.06-4.83-2.15-.32-4.11-.8-5.67-2.15-1.5-1.29-2.87-2.73-4.3-4.11-1.14.9-1.22.94-.82 2.25 1.21 4.06 3.82 6.93 7.74 8.84ZM11 84.45c.84 1.93 1.57 3.62 3.13 4.73 3.5-1.33 6.93-5.09 7.76-8.46.07-.3.1-.62.14-.93.1-.85-.21-1.42-1.12-1.65-2.51 3.29-5.38 5.98-9.91 6.31m8.64-8.01c-1.53.73-3.02 1.69-4.66 2.14-1.71.47-3.56.45-5.52.66.26 1.25.51 2.44.75 3.56 4.24.2 9.66-3.61 9.43-6.36m96.16.02c-.16 2.96 5.81 6.96 9.49 6.2.21-1.1.43-2.24.67-3.44-1.88-.19-3.66-.14-5.31-.6-1.69-.47-3.25-1.43-4.85-2.16m-106.41.92c2.07.38 3.88.41 5.58-.23 1.25-.47 2.38-1.28 3.51-2.02.23-.15.22-.67.35-1.11q-3.97.36-8.59-1.25c-.28 1.52-.56 3.01-.85 4.61m107.3-3.51c.56 2.82 5.61 4.54 9.23 3.34-.03-1.52-.16-3.02-1.01-4.5-2.57 1.45-5.22 1.89-8.22 1.15Zm-41.4 74.3c-2.69.31-5.21.82-7.72.82-2.47 0-4.94-.54-7.45-.85.39 1.47 1.37 2.27 2.8 2.4 1.92.17 3.85.28 5.78.28 1.36 0 2.74-.13 4.09-.33s2.23-1.01 2.51-2.31Zm49.22-77c-.7-1.1-1.31-2.06-1.81-2.86-2.05 1.01-3.91 1.93-5.88 2.9-.19.8.15 1.32 1.18 1.52 2.33.44 4.37-.17 6.51-1.56M12.75 68.34c-.49.76-1.12 1.76-1.82 2.85 2.12 1.35 4.11 2.01 6.38 1.55 1.35-.28 1.35-.29 1.14-1.58-1.93-.95-3.68-1.82-5.7-2.82m73.46 60.84c4.27-3.74 5.48-11.48 4.1-17.83-.3 1.52-.51 3.05-.66 4.58-.46 4.59-.71 9.23-3.43 13.25Zm-37.19-.37c-.26-.53-.51-1.07-.79-1.59-1.53-2.82-1.84-5.93-2.21-9.03-.27-2.26-.51-4.53-.76-6.8-.14.02-.28.05-.42.07-.66 6.25-.49 12.31 4.19 17.35Zm-29.68-61c-1.06-1.12-1.94-2.06-2.93-3.11-.73.7-1.51 1.45-2.28 2.18 1.61 1.86 3.78 2.84 4.79 2.21.14-.43.3-.9.42-1.29Zm99.71-3.11c-1.06 1.11-1.95 2.04-2.96 3.1.15.41.35.96.56 1.55 1.98-.16 3.47-.86 4.68-2.47-.8-.76-1.55-1.47-2.29-2.18ZM17.87 63.36c.33 1.38.8 2.39 2.21 2.74.41-.65.77-1.22 1.13-1.78-.53-.84-1.01-1.62-1.57-2.51-.62.55-1.17 1.02-1.78 1.56Zm97.45 2.67c1.33-.21 1.92-1.06 2.08-2.14.17-1.16-.97-1.42-1.65-2.07-.52.87-.99 1.65-1.51 2.52.36.56.72 1.13 1.08 1.7Zm-91.54-5.17c-.41-.63-.77-1.2-1.26-1.98-.58.63-1.06 1.16-1.65 1.8.36.76.72 1.5 1.2 2.49.69-.93 1.19-1.61 1.71-2.32Zm87.88.06c.59.75 1.1 1.4 1.66 2.1 1.56-2.34 1.46-2.82-.63-3.84-.31.52-.62 1.05-1.03 1.74m-.86-1.63c1.11-1.56 1.07-1.85-.33-2.56-.98.99-.34 1.77.33 2.56m-86.05-2.74q-1.16 1.38-.07 2.6.93-1.33.07-2.6m1.59-.75c.2-.74.36-1.29.51-1.84-.63.42-1.4.8-.51 1.84m82.8-1.76c-.16.08-.31.15-.47.23.15.45.3.9.45 1.34.15-.05.31-.1.46-.15-.15-.47-.3-.95-.45-1.42Z" class="st1" fill="none" stroke="#BDAC82" stroke-width="1.5" stroke-linecap="round" stroke-linejoin="round"/><path d="M67.73 144.81c-4.52 0-7.75-2.93-8.3-7.47-.06-.5-.41-.98-.68-1.44-.25-.43-.64-.78-.86-1.22-.57-1.16-.36-2.64.46-3.5.93-.96 2.05-1.16 3.26-.64.92.39 1.81.84 2.7 1.3 2.28 1.17 4.55 1.15 6.82 0 .78-.4 1.55-.82 2.35-1.16 1.55-.67 2.86-.42 3.73.66.93 1.15 1.03 2.78-.07 3.96-.84.9-1.04 1.85-1.22 2.98-.63 3.84-4.09 6.54-8.2 6.54Zm-6.09-9.55c-.49-.59-.87-.96-1.15-1.41-.13-.22-.17-.66-.04-.83.12-.16.62-.22.81-.1.68.43 1.4.88 1.91 1.49.28.34.35 1.06.21 1.5-.54 1.61-.2 2.93 1.24 3.8 1.99 1.2 4.05 1.21 6.07.1 1.56-.86 1.98-2.14 1.35-3.89-.27-.76-.09-1.35.51-1.83.49-.39.97-.81 1.51-1.1.29-.15.71-.03 1.36-.03-.58.92-.99 1.55-1.39 2.18q1.035.075 1.65-.39c.79-.6.97-1.62.5-2.34-.45-.71-1.07-.85-2.15-.4-.69.29-1.36.63-2.03.98-2.88 1.49-5.74 1.47-8.61-.02-.72-.38-1.46-.71-2.2-1.04-.7-.32-1.48-.31-1.8.41-.24.55-.24 1.35-.02 1.92.31.79 1.09 1.11 2.26 1.02Zm-.4 1.59c-.65 2.16.41 4.16 2.6 5.43 2.83 1.65 6.5 1.32 8.93-.82 1.48-1.31 2.07-3.1 1.33-4.78-.75 3.65-3 5.34-6.37 5.34-3.38 0-5.65-1.67-6.48-5.17Zm-12.87-32.14c5.81 1.25 10.61 3.95 13.27 9.58.34.73.55 1.53.73 2.31.05.22-.23.51-.36.76-.29-.15-.72-.23-.85-.47-.29-.54-.42-1.17-.64-1.75-.3-.79-.74-1.33-1.67-1.57-1.44-.37-2.85-.93-4.23-1.49-2.59-1.05-4.85-2.57-6.6-4.78-.31-.39-.61-.81-.78-1.27-.35-.92.1-1.42 1.13-1.32m1.27 2.01c1.31 2.19 5.27 4.44 8.21 4.68-1.87-2.34-5.08-4.17-8.21-4.68m23.43 10.55c.09-.61.1-1.26.3-1.86 1.13-3.41 3.42-5.9 6.36-7.85 2.17-1.43 4.59-2.26 7.11-2.77.42-.08 1.12.02 1.3.29.19.31.08.99-.15 1.36-1.19 1.97-2.9 3.46-4.92 4.5-1.77.91-3.62 1.72-5.53 2.26-1.71.49-2.68 1.38-3.06 3.08-.12.56-.22 1.33-1.42.99Zm12.73-10.5c-3.27.64-6.04 2.14-8.19 4.68 3.2-.73 6.09-2.01 8.19-4.68M71.55 120.5c0 .48.03 1.02 0 1.54-.18 2.32-.34 4.62 1.51 6.49.16.16.06.67-.06.96-.04.09-.63.11-.79-.03-.5-.45-1.05-.93-1.33-1.52-1.02-2.17-1.04-4.45-.51-6.76.12-.53.35-.95 1.18-.68m-7.37-.6c.47.65.83.94.91 1.3.48 2.11.51 4.24-.33 6.26-.32.76-.99 1.39-1.57 2.02-.12.13-.65.09-.79-.06-.15-.17-.2-.67-.07-.82 1.99-2.12 1.92-4.61 1.46-7.22-.06-.34.19-.73.4-1.48Zm.87-33.1c-.17 2.43-.07 4.68 2.76 4.63 2.73-.05 2.7-2.32 2.63-4.39 2.32.96 3.69 3.62 3.29 6.04-.44 2.65-2.83 4.85-5.54 5.09-2.54.22-5.31-1.57-6.18-4-.96-2.68.05-5.41 3.03-7.36Zm-1.44 3.71c-.89 1.9-.42 3.91 1.18 5.06 1.92 1.38 4.8 1.18 6.38-.44 1.33-1.37 1.54-3.22.52-4.6-2.71 3.34-4.81 3.34-8.08-.02m-30.24 26.17c.3.32.61.64.9.96.14.15.31.3.38.48.05.13.03.38-.07.46-.08.07-.36.06-.45-.03-.33-.29-.63-.62-.94-.93-.12-.12-.26-.23-.47-.42-.04.28-.1.46-.1.64v4.24c0 .33.11.76-.38.86-.32.07-.5-.22-.5-.86v-3.89c0-.29 0-.57-.16-.96l-.9.9c-.15.15-.27.33-.44.43-.12.07-.37.08-.45 0-.09-.08-.12-.34-.05-.45.15-.25.37-.46.56-.67.25-.27.51-.54.9-.96h-2.83c-.26 0-.54.03-.79-.03-.13-.03-.31-.21-.32-.33 0-.12.15-.34.27-.37.25-.07.52-.07.79-.07h2.63c.02-.06.05-.13.07-.19-.47-.47-.94-.94-1.4-1.41-.23-.24-.64-.52-.28-.87s.63.06.87.3c.46.44.91.9 1.47 1.46.04-.38.07-.6.07-.81v-3.71c0-.39-.14-.88.42-1.02.32-.08.45.24.45 1.06v4.48c.59-.38.9-.8 1.27-1.14.19-.18.35-.42.57-.54.17-.1.47-.15.61-.06.26.16.13.42-.04.6-.43.44-.88.87-1.31 1.31-.12.12-.22.26-.44.51.81.02 1.47.03 2.14.04.38 0 .77 0 1.15.02.27.01.57.04.57.4 0 .37-.3.38-.57.39h-3.15l-.06.2Zm64.88 26.7c.04-1.03-.31-1.83-1.04-2.48-.71-.64-1.54-1.08-2.43-1.39-.17-.06-.35-.09-.49-.18-.3-.18-.29-.54.03-.69.18-.09.4-.1.59-.15.4-.1.82-.15 1.2-.29 1.23-.47 1.99-1.33 2.08-2.69.02-.29 0-.6.07-.87.05-.15.27-.35.42-.35.13 0 .35.21.39.37.09.34.09.7.12 1.05.12 1.39 1 2.13 2.22 2.56.36.13.74.16 1.12.25.31.07.71.05.73.48.02.38-.37.39-.62.51-.68.33-1.4.62-2.03 1.03-1.06.68-1.64 1.67-1.53 2.98 0 .09.01.18.01.26 0 .28-.15.5-.42.44-.17-.04-.33-.27-.43-.45-.06-.11.01-.29.02-.38Zm-2.03-4.31c.87.76 1.68 1.48 2.44 2.14.8-.7 1.63-1.41 2.43-2.11-.42-.26-.89-.49-1.29-.81-.42-.34-.77-.78-1.15-1.17-.9 1.12-1.2 1.37-2.42 1.96Zm12.55-10.54c-.29-.34-.47-.46-.52-.62-.07-.25 0-.53-.06-.79-.15-.74-.28-1.5-.52-2.21-.21-.64-.74-1.04-1.33-1.35-.23-.12-.48-.23-.7-.38-.53-.35-.54-.73-.03-1.11.38-.28.79-.51 1.14-.82.94-.84 1.47-1.89 1.45-3.18v-.62c.02-.28.13-.57.46-.5.16.04.29.29.38.48.06.12 0 .29 0 .44-.02 1.67.74 2.92 2.08 3.87.14.1.3.18.45.28.66.44.67.92-.07 1.22-1.87.78-2.37 2.3-2.44 4.12 0 .2 0 .41-.05.61-.04.16-.14.31-.27.56Zm-.18-3.66c.4-.53.67-.99 1.04-1.36.35-.35.79-.62 1.12-.87l-2.09-2.39c-.69.78-1.39 1.58-2.13 2.42.89.48 1.66 1.13 2.07 2.19Zm-58.08-55.9c-.29-.34-.47-.46-.52-.62-.07-.25 0-.53-.06-.79-.15-.74-.28-1.5-.52-2.21-.21-.64-.74-1.04-1.33-1.35-.23-.12-.48-.23-.7-.38-.53-.35-.54-.73-.03-1.11.38-.28.79-.51 1.14-.82.94-.84 1.47-1.89 1.45-3.18v-.62c.02-.28.13-.57.46-.5.16.04.29.29.38.48.06.12 0 .29 0 .44-.02 1.67.74 2.92 2.08 3.87.14.1.3.18.45.28.66.44.67.92-.07 1.22-1.87.78-2.37 2.3-2.44 4.12 0 .2 0 .42-.05.61-.04.16-.14.31-.27.56Zm-.17-3.66c.4-.53.67-.99 1.04-1.36.35-.35.79-.62 1.12-.87l-2.09-2.39c-.69.78-1.4 1.58-2.13 2.42.89.48 1.66 1.13 2.07 2.19Z" class="st1" fill="none" stroke="#BDAC82" stroke-width="1.5" stroke-linecap="round" stroke-linejoin="round"/><circle cx="97.74" cy="115.67" r=".9" class="st1" fill="none" stroke="#BDAC82" stroke-width="1.5" stroke-linecap="round" stroke-linejoin="round"/><path d="M122.25 138.22c0 .5-.4.9-.9.9s-.9-.4-.9-.9.4-.9.9-.9.9.4.9.9m-61.82-65.5c0 .5-.4.9-.9.9s-.9-.4-.9-.9.4-.9.9-.9.9.4.9.9m-24.47-.9c0 .5-.4.9-.9.9s-.9-.4-.9-.9.4-.9.9-.9.9.4.9.9m53.61-12.94c0 .5-.4.9-.9.9s-.9-.4-.9-.9.4-.9.9-.9.9.4.9.9m-62.28 79.61c0 .5-.4.9-.9.9s-.9-.4-.9-.9.4-.9.9-.9.9.4.9.9m-10.68-26.46c0 .5-.4.9-.9.9s-.9-.4-.9-.9.4-.9.9-.9.9.4.9.9" class="st1" fill="none" stroke="#BDAC82" stroke-width="1.5" stroke-linecap="round" stroke-linejoin="round"/><path d="M12.52 172.45h110.39v1.6H12.52z" class="st0" fill="none" stroke="#BDAC82" stroke-width="1.5" stroke-linecap="round" stroke-linejoin="round"/></g></svg>