<svg xmlns="http://www.w3.org/2000/svg" id="sign-svg" viewBox="0 0 128.5201 198.64" width="128.5201" height="198.64" preserveAspectRatio="xMidYMid meet"><g id="sign-glyph" transform="translate(0.000 0.714) scale(0.949048)"><path d="M75.82 24.49c-.24-.13-.52.04-.7.16a.5.5 0 0 0-.19.26c-.25.22-.49.44-.73.66-.61.56-1.24 1.13-1.89 1.64-.18.14-.44.3-.64.24-.16-.05-.31-.27-.43-.61-.12-.35-.18-.77-.19-1.27-.02-1.64.28-3.29.57-4.88.07-.4.15-.81.22-1.21l.08-.47c.36-2.12.73-4.31 1.03-6.48.09-.67.06-1.42-.11-2.3-.12-.63-.38-1.08-.77-1.32s-.9-.26-1.51-.08c-.79.24-1.39.54-1.83.92-.69.59-1.32 1.25-1.93 1.89-.24.24-.47.49-.71.73-.06.06-.11.11-.16.17 0-.03-.02-.05-.02-.08-.37-1.13-.87-1.79-1.56-2.01s-1.49 0-2.46.7c-.08.06-.17.12-.24.19l-.65.6c-.04-.06-.07-.13-.11-.2-.22-.42-.43-.81-.69-1.18-.46-.66-1.11-.9-1.8-.66-1.42.5-2.52 1.46-3.38 2.93-.12.2-.05.43.01.61.02.05.03.11.04.15l.06.31.31-.07s.09-.01.13-.02c.15-.02.34-.04.49-.17.13-.12.23-.26.32-.39.07-.1.14-.2.21-.27l.32-.31c.38-.38.78-.77 1.22-1.06.38-.25.63-.35.77-.31.15.04.31.28.51.75.14.32.21.57.24.8l.05.41c.07.61.14 1.24.11 1.84-.08 1.54-.2 3.11-.31 4.63l-.15 2.02c-.04.59-.08 1.18-.1 1.77-.01.3.07.55.23.7.09.08.24.17.48.15.31-.03.64-.38.72-.68.08-.31.1-.62.11-.92l.53-8.58c0-.08.01-.18.03-.23.49-1.02 1.23-1.71 2.2-2.07.39-.14.49-.1.65.28.22.55.43 1.13.46 1.67.07 1.61.09 3.37.08 5.54 0 .86-.05 1.71-.09 2.57-.02.53-.05 1.06-.07 1.59-.03.79.43.92.7.93.3.02.49-.1.59-.2.16-.16.24-.41.23-.73v-.28c-.02-.3-.03-.61-.02-.91.06-2.35.12-4.69.19-7.04 0-.26.06-.49.14-.67.63-1.36 1.65-2.55 3.11-3.66.33-.25.74-.47 1.22-.66.4-.16.53-.13.56-.11.03.01.11.1.15.5.09.84.08 1.62-.03 2.32-.2 1.31-.43 2.61-.66 3.92-.27 1.56-.56 3.17-.79 4.76-.2 1.37-.31 2.86-.32 4.56 0 .53.21 1.16.64 1.87.33.54.83.83 1.41.83.26 0 .55-.06.84-.18.33-.14.59-.29.8-.47.76-.65 1.65-1.41 2.51-2.21.28-.26.39-.67.43-.89.06-.32-.29-.63-.46-.72Z" class="st0" fill="none" stroke="#BDAC82" stroke-width="1.5" stroke-linecap="round" stroke-linejoin="round"/><path d="M76.46 22.78c-.92.18-1.72.37-2.45.56-.06.02-.13.03-.2.04-.26.04-.58.08-.76.35-.11.16-.13.37-.07.6.05.2.16.35.31.43.27.15.57.06.82 0 .07-.02.13-.04.19-.05.63-.12 1.26-.25 1.91-.39l.48-.1v1.63c0 .08-.02.16-.03.24-.03.18-.06.38 0 .58.06.22.23.37.38.49.05.04.1.08.14.13l.23.24.22-.25s.07-.07.12-.11c.14-.12.31-.27.33-.5v-.08c.09-.8.17-1.63.15-2.45-.02-.58-.16-.96-.45-1.2s-.71-.29-1.3-.17Z" class="st0" fill="none" stroke="#BDAC82" stroke-width="1.5" stroke-linecap="round" stroke-linejoin="round"/><path d="M53.76 117.25c1.73-1.49 3.34-2.86 5.14-4.42v-1.58c-2.37.89-4.68.84-7.04.69-2.03-.13-3.82-.71-5.43-1.87-1.29-.93-2.51-1.95-3.69-3-.42-.38-.75-.93-.97-1.46-.38-.91.1-1.56 1.07-1.47.46.04.93.2 1.34.4 1.17.56 2.29 1.21 3.47 1.76 1.54.72 3.1 1.42 4.68 2.03.43.16 1.05.09 1.48-.1 1.35-.58 2.65-1.26 3.97-1.91v-3.54c-1.26.22-2.42.34-3.53.63-3.19.86-6.11.52-8.91-1.41-1.96-1.35-3.88-2.69-5.39-4.54-.51-.63-1.22-1.35-.59-2.19.65-.87 1.51-.29 2.25.02.65.27 1.28.6 1.9.95 2.1 1.18 4.19 2.37 6.25 3.55 2.51-1.23 4.78-2.71 7.55-2.43v-4.47c-1.52.36-3.04.74-4.58 1.07q-1.47.315-2.97.48c-1.27.13-2.52-.08-3.56-.81-3.58-2.52-6.82-5.4-9.06-9.23-.39-.67-1.17-1.46-.44-2.23.76-.8 1.59 0 2.21.4 1.36.9 2.79 1.83 3.87 3.03 1.49 1.65 3.03 3.12 5.35 3.89 1.77-.89 3.79-1.61 6.07-1.33-.99-.36-1.99-.68-2.96-1.09-1.3-.56-2.58-1.14-3.83-1.8-.56-.3-1.19-.7-1.48-1.23-.81-1.46-2.17-2.27-3.39-3.27-.64-.52-1.2-1.13-1.82-1.68-3.16-2.86-3.5-7.14-1.65-10.7.16-.31.33-.62.55-1.02-2.18-3.12-3.37-6.48-1.93-10.29 1.02-2.7 2.99-4.48 5.59-5.61 4.21-1.82 9.27-.97 10.35 1.88-1.43.62-3.31.59-4.17 2.23-.27.51-.52 1.09-.56 1.66-.06.86.06 1.73.12 2.67 2.44.12 4.48-.36 6.17-1.97 1.39-1.32 1.98-2.89 1.45-4.81-.14-.52-.13-1.09-.19-1.6.93-.29 1.23.17 1.37.7.9 3.44 1.72 6.92.58 10.45-1.37 4.29-4.55 6.75-8.69 8.12-.55.18-1.13.29-1.92.5.15 1.24.21 2.46.45 3.65.2 1 .87 1.7 1.66 2.4 2.34 2.07 4.53 4.29 6.78 6.46.24.24.45.51.87.98 1.02-3.65 3.76-5.81 6.23-8.42-.75-.91-1.44-1.77-2.15-2.6-1.89-2.2-2.02-3.21-.43-5.69.91-1.42 1.7-2.83 1.65-4.57-.01-.5.11-1.01.75-.96.63.05.63.58.65 1.07.05 1.51-.28 2.9-1.15 4.19-2.27 3.38-2 3.19.4 6.01.37.44.76.87 1.14 1.3.89-.52 1-1.36 1.28-2.12.12-.32.49-.54.74-.81.24.29.56.54.72.87.33.66.57 1.36.96 2.31 1.3-1.31 2.28-2.44 3.12-3.69.44-.66.26-1.37-.12-2.01-.45-.76-.9-1.53-1.4-2.25-.83-1.19-.88-2.54-.9-3.9 0-.49.14-1.05.74-.96.26.04.63.59.62.9-.06 1.96.96 3.46 1.92 5.03 1.25 2.07 1.11 3.13-.41 4.98-.78.94-1.57 1.88-2.41 2.88 2.38 2.61 5.2 4.73 6.2 8.39.43-.47.73-.82 1.05-1.13 2.12-2.05 4.14-4.21 6.41-6.08 1.31-1.08 1.97-2.3 2.14-3.87.08-.75.01-1.52.01-2.39-.51-.14-1.06-.29-1.62-.43-5.78-1.48-9.57-6.43-9.29-12.39.09-1.93.57-3.84.9-5.76.06-.34.2-.7.41-.97.15-.19.53-.34.74-.28.2.06.42.42.43.65.02.34-.15.68-.24 1.02-.52 1.98.09 3.59 1.57 4.93 1.63 1.48 3.59 1.9 5.69 1.89 1.32-2.73.13-5.41-2.66-6.13-.59-.15-1.55.01-1.48-.86.04-.49.7-1.04 1.21-1.36 1.9-1.18 4.02-1.24 6.17-.96 4.2.56 7.68 3.44 8.71 7.3.64 2.37.37 4.68-.71 6.88-.41.84-.93 1.64-1.41 2.49.38.89.84 1.78 1.14 2.71 1.05 3.26.41 6.17-1.95 8.67-.69.73-1.41 1.44-2.19 2.06-1.23.99-2.44 1.94-3.41 3.26-1.06 1.45-2.79 2.12-4.46 2.75-1.03.39-2.06.76-3.08 1.13 1.88.47 3.68.93 5.77 1.45 1.69-.6 3.36-1.81 4.69-3.55 1.28-1.67 2.99-2.83 4.91-3.68.48-.21 1.09-.56 1.42.02.21.37.12 1.01-.04 1.45-.22.6-.58 1.16-.98 1.67-1.82 2.37-3.42 4.96-6.21 6.39-.3.15-.47.52-.73.76-1.57 1.52-3.42 2.31-5.63 1.91-1.85-.34-3.69-.76-5.54-1.15-.5-.1-.99-.22-1.46-.33v4.29c1.11.22 2.45.36 3.69.78 1.27.43 2.45 1.13 3.86 1.81 1.96-1.11 3.99-2.28 6.04-3.41.93-.51 1.88-1 2.88-1.34.41-.14 1.18-.03 1.4.26.24.31.07.97-.03 1.46-.05.26-.3.5-.49.73-1.97 2.43-4.52 4.11-7.23 5.58-1.91 1.04-3.96 1-6.03.59-1.44-.29-2.88-.56-4.54-.87 0 .7.02 1.28 0 1.85-.02.53-.09 1.05-.14 1.66 1.44.7 2.9 1.45 4.39 2.12.32.14.82.11 1.16-.03q2.37-.96 4.68-2.04c1.23-.57 2.41-1.24 3.64-1.82.42-.2.9-.33 1.35-.34.78-.03 1.22.54.92 1.3-.27.69-.71 1.37-1.23 1.91-4.17 4.36-9.22 5.64-15.02 4.17-.22-.06-.44-.12-.79-.21-.08.31-.17.57-.2.83-.03.29 0 .58 0 .64 1.82 1.54 3.47 2.95 5.24 4.45 1.85-.48 3.82-1.04 5.83-1.49 1.03-.23 2.1-.32 3.15-.34.4 0 1.04.29 1.14.59.14.41 0 1.07-.26 1.44-.36.51-.93.91-1.47 1.24-2.16 1.34-4.6 1.87-7.07 2.03-1.05.07-2.19-.41-3.2-.85-1.66-.72-3.26-1.6-4.82-2.39-1.21 1.4-2.45 2.87-3.74 4.3-.92 1.03-2.06 1.73-3.37 2.21-.44.16-.92.53-1.14.93-.77 1.45-1.85 2.38-3.49 2.72-.45.09-.82.55-1.22.85-.69.52-1.32 1.15-2.08 1.54-.63.32-1.14.78-1.71 1.12-2.05 1.23-2.73 3.66-4.64 4.97-.29.2-.42.67-.57 1.04-.15.38-.17.82-.35 1.18-1.25 2.44-.35 4.6.84 6.72.2.36.46.71.55 1.09.23.93.91 1.56 1.38 2.31 1.03 1.67 3.13 1.56 4.23 2.97.1.13.47.17.65.1 1.1-.45 2.04.15 3.07.34 1.25.22 2.58.67 3.88-.12.73-.44 1.64-.46 2.46-.76 1.68-.61 2.61-1.95 3.65-3.11.86-.96 1.23-2.36 1.9-3.51.86-1.46.66-3.17 1.19-4.71.26-.75.08-1.63-.72-2.19-.29-.2-.55-.45-.77-.72-.52-.65-1.82-1.84-2.49-2.21-1.62-.91-2.58-.81-3.7.57-.62.76-1.02 1.65-2.23 1.77-.34.04-.73.89-.87 1.42-.49 1.79.6 3.58 2.45 4.06.59.15 1.22.17 1.28.95.06.81-.57 1.09-1.17 1.37-3.84 1.77-8.51-.82-9.29-5.16-.6-3.31.77-6.06 3.76-7.66 1.59-.85 3.14-1.76 4.71-2.64.96-.54 5.47-.52 6.47-.02.46.23.97.34 1.46.48.34.1.7.11 1.02.24 1.04.44 3.96 4.02 4.28 5.11.16.53.35 1.13.73 1.51.91.92 1.09 1.94.65 3.07-.23.58-.36 1.09-.04 1.66.11.2.25.49.19.67-.7 1.89-.7 3.98-1.73 5.76-.23.39-.6.74-.69 1.16-.23 1.05-.8 1.8-1.67 2.4-.31.22-.5.61-.73.93-.06.09-.04.24-.1.34-.3.43-.56 1.14-.94 1.22-2.06.43-2.51 3.13-4.77 3.25-.54.03-1.17.26-1.58.6-.9.76-1.89.84-2.99.77-.68-.04-1.37.07-2.05.12-.53.04-1.18.31-1.55.1-1.71-.98-3.79.07-5.42-1.05-.78-.54-1.57-.88-2.53-1.08-.77-.17-1.51-.87-2.05-1.52-.5-.6-.86-1.24-1.73-1.33-.22-.02-.45-.17-.63-.32-.35-.31-.88-.61-.96-1-.41-1.88-2.67-2.5-2.91-4.49-.07-.55-.44-1.06-.69-1.58-.13-.26-.41-.49-.45-.75-.17-1.43-.15-2.91-.47-4.31-.35-1.56-.13-2.9.76-4.19.21-.3.29-.78.24-1.15-.2-1.5.37-2.67 1.44-3.62.52-.46.84-.9.87-1.63.06-1.45.89-2.42 2.19-2.94.58-.24.98-.49 1.17-1.16.34-1.22 1.23-2.02 2.41-2.39.61-.19 1.05-.47 1.27-1.08.06-.16.15-.36.28-.44 1.85-1.06 3.11-3.05 5.32-3.52 1.05-.22 1.36-.74 1.19-1.87-.58.37-1.04.75-1.56.98-1.99.88-3.99 1.71-5.99 2.55-.16.06-.35.07-.52.05-2.77-.35-5.5-.82-7.83-2.51-.7-.51-1.59-1.1-1.22-2.13.39-1.08 1.46-.81 2.31-.72 1.11.13 2.21.34 3.3.6 1.54.37 3.07.82 4.62 1.23Zm8.52-.19c-.17.68-.35 1.36-.52 2.04-.36 1.49 0 2.3 1.25 3.15 1.36.93 2.67.58 3.75-.32 1.35-1.12 2.52-2.46 3.73-3.75.24-.25.31-.66.55-1.19-.46.11-.68.19-.9.21-.6.05-1.44.46-1.58-.5-.12-.8.74-.73 1.27-.91 3.04-1.01 3.98-3.4 2.5-6.47-.49.13-.99.31-1.5.38-.93.13-1.87.26-2.81.27-.57 0-1.05-.27-.76-1.19.49-.08 1.06-.14 1.62-.25.92-.18 1.87-.31 2.76-.61 1.79-.61 2.8-2.09 2.55-3.97-.22-1.6-.71-3.17-1.1-4.8-4.37.89-8.51.84-12.82.02-.38 1.63-.84 3.15-1.07 4.71-.28 1.86.69 3.4 2.48 4 1.05.36 2.18.47 3.27.71.47.1.93.25 1.39.38l-.06.5c-1.74 1.35-3.57-.08-5.44-.08-.08.26-.17.53-.23.81-.71 3.15.13 4.64 3.19 5.64.22.07.5.08.66.22.2.17.44.49.4.69-.04.21-.39.5-.61.51-.63 0-1.26-.12-1.94-.19Zm-2.36-25.98c-.27.64-.64 1.44-.94 2.26-.92 2.53-.17 3.96 2.47 4.52 1.26.27 2.57.31 3.85.5 2.43.35 4.77-.27 7.13-.62.39-.06.77-.29 1.11-.52 1.09-.71 1.48-1.61 1.11-2.86-.35-1.17-.83-2.3-1.28-3.5-.52.12-.91.27-1.31.3-1.23.09-2.46.19-3.69.17-.29 0-.57-.45-.85-.69.28-.22.55-.58.86-.63.69-.11 1.41-.04 2.11-.1 3.27-.29 4.64-2.69 3.27-5.82-.42-.06-.89-.1-1.34-.2-1.75-.39-3.24-1.25-3.99-2.92-.44-.99-.61-2.13-.74-3.22-.12-.95-.12-1.87-1.08-2.39-.78.59-.93 1.35-.95 2.22-.11 3.96-1.82 5.83-5.81 6.43-.11.02-.21.09-.32.13-1.33 2.96-.01 5.4 3.12 5.74.7.07 1.41.07 2.12.08.48.01 1.02-.01 1.02.66 0 .62-.49.78-.99.75-1.52-.07-3.03-.18-4.89-.29Zm15.97-33.06c-.04.45-.12.9-.1 1.34.17 4.41 2.55 7.36 6.31 9.32 3.27 1.71 6.68 1.17 9.6-1.45-.33-1.95-1.51-3.26-3.21-4.16-1.74-.91-3.6-1.48-5.57-1.64-2.73-.22-5.01-1.27-7.04-3.41ZM41.61 67.6c1.67.71 3.32 1.44 5 2.12.31.12.7.1 1.04.04 4.11-.65 7.22-2.77 9.04-6.53.78-1.61 1.09-3.39.73-5.26-.25.1-.39.12-.45.19-1.67 2.02-3.83 3.03-6.42 3.25-2.01.17-3.93.72-5.71 1.67-1.75.93-2.94 2.27-3.23 4.52m9.44-14.96c-3.31-1.67-8.81-.04-11.04 3.27-2.03 3.01-1.88 7.13.54 9.63 1.33-3.09 4.15-4.16 7.11-5.19-.6-3.24-.13-6.04 3.39-7.7Zm34.79 7.63c1.38.65 2.87 1.14 4.1 2 1.2.84 2.12 2.07 3.16 3.12 2.1-2.59 2.48-7.13-.45-10.38-2.19-2.42-7.43-4.11-10.05-2.39 2.48 1.91 3.55 2.23 3.24 7.64Zm6.83 8.56c-1.68.7-3.25 1.36-4.83 2-.61.25-.89.67-.99 1.33-.23 1.61-.52 3.22-.79 4.84.94.99 1.97 2.07 3.1 3.27.82-.77 1.75-1.57 2.61-2.46 2.52-2.62 2.82-5.63.9-8.98m-51.94.01c-2.61 3.66-1.32 8.63 3.65 11.18 1.05-1.09 2.05-2.13 2.9-3.01-.26-1.59-.53-3.08-.73-4.58-.1-.77-.35-1.33-1.11-1.63-1.58-.63-3.14-1.3-4.71-1.96m34.84 19.24c2.19-.86 4.22-1.6 6.21-2.45a36 36 0 0 0 3.78-1.89c1.04-.6 1.51-1.62 1.6-2.81.1-1.32-1.01-1.76-1.82-2.38-.7-.53-1.22.06-1.69.47-1.63 1.45-3.27 2.88-4.81 4.42a16 16 0 0 0-3.26 4.64Zm-17.72.05c-2.02-3.98-5.29-6.75-8.62-9.46-.24-.19-.67-.31-.96-.25-1.55.36-2.5 2.12-1.84 3.57.32.71.9 1.41 1.54 1.85 1.01.68 2.15 1.19 3.29 1.67 2.14.9 4.32 1.72 6.6 2.62Zm5.45 47.83c-1.05-.89-1.95-1.66-2.85-2.43-2.39 1.78-3.05 4.47-1.77 7.17 1.08 2.27 3.33 3.39 5.9 2.81-2.57-2.21-3.27-4.71-1.28-7.54ZM46.71 92.48c1.1.22 1.9.55 2.67.5 2.69-.2 5.29-.85 7.92-1.76-3.5-2.35-6.52-2.05-10.59 1.26m39.62-.17c-3.34-3.11-7.18-3.52-10.41-.9 2.72.55 5.23 1.1 7.76 1.55.91.16 1.85-.02 2.65-.65m-1.93 9.94c-3.65-2.72-7.44-4.34-9.92-3.09q.3 1.02.63 2.1c3.1.21 5.93 1.51 9.29.99m-25.57-3.2c-2.84-.8-8.42 1.11-9.55 3.26 3.07.44 5.9-.83 8.87-1.06.17-.39.33-.69.43-1.02.11-.38.17-.79.25-1.18m1.33 21.36c-2.47.27-2.96 1.27-1.61 3.18.67.94 1.37 1.87 2.03 2.77 1.91-.46 2.24-.72 2.78-2.27-2.42-1.6-2.44-1.62-3.21-3.68Zm-10.21 8.31c-1.88.84-2.41 2.09-1.45 3.76.51.89 1.27 1.65 1.98 2.56.56-.49 1.03-.83 1.42-1.25 1.03-1.1 1.01-1.77 0-2.87-.63-.69-1.24-1.39-1.96-2.2Zm7.12.06c2.1-.82 2.4-1.68 1.24-3.3-.67-.95-1.34-1.89-2.01-2.84-1.59.92-1.95 1.87-1.14 3.29.55.96 1.23 1.85 1.91 2.85m-3.17 2.31c1.68-1.07 1.93-1.6 1.27-2.71-.61-1.04-1.3-2.03-1.94-3.03-2.1.9-2.49 2.35-1.07 3.93.54.61 1.13 1.18 1.74 1.82Zm-6.78 2.01c-2.36 1.32-1.35 4 1.74 5.32 1.02-1.71 1-1.99-.19-3.42-.52-.63-1.04-1.27-1.55-1.89Zm4.95 20.49c.35.95.88 1.71 1.9 1.66 1.57-.08 1.91-1.52 2.67-2.55-.23-.27-.35-.47-.52-.62-1.3-1.13-1.8-1.1-2.94.18-.39.43-.75.89-1.11 1.32Zm-6.63-15.97c-.88 1.24-1.22 2.29-.49 3.35.93 1.34 2.32 1.02 3.74.84.18-2.43-2.08-2.74-3.25-4.19m15.06 15.55c-1.44-.56-1.97-.51-2.74.41-.63.76-1.14 1.6-1.71 2.4 2.45 1.72 3.61.98 4.44-2.82Zm-14.12-5.79c.88 2.54 1.75 2.56 4.43.24-.26-1.93-.54-2.09-2.12-1.31-.72.36-1.47.68-2.31 1.07m33.8-37.2c-1.19-.62-2.38-1.25-3.58-1.84-.47-.23-.97-.44-1.48-.54-.58-.13-1.14.14-1.19.73-.03.36.27.98.58 1.1 1.79.72 3.63 1.3 5.67.55m-26.98-.04c.03.13.07.27.1.4 1.94.34 3.77-.19 5.54-.91.31-.13.68-.89.57-1.08-.22-.36-.75-.59-1.19-.74-.22-.08-.56.11-.82.24q-2.1 1.035-4.2 2.1Zm16.47 41.52c-2.09.05-2.1 1.55-.74 4.06 2.69-.16 2.4-2.05.74-4.06m-16.75-1.32c-.79-1.48-1.09-1.58-2.33-.77-.62.4-1.24.82-1.84 1.22 1.22 2.45 2.15 2.33 4.18-.45Zm-7.78-7.41c-.4 1.17-.21 1.99.52 2.61.66.55 1.34.16 1.96-.18.61-.33 1.2-.69 1.97-1.13-1.33-1.56-3.08-.56-4.46-1.3Zm27.16 10.28c2.37-.83 2.32-1.85-.11-3.98-1.52 1.03-1.51 1.57.11 3.98m-11.6 3.84c2.59.63 3.41-.51 2.67-3.49-.93-.39-1.42.11-1.73.9-.31.81-.59 1.63-.94 2.59m4.28-.07c1.96.27 2.61-.38 2.11-2.11-.17-.61-.39-1.2-.59-1.79-1.27.12-1.42.2-1.5 1.18-.07.86-.01 1.73-.01 2.73Zm12.38-21.11c-.02-.9-.18-1.82-1.15-2.1-1.08-.32-1.79.56-2.57 1.09.65 1.85 1.49 2.08 3.72 1.01m-2.16 14.3c.67-.31 1.26-.8 1.06-1.58-.32-1.26-1.52-1.6-2.52-2.15-.82 1.62-.73 1.82 1.46 3.73m2.77-31.99c-1.04-1.53-2.26-2.85-4.02-3.69-.25.36-.47.67-.73 1.04 1.45 1.24 2.92 2.25 4.76 2.65Zm-2.29 22.49c-.51 1.44-.13 1.85 2.53 2.77 1.15-1.9.45-2.66-2.53-2.77m-.86-8.39c-.3-.78-.82-1.35-1.7-1.22-1.23.18-1.53 1.27-2.04 2.17 1.44.73 1.85.62 3.74-.95m-19.7-14.27c.09.13.19.25.28.38 1.73-.59 3.25-1.57 4.75-2.86-.31-.38-.57-.7-.99-1.21-1.43 1.3-2.73 2.5-4.04 3.69m22.03 28.97c1.26-1.6.59-2.58-2.14-3.26-.66.69-.6 1.34.17 1.89.65.47 1.32.91 1.97 1.36Zm-11.93-12.05c.23-1.5-.9-2.27-1.28-3.42-.38.14-.68.19-.9.34-1.21.81-1.15 1.66.19 2.29.61.29 1.26.5 2 .8Zm-25.9-50.31c1.1 1.93 2.49 3.59 4.29 5.2.15-.51.34-.82.26-.91-1.32-1.63-2.6-3.31-4.55-4.29m33.49-2.32c-.82-1.7-2.25-2.69-3.52-4.08-.02 2.41 1.07 3.65 3.52 4.08m16.84 7.64c1.84-1.75 3.28-3.28 4.54-5.35-1.4.64-4.19 3.21-4.71 4.26-.08.16.06.43.17 1.09M75.58 138c.57 1.69 1.81 1.47 2.91 1.57.41-1.21.47-1.64.05-1.82-.49-.21-1.1-.2-1.65-.17-.39.02-.77.23-1.31.41ZM60.55 82.3c2.42-.41 3.64-1.79 3.48-4.05-1.22 1.39-2.71 2.35-3.48 4.05m5.97 51.06c1.22-.9.96-2.01 1.07-3.07-.85-.33-1.56-.21-1.94.44-.62 1.05.42 1.64.87 2.63m16.65-14.65c1.74-.09 3.13-.6 4.58-1.78-1.77-.07-3.15.26-4.46.9-.13.06-.08.49-.13.88Zm-32.91.06c-.19-.54-.24-1.04-.42-1.09-1.29-.4-2.58-.94-4.4-.67 1.62.99 2.95 1.61 4.81 1.76Zm21.06 11.38c-.79 0-1.43-.19-1.8.04-.86.53-.7 1.46-.62 2.5 1.37-.3 1.69-1.36 2.42-2.54m-23.33-20.73c.11-.63.25-.96.17-1.04-1.12-.99-2.4-1.68-4-1.8 1.18.87 2.36 1.75 3.83 2.83Zm41.14-2.79c-.09-.15-.18-.29-.27-.44-1.15.62-2.32 1.22-3.44 1.9-.18.11-.12.61-.18.92.12.07.24.14.37.21 1.17-.87 2.34-1.73 3.51-2.6Zm-47.1-9.64c-.11.11-.22.23-.33.34.83.7 1.64 1.44 2.5 2.1.55.42.83.12.89-.58-1.01-.61-2.03-1.24-3.06-1.86m49.25.01c-1.04.65-2.08 1.3-3.18 1.99.96.71 1.57.36 3.18-1.99m-3.78 3.47c-1.05-.79-1.68-.59-2.39.01.33.31.65.6 1.24 1.15.39-.39.72-.73 1.16-1.17Zm-41.38-.18q1.03 1.22 2.07.14c-.61-.49-1.21-.8-2.07-.14m40.79-10.13c0 .14.01.29.02.43.38.26.72.87 1.23.21.13-.17.03-.51.04-.77-.43.05-.86.09-1.28.14Zm-3.04 18.85c-.71.2-1.16.32-1.92.53 1.09.83 1.49.55 1.92-.53M45.05 89.62c.14.66.21 1.01.28 1.36.38-.1.76-.2 1.14-.29v-.35c-.37-.19-.75-.38-1.42-.72m6.2 19.81c-.62-.12-1.11-.22-1.94-.38.67.98 1.07 1.52 1.94.38m56.62-17.17c.04-1.03-.31-1.83-1.04-2.48-.71-.64-1.54-1.08-2.43-1.39-.17-.06-.35-.09-.49-.18-.31-.18-.29-.54.03-.69.18-.09.4-.1.59-.15.4-.1.82-.15 1.2-.29 1.23-.47 1.99-1.33 2.08-2.69.02-.29 0-.6.07-.88.05-.15.27-.35.42-.35.13 0 .35.21.39.37.09.34.09.7.12 1.05.12 1.39 1 2.14 2.22 2.56.36.13.74.16 1.12.25.31.07.71.05.73.48.02.38-.37.39-.62.51-.69.33-1.4.62-2.03 1.03-1.06.68-1.64 1.67-1.53 2.98 0 .09.01.18.01.26 0 .28-.15.5-.42.44-.17-.04-.33-.27-.43-.45-.06-.11.01-.29.02-.38Zm-2.04-4.31c.87.76 1.69 1.48 2.44 2.14.8-.7 1.63-1.42 2.43-2.12-.42-.26-.89-.49-1.29-.81-.42-.34-.77-.78-1.15-1.17-.9 1.12-1.2 1.37-2.43 1.96m15.06-6.13c-.29-.34-.47-.46-.52-.62-.07-.25 0-.53-.06-.79-.15-.74-.28-1.5-.52-2.21-.21-.64-.74-1.04-1.33-1.35-.23-.12-.48-.23-.7-.38-.53-.35-.54-.73-.03-1.11.38-.28.79-.51 1.14-.82.94-.84 1.47-1.89 1.45-3.18v-.62c.02-.28.13-.57.47-.5.16.04.29.29.38.48.06.12 0 .29 0 .44-.02 1.67.75 2.93 2.08 3.87.14.1.3.18.45.28.66.44.67.92-.07 1.23-1.87.78-2.37 2.3-2.44 4.12 0 .2 0 .42-.05.61-.04.16-.14.31-.27.56Zm-.18-3.66c.4-.53.68-.99 1.04-1.36.35-.36.79-.62 1.12-.87l-2.09-2.39c-.69.78-1.4 1.59-2.14 2.43.89.48 1.66 1.13 2.07 2.19M14.74 91.47c-.29-.34-.47-.46-.52-.62-.07-.25 0-.53-.06-.79-.15-.74-.28-1.5-.52-2.21-.21-.64-.74-1.04-1.33-1.35-.23-.12-.48-.23-.7-.38-.53-.35-.54-.73-.03-1.11.38-.28.79-.51 1.14-.82.94-.84 1.48-1.89 1.45-3.18v-.62c.02-.28.13-.57.47-.5.16.04.29.29.38.48.06.12 0 .29 0 .44-.02 1.67.75 2.93 2.08 3.87.14.1.3.18.45.28.66.44.67.92-.07 1.23-1.87.78-2.37 2.3-2.44 4.12 0 .2 0 .42-.05.61-.04.16-.14.31-.27.56Zm-.18-3.66c.4-.53.68-.99 1.04-1.36.35-.36.79-.62 1.12-.87l-2.09-2.39c-.69.78-1.4 1.59-2.14 2.43.89.48 1.66 1.13 2.07 2.19m14.5 41.11c.42.45.85.89 1.27 1.35.2.21.43.42.53.68.07.18.04.53-.09.65-.12.1-.5.08-.64-.04-.47-.4-.88-.87-1.32-1.31-.17-.17-.36-.33-.66-.6-.06.39-.14.65-.14.9v5.97c0 .47.15 1.06-.54 1.22-.45.1-.7-.31-.7-1.2-.01-1.82 0-3.65 0-5.47 0-.4 0-.81-.23-1.35l-1.26 1.26c-.2.21-.38.46-.62.6-.17.1-.52.12-.64 0-.12-.11-.16-.48-.07-.63.21-.35.52-.64.79-.95.35-.38.71-.76 1.26-1.35h-3.99c-.37 0-.76.04-1.11-.04-.19-.04-.44-.29-.45-.46s.21-.47.38-.53c.35-.1.74-.09 1.11-.1h3.7l.1-.27c-.66-.66-1.32-1.32-1.97-1.99-.33-.34-.9-.73-.4-1.23.5-.49.88.09 1.23.42.65.62 1.28 1.26 2.07 2.05.05-.53.1-.84.1-1.15 0-1.74 0-3.48.01-5.22 0-.54-.19-1.24.6-1.44.45-.11.63.34.63 1.5v6.31c.82-.53 1.26-1.12 1.79-1.61.27-.25.49-.59.81-.77.24-.14.66-.21.86-.09.37.22.19.59-.06.85-.6.63-1.23 1.23-1.84 1.85-.17.17-.31.36-.61.72 1.14.02 2.07.04 3.01.06.54 0 1.08 0 1.62.03.37.02.81.06.81.56 0 .52-.43.54-.81.54-1.08 0-2.15 0-3.23-.01h-1.2c-.03.09-.06.19-.09.28Zm73.97-53.37c0 .5-.4.9-.9.9s-.9-.4-.9-.9.4-.9.9-.9.9.4.9.9" class="st1" fill="none" stroke="#BDAC82" stroke-width="1.5" stroke-linecap="round" stroke-linejoin="round"/><circle cx="112.13" cy="106.19" r=".9" class="st1" fill="none" stroke="#BDAC82" stroke-width="1.5" stroke-linecap="round" stroke-linejoin="round"/><path d="M115.8 59.92c0 .5-.4.9-.9.9s-.9-.4-.9-.9.4-.9.9-.9.9.4.9.9m-94.78 58.85c0 .5-.4.9-.9.9s-.9-.4-.9-.9.4-.9.9-.9.9.4.9.9m16.43 28.21c0 .5-.4.9-.9.9s-.9-.4-.9-.9.4-.9.9-.9.9.4.9.9m-21.91-5.87c0 .5-.4.9-.9.9s-.9-.4-.9-.9.4-.9.9-.9.9.4.9.9M28.31 93.1c0 .5-.4.9-.9.9s-.9-.4-.9-.9.4-.9.9-.9.9.4.9.9" class="st1" fill="none" stroke="#BDAC82" stroke-width="1.5" stroke-linecap="round" stroke-linejoin="round"/><path d="M36.29 196.42v-4.18c0-.33-.04-.54-.13-.63s-.3-.14-.63-.14h-1.67c-.66 0-1.14-.16-1.46-.48s-.48-.81-.48-1.46v-4.26c0-.66.16-1.14.48-1.46s.81-.48 1.46-.48h2.16c.66 0 1.14.16 1.46.48s.48.81.48 1.46v2.36h-1.7v-2.09c0-.33-.04-.54-.13-.63s-.3-.13-.63-.13h-1.13c-.31 0-.52.04-.62.13q-.15.135-.15.63v3.71c0 .31.05.52.15.62s.3.15.62.15h1.67c.66 0 1.14.16 1.46.48s.48.81.48 1.46v4.72c0 .66-.16 1.14-.48 1.46s-.81.48-1.46.48H33.9c-.66 0-1.14-.16-1.46-.48s-.48-.81-.48-1.46v-2.36h1.7v2.09c0 .31.05.52.15.62s.3.15.61.15h1.11q.495 0 .63-.15c.09-.1.13-.3.13-.62Zm8.07-10.87v10.9c0 .31.05.52.15.61s.3.15.62.15h.71v1.45h-1.23c-.66 0-1.14-.16-1.46-.48s-.48-.81-.48-1.46v-11.44c0-.66.16-1.14.48-1.46s.81-.48 1.46-.48h1.4v1.45h-.88c-.31 0-.52.04-.62.13q-.15.135-.15.63m2.88 2.31v-2.31c0-.33-.05-.54-.14-.63s-.3-.13-.63-.13h-.84v-1.45h1.35c.66 0 1.14.16 1.46.48s.48.81.48 1.46v2.58h-1.7Zm0 8.58v-2.31h1.7v2.58c0 .66-.16 1.14-.48 1.46s-.81.48-1.46.48h-1.35v-1.45h.84q.495 0 .63-.15c.135-.15.14-.3.14-.61Zm8.04-10.89v9.64h-1.67v-9.91c0-.66.16-1.14.48-1.46s.81-.48 1.46-.48h1.33v1.45h-.84c-.31 0-.52.04-.62.13q-.15.135-.15.63Zm0 8.19v2.68c0 .31.05.52.15.62s.3.15.62.15h.76v1.45h-1.25c-.66 0-1.14-.16-1.46-.48s-.48-.81-.48-1.46v-2.95h1.67Zm3.05 2.68v-2.48H60v2.75c0 .66-.16 1.14-.48 1.46s-.81.48-1.46.48h-1.5v-1.45h1.01q.495 0 .63-.15c.135-.15.14-.3.14-.62Zm0-1.26v-9.62c0-.33-.05-.54-.14-.63s-.3-.13-.63-.13h-.84v-1.45h1.33c.66 0 1.14.16 1.46.48s.48.81.48 1.46v9.89h-1.67Zm11.44-5.14v-4.48c0-.33-.05-.54-.14-.63s-.3-.13-.63-.13h-3.96v-1.45h4.45c.66 0 1.14.16 1.46.48s.48.81.48 1.46v5.02c0 .66-.16 1.14-.48 1.46s-.81.48-1.46.48h-3.44v-1.45H69q.495 0 .63-.15c.135-.15.14-.3.14-.62Zm-4.72-6.69h1.67v15.3h-1.67zm2.9 8.27h1.75l2.53 7.03h-1.82zm13.23-1.33v-4.72c0-.33-.05-.54-.14-.63s-.3-.13-.63-.13h-3.96v-1.45h4.45c.66 0 1.14.16 1.46.48s.48.81.48 1.46v5.26c0 .66-.16 1.14-.48 1.46s-.81.48-1.46.48h-3.44v-1.45h2.95q.495 0 .63-.15c.09-.1.14-.3.14-.62Zm-4.72-6.94h1.67v15.3h-1.67zm11.19 0h1.67v15.3h-1.67zm8.63 2.22v9.64h-1.67v-9.91c0-.66.16-1.14.48-1.46s.81-.48 1.46-.48h1.33v1.45h-.84c-.31 0-.52.04-.62.13q-.15.135-.15.63Zm0 8.19v2.68c0 .31.05.52.15.62s.3.15.62.15h.76v1.45h-1.25c-.66 0-1.14-.16-1.46-.48s-.48-.81-.48-1.46v-2.95h1.67Zm3.05 2.68v-2.48H101v2.75c0 .66-.16 1.14-.48 1.46s-.81.48-1.46.48h-1.5v-1.45h1.01q.495 0 .63-.15c.135-.15.14-.3.14-.62Zm0-1.26v-9.62c0-.33-.05-.54-.14-.63s-.3-.13-.63-.13h-.84v-1.45h1.33c.66 0 1.14.16 1.46.48s.48.81.48 1.46v9.89h-1.67Z" class="st0" fill="none" stroke="#BDAC82" stroke-width="1.5" stroke-linecap="round" stroke-linejoin="round"/><path d="M66.58 37.7c-10.39 0-18.85-8.46-18.85-18.85S56.19 0 66.58 0s18.85 8.46 18.85 18.85S76.97 37.7 66.58 37.7m0-36.23C57 1.47 49.2 9.27 49.2 18.85s7.79 17.38 17.38 17.38 17.38-7.8 17.38-17.38-7.8-17.38-17.38-17.38" class="st1" fill="none" stroke="#BDAC82" stroke-width="1.5" stroke-linecap="round" stroke-linejoin="round"/><path d="M11.35 172.42h110.46v1.6H11.35z" class="st0" fill="none" stroke="#BDAC82" stroke-width="1.5" stroke-linecap="round" stroke-linejoin="round"/></g></svg>