<svg xmlns="http://www.w3.org/2000/svg" id="sign-svg" viewBox="0 0 128.5201 198.64" width="128.5201" height="198.64" preserveAspectRatio="xMidYMid meet"><g id="sign-glyph" transform="translate(0.000 0.714) scale(0.949048)"><path d="M76.94 23.7c.44-.81.8-1.67 1.07-2.57.36-1.21.31-2.35-.13-3.42-.29-.69-.79-1.19-1.4-1.39-.6-.19-1.27-.1-1.89.27-.38.23-.7.53-1.01.83l.05-.38c.16-1.12.33-2.29.47-3.43.12-.98.19-2.13-.26-3.28-.31-.79-.81-1.33-1.44-1.57-.64-.23-1.37-.14-2.12.26-.78.42-1.44 1.06-2.02 1.94a.2.2 0 0 1-.04.06c-.05-.14-.09-.27-.14-.42-.15-.45-.3-.92-.54-1.35-.31-.55-.75-.92-1.26-1.05-.53-.14-1.11-.04-1.7.31-.27.16-.5.33-.78.55-.72.56-1.32 1.23-1.87 2.1a8 8 0 0 0-.7-1.81c-.36-.63-.88-1.04-1.48-1.15-.58-.11-1.17.05-1.7.47-.48.38-.84.87-1.2 1.35l-.25.33c-.15.2-.32.5-.25.83.03.15.13.36.4.51.42.23.77.1 1.06-.4l.06-.09c.09-.11.17-.22.26-.34.25-.34.49-.65.79-.9.12-.1.35-.25.54-.22.14.03.29.19.42.44.2.42.45.96.51 1.49.15 1.23.22 2.31.2 3.29-.03 1.74-.08 3.5-.14 5.2v.29c-.04.82-.06 1.64-.09 2.46v.12c-.02.24-.05.58.18.83.14.15.35.24.58.24.22.02.41-.05.56-.2.23-.23.23-.55.23-.78l.29-8.47v-.19c0-.13 0-.26.03-.33.64-1.76 1.46-2.98 2.58-3.83.65-.5.94-.55 1.08-.5.14.04.36.26.62 1.06.34 1.05.47 2.22.39 3.57-.12 1.9-.27 3.89-.41 5.63l-.07.9c-.04.47-.11.96-.19 1.43-.04.26-.06.56.12.81q.18.255.54.3c.21.04.4 0 .55-.1.19-.13.31-.38.37-.72l.04-.21c.04-.21.07-.42.09-.64.12-1.58.23-3.16.34-4.74l.21-2.95v-.15c0-.09.01-.21.04-.26.45-.94.91-1.91 1.65-2.64.29-.28.64-.53 1.02-.72.26-.13.48-.17.64-.11.15.06.29.22.41.48.15.34.32.85.3 1.31-.07 1.21-.2 2.55-.41 4.21-.11.88-.24 1.78-.37 2.67-.16 1.11-.35 2.37-.49 3.59-.15 1.34-.24 3.09.4 4.85l-.53.43c-1.35 1.08-2.62 2.09-4.03 2.95-.21.13-.43.29-.49.56-.02.1-.04.29.1.51.15.24.51.42.83.42.04 0 .08 0 .12-.01.33-.05.6-.25.82-.42.8-.6 1.59-1.2 2.39-1.8l1.34-1.02c.09-.06.17-.13.27-.19.99 1.14 2.72 1.6 4.11 1.08.43-.16.77-.49.88-.84.07-.23.03-.46-.11-.64-.44-.58-.99-.24-1.17-.13a.8.8 0 0 1-.17.09c-.89.34-1.82.05-2.3-.72.15-.12.29-.25.42-.38.89-.89 2.01-2.1 2.82-3.55Zm-.39-3.44c-.05.5-.21 1.05-.45 1.6-.77 1.72-2 3.13-3.13 4.29-.19-.55-.21-1.12-.21-1.65.01-1.13.05-2.22.29-3.24.3-1.29 1.04-2.38 2.12-3.15.24-.17.47-.26.66-.26.06 0 .12 0 .17.03.26.1.4.42.46.68.13.51.16 1.1.1 1.71ZM48.84 183.35h1.7l-2.46 15.29H45.4l-2.46-15.29h1.7l2.09 14.11zm5.87 0h1.67v15.29h-1.67zm11.8 6.68v-4.47c0-.33-.05-.54-.14-.63s-.3-.14-.63-.14h-3.96v-1.45h4.45c.66 0 1.14.16 1.46.48s.48.81.48 1.46v5.01c0 .66-.16 1.14-.48 1.46s-.81.48-1.46.48h-3.44v-1.45h2.95q.495 0 .63-.15c.09-.1.14-.3.14-.61Zm-4.72-6.68h1.67v15.29h-1.67zm2.9 8.26h1.75l2.53 7.03h-1.82zm10.08-6.05v10.89c0 .31.05.52.15.61.1.1.3.15.61.15h.71v1.45h-1.23c-.66 0-1.14-.16-1.46-.48s-.48-.81-.48-1.46v-11.43c0-.65.16-1.14.48-1.46s.81-.48 1.46-.48h1.4v1.45h-.88c-.31 0-.52.04-.61.14q-.15.135-.15.63Zm2.88 2.06v-2.06c0-.33-.05-.54-.14-.63s-.3-.14-.63-.14h-.84v-1.45h1.35c.66 0 1.14.16 1.46.48s.48.81.48 1.46v2.33h-1.7Zm0 8.83v-4.52h1.7v4.79c0 .66-.16 1.14-.48 1.46s-.81.48-1.46.48h-1.35v-1.45h.84q.495 0 .63-.15c.09-.1.14-.3.14-.61Zm1.69-5.51v1.45h-2.92v-1.45zm6.47-5.38v9.63h-1.67v-9.91c0-.65.16-1.14.48-1.46s.81-.48 1.46-.48h1.33v1.45h-.84c-.31 0-.52.04-.61.14q-.15.135-.15.63m0 8.18v2.68c0 .31.05.52.15.61s.3.15.61.15h.76v1.45h-1.25c-.66 0-1.14-.16-1.46-.48s-.48-.81-.48-1.46v-2.95zm3.04 2.68v-2.48h1.67v2.75c0 .66-.16 1.14-.48 1.46s-.81.48-1.46.48h-1.5v-1.45h1.01q.495 0 .63-.15c.135-.15.14-.3.14-.61Zm0-1.25v-9.61c0-.33-.05-.54-.14-.63s-.3-.14-.63-.14h-.84v-1.45h1.33c.66 0 1.14.16 1.46.48s.48.81.48 1.46v9.88h-1.67Z" class="st0" fill="none" stroke="#BDAC82" stroke-width="1.5" stroke-linecap="round" stroke-linejoin="round"/><path d="M102.09 74.04c.57.4 1.14.78 1.7 1.2 2.83 2.12 5.76 4.12 8.46 6.4 4.17 3.52 7.3 7.84 9.11 13.04.71 2.03 1.08 4.1.89 6.26-.23 2.69-1.27 5.02-3.25 6.87-.86.8-1.81 1.51-2.73 2.25-1.49 1.19-2.79 2.55-3.68 4.25-1.15 2.2-1.35 4.45-.4 6.82.88 2.18 1.81 4.37 2.35 6.64.97 4.03-.84 6.61-4.92 7.45-3.12.64-6.21.33-9.31-.23-1.5-.27-3.03-.52-4.55-.55-2.65-.05-4.53 1.41-5.06 4.03-.3 1.48-.31 3.05-.28 4.57.07 3.06-.98 5.65-2.97 7.92-.23.27-.44.61-.74.74-.31.14-.72.06-1.08.08.03-.32-.07-.75.1-.94.78-.86 1.42-1.73 1.1-2.99-.37-1.47-1.04-2.75-2.28-3.68-1.04-.78-2.11-1.51-3.11-2.34-.99-.83-1.98-1.69-2.83-2.66-2.64-3.04-3.24-6.52-1.74-10.23.68-1.67 1.68-3.25 2.76-4.7 1.51-2.03 3.25-3.89 4.85-5.86 3.75-4.64 6.05-9.93 7.1-15.8.31-1.74.22-3.27-1.38-4.57-.08.34-.17.62-.2.92-.97 8.29-3.79 15.78-9.46 22.06-2.7 3-5.91 5.18-9.68 6.63-2.45.94-4.75.88-7.21-.02-5.01-1.85-8.78-5.19-11.89-9.4-4.03-5.45-6.16-11.62-7.04-18.28-.08-.57-.16-1.14-.28-1.96-1.12 1.08-1.82 2.04-1.54 3.46.33 1.67.53 3.38 1 5.01 1.39 4.75 3.63 9.07 6.9 12.83 1.51 1.74 3.02 3.47 4.4 5.31.91 1.22 1.74 2.54 2.35 3.93 1.76 4.03 1.11 7.75-1.86 10.97-1.15 1.25-2.55 2.27-3.86 3.37-.59.49-1.24.91-1.84 1.38-1.22.95-1.91 2.2-2.23 3.7-.19.88-.1 1.62.55 2.28.25.25.52.52.65.83.09.22.06.63-.1.78-.14.14-.57.17-.76.06-.35-.2-.63-.53-.9-.83-2.18-2.38-3.15-5.2-3.04-8.42.04-1.17.02-2.36-.12-3.53-.36-2.88-2.38-4.74-5.29-4.61-2.17.09-4.32.54-6.47.86-2.59.38-5.17.41-7.73-.17-3.31-.74-4.97-2.86-4.63-6.25.17-1.67.76-3.31 1.26-4.94.29-.95.78-1.85 1.19-2.76 1.14-2.53.77-4.95-.57-7.27-.99-1.71-2.42-3.02-3.94-4.26-1.18-.96-2.42-1.93-3.35-3.12-2.34-3-2.69-6.47-1.77-10.08 1.24-4.86 3.82-8.97 7.25-12.58 2.91-3.05 6.28-5.53 9.74-7.9.91-.63 1.82-1.27 2.8-1.95-4.08-1.43-7.61-.03-9.42 3.6-.23.47-.49.94-.8 1.36-.1.13-.46.18-.63.11s-.31-.34-.35-.54c-.04-.22.03-.47.12-.68 1.47-3.61 3.79-5.96 8.06-5.59 3.72.33 6.6-.96 9.06-3.46 2.06-2.1 3.94-4.38 5.88-6.59 3.46-3.95 7.54-6.92 12.71-8.22 2.84-.71 5.7-.81 8.6-.42.81.11 1.66.22 2.45.09 8.7-1.37 15.74 1.69 21.52 8.06 1.46 1.61 2.75 3.39 4.23 4.99 1.2 1.29 2.53 2.47 3.89 3.59 1.9 1.56 4.09 2.18 6.59 1.95 4.24-.38 7.14 1.52 8.67 5.48.04.11.15.23.13.32-.08.36-.21.7-.32 1.05-.29-.14-.68-.2-.85-.42-.31-.42-.5-.93-.74-1.41-1.21-2.46-3.16-3.73-5.94-3.67-1.05.02-2.11 0-3.16 0-.05.13-.11.26-.16.4Zm-52.4 2.33c-.66 1.65-1.33 3.09-1.82 4.6-2.37 7.15-2.73 14.44-1.23 21.81 1.61 7.92 5.21 14.73 11.42 20.05 2.34 2 5.03 3.27 7.99 3.98.82.2 1.77.18 2.6-.01 2.96-.71 5.65-1.99 7.98-3.99 4.15-3.57 7.26-7.89 9.26-12.97 2.97-7.52 3.76-15.3 2.32-23.26-.64-3.53-1.59-6.99-3.4-10.14-1.8-.17-3.52-.6-5.24-.07-.09 1.72.53 2.37 1.95 2.11.28-.05.55-.24.83-.28.59-.08.96.37.66.86-2.01 3.27-4.62 3.97-7.27 1.1-.39-.42-.68-.97-.91-1.5-.44-1.03-.86-2.07-1.18-3.14-.53-1.79-1.79-2.6-3.53-2.67-1.88-.08-3.77-.08-5.65 0-1.75.08-2.97.92-3.5 2.71-.35 1.18-.85 2.32-1.33 3.46-.48 1.12-1.35 1.92-2.41 2.49-1 .53-2.02.61-3.06.11-1.34-.64-2.04-1.81-2.86-3.32.64 0 1-.02 1.36 0 .51.03 1.05.2 1.54.1.71-.15 1.08-.74 1.03-1.46-.06-.81-.7-.84-1.31-.81-1.35.07-2.7.15-4.22.24ZM32.97 89.41c-.64-1.6-1.44-3.03-1.76-4.55s-.42-3.19-.16-4.72c.25-1.48 1.06-2.86 1.66-4.36-3.83 2.23-8.78 6.04-11.53 8.9-3.28 3.41-5.79 7.29-7.01 11.91-1.21 4.56-.12 8.41 3.74 11.29 1.32.98 2.73 1.84 4.11 2.74s2.77 1.78 4.47 2.87c-.39-.62-.57-.91-.76-1.2-1.98-3.05-2.41-6.34-1.48-9.83.91-3.43 2.56-6.44 5.15-8.92 1.36-1.29 2.79-2.54 3.58-4.12Zm75.76 23.67c1.27-.8 2.62-1.63 3.93-2.49 1.52-1 3.09-1.95 4.51-3.08 3.36-2.66 4.34-6.2 3.42-10.28-1.09-4.85-3.67-8.9-7.07-12.45-3.33-3.47-7.24-6.21-11.25-8.82-.1-.06-.27 0-.45 0 1.76 3.22 2.13 4.42 1.99 6.73-.12 1.97-.65 3.85-1.71 5.51-.54.85-.49 1.51.17 2.21 1.05 1.11 2.07 2.26 3.17 3.33 2.61 2.55 4.21 5.66 5.07 9.16.41 1.67.66 3.39.12 5.07-.55 1.72-1.25 3.39-1.89 5.12ZM43.26 95.11c.19-.06.39-.13.58-.19-.25-1.43-.44-2.88-.77-4.3-.37-1.6-.94-3.16-1.3-4.77-.38-1.7-.27-3.38.39-5.03 1.57-3.94 5.56-6.45 10.13-6.34.66.02 1.33 0 2.13 0-.24-.78-.37-1.28-.54-1.77-1.44-4.18 2.38-8.08 6.67-6.92 1.88.51 3.42 1.54 4.8 2.88.36.35.73.69 1.17 1.1.48-4.03-1.98-8.29-5.81-9.93-1.32-.56-2.84-.99-4.25-.94-3.09.11-5.35 2.32-5.64 5.55-.36 3.9-2.58 5.88-6.14 6.78-1.2.3-2.4.59-3.57.99-.66.22-1.33.54-1.84 1-4.81 4.26-4.4 10.88-.87 14.51 2.07 2.13 4.36 4.17 4.89 7.4Zm48.01.1c.36-2.03 1.43-3.63 2.75-5.1 1.02-1.14 2.12-2.23 3.06-3.43 4.01-5.17 1.21-13.88-4.97-14.93-.58-.1-1.16-.23-1.71-.42-1.11-.39-2.24-.75-3.28-1.29-1.8-.92-2.8-2.47-3.09-4.47-.11-.76-.2-1.53-.4-2.26-.82-3.05-3.81-4.93-6.94-4.36-4.39.79-7.09 3.49-8.45 7.63-.32.96-.41 2 .04 3.07.67-.63 1.2-1.18 1.78-1.68 1.41-1.21 3-2.08 4.87-2.34 3.61-.49 6.64 2.61 6.01 6.19-.15.85-.42 1.69-.66 2.66h2.36c6.24.07 12.13 5 9.92 12.71-.41 1.42-.87 2.82-1.23 4.24-.31 1.24-.59 2.51-.07 3.79Zm-42.29 47.46c.13.13.26.25.39.38 1.79-1.52 3.71-2.92 5.33-4.6 2.64-2.74 3.14-6.01 1.56-9.48-.63-1.38-1.48-2.69-2.4-3.9-1.28-1.69-2.69-3.28-4.08-4.89-4.43-5.14-7.06-11.1-8.1-17.79-.08-.49-.15-.98-.23-1.49-2.86.87-4.05.85-5.26-.04 0-.13-.05-.28 0-.35.37-.45.76-.89 1.15-1.32 1.18-1.31 1.24-2.63.14-4.13-3.38 5.68-3.66 11.35-.19 17.06 1.58 2.59 3.73 4.7 5.96 6.73 1.79 1.63 3.61 3.22 5.32 4.92 2.08 2.07 3.58 4.51 4.38 7.37.61 2.16.44 4.21-.71 6.14-.75 1.27-1.57 2.5-2.34 3.75-.33.54-.63 1.09-.94 1.64Zm44.15-41.69c-.05.21-.13.43-.15.64-.75 6.75-3.36 12.71-7.65 17.95-1.57 1.92-3.25 3.74-4.73 5.72-.98 1.31-1.85 2.75-2.46 4.26-.91 2.27-.9 4.61.31 6.84 1.63 2.99 4.39 4.74 7.18 6.47-.92-1.81-1.98-3.49-3.03-5.18-1.4-2.24-1.64-4.58-.78-7.11a17.45 17.45 0 0 1 4.37-6.97c1.81-1.77 3.8-3.37 5.57-5.17 1.85-1.89 3.72-3.8 5.27-5.93 2.38-3.28 3.19-7.05 2.57-11.08-.35-2.28-1.25-4.34-2.5-6.35-1.01 1.6-.93 2.85.16 4.08.48.54.93 1.11 1.42 1.7-1.63.87-2.2.87-5.54.13Zm7.47-10.31c-3.02 3.46-2.82 1.97-1.05 5.99.1.22.2.43.29.64 1.48 3.43 1.67 6.97.82 10.56-.8 3.36-2.59 6.21-4.97 8.64-2.14 2.19-4.45 4.21-6.69 6.31-.53.5-1.05 1-1.57 1.5 1.67-.61 3.13-1.46 4.64-2.22 2.64-1.32 5.32-2.54 7.95-3.86 3-1.51 5.51-3.62 7.45-6.37 1.52-2.15 2.28-4.55 1.91-7.18-.49-3.53-1.92-6.67-4.33-9.32-1.42-1.56-2.91-3.06-4.47-4.7Zm-53.48 33.6c-.48-.47-.9-.92-1.36-1.33-1.36-1.22-2.81-2.36-4.07-3.67-1.8-1.86-3.68-3.69-5.14-5.81-3.69-5.37-4.16-11.13-1.35-17.08q1.51-3.21-1.23-5.68c-1.3 1.36-2.57 2.75-3.9 4.09-2.25 2.28-3.7 5-4.51 8.08-.93 3.55-.24 6.77 2.04 9.64 1.82 2.29 4 4.18 6.6 5.52 4.18 2.16 8.4 4.25 12.61 6.36.03.02.1-.04.3-.13Zm40.22 18.37c-.15-2.59-.44-4.99-.39-7.39.05-2.59.84-5 2.7-6.92 2.07-2.14 4.77-2.6 7.44-1.27.79.39 1.5.94 2.3 1.31 1.11.52 2.24 1.08 3.43 1.37 1.76.44 2.89-.41 3.08-2.2.09-.87.06-1.77-.05-2.64-.39-3.33-.88-6.66 1.04-9.84-3.77 3.86-8.75 5.52-13.33 7.86-2.04 1.04-4.09 2.13-5.95 3.45-1.42 1-2.72 2.28-3.76 3.67-1.4 1.87-1.61 4.07-.42 6.17 1.21 2.14 2.57 4.21 3.93 6.42Zm-40.11-.5c.09.05.17.11.26.16 1.28-2.09 2.62-4.16 3.81-6.3.38-.68.49-1.57.54-2.37.14-2.1-.9-3.73-2.29-5.18-1.74-1.81-3.85-3.11-6.06-4.25-2.88-1.48-5.82-2.86-8.73-4.28-2.24-1.09-4.31-2.44-6.11-4.17-.31-.3-.66-.56-.99-.84 1.75 2.79 1.67 5.74 1.25 8.77-.15 1.11-.21 2.24-.19 3.35.05 2.41 1.28 3.34 3.6 2.58 1.38-.45 2.64-1.27 3.99-1.85 1.17-.51 2.36-1.19 3.59-1.35 2.74-.37 5.19 1.28 6.6 4.11 1.06 2.12 1.31 4.4 1.2 6.72-.08 1.64-.31 3.27-.47 4.91Zm-1.46-.6c.88-3.49.96-6.57-.2-9.56-.39-1.01-1.04-2-1.78-2.79-1.51-1.61-3.51-1.9-5.5-.93-.9.44-1.7 1.06-2.61 1.48-1.17.54-2.36 1.11-3.61 1.39-2.75.6-4.65-.93-4.73-3.74-.04-1.41.16-2.82.23-4.23.06-1.23.22-2.48.11-3.7-.2-2.33-1.47-4.06-3.25-5.49.07 1.58.36 3.07.14 4.47-.26 1.6-.98 3.12-1.49 4.68-.59 1.78-1.35 3.53-1.71 5.36-.58 2.92.63 4.58 3.55 5.28 2.38.57 4.79.47 7.2.16 2.62-.34 5.23-.88 7.86-.96 2.75-.09 4.4 1.37 5.06 4.03.34 1.36.46 2.77.74 4.55Zm43.07.01c.2-1.4.31-2.51.52-3.6.73-3.74 2.6-5.24 6.43-5.02 1.58.09 3.15.38 4.71.67 2.91.54 5.83.86 8.77.26 3.49-.71 4.67-2.53 3.92-5.97-.2-.92-.5-1.81-.8-2.71-.18-.56-.42-1.1-.67-1.63-1.41-3.06-2.66-6.15-1.34-9.65-1.79 1.44-3.27 3.04-3.38 5.37-.09 1.81.13 3.63.21 5.45.04 1 .18 2.01.09 2.99-.26 2.54-2.03 3.93-4.54 3.45-1.25-.24-2.45-.79-3.63-1.32-.91-.41-1.72-1.03-2.61-1.48-2.19-1.12-4.31-.81-5.9 1.06-.78.92-1.41 2.05-1.78 3.19-.93 2.85-.78 5.76 0 8.94M68.76 71.38c.74.06 1.15.08 1.56.13 2.39.28 4.04 1.43 4.72 3.86.28 1.01.73 1.99 1.16 2.95.42.95 1.13 1.66 2.12 2.02.38.14.82.09 1.23.13-1.87-1.36-1.81-3.05-1.3-4.85.17-.62.43-1.22.64-1.83s.46-1.21.62-1.84c.71-2.91-1.71-5.53-4.63-4.95-2.54.5-4.43 2-6.09 4.38Zm-14.11 8.97c.7.07 1.04.2 1.32.12 1.21-.34 2.05-1.16 2.54-2.29.51-1.19.95-2.41 1.4-3.62.56-1.51 1.63-2.42 3.18-2.77.82-.19 1.66-.32 2.65-.5-1.3-2.01-2.94-3.28-4.98-4.02-1.68-.61-3.26-.44-4.59.86-1.34 1.31-1.49 2.87-.85 4.56.37.99.76 1.98 1.08 2.99.57 1.82.49 3.47-1.75 4.68Zm3.66-25.01c4.31.76 7.12 3.36 9.01 7.45 1.88-4.12 4.71-6.65 8.98-7.42-.46-.24-.88-.47-1.3-.47-2.17-.01-4.34.04-6.52.06-.81 0-1.62.06-2.42-.02-2.58-.27-5.16-.43-7.75.41ZM34.05 77.4c-1.79 2.48-2.06 4.92-1.12 7.55.91 2.55 2.49 4.66 4.23 6.67 1.92 2.21 3.39 4.55 2.25 7.72 1.62-.62 2.46-1.91 2.31-3.38-.16-1.59-.9-2.9-1.89-4.11-1.46-1.77-2.92-3.54-4.32-5.36-.99-1.29-1.53-2.76-1.48-4.43.04-1.45 0-2.9 0-4.66Zm61.23 21.94c-1.3-3.05.18-5.28 1.93-7.43.63-.77 1.29-1.53 1.9-2.32 1.26-1.65 2.3-3.42 2.82-5.45.64-2.48.23-4.74-1.59-6.99.05.51.06.73.1.95.6 3.37.34 6.55-1.97 9.31-1.32 1.58-2.62 3.17-3.93 4.76-.88 1.07-1.48 2.26-1.65 3.65-.19 1.62.65 2.92 2.38 3.53Zm-6.66-30.26c-1.31-1.53-1.53-3.37-1.75-5.25-.37-3.13-2.04-5.41-5.03-6.44-2.62-.89-5.32-.86-7.94.2-1 .4-1.92.91-2.71 1.92 1.5-.64 2.75-1.33 4.08-1.7 5.48-1.52 9.51 2.03 9.94 6.19.04.35.15.69.18 1.04.17 2.03 1.28 3.34 3.23 4.03Zm-42.38-.21c1.83-.71 2.48-1.44 2.87-3.08.15-.63.19-1.28.3-1.92.74-4.21 4.18-6.87 8.37-6.31 1.37.18 2.69.78 4.03 1.21.4.13.77.35 1.16.52.05-.1.1-.2.16-.31-.75-.44-1.46-.94-2.24-1.32-1.64-.79-3.39-.88-5.18-.8-4.56.21-7.41 2.69-7.98 7.19-.22 1.7-.45 3.35-1.48 4.81Zm-1.77 20.51c.55-4.24 1.72-8.3 3.36-12.44-4.88 2.3-6.15 6.7-3.36 12.44m42.17-12.53c1.95 4.27 2.84 8.42 3.46 12.83 2.8-5.69 1.73-10.36-3.46-12.83m-45.71-7.16c5.11-1.26 5.47-3.49 5.33-7.65-.38.58-.56.88-.76 1.16-1.45 2.06-2.9 4.11-4.57 6.49m47.48-7.21c-.4 4.31 1.13 6.43 5.05 7.08-1.49-2.52-3.08-4.82-5.05-7.08" class="st1" fill="none" stroke="#BDAC82" stroke-width="1.5" stroke-linecap="round" stroke-linejoin="round"/><path d="M61.93 151.82c-1.06-1.3-2.37-2.18-3.76-2.95-1.69-.94-3.02-2.25-4.04-3.88-.25-.39-.48-.83-.59-1.27-.24-.97.32-1.56 1.25-1.24.77.26 1.59.61 2.16 1.15a47 47 0 0 1 3.84 4.12c1.01 1.21 1.86 2.55 2.78 3.84.11-.05.21-.11.32-.16-.31-.86-.6-1.74-.94-2.59-1.1-2.79-1.08-5.65-.41-8.52.18-.78.32-1.79 1.36-1.83.94-.04 1.12.89 1.43 1.58 1.13 2.55 1.18 5.26 1.15 7.98-.02 2-.05 4-.03 6 0 .68-.14 1.17-.89 1.27-3.68.48-7.36 1.11-11.03-.06-.06-.02-.12-.02-.17-.05-.57-.25-1.45-.24-1.38-1.1.07-.82.9-.79 1.52-.91 2.42-.45 4.83-.9 7.42-1.38Zm3-2.46c.33-2.84.42-5.65-.95-8.66-.91 3.27-.52 6.03.95 8.66m-2.16 4.69c-1.69-.88-3.17-.8-5.56.2 1.96.61 3.77.18 5.56-.2m-6.6-9.32c.64 1.63 1.1 2.03 2.48 2.27-.93-.85-1.7-1.56-2.48-2.27m16.35 7.06c2.96.55 5.56 1 8.15 1.54.36.07.64.55.95.84-.32.3-.58.76-.96.87-2.26.68-4.56 1.17-6.96.83-1.4-.2-2.81-.31-4.21-.5-1.32-.18-1.41-.39-1.31-1.75.08-1.16.08-2.34.02-3.51-.16-3.36-.32-6.72 1.02-9.93.31-.74.49-1.78 1.52-1.7.99.07 1.14 1.06 1.32 1.87.61 2.75.67 5.48-.32 8.18-.35.96-.67 1.94-.71 3.06.81-1.14 1.57-2.32 2.45-3.4 1.19-1.46 2.4-2.9 3.73-4.22.65-.64 1.56-1.05 2.41-1.42.35-.15 1.02-.08 1.25.17s.26.91.1 1.27c-.68 1.6-1.77 2.92-3.16 3.96-.75.56-1.62.96-2.38 1.52-.98.71-1.89 1.5-2.93 2.32Zm-1.82-10.78c-1.24 2.04-1.64 6.02-.94 8.47 1.23-1.99 1.86-5.43.94-8.47m1.09 13.02c1.82.42 3.65.83 5.48.13-1.82-.52-3.64-1.25-5.48-.13m6.97-8.88c-.1-.11-.2-.22-.3-.34-.95.58-1.72 1.33-2.36 2.22.1.1.19.2.29.3l2.37-2.19Z" class="st1" fill="none" stroke="#BDAC82" stroke-width="1.5" stroke-linecap="round" stroke-linejoin="round"/><path d="M59.61 141.24c-.27-.3-.49-.47-.57-.68-.03-.09.29-.44.38-.41.21.06.44.24.54.44.05.11-.17.34-.35.66Zm16.05-.46c-.29.11-.56.29-.64.23-.18-.14-.27-.4-.4-.61.23-.09.47-.24.7-.24.09 0 .19.33.33.61Zm4.27 9.09c.22.39.42.59.44.82.01.12-.28.36-.44.36-.15 0-.44-.25-.43-.37.02-.22.21-.42.44-.81Zm-26.15.61c.41-.17.65-.37.82-.32.22.06.38.31.57.49-.16.14-.31.38-.49.4-.16.02-.35-.2-.91-.56Zm13.35-29.75c-2.2.04-3.95-.77-5.13-2.6-.61-.95-1.35-1.59-2.47-1.78-.22-.04-.46-.15-.62-.31-.15-.14-.34-.46-.28-.57.12-.21.51-.52.61-.46 1.78.95 2.81-.49 4.06-1.23.3-.18.61-.35.92-.52.69-.37 1.33-.4 1.92.21.73.75 1.51.87 2.28.05.71-.76 1.47-.6 2.23-.14.7.43 1.43.84 2.04 1.37s1.17.7 1.92.39c.31-.13.72-.2 1.01-.09.17.06.36.68.26.78-.27.27-.67.48-1.05.57-.92.2-1.56.71-2.06 1.51-1.31 2.11-3.26 2.96-5.66 2.82Zm-2.06-6.47c-.71.44-1.29.8-1.53.96-.09.96-.15 1.58-.23 2.32 2.13 2.6 6 2.56 7.92.1v-2.36c-.51-.3-1.05-.62-1.64-.97-1.48 1.35-2.95 1.52-4.52-.05m4.4-30.51c.02.12.07.2.04.24-.2.27-.47.78-.61.75-1.11-.25-2.2-.02-3.3-.05-.2 0-.39-.49-.56-.72.12-.2.16-.34.25-.39.47-.25 1.26-.17 1.03-1.08-.19-.76-.77-.73-1.39-.74-2.75-.02-4.32-2.51-3.02-4.79.64-1.12 1.89-1.63 3.01-1.21.8.29 1.43 1.17 1.32 1.89-.1.64-.45 1.1-1.13 1.18-1.09.13-1.31-.67-1.48-1.62-.85.69-.95 1.42-.56 2.26.36.78.94 1.08 1.83 1.05.78-.03 1.56.22 2.5.37.58-.12 1.37-.42 2.15-.39.87.04 1.53-.11 1.92-.89.4-.79.36-1.57-.32-2.38-.13.23-.24.35-.25.48-.07.69-.47 1.14-1.13 1.1-.41-.02-.93-.27-1.16-.6-.41-.57-.26-1.24.18-1.8.76-.97 2.31-1.05 3.32-.17.94.82 1.27 2.33.8 3.57-.49 1.3-1.44 1.96-2.82 1.98-.23 0-.47-.02-.7-.04-.64-.05-1.03.26-1.12.86-.09.62.35.78.87.86.14.02.26.2.34.27ZM58.55 98.79c-3.61 0-7.13-2.43-8.28-5.5-.38-1-.02-1.62 1.1-1.6.98.02 2 .16 2.94.46 2.53.81 4.59 2.34 6.32 4.33.38.44.84.86.52 1.55-.31.68-.93.62-1.51.69-.47.05-.94.06-1.08.06Zm.76-1.46c-1.26-2.24-5.02-4.32-7.32-4.04 1.67 3.2 4.31 4.66 7.32 4.04m16.67 1.46c-.33-.03-.92-.03-1.49-.13-1.06-.19-1.46-.94-.81-1.74 2.34-2.88 5.22-4.89 9.02-5.23.52-.05 1.24.11 1.57.45.53.54.1 1.22-.25 1.76-1.82 2.85-4.1 5-8.05 4.89Zm6.6-5.56c-2.58-.08-6.39 2.12-7.21 4.18 3.22.42 5.96-1.17 7.21-4.18M61.11 83.21c-.48.13-1.33.31-2.16.56-2.11.64-4.24.98-6.43.43-1.13-.29-2.1-.81-2.69-1.84-.22-.39-.36-.89-.34-1.33.03-.57.43-1.04 1.04-.92.23.05.53.6.51.9-.09 1.2.76 1.51 1.59 1.78 1.8.58 3.6.37 5.39-.1.79-.21 1.57-.5 2.38-.62.56-.08 1.18-.01 1.73.13.24.06.38.49.56.76-.28.14-.55.3-.84.42-.09.04-.22-.05-.74-.17m10.88-.15c-.22-.65.3-.99.92-.97.98.02 1.96.22 2.94.36 1.5.21 3 .53 4.51.63.72.05 1.52-.22 2.2-.51.62-.27 1.25-.66 1.03-1.61-.06-.24.35-.59.54-.88.31.22.88.44.88.67.02.61-.06 1.3-.36 1.81-.55.96-1.54 1.4-2.6 1.66-2.01.5-3.96.22-5.92-.3-1.27-.34-2.59-.54-4.15-.86Zm11.91 4.27c-.12.97-.74.98-1.32 1.06-1.1.16-2.21.26-3.29.52-1.67.4-3.21 1.07-4.52 2.24-.22.19-.68.1-1.04.15.08-.36.03-.83.25-1.05.48-.5 1.06-.93 1.65-1.29 2.22-1.32 4.7-1.73 7.23-1.94.34-.03.7.2 1.03.31Zm-23.29 4.19c-.16-.04-.37-.04-.48-.14-2.14-1.99-4.8-2.64-7.59-2.96-.65-.08-1.74.1-1.67-.8.09-1.18 1.24-.62 1.86-.51 1.78.34 3.57.75 5.27 1.36.96.34 1.79 1.09 2.63 1.73.46.35.63.85 0 1.31Zm5.7 17.37c-.22.08-.47.27-.67.23-.66-.14-1.32-.35-1.95-.59-.1-.04-.11-.6-.08-.6.41-.1.86-.26 1.25-.18.45.1.85.42 1.28.65.05.16.11.33.16.49Zm3.99-1.48c.33.25.66.38.71.58.05.21-.12.66-.27.7-.63.18-1.3.26-1.95.32-.06 0-.26-.52-.22-.55.55-.37 1.13-.7 1.74-1.06Z" class="st1" fill="none" stroke="#BDAC82" stroke-width="1.5" stroke-linecap="round" stroke-linejoin="round"/><path d="M65.17 117.05c.64-1.32 1.49-1.03 2.17-1.02.63.01 1.7-.36 1.75.56.05 1.11-1.08.74-1.75.75-.64.01-1.29-.17-2.16-.3Zm40.87-54.04c.04-1.03-.31-1.83-1.04-2.48-.71-.64-1.54-1.08-2.43-1.39-.17-.06-.35-.09-.49-.18-.3-.18-.29-.54.03-.69.18-.09.4-.1.59-.15.4-.1.82-.15 1.2-.29 1.23-.47 1.99-1.33 2.08-2.69.02-.29 0-.6.07-.87.05-.15.27-.35.42-.35.13 0 .35.21.39.37.09.34.09.7.12 1.05.12 1.39 1 2.13 2.22 2.56.36.13.74.16 1.12.25.31.07.71.05.73.48.02.38-.37.39-.62.51-.68.33-1.4.62-2.03 1.03-1.06.68-1.64 1.67-1.53 2.98 0 .09.01.18.01.26 0 .28-.15.5-.42.44-.17-.04-.33-.27-.43-.45-.06-.11.01-.29.02-.38Zm-2.03-4.31c.87.76 1.68 1.48 2.44 2.14.8-.7 1.63-1.41 2.43-2.11-.42-.26-.89-.49-1.29-.81-.42-.34-.77-.78-1.15-1.17-.9 1.12-1.2 1.37-2.42 1.96Zm21.1 82.51c.04-1.03-.31-1.83-1.04-2.48-.71-.64-1.54-1.08-2.43-1.39-.17-.06-.35-.09-.49-.18-.3-.18-.29-.54.03-.69.18-.09.4-.1.59-.15.4-.1.82-.15 1.2-.29 1.23-.47 1.99-1.33 2.08-2.69.02-.29 0-.6.07-.87.05-.15.27-.35.42-.35.13 0 .35.21.39.37.09.34.09.7.12 1.05.12 1.39 1 2.13 2.22 2.56.36.13.74.16 1.12.25.31.07.71.05.73.48.02.38-.37.39-.62.51-.68.33-1.4.62-2.03 1.03-1.06.68-1.64 1.67-1.53 2.98 0 .09.01.18.01.26 0 .28-.15.5-.42.44-.17-.04-.33-.27-.43-.45-.06-.11.01-.29.02-.38Zm-2.03-4.31c.87.76 1.68 1.48 2.44 2.14.8-.7 1.63-1.41 2.43-2.11-.42-.26-.89-.49-1.29-.81-.42-.34-.77-.78-1.15-1.17-.9 1.12-1.2 1.37-2.42 1.96ZM13.79 148.66c-.29-.34-.47-.46-.52-.62-.07-.25 0-.53-.06-.79-.15-.74-.28-1.5-.52-2.21-.21-.64-.74-1.04-1.33-1.35-.23-.12-.48-.23-.7-.38-.53-.35-.54-.73-.03-1.11.38-.28.79-.51 1.14-.82.94-.84 1.47-1.89 1.45-3.18v-.62c.02-.28.13-.57.46-.5.16.04.29.29.38.48.06.12 0 .29 0 .44-.02 1.67.74 2.92 2.08 3.87.14.1.3.18.45.28.66.44.67.92-.07 1.22-1.87.78-2.37 2.3-2.44 4.12 0 .2 0 .41-.05.61-.04.16-.14.31-.27.56Zm-.17-3.65c.4-.53.67-.99 1.04-1.36.35-.35.79-.62 1.12-.87l-2.09-2.39c-.69.78-1.4 1.58-2.13 2.42.89.48 1.66 1.13 2.07 2.19Zm22.84-87.47c.42.45.85.89 1.27 1.35.2.21.43.42.53.68.07.18.04.53-.09.64-.12.1-.5.08-.64-.04-.47-.4-.88-.87-1.32-1.31-.17-.17-.36-.33-.66-.6-.06.39-.14.65-.14.9v5.96c0 .47.15 1.06-.54 1.21-.45.1-.7-.31-.7-1.2-.01-1.82 0-3.64 0-5.47 0-.4 0-.81-.23-1.35l-1.26 1.26c-.2.2-.38.46-.62.6-.17.1-.52.12-.64 0-.12-.11-.16-.48-.07-.63.21-.35.51-.64.79-.95.35-.38.71-.76 1.26-1.34h-3.98c-.37 0-.76.04-1.11-.04-.19-.04-.44-.29-.45-.46s.21-.47.38-.52c.35-.1.73-.09 1.11-.1h3.69c.03-.09.06-.18.1-.27-.66-.66-1.32-1.32-1.96-1.99-.33-.34-.9-.73-.4-1.23.5-.49.88.09 1.23.42.65.62 1.28 1.26 2.07 2.05.05-.53.1-.84.1-1.15 0-1.74 0-3.48.01-5.22 0-.54-.19-1.24.6-1.44.45-.11.63.34.63 1.5v6.3c.82-.53 1.26-1.12 1.79-1.61.27-.25.49-.59.81-.77.24-.14.66-.21.86-.09.36.22.19.59-.06.85-.6.62-1.23 1.23-1.84 1.85-.17.17-.31.36-.61.72 1.14.02 2.07.04 3.01.06.54 0 1.08 0 1.61.03.37.02.81.06.81.56 0 .52-.43.54-.81.54-1.08 0-2.15 0-3.23-.01h-1.2c-.03.09-.06.19-.09.28Zm-23.47 69.41c0 .5-.4.9-.9.9s-.9-.4-.9-.9.4-.9.9-.9.9.4.9.9m20.31 21.51c0 .5-.4.9-.9.9s-.9-.4-.9-.9.4-.9.9-.9.9.4.9.9M95.66 45.34c0 .5-.4.9-.9.9s-.9-.4-.9-.9.4-.9.9-.9.9.4.9.9m18.96 21.57c0 .5-.4.9-.9.9s-.9-.4-.9-.9.4-.9.9-.9.9.4.9.9m-6.84 82.96c0 .5-.4.9-.9.9s-.9-.4-.9-.9.4-.9.9-.9.9.4.9.9M18.01 65.09c0 .5-.4.9-.9.9s-.9-.4-.9-.9.4-.9.9-.9.9.4.9.9" class="st1" fill="none" stroke="#BDAC82" stroke-width="1.5" stroke-linecap="round" stroke-linejoin="round"/><circle cx="7.11" cy="51.13" r=".9" class="st1" fill="none" stroke="#BDAC82" stroke-width="1.5" stroke-linecap="round" stroke-linejoin="round"/><path d="M114.62 48.29c0 .5-.4.9-.9.9s-.9-.4-.9-.9.4-.9.9-.9.9.4.9.9M7.11 150.15c0 .5-.4.9-.9.9s-.9-.4-.9-.9.4-.9.9-.9.9.4.9.9M67.29 37.68c-10.39 0-18.84-8.45-18.84-18.84S56.9 0 67.29 0s18.84 8.45 18.84 18.84-8.45 18.84-18.84 18.84m0-36.21c-9.57 0-17.36 7.79-17.36 17.36s7.79 17.36 17.36 17.36 17.36-7.79 17.36-17.36S76.86 1.47 67.29 1.47" class="st1" fill="none" stroke="#BDAC82" stroke-width="1.5" stroke-linecap="round" stroke-linejoin="round"/><path d="M12.09 172.45h110.39v1.6H12.09z" class="st0" fill="none" stroke="#BDAC82" stroke-width="1.5" stroke-linecap="round" stroke-linejoin="round"/></g></svg>