<svg xmlns="http://www.w3.org/2000/svg" id="sign-svg" viewBox="0 0 128.5201 198.64" width="128.5201" height="198.64" preserveAspectRatio="xMidYMid meet"><g id="sign-glyph" transform="translate(0.000 0.714) scale(0.949048)"><path d="M78.24 12.11c-.94-.3-1.88-.62-2.82-.93l-1.82-.6c-.97-.32-1.94-.64-2.91-.94-.21-.07-.86-.27-1.1.36q-.105.285 0 .51c.12.26.39.36.64.44l1.09.39c1.63.59 3.27 1.18 4.9 1.78l-10.99 8.01c-.11-.15-.23-.31-.34-.47-.17-.25-.34-.5-.5-.75l-.69-1.02c-.19-.27-.37-.47-.57-.61-.2-.15-.59-.13-.79.03s-.26.5-.2.73c.05.17.15.31.24.43l.09.12 1.65 2.52-.07.06c-.16.14-.3.27-.45.39l-2.09 1.69c-1.11.89-2.21 1.79-3.31 2.68l-.09.07c-.17.13-.4.3-.44.58-.02.17.03.34.15.5.16.21.34.29.51.29.26 0 .49-.17.62-.26l.09-.06.09-.07 5.86-4.62 1.67 2.44c.2.31.41.63.67.91.16.18.4.22.59.25.06 0 .13.02.18.03l.36.1.03-.37c0-.06.02-.12.03-.18.03-.18.07-.39 0-.6-.06-.22-.2-.39-.32-.54-.04-.05-.08-.11-.12-.16l-1.93-2.79c1.75-1.59 9.29-6.99 11.26-8.18-.19 1.37-.37 2.75-.57 4.12-.03.18-.06.36-.1.54-.06.27-.12.56-.14.85-.02.28.14.76.45.89.24.11.42.07.54.02.21-.09.36-.3.46-.62.04-.12.06-.25.07-.38l.09-.61c.06-.39.12-.77.17-1.16.2-1.53.39-3.06.56-4.6.09-.78-.33-1.09-.69-1.21Z" class="st0" fill="none" stroke="#BDAC82" stroke-width="1.5" stroke-linecap="round" stroke-linejoin="round"/><path d="M88.82 108.48c-2.51-.91-4.1-2.8-5.06-5.25-.38-.98-.92-1.39-2-1.59-1.59-.3-3.2-.83-4.63-1.58-4.66-2.42-8.22-6.01-10.77-10.61-.9-1.61-1.63-3.28-1.75-5.13-.06-.93-.47-1.34-1.27-1.65-1.73-.66-3.27-1.61-4.39-3.13-.17-.24-.45-.45-.5-.72-.36-1.69-1.67-1.74-2.98-1.77-2.03-.04-3.96.48-5.84 1.2-3.71 1.43-7.53 2.27-11.53 2.22-6.69-.07-11.35-3.34-14.36-9.14-1.19-2.31-2-4.77-2.22-7.39-.03-.41-.04-.86-.23-1.2-.93-1.75-.4-3.34.56-4.82.76-1.18 1.72-2.23 2.53-3.39 1.27-1.83 2.49-3.69 3.73-5.54.13-.19.18-.47.35-.6.21-.15.55-.32.75-.24.21.07.44.43.44.66-.02.52-.12 1.06-.28 1.55-.56 1.67-1.11 3.34-1.76 4.97-.74 1.85-1.64 3.63-1.79 5.68-.56 7.53 4.59 13.52 12.29 14.23 2.56.24 5.05-.08 7.48-.91 1.78-.6 3.55-1.25 5.34-1.82 6.32-2.02 11.95-.55 17.02 3.48 1.14.91 2.17 1.99 3.15 3.08.87.96.71 1.43-.45 1.97-1.62.75-2.03 1.41-1.88 3.15.13 1.57.75 2.97 1.7 4.2a40.3 40.3 0 0 0 7.47 7.46c1.28.98 2.74 1.61 4.38 1.69 1.44.07 2.46-.39 2.97-1.9.38-1.12.99-1.27 1.85-.52 5.26 4.6 8.35 10.17 7.31 17.39-.28 1.9-1.02 3.73-1.58 5.59-.49 1.63-1.14 3.23-1.49 4.89-.91 4.32-.34 8.43 2.15 12.17 2.99 4.5 9.69 6.63 14.73 4.67 1.31-.51 2.55-1.22 3.88-1.69 1.6-.57 3.25-1.02 4.9-1.42.34-.08.78.26 1.17.41-.21.31-.36.72-.66.92-1.66 1.11-3.38 2.12-5.02 3.25-1.11.77-2.09 1.71-3.18 2.52-1.81 1.35-3.7 2.32-6.02 1.14-.44-.23-1.04-.14-1.56-.22-4.34-.7-8.25-2.32-11.43-5.44-2.62-2.58-4.09-5.71-4.41-9.37-.36-4.05.3-7.97 1.6-11.8.53-1.56 1.08-3.11 1.47-4.71.47-1.94.36-3.07-.17-4.92ZM22.84 63.93c.29 2.8 1.19 5.26 2.51 7.55 2.83 4.91 7.04 7.57 12.81 7.6 3.63.02 7.1-.73 10.51-1.94 1.65-.58 3.37-1.02 5.08-1.37 1-.21 2.06-.11 3.24-.16-.17-.31-.23-.54-.37-.69-1.23-1.31-2.74-1.81-4.48-1.28-1.8.55-3.57 1.18-5.34 1.79-2.69.93-5.44 1.47-8.3 1.25-6.59-.5-12.24-4.24-13.69-11.33-.21-1.04-.78-1.34-1.97-1.43Zm79.47 79.33c.1-1.16-.52-1.55-1.6-1.8-5.33-1.23-8.76-4.57-10.37-9.77-1.06-3.41-1.02-6.86-.04-10.27.57-1.98 1.31-3.9 1.95-5.86.24-.72.48-1.46.57-2.21.23-1.81-.67-3.33-2.22-3.83.29 2.84-.4 5.5-1.4 8.1-1.38 3.61-2.1 7.34-1.96 11.22.1 2.72.83 5.24 2.4 7.45 3.01 4.23 7.32 6.3 12.33 7.11.09.01.2-.09.34-.15ZM69.54 79.61c-3.38-4.11-9.64-7.23-12.32-6.28.62 1.08 1.42 2.13 1.84 3.31 1.41 3.95 4.91 4.77 8.01 5.91l2.47-2.93Zm17.2 17.13c-1.05.87-2.01 1.68-3.05 2.54.61 1.42 1.19 2.89 1.86 4.32.66 1.43 1.74 2.48 3.16 3.19 1.49.74 2.95 1.52 4.57 2.36-.45-5.12-2.73-9.21-6.54-12.41m16.94 45.12c.57 2.27 1.25 2.64 3.12 1.85.38-.16.75-.34 1.09-.57.67-.47 1.33-.96 1.97-1.48.63-.51 1.23-1.06 1.84-1.6-2.57 1.16-5.2 1.85-8.01 1.8ZM26.05 54.88c-.05-.06-.11-.12-.16-.18-1.11 1.64-2.37 3.19-3.29 4.93-.94 1.78-.32 2.62 1.49 2.85.66-2.55 1.31-5.07 1.95-7.59Zm40.58 32.36c.49.74.9 1.42 1.39 2.02.07.08.56-.19.86-.3q-.71-1.93-2.25-1.73Zm10.78 9.99c-.46 1.46-.08 1.84 1.81 2.09.4-1.52-1.01-1.41-1.81-2.09M67.39 85.78q-.07-1.6-1.53-1.69c.1.52.19 1.02.32 1.7.43 0 .81 0 1.21-.01m14.99 14.54c-.15-1.15-.59-1.7-1.69-1.37q-.02 1.3 1.69 1.37m-12.47-8.25c.27-.67.6-1.08.52-1.39-.12-.47-.58-.71-1.1-.39-.18.11-.32.27-.53.45.31.38.56.68 1.11 1.34Zm5.69 5.41c.63-.56.86-1.13.11-1.56-.23-.13-.76.27-1.39.51.61.5.95.77 1.29 1.05Zm-1.39-3.44c-.64.18-1.05.19-1.27.4-.16.15-.2.65-.07.85.29.46.73.34 1-.05.16-.23.17-.56.33-1.2Zm-2.07-2.01c-.58.26-.97.32-1.15.55-.14.18 0 .57 0 .86.33-.07.73-.06.97-.25.16-.13.1-.54.17-1.17Z" class="st1" fill="none" stroke="#BDAC82" stroke-width="1.5" stroke-linecap="round" stroke-linejoin="round"/><path d="M95.37 71.33c-.16.35-.27.73-.48 1.04-2.73 4.01-3.71 8.45-3.23 13.25.03.29.08.59.07.88-.04.88-.52 1.28-1.39 1.08-.74-.17-1.46-.47-2.2-.64-3.47-.81-6.66-.36-9.4 2.1-1.35 1.21-2.79 2.35-4.07 3.63-10.24 10.21-34.32 34.34-44.59 44.52-1.03 1.02-1.44 2-.86 3.25.71 1.53.19 2.66-.84 3.77-.99 1.08-1.9 2.24-2.89 3.32-.24.26-.74.51-1.02.43-.29-.08-.55-.56-.65-.91-.32-1.19-.56-2.39-.86-3.69-1.24-.29-2.45-.54-3.63-.86-.36-.1-.94-.37-.95-.59-.02-.38.23-.88.53-1.15 1.35-1.22 2.77-2.36 4.13-3.58.55-.5 1.08-.56 1.77-.38 3.61.91 2.53 1.07 5.1-1.48 10.38-10.33 34.6-34.55 44.92-44.93 1.28-1.28 2.42-2.73 3.46-4.21 1.55-2.2 1.71-4.71 1.23-7.28-.17-.92-.48-1.81-.72-2.72-.31-1.21.03-1.61 1.3-1.57.41.01.82.08 1.23.11 4.54.31 8.76-.63 12.54-3.27.34-.24.78-.33 1.18-.49l.32.38Zm-3.09 2.84c-2.04.61-3.75 1.26-5.51 1.61-1.75.34-3.56.37-5.27.53.84 1.8 1.64 3.53 2.48 5.25.14.29.39.6.67.73 1.76.86 3.55 1.68 5.5 2.59-.18-3.69.47-7.22 2.13-10.71m-69.56 65.57c.61.21 1.08.45 1.58.54.99.17 1.55.65 1.71 1.67.09.54.35 1.06.56 1.66 1.8-1.77 2.01-.89.77-4.85-1.58-.21-3.35-1.48-4.62.98m59.64-54.79 5.37.09c-.97-.41-2.06-.95-3.2-1.32-.34-.11-.88.11-1.24.34-.42.27-.74.7-.93.89m-1.04-1.05c.23-.23.71-.63 1.07-1.11.18-.24.3-.65.22-.93-.32-1.19-.72-2.35-1.22-2.92-.02 1.46-.05 3.23-.07 4.96m-60.27 57.01-.09.52c.43.13.85.31 1.29.38 1.34.21 2.05.99 2.27 2.31.08.47.28.91.43 1.37l.43-.12c.2-1.25-.16-2.59-.93-3.41-.79-.84-2.15-1.18-3.4-1.05" class="st1" fill="none" stroke="#BDAC82" stroke-width="1.5" stroke-linecap="round" stroke-linejoin="round"/><path d="m21.333 62.466 1.226-.107 6.598 75.422-1.225.107z" class="st1" fill="none" stroke="#BDAC82" stroke-width="1.5" stroke-linecap="round" stroke-linejoin="round"/><path d="m28.457 138.443.106-1.226 75.427 6.546-.107 1.226zM12.69 120.96c.04-1.03-.31-1.83-1.04-2.48-.71-.64-1.54-1.08-2.43-1.39-.17-.06-.35-.09-.49-.18-.3-.18-.29-.54.03-.69.18-.09.4-.1.59-.15.4-.1.82-.15 1.2-.29 1.23-.47 1.99-1.33 2.08-2.69.02-.29 0-.6.07-.87.05-.15.27-.35.42-.35.13 0 .35.21.39.37.09.34.09.7.12 1.05.12 1.39 1 2.13 2.22 2.56.36.13.74.16 1.12.25.31.07.71.05.73.48.02.38-.37.39-.62.51-.68.33-1.4.62-2.03 1.03-1.06.68-1.64 1.67-1.53 2.98 0 .09.01.18.01.26 0 .28-.15.5-.42.44-.17-.04-.33-.27-.43-.45-.06-.11.01-.29.02-.38Zm-2.03-4.31c.87.76 1.68 1.48 2.44 2.14.8-.7 1.63-1.41 2.43-2.11-.42-.26-.89-.49-1.29-.81-.42-.34-.77-.78-1.15-1.17-.9 1.12-1.2 1.37-2.42 1.96Zm112.93-9.46c-.29-.34-.47-.46-.52-.62-.07-.25 0-.53-.06-.79-.15-.74-.28-1.5-.52-2.21-.21-.64-.74-1.04-1.33-1.35-.23-.12-.48-.23-.7-.38-.53-.35-.54-.73-.03-1.11.38-.28.79-.51 1.14-.82.94-.84 1.47-1.89 1.45-3.18v-.62c.02-.28.13-.57.46-.5.16.04.29.29.38.48.06.12 0 .29 0 .44-.02 1.67.74 2.92 2.08 3.87.14.1.3.18.45.28.66.44.67.92-.07 1.22-1.87.78-2.37 2.3-2.44 4.12 0 .2 0 .41-.05.61-.04.16-.14.31-.27.56Zm-.17-3.66c.4-.53.67-.99 1.04-1.36.35-.35.79-.62 1.12-.87l-2.09-2.39c-.69.78-1.4 1.58-2.13 2.42.89.48 1.66 1.13 2.07 2.19Zm-7.97-18.31c.42.45.85.89 1.27 1.35.2.21.43.42.53.68.07.18.04.53-.09.64-.12.1-.5.08-.64-.04-.47-.4-.88-.87-1.32-1.31-.17-.17-.36-.33-.66-.6-.06.39-.14.65-.14.9v5.96c0 .47.15 1.06-.54 1.21-.45.1-.7-.31-.7-1.2-.01-1.82 0-3.64 0-5.47 0-.4 0-.81-.23-1.35l-1.26 1.26c-.2.21-.38.46-.62.6-.17.1-.52.12-.64 0-.12-.11-.16-.48-.07-.63.21-.35.51-.64.79-.95.35-.38.71-.76 1.26-1.34h-3.98c-.37 0-.76.04-1.11-.04-.19-.04-.44-.29-.45-.46s.21-.47.38-.52c.35-.1.73-.09 1.11-.1h3.69c.03-.09.06-.18.1-.27-.66-.66-1.32-1.32-1.96-1.99-.33-.34-.9-.73-.4-1.23.5-.49.88.09 1.23.42.65.62 1.28 1.26 2.07 2.05.05-.53.1-.84.1-1.15 0-1.74 0-3.48.01-5.22 0-.54-.19-1.24.6-1.44.45-.11.63.34.63 1.5v6.3c.82-.53 1.26-1.12 1.79-1.61.27-.25.49-.59.81-.77.24-.14.66-.21.86-.09.36.22.19.59-.06.85-.6.62-1.23 1.23-1.84 1.85-.17.17-.31.36-.61.72 1.14.02 2.07.04 3.01.06.54 0 1.08 0 1.61.03.37.02.81.06.81.56 0 .52-.43.54-.81.54-1.08 0-2.15 0-3.23-.01h-1.2c-.03.09-.06.19-.09.28Zm-79.92 18.53c0 .5-.4.9-.9.9s-.9-.4-.9-.9.4-.9.9-.9.9.4.9.9m43.63-39.82c0 .5-.4.9-.9.9s-.9-.4-.9-.9.4-.9.9-.9.9.4.9.9m36.47-3.4c0 .5-.4.9-.9.9s-.9-.4-.9-.9.4-.9.9-.9.9.4.9.9m-1.84 62.39c0 .5-.4.9-.9.9s-.9-.4-.9-.9.4-.9.9-.9.9.4.9.9m-92.98-13.3c0 .5-.4.9-.9.9s-.9-.4-.9-.9.4-.9.9-.9.9.4.9.9M13.99 95.9c0 .5-.4.9-.9.9s-.9-.4-.9-.9.4-.9.9-.9.9.4.9.9m89.8-1.08c0 .5-.4.9-.9.9s-.9-.4-.9-.9.4-.9.9-.9.9.4.9.9" class="st1" fill="none" stroke="#BDAC82" stroke-width="1.5" stroke-linecap="round" stroke-linejoin="round"/><path d="M19.95 196.42v-4.18c0-.33-.05-.54-.14-.63s-.3-.13-.63-.13h-1.67c-.66 0-1.14-.16-1.46-.48s-.48-.81-.48-1.46v-4.25c0-.65.16-1.14.48-1.46s.81-.48 1.46-.48h2.16c.66 0 1.14.16 1.46.48s.48.81.48 1.46v2.36h-1.7v-2.09c0-.33-.05-.54-.14-.63s-.3-.14-.63-.14h-1.13c-.31 0-.52.04-.62.14q-.15.135-.15.63v3.71c0 .31.05.52.15.61.1.1.3.15.62.15h1.67c.66 0 1.14.16 1.46.48s.48.81.48 1.46v4.72c0 .66-.16 1.14-.48 1.46s-.81.48-1.46.48h-2.14c-.66 0-1.14-.16-1.46-.48s-.48-.81-.48-1.46v-2.36h1.7v2.09c0 .31.05.52.15.61.1.1.3.15.61.15h1.11q.495 0 .63-.15c.135-.15.14-.3.14-.61Zm13.2 2.22h-1.7l-2.29-14.11-2.02 14.11h-1.7l2.38-15.29h2.68l2.63 15.29Zm-1.75-5.34v1.45h-4.28v-1.45zm7.5-7.74v10.89c0 .31.05.52.15.61.1.1.3.15.61.15h.71v1.45h-1.23c-.66 0-1.14-.16-1.46-.48s-.48-.81-.48-1.46v-11.43c0-.65.16-1.14.48-1.46s.81-.48 1.46-.48h1.4v1.45h-.88c-.31 0-.52.04-.61.14q-.15.135-.15.63Zm2.87 2.06v-2.06c0-.33-.05-.54-.14-.63s-.3-.14-.63-.14h-.84v-1.45h1.35c.66 0 1.14.16 1.46.48s.48.81.48 1.46v2.33h-1.7Zm0 8.83v-4.52h1.7v4.79c0 .66-.16 1.14-.48 1.46s-.81.48-1.46.48h-1.35v-1.45h.84q.495 0 .63-.15c.09-.1.14-.3.14-.61Zm1.7-5.51v1.45h-2.92v-1.45zm5.16-7.59h1.67v15.29h-1.67zm12.44 0v1.45h-6.59v-1.45zm-4.13 0h1.67v15.29h-1.67zm13.42 0v1.45h-6.59v-1.45zm-4.13 0h1.67v15.29h-1.67zM81 198.64h-1.7l-2.29-14.11-2.02 14.11h-1.7l2.38-15.29h2.68l2.63 15.29Zm-1.75-5.34v1.45h-4.28v-1.45zm10.65-3.27v-4.47c0-.33-.05-.54-.14-.63s-.3-.14-.63-.14h-3.96v-1.45h4.45c.66 0 1.14.16 1.46.48s.48.81.48 1.46v5.01c0 .66-.16 1.14-.48 1.46s-.81.48-1.46.48h-3.44v-1.45h2.95q.495 0 .63-.15c.09-.1.14-.3.14-.61Zm-4.72-6.68h1.67v15.29h-1.67zm2.9 8.26h1.75l2.53 7.03h-1.82zm8.75-8.26h1.67v15.29h-1.67zm8.67 0v13.08c0 .31.05.52.15.61.1.1.3.15.61.15h.76v1.45h-1.25c-.66 0-1.14-.16-1.46-.48s-.48-.81-.48-1.46v-13.35zm3.05 13.07v-13.08h1.67v13.35c0 .66-.16 1.14-.48 1.46s-.81.48-1.46.48h-1.5v-1.45h1.01q.495 0 .63-.15c.09-.1.13-.3.13-.61m10.77 0v-4.18c0-.33-.05-.54-.14-.63s-.3-.13-.63-.13h-1.67c-.66 0-1.14-.16-1.46-.48s-.48-.81-.48-1.46v-4.25c0-.65.16-1.14.48-1.46s.81-.48 1.46-.48h2.16c.66 0 1.14.16 1.46.48s.48.81.48 1.46v2.36h-1.7v-2.09c0-.33-.05-.54-.14-.63s-.3-.14-.63-.14h-1.13c-.31 0-.52.04-.62.14q-.15.135-.15.63v3.71c0 .31.05.52.15.61.1.1.3.15.62.15h1.67c.66 0 1.14.16 1.46.48s.48.81.48 1.46v4.72c0 .66-.16 1.14-.48 1.46s-.81.48-1.46.48h-2.14c-.66 0-1.14-.16-1.46-.48s-.48-.81-.48-1.46v-2.36h1.7v2.09c0 .31.05.52.15.61.1.1.3.15.61.15h1.11q.495 0 .63-.15c.135-.15.14-.3.14-.61Z" class="st0" fill="none" stroke="#BDAC82" stroke-width="1.5" stroke-linecap="round" stroke-linejoin="round"/><path d="M68.29 37.68c-10.39 0-18.84-8.45-18.84-18.84S57.91 0 68.29 0s18.84 8.45 18.84 18.84-8.45 18.84-18.84 18.84m0-36.21c-9.57 0-17.36 7.79-17.36 17.36s7.79 17.36 17.36 17.36 17.36-7.79 17.36-17.36S77.87 1.47 68.29 1.47" class="st1" fill="none" stroke="#BDAC82" stroke-width="1.5" stroke-linecap="round" stroke-linejoin="round"/><path d="M13.1 172.44h110.39v1.6H13.1z" class="st0" fill="none" stroke="#BDAC82" stroke-width="1.5" stroke-linecap="round" stroke-linejoin="round"/></g></svg>