<svg xmlns="http://www.w3.org/2000/svg" id="sign-svg" viewBox="0 0 128.5201 198.64" width="128.5201" height="198.64" preserveAspectRatio="xMidYMid meet"><g id="sign-glyph" transform="translate(0.000 0.714) scale(0.949048)"><path d="M60.54 21.31c.3-.04.69-.32.77-.64.06-.22 0-.37-.06-.46-.14-.23-.41-.29-.65-.34l-.09-.02c-.47-.09-.95-.18-1.4-.32-1.04-.34-1.61-1.13-1.61-2.22 0-.37.06-.78.17-1.19.21-.77.63-1.31 1.2-1.59.57-.27 1.26-.26 1.99.05.89.37 1.68.96 2.4 1.78 1.38 1.58 2.29 3.37 2.7 5.33.21.98.36 1.99.51 2.97l.06.39c.05.32.14.91.8.91.65 0 .72-.57.75-.85v-.09c.08-.51.16-1.02.25-1.53l.09-.57c.41-2.55 1.32-4.64 2.79-6.38.7-.82 1.44-1.42 2.26-1.83.89-.44 1.74-.5 2.39-.15.65.34 1.09 1.07 1.23 2.06.04.3.06.55.05.77-.05 1.08-.59 1.8-1.61 2.13-.27.09-.56.15-.86.2-.25.05-.5.1-.74.17-.2.05-.65.37-.56.7.07.28.3.51.48.63.22.14.53.1.69.06.15-.03.3-.07.44-.1.46-.1.94-.2 1.39-.39 1.4-.6 2.17-1.71 2.23-3.21.03-.65-.05-1.31-.22-1.92-.32-1.14-1.01-2.02-1.93-2.47-.94-.46-2.08-.46-3.2 0-1.04.43-1.98 1.1-2.8 1.99-1.55 1.69-2.6 3.69-3.13 5.94l-.02-.09c-.53-2.26-1.6-4.25-3.19-5.94-1.04-1.11-2.15-1.8-3.4-2.12-1.82-.47-3.52.37-4.22 2.09-.26.63-.42 1.31-.47 1.97-.08 1.16.39 2.31 1.31 3.17.91.85 2.08 1.25 3.21 1.1Z" class="st0" fill="none" stroke="#BDAC82" stroke-width="1.5" stroke-linecap="round" stroke-linejoin="round"/><path d="M67.32 38.12c-10.39 0-18.84-8.45-18.84-18.84S56.93.44 67.32.44s18.84 8.45 18.84 18.84-8.45 18.84-18.84 18.84m0-36.21c-9.57 0-17.36 7.79-17.36 17.36s7.79 17.36 17.36 17.36 17.36-7.79 17.36-17.36S76.89 1.91 67.32 1.91" class="st1" fill="none" stroke="#BDAC82" stroke-width="1.5" stroke-linecap="round" stroke-linejoin="round"/><path d="M51.45 199.08h-1.7l-2.29-14.11-2.02 14.11h-1.7l2.38-15.29h2.68l2.63 15.29Zm-1.74-5.34v1.45h-4.28v-1.45zm10.64-3.27V186c0-.33-.05-.54-.14-.63s-.3-.13-.63-.13h-3.96v-1.45h4.45c.65 0 1.14.16 1.46.48s.48.81.48 1.46v5.01c0 .66-.16 1.14-.48 1.46s-.81.48-1.46.48h-3.44v-1.45h2.95q.495 0 .63-.15c.135-.15.14-.3.14-.61m-4.72-6.68h1.67v15.29h-1.67zm2.9 8.26h1.75l2.53 7.03h-1.82zm8.75-8.26h1.67v15.29h-1.67zm7.08 0h1.7v15.29h-1.7zm5.73 0v1.45h-4.65v-1.45zm-.74 6.61v1.45h-3.91v-1.45zm.91 7.23v1.45h-4.82v-1.45zm8.31-.77v-4.18c0-.33-.04-.54-.13-.63s-.3-.13-.63-.13h-1.67c-.66 0-1.14-.16-1.46-.48s-.48-.81-.48-1.46v-4.25c0-.66.16-1.14.48-1.46s.81-.48 1.46-.48h2.16c.66 0 1.14.16 1.46.48s.48.81.48 1.46v2.36h-1.7V186c0-.33-.05-.54-.14-.63s-.3-.13-.63-.13h-1.13c-.31 0-.52.04-.61.13q-.15.135-.15.63v3.71c0 .31.05.52.15.61s.3.15.61.15h1.67c.66 0 1.14.16 1.46.48s.48.81.48 1.46v4.72c0 .66-.16 1.14-.48 1.46s-.81.48-1.46.48h-2.14c-.66 0-1.14-.16-1.46-.48s-.48-.81-.48-1.46v-2.36h1.7v2.09c0 .31.05.52.15.61.1.1.3.15.61.15h1.11q.495 0 .63-.15c.09-.1.13-.3.13-.61Zm-76.45-23.98h110.39v1.6H12.12z" class="st0" fill="none" stroke="#BDAC82" stroke-width="1.5" stroke-linecap="round" stroke-linejoin="round"/><path d="M57.04 81.93c6.92-1.6 13.7-1.58 20.56-.02.29-.79.54-1.43.77-2.09 1.95-5.45 5.15-10.04 9.45-13.88 4.84-4.32 10.58-6.23 16.98-6.48 5.24-.2 10.23.88 14.89 3.17 9.54 4.69 14.79 12.35 15.29 23.05.4 8.48-2.03 16.06-7.67 22.51-.74.85-1.04 1.73-1.11 2.86-.33 5.42-2.37 10.17-5.89 14.28-.26.31-.59.56-.96.89-1.11-.34-2-.96-2.72-1.84-.72-.89-.99-1.76-.49-2.92.56-1.28.88-2.66 1.46-4.46-5.96 3.61-11.63 3.64-17.17.34-5.75-3.42-7.69-8.78-7.04-15.32-1.51.22-2.53.89-3.48 1.68-.76.63-.85 1.48-.79 2.41.13 1.82.23 3.65.27 5.47.11 4.62-1.24 8.83-3.74 12.69-2.2 3.39-4.86 6.37-8.07 8.84-.51.39-1 .81-1.57 1.27.38.97.75 1.9 1.1 2.82.63 1.66 1.11 3.36.94 5.17-.12 1.31-.6 2.42-1.82 3.03-.64.32-.95.77-1.16 1.44-.47 1.5-1.54 2.49-2.99 3.05-3.16 1.23-6.34 1.22-9.49 0-1.44-.56-2.46-1.56-3.01-3.05-.17-.46-.46-1.02-.86-1.23-2.02-1.07-2.39-2.89-2.06-4.83.3-1.72.99-3.38 1.51-5.06.14-.44.29-.87.47-1.39-.59-.47-1.14-.9-1.69-1.33-3.58-2.8-6.48-6.17-8.75-10.1-2.35-4.06-3.19-8.45-2.91-13.09.07-1.24.1-2.48.24-3.7.16-1.34-.37-2.31-1.48-2.95-.8-.46-1.65-.82-2.83-1.4.72 6.78-1.19 12.15-6.93 15.57-5.52 3.29-11.16 3.34-16.87-.12-.12 1.2.45 2.17.67 3.2.21.99 1.18 1.82.57 3-.68 1.33-1.71 2.22-3.28 2.85-.35-.32-.81-.65-1.18-1.08-3.49-4.08-5.39-8.83-5.79-14.15-.09-1.2-.45-2.1-1.22-2.99-5.2-5.98-7.56-13.01-7.58-20.83-.03-12.07 6.66-21.54 18.01-25.71 6.69-2.46 13.44-2.77 20.29-.68 3.04.93 5.73 2.46 8.16 4.48 4.68 3.89 8.12 8.67 10.18 14.41.24.66.48 1.32.8 2.21Zm2.23 50.91c1.27-2.2 2.37-4.41 2.67-6.89.54-4.41.58-8.82-.75-13.14-.31-1.01-.69-2.01-.93-3.04-.09-.38-.02-1.07.2-1.19.57-.31.77.26.95.71l.12.33c2.76 7.91 3.31 15.72-.66 23.48-1.14 2.24-2 4.66-2.68 7.09-.78 2.79.01 3.91 2.77 4.64.51.13 1.04.21 1.55.36 1.63.46 3.26.93 4.75 1.36 2.14-.57 4.23-1.13 6.33-1.68 2.85-.75 3.57-1.87 2.95-4.74-.17-.8-.43-1.6-.73-2.36-.63-1.59-1.2-3.22-2.01-4.71-2.21-4.06-2.95-8.39-2.81-12.96.11-3.7.96-7.23 2.23-10.67.17-.46.31-1.08 1.12-.84.5.76.02 1.46-.23 2.15-1.81 4.99-2.12 10.12-1.37 15.34.35 2.46 1.43 4.64 2.69 6.86 4.21-2.93 7.39-6.51 9.84-10.75 1.87-3.23 2.82-6.73 2.72-10.47-.06-2.3-.16-4.59-.29-6.89-.17-2.91-.02-5.77 1.11-8.51.08-.19.08-.42.12-.68-.32-.03-.55-.08-.78-.07-4.45.14-7.72-2.15-10.61-5.19-1.02-1.07-1.49-2.34-.97-3.88.33-.98.43-2.04.65-3.18-6.67-1.66-13.15-1.7-19.76.02.21 1.06.3 2 .59 2.88.6 1.86.02 3.35-1.31 4.63-2.92 2.83-6.16 4.95-10.46 4.73-.16 0-.32.08-.61.15.85 2.12 1.39 4.29 1.32 6.55-.07 2.18-.12 4.36-.28 6.53-.35 4.75.3 9.29 2.74 13.47 2.35 4.02 5.38 7.44 9.13 10.21.18.13.39.22.7.39ZM40.83 89.37c-2.1-2.77-4.54-5.04-7.61-6.55-3.79-1.86-7.64-1.79-11.46-.16-2.96 1.27-4.75 3.6-5.46 6.74-.25 1.1-.28 2.21.27 3.32.26-.11.48-.17.68-.28 5.35-3.16 10.8-3.38 16.33-.53.74.38 1.34.22 2-.09 1.69-.79 3.39-1.57 5.26-2.44Zm77.36 3.4c1.08-4.22-1.51-8.11-4.37-9.66-2.61-1.41-5.42-1.94-8.37-1.52-4.05.58-7.17 2.83-9.89 5.72-.62.66-1.15 1.39-1.69 2.06 1.78.83 3.39 1.54 4.95 2.33.98.49 1.79.44 2.8-.05 5.06-2.48 10.11-2.3 15.07.36.45.24.91.46 1.5.76m7.45-24.45c-.6-.54-1.01-.94-1.45-1.3-2.83-2.29-6.07-3.79-9.54-4.82-1.37-.41-1.4-.42-2.17.71-2.02 2.97-3.35 6.22-3.63 9.82-.19 2.51-.24 5.04.63 7.5q1.455.285 2.73.54c4.78-7.67 7.05-9.78 13.44-12.44ZM25.25 80.2c.76-2.91.89-5.75.43-8.63-.51-3.2-1.74-6.09-3.55-8.75-.42-.61-.82-1.05-1.73-.77-3.74 1.16-7.27 2.72-10.29 5.28-.34.29-.62.64-1.01 1.05 6.32 2.23 10.39 6.68 13.32 12.41.92-.19 1.78-.37 2.84-.59Zm11.76 3.19c.87.82 1.74 1.53 2.47 2.36.6.68 1.24.76 2.04.61 3.23-.6 6.23-1.76 8.88-3.71 1.34-.98 2.47-2.17 3.2-3.71.34-.71.31-1.29-.03-1.99a31.6 31.6 0 0 0-6.32-8.67c-.21-.21-.53-.31-.8-.46-.86 6.66-4.38 11.54-9.45 15.57Zm95.88-2.77c-.7-3.38-2.11-6.13-3.94-8.69-1.97-2.74-2.42-2.86-5.47-1.26-4.14 2.18-7.13 5.51-9.32 9.59-.18.34-.26.74-.36 1.06 1.27.94 2.43 1.8 3.62 2.67 4.63-3.33 9.72-4.39 15.48-3.38ZM1.9 80.6c5.75-1.01 10.87.14 15.39 3.41 1.28-.97 2.44-1.84 3.67-2.77-1.94-4.21-4.83-7.51-8.7-9.95-.93-.59-2.01-.95-3.02-1.42-1-.46-1.74-.22-2.45.66-2.1 2.59-3.73 5.41-4.68 8.62-.12.42-.14.87-.22 1.46Zm86.37-12.79c-.3.08-.43.09-.51.15-.23.19-.43.4-.64.61-2.21 2.23-3.98 4.77-5.59 7.47-.99 1.67-.7 2.96.37 4.32.25.32.51.65.81.93 3.02 2.94 6.73 4.45 10.83 5.1.37.06.9.03 1.13-.2.96-.93 1.84-1.95 2.82-3.02-2.43-1.69-4.49-3.92-6.1-6.56-1.64-2.68-3-5.47-3.12-8.8M31.46 80.47c1.5.71 2.82 1.33 4.25 2.01 4.72-3.26 7.85-7.64 9.25-13.24.13-.5.11-1.05.11-1.58 0-.99-.34-1.74-1.24-2.35-2.26-1.54-4.64-2.78-7.3-3.43-.36-.09-.74-.1-1.19-.15 1.78 6.95.85 13.22-3.88 18.74M99.3 61.71c-2.75.46-4.86 1.3-7.33 2.87-2.41 1.53-2.8 2.44-2.15 5.25.18.8.45 1.59.77 2.34 1.09 2.56 2.51 4.94 4.45 6.94 1.21 1.25 2.6 2.34 3.82 3.42 1.57-.75 2.88-1.37 4.37-2.08-4.82-5.49-5.6-11.79-3.93-18.75Zm12.53-.21c-3.09-.78-5.9-.78-8.72-.56-2.11.17-2.39.33-2.81 2.43-1.04 5.24-.39 10.15 2.77 14.67 1.15 1.64 2.28 2.59 4.3 1.93.1-.03.19-.12.43-.27-1.29-6.49.03-12.54 4.03-18.2M26.86 79.78c3.6.64 2.77.76 4.58-1.64.32-.42.63-.85.9-1.3 2.65-4.43 3.09-9.15 1.87-14.11-.28-1.12-.9-1.65-2.07-1.75-2.89-.25-5.75-.24-8.6.32-.19.04-.35.23-.57.38 1.85 2.73 3.21 5.56 3.9 8.71.69 3.14.55 6.28-.01 9.4Zm27.87.05c-3.22 4.91-7.97 6.79-13.09 8.04.9 1.65 1.84 3.14 2.54 4.74.52 1.18 1.3 1.54 2.46 1.55 4.12.05 7.13-2.09 9.73-4.97.34-.38.52-1.11.45-1.62-.39-2.55-.97-5.05-2.09-7.74m25.33.21-.43.03c-.62 2.5-1.29 5-1.81 7.52-.11.53.21 1.31.59 1.74 1.91 2.14 4.15 3.87 7.02 4.51 1.07.24 2.22.27 3.33.2.49-.03 1.13-.44 1.38-.87 1.01-1.71 1.9-3.5 2.87-5.33-5.12-1.23-9.86-3.15-12.94-7.81ZM16.4 85.21c-.54-.38-1.03-.79-1.58-1.11-3.45-2.01-7.15-2.93-11.15-2.43q-2.31.29-2.49 2.51c-.04.47-.12.93-.15 1.4-.14 2.21-.03 4.4.43 6.57.22-.04.28-.04.33-.07q.225-.135.42-.3C5.38 89.02 9.04 88 13.19 88.7c.56.09 1.14.1 1.64.14.53-1.23 1-2.3 1.58-3.65Zm103.32 3.37c2.49.09 4.84 0 7.13.31 2.41.33 4.4 1.76 6.35 3.5.6-3.59.65-6.89-.02-10.14-4.6-1.69-12.33.01-14.83 3.19.49 1.12.97 2.24 1.36 3.14Zm.29 1.86c-.16 1.12-.31 2.22-.49 3.44 3.9 2.08 7.53 4.54 10.36 8.3 1.22-2.03 1.82-4.11 2.58-6.12.54-1.43.2-2.44-.95-3.39-3.42-2.83-7.25-3.37-11.5-2.22Zm-105.39-.13c-1.32-.15-2.54-.39-3.76-.42-2.88-.07-5.42.9-7.65 2.74-1.13.93-1.6 1.94-.98 3.38.51 1.19.84 2.45 1.32 3.66.31.79.73 1.54 1.23 2.56 2.84-3.8 6.44-6.22 10.37-8.35-.16-1.14-.32-2.23-.51-3.57Zm84.46 4.63c1.09 2.4 2.73 4.15 4.91 5.43.22.13.58.17.83.09 1.43-.46 2.84-.97 4.43-1.52-.38-2.4-.31-4.95.75-7.57-4.27-.25-7.72 1.01-10.91 3.57Zm-73.72 3.99c1.58.54 2.94 1.04 4.33 1.45.34.1.84.06 1.13-.12 2.11-1.27 3.73-2.98 4.74-5.37-3.16-2.48-6.59-3.81-10.77-3.49.76 2.62 1.2 5.09.57 7.52Zm3.24 10.1c-.24 2.94 1.26 6.66 3.28 7.98 3.38-1.56 5.91-3.94 7.23-7.43-2.43-.88-4.78-1.73-7.14-2.58-1.05.63-2.19 1.32-3.37 2.04Zm74.46 8.1c2.05-2.41 3.13-5.08 3.08-8.04-1.29-.79-2.43-1.48-3.44-2.1-2.4.86-4.75 1.71-7.16 2.57 1.37 3.57 3.94 5.97 7.52 7.56Zm-8.01-9.15c2.54-.19 4.59-1.03 6.51-2.2.26-.16.47-.51.57-.81.35-1.1.63-2.21.89-3.15-1.74-1.89-3.47-3.76-5.26-5.7-3.23 3.28-3.49 7.33-2.72 11.86Zm-58.32-12c-.9 1.18-1.61 2.27-2.48 3.21-.87.93-1.9 1.71-2.68 2.39.33 1.17.59 2.18.89 3.18.1.32.2.73.44.89 1.99 1.28 4.14 2.15 6.71 2.31.65-4.44.6-8.54-2.89-11.97Zm67.87 21.71c2.52.78 4.95.78 7.42.29.98-.2 1.37-.67 1.36-1.67-.04-2.99-1.08-5.59-2.8-8.01-1.04.28-1.99.54-2.85.77-.35 1.54-.54 3.01-1.03 4.38-.51 1.41-1.33 2.72-2.1 4.25Zm-74.27-.06c-2.18-2.65-3.06-5.53-3.28-8.57-1.11-.28-2.06-.51-3.03-.75-1.86 2.86-3.09 5.77-2.54 9.32 2.83.92 5.63.92 8.84 0Zm81.11-26.03c-1.25 2.4-1.41 4.79-.72 7.25.09.34.44.7.76.86.97.5 2 .91 3.08 1.39 1.45-2.03 3.46-3.26 5.97-4.09-2.54-2.89-5.42-4.72-9.1-5.43Zm-88.15.13c-3.42.31-7.83 3.03-8.89 5.48 2.43.6 4.29 2.06 5.74 3.9 1.08-.49 2-.87 2.87-1.34.37-.2.79-.56.9-.93.69-2.45.54-4.84-.63-7.11Zm90.52 11.11c-2.47-2.7-7.03-2.77-9.46-.18-1.3 1.39-1.07 3.21.55 4.19 1.05.63 2.2.88 3.39.6 2.61-.61 4.65-1.93 5.52-4.62Zm-93.07.01c.39.69.69 1.33 1.1 1.9 1.63 2.31 5.26 3.41 7.52 2.31 2.09-1.01 2.37-3.21.61-4.71-2.69-2.28-6.46-2.12-9.23.49Zm-7.59-4.56c-1.47 2.11-2.55 4.33-2.96 7.08 2.36-.5 4.46-.07 6.49.76.84-1.38 1.62-2.67 2.44-4.03-1.45-2.09-3.35-3.4-5.97-3.8Zm104.84 7.84c2.05-.87 4.15-1.25 6.52-.76-.5-2.78-1.49-5.03-3.03-7.08-2.63.43-4.53 1.74-5.93 3.81.81 1.34 1.57 2.59 2.44 4.03m-95.3 1.66-3.15-3.63c-.27.4-.51.72-.7 1.06-1.36 2.43-1.82 5.09-1.93 7.81-.08 1.86 1.07 3.16 3.11 3.57-.12-3.25 1.01-6.13 2.68-8.82Zm89.29.02c1.7 2.69 2.78 5.61 2.64 8.92 2.39-.83 3.16-1.84 3.1-3.97-.1-3.09-.78-6.02-2.58-8.64-1.05 1.23-2.03 2.38-3.15 3.69Zm-96.44 4.29q.33-2.28.66-4.62c-2.07-1.06-4.07-1.37-6.31-.59-.19 1.94-.28 3.83.13 5.58 1.89-.13 3.61-.24 5.51-.37Zm102.88-4.55c.27 1.64.52 3.18.75 4.56 1.91.12 3.68.24 5.57.36v-5.66c-2.28-.61-4.33-.47-6.32.74M41.94 90.91c-2.44.04-4.13 1.26-6.03 2.32.95.89 1.83 1.72 2.67 2.5 1.73-.44 3.35-.86 5.09-1.31-.63-1.27-1.17-2.37-1.73-3.51m56.97 2.19c-1.79-.77-3.34-1.47-4.91-2.08-.54-.21-1.18-.29-1.53.42-.48.98-.95 1.96-1.47 3.02 1.87.46 3.5.85 5.11 1.24.88-.82 1.69-1.57 2.8-2.61Zm-88.66 21.3c.48 1.46.95 2.91 1.43 4.36 1.51-.6 2.78-1.11 4.15-1.66-.13-1.11-.26-2.19-.4-3.32-1.82-.35-3.46-.66-5.18.62m108.93-.53c-.12 1.19-.22 2.23-.32 3.26 1.36.54 2.66 1.05 4.14 1.63l1.42-4.47c-1.78-1.04-3.41-.98-5.23-.42ZM60.89 146.3c.41 1.36 1.14 1.93 2.03 2.27 2.92 1.12 5.87 1.11 8.8.02.94-.35 1.73-.96 2.09-2.25-2.05.43-4.01.43-5.57 1.81-.55.48-1.23.52-1.77.02-1.5-1.38-3.43-1.33-5.57-1.86Zm62.45-48.13c.63 1.42 1.36 2.82 1.85 4.28.5 1.47.76 3.02 1.21 4.88.93-1.27 1.73-2.32 2.47-3.41.13-.19.1-.61-.03-.81-1.37-2.13-3.25-3.72-5.51-4.95ZM8.09 107.12c.12-.01.24-.02.36-.04.34-3.28 1.37-6.32 3.02-9.19-2.38 1.49-4.48 3.2-5.97 5.74.88 1.17 1.74 2.33 2.6 3.48Zm8.03 11.5c-1.42.23-2.64.48-3.68 1.69.62.97 1.25 1.97 1.85 2.89 1.07-.6 1.91-1.07 2.85-1.6-.33-.97-.66-1.93-1.02-2.99Zm101.4 3.01c1.03.56 1.89 1.03 2.85 1.55.42-.63.86-1.25 1.25-1.89.21-.34.34-.72.49-1.07-1.32-1.19-1.71-1.35-3.62-1.44-.3.89-.62 1.82-.97 2.85m-25.28-20.92-2.25-3.98c-.7 2.08-1.14 3.76-.89 5.72 1.11-.62 2.07-1.15 3.14-1.75Zm-46.5 1.86c-.23-2.08-.12-3.86-1.21-5.65-.77 1.4-1.42 2.6-2.08 3.81 1.07.6 2.03 1.13 3.3 1.84Zm47.83-2.27c.64-1.38 1.07-2.31 1.54-3.33-1.27-.52-2.42-.94-3.96-.91.81 1.42 1.52 2.66 2.42 4.24M43.4 96.23l-.21-.33-3.72.96c.57 1.17 1.04 2.13 1.66 3.41.87-1.54 1.57-2.79 2.27-4.04m75.42 28.37.27-.32c-.25-.45-.5-.9-1.58-.79.57.49.94.8 1.3 1.11Zm-101.96-.86-.36-.4c-.33.31-.65.62-.98.94l.28.31c.36-.28.71-.57 1.07-.85Z" class="st1" fill="none" stroke="#BDAC82" stroke-width="1.5" stroke-linecap="round" stroke-linejoin="round"/><path d="M64.7 135.61c-.67-.33-1.21-.21-1.45.49-.24.68-.05 1.28.63 1.64.1.06.21.11.32.16q2.03.92 3.05 2.47c.14-.08.35-.13.4-.25.5-1.16 1.34-1.89 2.6-2.17.37-.08.83-.33.99-.64.19-.36.2-.89.12-1.32-.09-.44-.19-.42-1.29-.4-.04.1-.14.22-.11.3.14.47.6 1.01-.22 1.28-.59.19-1.24-.39-1.3-1.1-.07-.85.58-1.67 1.52-1.9 1.16-.29 2.32.3 2.72 1.39.53 1.44-.04 2.97-1.51 3.48-1.2.41-1.97 1.08-2.57 2.19-.36.66-.58 1.25-.49 1.98.05.41.07.82.07 1.23 0 .57-.31.88-.88.86-.56-.02-.84-.37-.85-.92 0-.23 0-.48.06-.7.29-.98 0-1.76-.53-2.63-.59-.96-1.24-1.58-2.33-1.95-1.77-.62-2.37-2.57-1.4-4.01.51-.75 1.23-1.06 2.13-.97.82.09 1.52.46 1.73 1.28.11.44 0 1.04-.24 1.43-.14.24-.76.39-1.06.29-.51-.18-.35-.63-.11-1.02.07-.12.01-.32.01-.48Zm-4.25-22.54c-1.03 0-1.91.15-2.73-.03-3.48-.77-6.39-2.57-8.9-5.07-.21-.21-.4-.44-.56-.68-.55-.84-.38-1.4.58-1.47 1.22-.09 2.5-.17 3.67.11 3.38.8 5.8 2.97 7.61 5.86.19.31.19.73.32 1.29Zm-2.1-1.17c-1.43-2.93-5.25-5.09-8.34-4.68 2.46 2.3 5.05 3.9 8.34 4.68m28.4-5.58c-1.54 3.71-8.67 7.49-12.36 6.64-.05-1.55 2.13-4.26 4.62-5.75 2.74-1.64 5.75-2.01 7.74-.89m-2.36.91c-3.32-.14-6.51 1.72-8.15 4.68 3.33-.79 5.94-2.37 8.15-4.68m23.26 44.52c.3.32.61.64.9.96.14.15.31.3.38.48.05.13.03.38-.07.46-.08.07-.36.06-.45-.03-.33-.29-.63-.62-.94-.93-.12-.12-.26-.23-.47-.42-.04.28-.1.46-.1.64v4.24c0 .33.11.76-.38.86-.32.07-.5-.22-.5-.86v-3.89c0-.29 0-.57-.16-.96l-.9.9c-.15.15-.27.33-.44.43-.12.07-.37.08-.45 0-.09-.08-.12-.34-.05-.45.15-.25.37-.46.56-.67.25-.27.51-.54.9-.96h-2.83c-.26 0-.54.03-.79-.03-.13-.03-.31-.21-.32-.33 0-.12.15-.34.27-.37.25-.07.52-.07.79-.07h2.63c.02-.06.05-.13.07-.19-.47-.47-.94-.94-1.4-1.41-.23-.24-.64-.52-.28-.87s.63.06.87.3c.46.44.91.9 1.47 1.46.04-.38.07-.6.07-.81v-3.71c0-.39-.14-.88.42-1.02.32-.08.45.24.45 1.06v4.48c.59-.38.9-.8 1.27-1.14.19-.18.35-.42.57-.54.17-.1.47-.15.61-.06.26.16.13.42-.04.6-.43.44-.88.87-1.31 1.31-.12.12-.22.26-.44.51.81.02 1.47.03 2.14.04.38 0 .77 0 1.15.02.27.01.57.04.57.4 0 .37-.3.38-.57.39h-3.15l-.06.2ZM8.68 145.2c.04-1.03-.31-1.83-1.04-2.48-.71-.64-1.54-1.08-2.43-1.39-.17-.06-.35-.09-.49-.18-.3-.18-.29-.54.03-.69.18-.09.4-.1.59-.15.4-.1.82-.15 1.2-.29 1.23-.47 1.99-1.33 2.08-2.69.02-.29 0-.6.07-.87.05-.15.27-.35.42-.35.13 0 .35.21.39.37.09.34.09.7.12 1.05.12 1.39 1 2.13 2.22 2.56.36.13.74.16 1.12.25.31.07.71.05.73.48.02.38-.37.39-.62.51-.68.33-1.4.62-2.03 1.03-1.06.68-1.64 1.67-1.53 2.98 0 .09.01.18.01.26 0 .28-.15.5-.42.44-.17-.04-.33-.27-.43-.45-.06-.11.01-.29.02-.38Zm-2.03-4.31c.87.76 1.68 1.48 2.44 2.14.8-.7 1.63-1.41 2.43-2.11-.42-.26-.89-.49-1.29-.81-.42-.34-.77-.78-1.15-1.17-.9 1.12-1.2 1.37-2.42 1.96Zm52.8-74.5c.04-1.03-.31-1.83-1.04-2.48-.71-.64-1.54-1.08-2.43-1.39-.17-.06-.35-.09-.49-.18-.3-.18-.29-.54.03-.69.18-.09.4-.1.59-.15.4-.1.82-.15 1.2-.29 1.23-.47 1.99-1.33 2.08-2.69.02-.29 0-.6.07-.87.05-.15.27-.35.42-.35.13 0 .35.21.39.37.09.34.09.7.12 1.05.12 1.39 1 2.13 2.22 2.56.36.13.74.16 1.12.25.31.07.71.05.73.48.02.38-.37.39-.62.51-.68.33-1.4.62-2.03 1.03-1.06.68-1.64 1.67-1.53 2.98 0 .09.01.18.01.26 0 .28-.15.5-.42.44-.17-.04-.33-.27-.43-.45-.06-.11.01-.29.02-.38Zm-2.04-4.31c.87.76 1.68 1.48 2.44 2.14.8-.7 1.63-1.41 2.43-2.11-.42-.26-.89-.49-1.29-.81-.42-.34-.77-.78-1.15-1.17-.9 1.12-1.2 1.37-2.42 1.96ZM30.43 136.5c-.29-.34-.47-.46-.52-.62-.07-.25 0-.53-.06-.79-.15-.74-.28-1.5-.52-2.21-.21-.64-.74-1.04-1.33-1.35-.23-.12-.48-.23-.7-.38-.53-.35-.54-.73-.03-1.11.38-.28.79-.51 1.14-.82.94-.84 1.47-1.89 1.45-3.18v-.62c.02-.28.13-.57.46-.5.16.04.29.29.38.48.06.12 0 .29 0 .44-.02 1.67.74 2.92 2.08 3.87.14.1.3.18.45.28.66.44.67.92-.07 1.22-1.87.78-2.37 2.3-2.44 4.12 0 .2 0 .41-.05.61-.04.16-.14.31-.27.56Zm-.18-3.65c.4-.53.67-.99 1.04-1.36.35-.35.79-.62 1.12-.87l-2.09-2.39c-.69.78-1.39 1.58-2.13 2.42.89.48 1.66 1.13 2.07 2.19Zm38.72-34.74c.42.45.85.89 1.27 1.35.2.21.43.42.53.68.07.18.04.53-.09.64-.12.1-.5.08-.64-.04-.47-.4-.88-.87-1.32-1.31-.17-.17-.36-.33-.66-.6-.06.39-.14.65-.14.9v5.96c0 .47.15 1.06-.54 1.21-.45.1-.7-.31-.7-1.2-.01-1.82 0-3.64 0-5.47 0-.4 0-.81-.23-1.35l-1.26 1.26c-.2.21-.38.46-.62.6-.17.1-.52.12-.64 0-.12-.11-.16-.48-.07-.63.21-.35.51-.64.79-.95.35-.38.71-.76 1.26-1.34h-3.98c-.37 0-.76.04-1.11-.04-.19-.04-.44-.29-.45-.46s.21-.47.38-.52c.35-.1.73-.09 1.11-.1h3.69c.03-.09.06-.18.1-.27-.66-.66-1.32-1.32-1.96-1.99-.33-.34-.9-.73-.4-1.23.5-.49.88.09 1.23.42.65.62 1.28 1.26 2.07 2.05.05-.53.1-.84.1-1.15 0-1.74 0-3.48.01-5.22 0-.54-.19-1.24.6-1.44.45-.11.63.34.63 1.5v6.3c.82-.53 1.26-1.12 1.79-1.61.27-.25.49-.59.81-.77.24-.14.66-.21.86-.09.36.22.19.59-.06.85-.6.62-1.23 1.23-1.84 1.85-.17.17-.31.36-.61.72 1.14.02 2.07.04 3.01.06.54 0 1.08 0 1.61.03.37.02.81.06.81.56 0 .52-.43.54-.81.54-1.08 0-2.15 0-3.23-.01h-1.2l-.09.28Zm36.47 35.98c0 .5-.4.9-.9.9s-.9-.4-.9-.9.4-.9.9-.9.9.4.9.9M20.7 148.57c0 .5-.4.9-.9.9s-.9-.4-.9-.9.4-.9.9-.9.9.4.9.9m4.99-94.17c0 .5-.4.9-.9.9s-.9-.4-.9-.9.4-.9.9-.9.9.4.9.9m48.92 21.2c0 .5-.4.9-.9.9s-.9-.4-.9-.9.4-.9.9-.9.9.4.9.9m51.03-22.1c0 .5-.4.9-.9.9s-.9-.4-.9-.9.4-.9.9-.9.9.4.9.9m-35.53 86.19c0 .5-.4.9-.9.9s-.9-.4-.9-.9.4-.9.9-.9.9.4.9.9" class="st1" fill="none" stroke="#BDAC82" stroke-width="1.5" stroke-linecap="round" stroke-linejoin="round"/></g></svg>