<svg xmlns="http://www.w3.org/2000/svg" id="sign-svg" viewBox="0 0 128.5201 198.64" width="128.5201" height="198.64" preserveAspectRatio="xMidYMid meet"><g id="sign-glyph" transform="translate(0.000 0.714) scale(0.949048)"><path d="M38.37 185.56v10.89c0 .31.05.52.15.61.1.1.3.15.61.15h.71v1.45h-1.23c-.66 0-1.14-.16-1.46-.48s-.48-.81-.48-1.46v-11.43c0-.65.16-1.14.48-1.46s.81-.48 1.46-.48h1.4v1.45h-.88c-.31 0-.52.04-.61.13q-.15.135-.15.63m2.88 2.31v-2.31c0-.33-.05-.54-.14-.63s-.3-.13-.63-.13h-.84v-1.45h1.35c.66 0 1.14.16 1.46.48s.48.81.48 1.46v2.58h-1.7Zm0 8.58v-2.31h1.7v2.58c0 .66-.16 1.14-.48 1.46s-.81.48-1.46.48h-1.35v-1.45h.84q.495 0 .63-.15c.09-.1.14-.3.14-.61Zm13.19 2.19h-1.7l-2.29-14.11-2.02 14.11h-1.7l2.38-15.29h2.68l2.63 15.29Zm-1.74-5.34v1.45h-4.28v-1.45zm10.94-9.95h1.55v15.29h-1.84l-3.17-11.85v11.85h-1.55v-15.29h1.97l3.05 11.43v-11.43Zm8.28 2.21v10.89c0 .31.05.52.15.61.1.1.3.15.61.15h.71v1.45h-1.23c-.66 0-1.14-.16-1.46-.48s-.48-.81-.48-1.46v-11.43c0-.65.16-1.14.48-1.46s.81-.48 1.46-.48h1.4v1.45h-.88c-.31 0-.52.04-.61.13q-.15.135-.15.63m2.88 2.31v-2.31c0-.33-.05-.54-.14-.63s-.3-.13-.63-.13h-.84v-1.45h1.35c.66 0 1.14.16 1.46.48s.48.81.48 1.46v2.58h-1.7Zm0 8.58v-2.31h1.7v2.58c0 .66-.16 1.14-.48 1.46s-.81.48-1.46.48h-1.35v-1.45h.84q.495 0 .63-.15c.09-.1.14-.3.14-.61Zm6.48-13.1h1.7v15.29h-1.7zm5.73 0v1.45h-4.65v-1.45zm-.74 6.61v1.45h-3.91v-1.45zm.91 7.23v1.45h-4.82v-1.45zm9.02-7.16v-4.47c0-.33-.05-.54-.14-.63s-.3-.13-.63-.13h-3.96v-1.45h4.45c.66 0 1.14.16 1.46.48s.48.81.48 1.46v5.01c0 .66-.16 1.14-.48 1.46s-.81.48-1.46.48h-3.44v-1.45h2.95q.495 0 .63-.15c.09-.1.14-.3.14-.61m-4.72-6.68h1.67v15.29h-1.67zm2.9 8.26h1.75l2.53 7.03h-1.82z" class="st0" fill="none" stroke="#BDAC82" stroke-width="1.5" stroke-linecap="round" stroke-linejoin="round"/><path d="M67.26 37.68c-10.39 0-18.84-8.45-18.84-18.84S56.87 0 67.26 0 86.1 8.45 86.1 18.84s-8.45 18.84-18.84 18.84m0-36.21c-9.57 0-17.36 7.79-17.36 17.36s7.79 17.36 17.36 17.36 17.36-7.79 17.36-17.36S76.84 1.47 67.26 1.47" class="st1" fill="none" stroke="#BDAC82" stroke-width="1.5" stroke-linecap="round" stroke-linejoin="round"/><path d="M74.57 14.43s.05.07.07.11c.06.1.13.22.26.31.05.03.48.31.78.14.23-.13.42-.55.31-.83-.12-.29-.3-.59-.53-.86-2.01-2.34-4.68-3.88-7.96-4.57-1.17-.25-2.42-.24-3.71.02-2.72.55-4.45 2.13-5.14 4.69-.12.46-.19.87-.19 1.25 0 1.13.55 1.96 1.75 2.71 1.58.99 3.42.76 4.58-.59.95-1.11 1.5-3.62.19-5.04-.54-.59-1.16-.98-1.95-1.24.68-.3 1.37-.45 2.11-.46 3.69-.04 6.77 1.39 9.43 4.37ZM61.56 11.8c.85 0 1.47.19 1.96.6.54.46.79.93.8 1.51-.03.13-.06.26-.08.4-.06.31-.12.6-.22.87-.23.61-.64 1.04-1.16 1.23-.53.19-1.15.12-1.74-.21-1.15-.64-1.39-1.25-1-2.49.1-.32.25-.64.41-.96.07-.15.14-.29.2-.44.15-.34.41-.5.82-.5Zm9.77 15.62c-1.6.69-3.31.72-5.2.1-3.03-.99-5.08-2.39-6.47-4.38a.7.7 0 0 0-.27-.21l-.19-.11-.14.05c-.31.11-.5.29-.57.53-.05.17-.05.46.22.82.35.47.74.96 1.19 1.37 2.99 2.7 6.1 3.94 9.51 3.8.75-.03 1.54-.18 2.35-.43 2.33-.73 3.76-2.41 4.25-4.98q.06-.285.06-.57c0-.65-.21-1.3-.62-1.86-.6-.83-1.56-1.39-2.64-1.52-.93-.12-1.84.12-2.55.68-.79.62-1.3 1.58-1.44 2.7-.23 1.89.74 3.41 2.52 4.01Zm1.59-1.26h-.02c-.95 0-1.72-.31-2.18-.89-.29-.37-.44-.83-.44-1.35 0-.22.03-.45.08-.68.19-.82.65-1.41 1.29-1.65s1.37-.11 2.06.38c.85.6 1.04 1.09.78 2.04-.11.4-.28.77-.46 1.17l-.18.4c-.19.45-.5.64-.9.58h-.02ZM12.07 172.45h110.39v1.6H12.07z" class="st0" fill="none" stroke="#BDAC82" stroke-width="1.5" stroke-linecap="round" stroke-linejoin="round"/><path d="M90.91 69.07c-.75-2.38-1.42-4.57-2.12-6.75-.29-.9-.52-1.83-.96-2.65-1.39-2.65-4.35-2.93-6.24-.61-.47.58-.76 1.32-1.11 2-.2.39-.37.8-.56 1.22-1.19-.33-1.23-1.14-1.26-1.99-.26-8.34 7.08-14.31 15.25-12.38 6.55 1.55 11.24 7.14 11.64 13.89.04.7.07 1.41.1 2.08 4.83 2.72 7.14 8.32 5.57 13.45-.14.45-.22.99-.52 1.3-1.25 1.33-.98 2.65-.39 4.19.43 1.12.54 2.32 1.18 3.43.45.78.43 1.96.31 2.92-.31 2.49-1.17 4.8-2.79 6.78-.25.31-.6.68-.62 1.03-.06 1.43-.88 2.44-1.78 3.36-1.31 1.35-2.72 2.61-4.12 3.87-.65.59-1.37 1.09-2.09 1.65.49 1.26.97 2.39 1.38 3.55.27.76.91.86 1.55.96 1.45.25 2.91.46 4.36.71 2.74.46 4.95 1.78 6.63 4.02.74.98 1.66 1.82 2.41 2.79 1.56 2.02 2.2 4.4 2.52 6.89.23 1.81.52 3.62.66 5.44.09 1.16 0 2.35-.1 3.52-.06.64-.27 1.34-1.07 1.43-.83.09-1.12-.57-1.32-1.19-.68-2.07-1.27-4.17-1.98-6.23-.86-2.5-1.81-4.97-2.74-7.45-.33-.88-.96-1.34-1.87-1.69-2.37-.89-4.68-1.94-7-2.94-.59-.25-1.16-.55-1.8-.85-.82.92-1.59 1.79-2.46 2.77.55.28.99.52 1.44.73 3.19 1.42 6.15 3.24 8.84 5.43.97.79 1.79 1.91 2.33 3.05 1.6 3.38 2.57 6.97 2.81 10.71.07 1.04-.16 2.11-.37 3.13-.07.31-.54.71-.85.74-.3.03-.77-.31-.94-.61-.29-.5-.44-1.09-.61-1.65-.57-1.92-1.16-3.84-1.66-5.78-.67-2.56-2.59-4.31-4-6.39-.12-.17-.38-.28-.59-.33-3.04-.76-5.53-2.6-8.16-4.17-.15-.09-.31-.16-.65-.34-.66 1.35-1.31 2.68-2.07 4.25.41.32.84.62 1.23.96 2.79 2.46 5.37 5.12 7.44 8.24.33.49.75.96.92 1.5 1.36 4.31 2.23 8.69 1.22 13.22-.14.63-.34 1.27-.67 1.81-.21.33-.72.64-1.1.65-.27 0-.72-.46-.8-.78-.37-1.48-.66-2.99-.95-4.49-.4-2.14-.71-4.3-1.18-6.43-.24-1.08-.68-2.14-1.17-3.14-.27-.55-.73-1.17-1.26-1.38-1.5-.62-2.49-1.76-3.45-2.96-1.03-1.28-2.03-2.59-3.11-3.98-1.63 1.16-3.14 2.23-4.74 3.36.16.32.27.65.45.92 2.63 3.72 4.04 7.95 5.09 12.33.05.23.1.47.06.7-.57 3.9-.89 7.87-2.68 11.48-.29.57-.59 1.18-1.05 1.61-.33.31-1 .58-1.37.45-.36-.13-.73-.77-.76-1.21-.07-1.17 0-2.36.09-3.53.26-3.64.57-7.28.82-10.92.03-.44-.11-.96-.33-1.34-1.32-2.3-2.68-4.57-4.04-6.85-.06-.09-.17-.15-.4-.34-2.14 1.63-4.77 1.98-7.36 2.47-.81.16-1.62.35-2.39.63-4.27 1.54-8.52 1.51-12.8 0-1.1-.39-2.27-.67-3.43-.85-2.24-.34-4.37-.92-6.37-2.29-.28.44-.54.81-.77 1.19-1.15 1.92-2.33 3.83-3.4 5.79-.31.58-.47 1.33-.43 1.99.21 3.65.51 7.29.75 10.93.07 1.06.1 2.13.03 3.18-.03.4-.33 1.04-.63 1.11-.42.11-1.08-.07-1.4-.37-.5-.47-.86-1.12-1.17-1.74-1.22-2.46-1.55-5.17-2.18-7.81-.95-3.99.29-7.58 1.75-11.12.89-2.16 2.15-4.18 3.33-6.43-1.39-1-2.89-2.1-4.56-3.31-.43.48-.91.97-1.33 1.49-.93 1.15-1.78 2.36-2.76 3.46-.58.65-1.27 1.3-2.04 1.63-1.03.44-1.57 1.15-2 2.09-1.15 2.5-1.49 5.2-1.92 7.87-.24 1.51-.51 3.02-.79 4.53-.09.46-.19.93-.37 1.36-.42.97-1.4 1.07-1.86.12-.45-.94-.71-1.99-.92-3.02-.65-3.14.02-6.21.61-9.28.39-2.02 1.37-3.67 2.54-5.35 2.18-3.14 5.02-5.6 7.79-8.26l-1.96-4.17c-1.04.62-2 1.26-3.02 1.78-1.83.93-3.7 1.78-5.55 2.69-.4.2-.84.43-1.11.76-1.98 2.37-3.73 4.85-4.33 7.98-.27 1.38-.74 2.73-1.15 4.08-.15.51-.31 1.03-.57 1.48-.51.85-1.33.81-1.73-.12-.25-.58-.41-1.26-.38-1.88.1-1.76.12-3.56.54-5.26.6-2.39 1.45-4.73 2.34-7.03.56-1.45 1.65-2.53 3-3.37 1.54-.96 2.97-2.1 4.53-3.03 1.56-.92 3.21-1.68 4.95-2.57-.83-.95-1.58-1.82-2.42-2.79-.59.28-1.16.58-1.74.83-2.33 1-4.63 2.05-7 2.95-.96.36-1.65.84-2.01 1.79-.84 2.26-1.74 4.5-2.52 6.78-.75 2.17-1.36 4.39-2.06 6.58-.21.67-.44 1.48-1.33 1.43-.98-.06-1.18-.93-1.2-1.69-.04-1.47-.01-2.95.1-4.41.12-1.53.38-3.04.57-4.56.38-2.99 1.27-5.73 3.61-7.82.3-.27.55-.62.77-.96 2.03-3.1 5.03-4.5 8.6-4.93 1.05-.13 2.1-.3 3.15-.46.7-.11 1.13-.45 1.36-1.18.34-1.06.82-2.07 1.3-3.23-.76-.61-1.58-1.18-2.3-1.86-1.54-1.45-3.09-2.9-4.51-4.47-.56-.62-.74-1.56-1.13-2.33-.25-.51-.52-1.03-.85-1.49-1.74-2.42-2.74-5.07-2.62-8.08.02-.52 0-1.18.3-1.53 1.24-1.5.87-3.51 1.75-5.12.16-.29-.05-.94-.3-1.26-2.69-3.52-2.15-10.3 1.94-14.28.66-.64 1.53-1.07 2.1-1.47.48-2.31.67-4.58 1.45-6.64 2.3-6.12 6.88-9.44 13.39-9.87 3.46-.23 6.52.9 8.87 3.58 2.3 2.62 3.65 5.62 3.58 9.17-.01.77-.01 1.55-1.08 2.06-.22-.35-.45-.71-.66-1.07-.46-.81-.79-1.74-1.39-2.42-1.75-1.98-4.44-1.73-5.81.55-.53.89-.8 1.95-1.13 2.96-.72 2.17-1.4 4.36-2.12 6.64.72.2 1.37-.36 1.97-.81 1.69-1.27 2.72-3.07 3.7-4.9.2-.36.3-.79.55-1.11.19-.25.6-.59.8-.53.32.09.7.45.79.77.66 2.43.71 4.9.21 7.36-.86 4.22-3.23 7.47-6.81 9.72-2.03 1.28-4.28 2.23-6.5 3.18-.91.39-1.57.71-2.04 1.69-.5 1.03-1.41 1.85-2.23 2.87.49.32.97.54 1.32.89.36.35.79.81.85 1.26.34 2.8 2.04 4.96 3.34 7.57 1.57-1.53 3.1-2.88 4.46-4.4 1.19-1.33.89-2.96.44-4.53-.16-.56-.44-1.12-.46-1.68-.05-1.4.91-2.13 2.19-1.57.9.39 1.69 1.05 2.47 1.66.46.36.81.86 1.19 1.3s.75.9 1.1 1.34c.16-.04.34-.02.37-.09 1-1.95 2.76-2.76 4.74-3.38 2.37-.74 4.72-.84 7.16-.48 1.09.16 2.22-.02 3.33-.06.29-.01.61-.17.87-.09 2 .58 3.98.12 5.97-.05 2.6-.23 5.07.44 7.34 1.59 1.09.55 1.91 1.65 2.9 2.54.66-.76 1.37-1.72 2.22-2.52.72-.68 1.57-1.23 2.43-1.73.56-.33 1.37-.49 1.78.14.35.53.45 1.28.49 1.94.03.37-.29.76-.42 1.15-.68 2-.53 3.83 1.13 5.35 1.21 1.1 2.41 2.22 3.8 3.51 1.23-2.39 2.82-4.45 3.18-7.09.11-.83.46-1.44 1.19-1.85.35-.2.68-.43 1.15-.73-.44-.51-.83-.94-1.18-1.4-.47-.6-1-1.18-1.32-1.86-.28-.6-.65-.87-1.23-1.11-2.06-.87-4.16-1.68-6.11-2.76-6.33-3.54-9.2-10-7.74-17.09.06-.29.11-.59.24-.85.32-.67.94-.77 1.39-.2.25.32.35.75.58 1.09.97 1.47 1.91 2.97 2.98 4.37.68.89 1.66 1.44 2.83 1.68ZM46.47 91.51c-1.02 1.76-2.37 2.97-3.71 4.23-1.06 1-2.08 2.1-2.88 3.32a86 86 0 0 0-4.12 7.01c-.87 1.65-1.52 3.43-2.15 5.2-.52 1.46-.11 2.88 1 3.9 2.17 1.98 3.45 4.46 4.39 7.16 1.2 3.46 3.69 5.82 6.52 7.92 1.75 1.3 3.53 2.57 5.21 3.95 1.78 1.46 3.73 2.43 6.02 2.78 1.22.19 2.45.42 3.63.76 2.31.67 4.53 1.38 7.06 1.21 1.65-.11 3.25-.2 4.84-.63 1.76-.48 3.52-1 5.31-1.31 2.4-.41 4.47-1.4 6.3-2.98 1.25-1.08 2.52-2.15 3.9-3.04 3.74-2.39 6.66-5.41 8.07-9.72.73-2.22 1.9-4.17 3.66-5.76 1.4-1.27 1.84-2.92 1.2-4.68a40 40 0 0 0-2.29-5.14c-1.08-2.03-2.28-3.99-3.52-5.93-.75-1.18-1.54-2.39-2.53-3.37-1.52-1.51-3.27-2.79-4.14-4.87-1.3 1.21-.67 3.28-2.31 4.15-.42-3.63 2.11-6.32 3.22-9.72-.57.23-.93.29-1.18.48-1.91 1.45-3.34 3.31-4.38 5.47-.31.64-.52 1.33-.89 1.92-.18.28-.63.39-.96.58-.15-.35-.46-.72-.41-1.03.09-.57.44-1.09.62-1.64.14-.43.37-.94.25-1.31-.34-1-.81-1.99-1.81-2.53-1.89-1.03-3.95-1.64-6.07-1.73-2.46-.11-4.93.12-7.4.13-2.06.01-4.11-.1-6.17-.11-2.47-.02-4.82.58-6.88 1.9-.77.49-1.31 1.52-1.65 2.41-.18.46.32 1.17.5 1.78.15.5.34 1.01.38 1.52.02.2-.28.5-.5.62-.14.07-.51-.06-.61-.21-.35-.54-.71-1.1-.93-1.7-.77-2.11-2.15-3.79-3.71-5.32-.5-.49-1.17-.78-2.08-1.37.15.73.14 1.03.26 1.26.64 1.26 1.37 2.47 1.95 3.75.49 1.07.84 2.2 1.21 3.31.18.54.48 1.3-.27 1.53-.79.24-.82-.57-.98-1.12-.3-1.01-.65-2-.97-3Zm7.45-33.35c.1-.04.21-.07.31-.11-.12-.5-.21-1.01-.37-1.5-1.71-5.13-5.92-8.05-10.98-7.64-7.59.62-13.17 7.27-12.56 14.86 1.23.92 2.36 1.86 3.59 2.65 1.28.82 2.6 1.68 4.02 2.17 3.03 1.06 3.3 1.37 4.96-2.12.7-1.47.95-3.15 1.47-4.71.37-1.11.72-2.27 1.33-3.25 1.72-2.74 5-3.16 7.46-1.07.26.22.51.47.77.7Zm26.29.29c.5-.46.77-.69 1.01-.93 2.02-2.08 6.02-1.91 7.78 1.38.41.77.7 1.62.96 2.46.42 1.35.7 2.74 1.17 4.07.33.94.82 1.82 1.31 2.69.55.98 1.32 1.32 2.51 1.01 2.09-.55 3.97-1.45 5.69-2.74 1.13-.85 2.26-1.68 3.44-2.55.64-7.11-4.01-13.31-11.09-14.68-6.32-1.22-11.64 2.51-12.78 9.3Zm-29.92 6.11c-.82 1.13-1.44 2.03-2.11 2.91-2.01 2.66-4.71 3.62-7.94 3.17-1.04-.15-2.07-.45-3.07-.79-2.16-.73-3.92-2.12-5.69-3.51-1.72-1.35-2.98-1.22-4.45.43-2.25 2.52-3.15 5.49-2.76 8.83.15 1.29.54 2.53 1.58 3.55 1.39-.81 2.88-.63 4.26-.15 1.82.64 3.61 1.41 5.33 2.31.76.4 1.4.58 2.14.21 2.36-1.18 4.81-2.24 7.04-3.64s3.8-3.54 4.82-5.97c.94-2.24 1.38-4.59.84-7.35Zm58.42 14.62c.34-.55.62-.93.81-1.35 1.66-3.52.32-9.23-2.72-11.65-1.22-.97-2.22-1-3.53-.07-.62.44-1.2.95-1.82 1.41-2.05 1.55-4.3 2.65-6.86 3.07-3.51.58-6.4-.42-8.53-3.35-.6-.82-1.19-1.65-1.88-2.62-.65 3.24.13 6.65 1.97 9.46 2.68 4.09 6.82 6.01 11.19 7.59.4.15 1.01-.09 1.45-.29 1.17-.54 2.27-1.28 3.47-1.72 2.03-.75 4.1-1.56 6.43-.46Zm-73.7 25.52c1.16-2.01 2.25-3.82 3.24-5.68.21-.4.26-1.08.06-1.47-.93-1.88-1.97-3.71-2.92-5.45-1.73.96-3.37 1.87-5 2.79-.61.35-1.22.7-1.79 1.11-1.28.93-1.36 1.31-.41 2.57 1.82 2.42 4.13 4.31 6.82 6.12Zm64.43.02c2.65-1.82 4.92-3.65 6.72-6.01 1.07-1.4 1.06-1.75-.32-2.68-1.06-.72-2.26-1.25-3.37-1.9-1.14-.67-2.25-1.39-3.38-2.09-.96 1.75-1.85 3.4-2.76 5.04-.36.65-.57 1.28-.15 1.99 1.06 1.82 2.11 3.65 3.27 5.66Zm8.21-9.38c1.75-2.02 2.69-4.42 2.81-7.13.09-2-.56-2.39-2.45-1.63-.27.11-.55.22-.81.35-1.47.76-3 1.27-4.69 1.33-.79.03-1.6.36-2.33.71-.84.41-.94 1.03-.28 1.67a9.4 9.4 0 0 0 1.95 1.49c1.87 1.08 3.78 2.09 5.81 3.2Zm-80.88 0c1.74-.94 3.22-1.67 4.63-2.51 1.11-.66 2.18-1.4 3.17-2.22.66-.55.56-1.16-.19-1.56-.66-.35-1.42-.72-2.14-.74-2.01-.06-3.79-.75-5.54-1.62-.37-.18-.76-.32-1.16-.41-.95-.22-1.35-.01-1.45.98-.31 3.1.77 5.73 2.68 8.08m8.8-12.26c-2.5-1.78-4.97-2.88-7.81-2.99-.39-.02-.97.28-1.18.61-.76 1.18-1.38 2.44-1.24 4 2.46.63 4.47 2.52 7.22 2.2.97-1.23 1.93-2.45 3-3.82Zm73.42 1.64c.27-3.63-1.3-5.08-4.58-4.33-.29.06-.58.13-.85.25-1.53.68-3.19 1.14-4.65 2.51 1.03 1.31 1.99 2.53 2.96 3.76 2.74.31 4.75-1.53 7.11-2.18Zm-6.53 28.88c2.92 1.24 5.77 2.5 8.65 3.66.98.4 2.03.74 3.19.45-2.47-5.14-7.11-5.58-11.84-6.09zm-82.37 4.04c2.36.27 8.24-1.93 11.94-4.43-.05-.5-.1-1.06-.17-1.78-2.29.5-4.44.87-6.54 1.44-2.5.68-3.89 2.65-5.23 4.77m16.62 2.84c-.25-.51-.51-1.06-.84-1.76-.78.33-1.44.55-2.04.88-1.96 1.07-3.92 2.14-5.82 3.31-.75.46-1.58 1.06-1.26 2.21 2.33.31 7-1.86 9.96-4.64m70.95 4.61c.33-1.16-.5-1.77-1.27-2.22-2.17-1.28-4.4-2.46-6.61-3.66-.34-.18-.75-.24-1.24-.39-.3.63-.56 1.18-.81 1.69 3.35 2.95 7.74 4.96 9.94 4.58Zm-66.31 3.4c-.42-.43-.76-.79-1.17-1.21-2.59 2.31-4.95 4.47-6.89 7.07 1.58 1.06 2.23 1.1 3.36-.15 1.61-1.78 3.06-3.7 4.7-5.71m59.85 5.88c-2.03-2.64-4.34-4.84-6.83-6.98-.49.37-.9.68-1.3.98 1.23 1.59 2.26 2.95 3.33 4.27.51.64 1.05 1.28 1.66 1.82.88.78 1.85 1 3.14-.09m-10.51 8.79c-.86-3.54-2.31-6.47-4.42-9.3-.62.55-1.11.99-1.62 1.44 1.25 2.2 2.39 4.25 3.57 6.27.47.81 1.06 1.53 2.47 1.59m-42.43-9.22c-2.19 2.37-4.3 7.08-4.18 9.13 1.21-.29 1.37-.29 1.85-1.1 1.33-2.2 2.58-4.45 3.9-6.73-.61-.5-1.05-.87-1.57-1.3m-5.27 14.42c.5 3.52.89 6.85 2.57 9.82.13-.03.25-.05.38-.08-.27-3.3-.54-6.61-.82-10-.73.09-1.35.17-2.13.26m48.46-.03c-.83-.09-1.45-.16-2.1-.23-.16 1.77-.36 3.46-.44 5.15-.08 1.61-.61 3.23-.14 5.17 1.78-3.31 2.22-6.6 2.68-10.1Zm-61.56 1.34c.13 0 .27.02.4.03.54-3.03 1.08-6.05 1.64-9.15-.45-.28-.87-.54-1.43-.89-.81 3.42-1.46 6.66-.6 10.01Zm74.28.12c1.16-3.4.63-6.68-.23-10.15-.59.39-1.01.67-1.42.94.56 3.13 1.11 6.17 1.65 9.21m14.03-17.6c.49-1.71-.48-8.76-1.12-9.96-.55.29-1.09.57-1.64.86.94 3.11 1.85 6.1 2.76 9.09Zm-102.43-.35c.19.03.38.06.57.1.88-2.95 1.77-5.91 2.66-8.9-.67-.3-1.24-.55-2.01-.89-.42 3.33-.82 6.51-1.22 9.7Zm7.18-3.02c-1.12 2.94-1.98 5.68-1.78 8.65.89-2.58 1.79-5.17 2.71-7.83-.21-.18-.47-.41-.93-.82m90.35 8.71c.01-2.98-.55-5.85-1.93-8.81-.43.43-.71.71-.84.83.98 2.84 1.87 5.41 2.76 7.98Zm-80.93-1.82c-1.52 1.86-1.53 2.27-.09 3.23.46-.8.92-1.6 1.43-2.48-.49-.27-.89-.49-1.34-.74Zm77.41-7.12c.97-1.81.88-2.22-.51-3.24-.36.51-.71 1.01-1.09 1.55.53.56 1 1.05 1.61 1.69Zm-7.51 10.42c1.33-1.21 1.28-1.68-.23-3.24-.37.19-.76.39-1.29.66.53.9 1.02 1.72 1.53 2.57Zm13.37-20.03c-.63.14-1.22.26-1.84.39.11.3.15.47.23.63.7 1.28 1.29 1.73 1.74 1.29.76-.75.24-1.5-.13-2.31m-89.36 7.88c-.4-.53-.74-.99-1.09-1.45-.03-.04-.11-.04-.16-.05-1.28 1.25-1.33 1.68-.27 3.11l1.53-1.62Zm17.09 17.69c-.4.83-.58 1.59.08 2.17.18.16.94.05 1.06-.15.31-.55.42-1.22.63-1.94-.74-.04-1.2-.06-1.77-.09Zm47.81.03c-.62.03-1.15.06-1.75.1.06.55.07.95.15 1.34.12.59.55.99 1.1.81.31-.1.59-.62.68-1 .08-.35-.1-.76-.19-1.25Zm-72.36-25.6c-.59 1.39-.58 1.39-.01 2.45 1.2-.13 1.45-1.1 1.84-2.07-.63-.13-1.19-.24-1.83-.37Z" class="st1" fill="none" stroke="#BDAC82" stroke-width="1.5" stroke-linecap="round" stroke-linejoin="round"/><path d="M77.21 120.32c-1.89-.17-3.41-.39-4.94-.42-1.46-.03-2.93.16-4.4.24-.41.02-.83.08-1.22.01-2.47-.46-4.94-.38-7.39 0-1.73.26-3.4.19-5.04-.43-1.05-.4-2.1-.76-3.14-1.18-1.34-.53-2.5-1.36-3.31-2.56-1.49-2.2-3.55-3.57-6.05-4.35-.45-.14-.9-.31-1.29-.56-.19-.13-.41-.6-.33-.7.18-.23.54-.48.81-.45.46.04.89.29 1.34.43 2.67.84 4.9 2.27 6.5 4.62.79 1.16 1.9 1.89 3.18 2.43 2.7 1.13 5.37 1.87 8.4 1.33 1.92-.35 3.98.04 5.98.09.58.01 1.17.01 1.75.01 2.29-.01 4.61-.27 6.86.02 3.46.45 6.37-.8 9.22-2.37.78-.43 1.38-1.28 1.93-2.03 1.81-2.48 4.44-3.62 7.24-4.46.29-.09.7.19 1.05.3-.19.31-.31.75-.59.91-.55.32-1.2.48-1.8.71-1.98.74-3.7 1.82-4.91 3.6-1.14 1.67-2.7 2.75-4.6 3.42-1.83.64-3.61 1.47-5.25 1.41Zm13.77-.03c-.35.29-.62.6-.96.79-1.7.97-2.86 2.41-3.69 4.15-.33.69-.7 1.36-1.04 2.04-.81 1.63-1.93 2.88-3.63 3.69-.92.44-1.7 1.23-2.42 1.98-2.75 2.82-6.12 3.23-9.76 2.64-.26-.04-.46-.42-.69-.64.3-.21.59-.57.9-.59 1.51-.12 3.05-.04 4.55-.23 1.75-.22 3.14-1.14 4.32-2.5.71-.82 1.66-1.51 2.63-2 1.22-.62 2.09-1.48 2.72-2.66.58-1.09 1.15-2.19 1.74-3.27.91-1.64 2.2-2.89 3.85-3.77.48-.26.97-.52 1.48.36ZM62.51 135.9c-3.04-.27-5.77-.92-7.75-3.44-.56-.71-1.43-1.23-2.25-1.65-1.32-.67-2.32-1.59-2.99-2.9-.38-.73-.8-1.44-1.15-2.19-.92-1.97-2.11-3.68-4.09-4.72-.16-.08-.36-.17-.42-.31-.1-.24-.24-.61-.13-.76.12-.17.51-.24.76-.2.28.04.53.24.79.38 1.53.86 2.69 2.09 3.55 3.61q.615 1.08 1.14 2.19c.84 1.75 1.93 3.18 3.81 3.98.78.33 1.52.96 2.04 1.63 1.79 2.27 4.24 2.84 6.91 2.92.65.02 1.3-.14 1.94-.1.34.03.65.33.98.51-.26.26-.48.67-.78.74-.8.18-1.63.21-2.37.3Zm57.04-30.25c.04-1.03-.31-1.83-1.04-2.48-.71-.64-1.54-1.08-2.43-1.39-.17-.06-.35-.09-.49-.18-.3-.18-.29-.54.03-.69.18-.09.4-.1.59-.15.4-.1.82-.15 1.2-.29 1.23-.47 1.99-1.33 2.08-2.69.02-.29 0-.6.07-.87.05-.15.27-.35.42-.35.13 0 .35.21.39.37.09.34.09.7.12 1.05.12 1.39 1 2.13 2.22 2.56.36.13.74.16 1.12.25.31.07.71.05.73.48.02.38-.37.39-.62.51-.68.33-1.4.62-2.03 1.03-1.06.68-1.64 1.67-1.53 2.98 0 .09.01.18.01.26 0 .28-.15.5-.42.44-.17-.04-.33-.27-.43-.45-.06-.11.01-.29.02-.38Zm-2.03-4.31c.87.76 1.68 1.48 2.44 2.14.8-.7 1.63-1.41 2.43-2.11-.42-.26-.89-.49-1.29-.81-.42-.34-.77-.78-1.15-1.17-.9 1.12-1.2 1.37-2.42 1.96ZM14.67 81.54c-.29-.34-.47-.46-.52-.62-.07-.25 0-.53-.06-.79-.15-.74-.28-1.5-.52-2.21-.21-.64-.74-1.04-1.33-1.35-.23-.12-.48-.23-.7-.38-.53-.35-.54-.73-.03-1.11.38-.28.79-.51 1.14-.82.94-.84 1.47-1.89 1.45-3.18v-.62c.02-.28.13-.57.46-.5.16.04.29.29.38.48.06.12 0 .29 0 .44-.02 1.67.74 2.92 2.08 3.87.14.1.3.18.45.28.66.44.67.92-.07 1.22-1.87.78-2.37 2.3-2.44 4.12 0 .2 0 .41-.05.61-.04.16-.14.31-.27.56Zm-.18-3.66c.4-.53.67-.99 1.04-1.36.35-.35.79-.62 1.12-.87l-2.09-2.39c-.69.78-1.4 1.58-2.13 2.42.89.48 1.66 1.13 2.07 2.19Z" class="st1" fill="none" stroke="#BDAC82" stroke-width="1.5" stroke-linecap="round" stroke-linejoin="round"/><circle cx="18.38" cy="91.04" r=".9" class="st1" fill="none" stroke="#BDAC82" stroke-width="1.5" stroke-linecap="round" stroke-linejoin="round"/><path d="M8.02 96.55c0 .5-.4.9-.9.9s-.9-.4-.9-.9.4-.9.9-.9.9.4.9.9m109.77-10.33c0 .5-.4.9-.9.9s-.9-.4-.9-.9.4-.9.9-.9.9.4.9.9" class="st1" fill="none" stroke="#BDAC82" stroke-width="1.5" stroke-linecap="round" stroke-linejoin="round"/><circle cx="128.3" cy="76.31" r=".9" class="st1" fill="none" stroke="#BDAC82" stroke-width="1.5" stroke-linecap="round" stroke-linejoin="round"/><path d="M66.55 77.88c0 .5-.4.9-.9.9s-.9-.4-.9-.9.4-.9.9-.9.9.4.9.9m9.08-5.31c0 .5-.4.9-.9.9s-.9-.4-.9-.9.4-.9.9-.9.9.4.9.9m-8.17 79.04c0 .5-.4.9-.9.9s-.9-.4-.9-.9.4-.9.9-.9.9.4.9.9m-3.6-96.27c0 .5-.4.9-.9.9s-.9-.4-.9-.9.4-.9.9-.9.9.4.9.9m.87 43.98c-.16 2.29-.07 4.41 2.6 4.36 2.57-.05 2.55-2.19 2.48-4.14 2.18.91 3.48 3.41 3.1 5.69-.42 2.5-2.66 4.56-5.22 4.79-2.39.21-5-1.48-5.82-3.77-.9-2.52.05-5.1 2.86-6.94Zm-1.35 3.49c-.84 1.79-.4 3.68 1.11 4.76 1.81 1.3 4.52 1.11 6.01-.42 1.25-1.29 1.45-3.03.49-4.33-2.55 3.15-4.53 3.15-7.61-.02Z" class="st1" fill="none" stroke="#BDAC82" stroke-width="1.5" stroke-linecap="round" stroke-linejoin="round"/></g></svg>