<?xml version="1.0" encoding="UTF-8"?>
<svg id="Layer_1" xmlns="http://www.w3.org/2000/svg" version="1.1" viewBox="0 0 768 1024">
  <!-- Generator: Adobe Illustrator 29.8.0, SVG Export Plug-In . SVG Version: 2.1.1 Build 160)  -->
  <defs>
    <style>
      .st0 {
        fill: none;
        stroke: #bd9f5e;
        stroke-dasharray: .33 .66;
        stroke-linecap: round;
        stroke-linejoin: round;
        stroke-width: .31px;
      }

      .st1 {
        fill: #9988d2;
      }

      .st2, .st3, .st4 {
        font-family: ProximaNova-Regular, 'Proxima Nova';
      }

      .st2, .st5, .st6 {
        fill: #fff;
      }

      .st2, .st6 {
        font-size: 18px;
      }

      .st3 {
        font-size: 16px;
      }

      .st3, .st7, .st8 {
        fill: #bdac82;
      }

      .st9 {
        fill: #1c223f;
      }

      .st10 {
        fill: #6754a4;
      }

      .st7 {
        font-family: ProximaNova-Semibold, 'Proxima Nova';
        font-size: 36px;
        font-weight: 600;
        letter-spacing: .02em;
      }

      .st11 {
        opacity: .81;
      }

      .st12, .st4 {
        fill: #dad2ff;
      }

      .st4 {
        font-size: 14px;
      }

      .st6 {
        font-family: ProximaNova-RegularIt, 'Proxima Nova';
        font-style: italic;
        letter-spacing: .03em;
      }
    </style>
  </defs>
  <g>
    <rect class="st9" width="768" height="1024"/>
    <g>
      <path class="st10" d="M240.61,244.57c-5.94,1.95-10.95,6.26-14.43,11.46-3.48,5.2-5.83,11.16-6.97,17.31.64-6.04-1.05-12.3-4.63-17.21-3.58-4.91-8.3-9.46-14.25-10.7,11.33-3.93,19.61-15.37,19.81-27.36,1.14,5.73,3,11.11,6.09,16.07,3.09,4.96,8.57,9.89,14.39,10.44Z"/>
      <path class="st1" d="M294.66,379.02c-5.94,1.95-10.95,6.26-14.43,11.46-3.48,5.2-5.83,11.16-6.97,17.31.64-6.04-1.05-12.3-4.63-17.21-3.58-4.91-8.3-9.46-14.25-10.7,11.33-3.93,19.61-15.37,19.81-27.36,1.14,5.73,3,11.11,6.09,16.07,3.09,4.96,8.57,9.89,14.39,10.44Z"/>
      <path class="st10" d="M554.96,278.14c-5.09,1.67-9.38,5.36-12.36,9.82-2.98,4.46-4.99,9.56-5.97,14.83.54-5.18-.9-10.54-3.97-14.75-3.07-4.21-7.11-8.11-12.21-9.17,9.7-3.37,16.8-13.17,16.97-23.44.97,4.91,2.57,9.52,5.22,13.77,2.64,4.25,7.34,8.47,12.32,8.94Z"/>
      <path class="st1" d="M629.53,379.46c-5.09,1.67-9.38,5.36-12.36,9.82-2.98,4.46-4.99,9.56-5.97,14.83.54-5.18-.9-10.54-3.97-14.74-3.07-4.21-7.11-8.11-12.21-9.17,9.7-3.37,16.8-13.17,16.97-23.44.97,4.91,2.57,9.52,5.22,13.77s7.34,8.47,12.32,8.94Z"/>
      <path class="st1" d="M629.53,888.02c-5.09,1.67-9.38,5.36-12.36,9.82-2.98,4.46-4.99,9.56-5.97,14.83.54-5.18-.9-10.54-3.97-14.74-3.07-4.21-7.11-8.11-12.21-9.17,9.7-3.37,16.8-13.17,16.97-23.44.97,4.91,2.57,9.52,5.22,13.77s7.34,8.47,12.32,8.94Z"/>
      <path class="st10" d="M633.38,182.39c-3.12,1.02-5.74,3.28-7.56,6.01-1.82,2.73-3.05,5.85-3.65,9.07.33-3.17-.55-6.45-2.43-9.02-1.88-2.57-4.35-4.96-7.47-5.61,5.94-2.06,10.28-8.06,10.38-14.34.6,3,1.57,5.82,3.19,8.42,1.62,2.6,4.49,5.18,7.54,5.47Z"/>
      <path class="st1" d="M200.33,126.73c-5.09,1.67-9.38,5.36-12.36,9.82-2.98,4.46-4.99,9.56-5.97,14.83.55-5.18-.9-10.54-3.97-14.75-3.07-4.21-7.11-8.11-12.21-9.17,9.7-3.37,16.8-13.17,16.97-23.44.97,4.91,2.57,9.52,5.22,13.77s7.34,8.47,12.32,8.94Z"/>
      <path class="st1" d="M527.82,114.23c-6.19,2.03-11.4,6.51-15.02,11.93-3.62,5.41-6.06,11.61-7.25,18.02.66-6.29-1.09-12.81-4.82-17.91-3.73-5.11-8.64-9.85-14.84-11.14,11.79-4.09,20.41-16,20.62-28.48,1.18,5.96,3.13,11.56,6.34,16.73s8.92,10.29,14.97,10.86Z"/>
      <path class="st1" d="M141.96,356.16c-3.12,1.02-5.74,3.28-7.56,6.01-1.82,2.73-3.05,5.85-3.65,9.07.33-3.17-.55-6.45-2.43-9.02-1.88-2.57-4.35-4.96-7.47-5.61,5.94-2.06,10.28-8.06,10.38-14.34.6,3,1.57,5.82,3.19,8.42,1.62,2.6,4.49,5.18,7.54,5.47Z"/>
      <path class="st1" d="M141.96,825.06c-3.12,1.02-5.74,3.28-7.56,6.01-1.82,2.73-3.05,5.85-3.65,9.07.33-3.17-.55-6.45-2.43-9.02-1.88-2.57-4.35-4.96-7.47-5.61,5.94-2.06,10.28-8.06,10.38-14.34.6,3,1.57,5.82,3.19,8.42,1.62,2.6,4.49,5.18,7.54,5.47Z"/>
      <path class="st10" d="M224.48,954.18c-3.11,1.02-5.74,3.28-7.56,6.01-1.82,2.73-3.05,5.85-3.65,9.07.33-3.17-.55-6.45-2.43-9.02-1.88-2.57-4.35-4.96-7.47-5.61,5.94-2.06,10.28-8.06,10.38-14.34.6,3,1.57,5.82,3.19,8.42,1.62,2.6,4.49,5.18,7.54,5.47Z"/>
      <path class="st10" d="M486.08,419.18c-3.12,1.02-5.74,3.28-7.56,6.01-1.82,2.73-3.05,5.85-3.65,9.07.33-3.17-.55-6.45-2.43-9.02-1.88-2.57-4.35-4.96-7.47-5.61,5.94-2.06,10.28-8.06,10.38-14.34.6,3,1.57,5.82,3.19,8.42,1.62,2.6,4.49,5.18,7.54,5.47Z"/>
      <path class="st10" d="M295.39,103.56c-2.45.8-4.51,2.58-5.94,4.72-1.43,2.14-2.4,4.59-2.87,7.12.26-2.49-.43-5.06-1.91-7.09-1.48-2.02-3.42-3.9-5.87-4.4,4.66-1.62,8.07-6.33,8.15-11.26.47,2.36,1.24,4.57,2.51,6.62s3.53,4.07,5.92,4.3Z"/>
      <path class="st1" d="M586.84,527.09c-2.45.8-4.51,2.58-5.94,4.72s-2.4,4.59-2.87,7.13c.26-2.49-.43-5.07-1.91-7.09-1.47-2.02-3.42-3.9-5.87-4.4,4.66-1.62,8.07-6.33,8.15-11.26.47,2.36,1.24,4.57,2.51,6.62,1.27,2.04,3.53,4.07,5.92,4.3Z"/>
      <path class="st1" d="M163.77,486.38c-2.45.8-4.51,2.58-5.94,4.72-1.43,2.14-2.4,4.59-2.87,7.13.26-2.49-.43-5.06-1.91-7.09-1.47-2.02-3.42-3.9-5.87-4.4,4.66-1.62,8.07-6.33,8.15-11.26.47,2.36,1.24,4.57,2.51,6.62,1.27,2.04,3.53,4.07,5.92,4.3Z"/>
    </g>
    <path class="st0" d="M686.27,982.82H81.73c0-2.44-1.98-4.42-4.42-4.42V45.6c2.44,0,4.42-1.98,4.42-4.42h604.53c0,2.44,1.98,4.42,4.42,4.42v932.81c-2.44,0-4.42,1.98-4.42,4.42Z"/>
    <g>
      <path class="st12" d="M342.68,958.07h1.24v11.2h-1.24v-11.2ZM346.87,958.07v1.06h-3.4v-1.06h3.4ZM346.33,962.91v1.06h-2.86v-1.06h2.86ZM347,968.2v1.06h-3.53v-1.06h3.53Z"/>
      <path class="st12" d="M351.3,967.66v-1.66c0-.24-.03-.39-.1-.46-.07-.07-.22-.1-.46-.1h-.88c-.48,0-.84-.12-1.07-.35s-.35-.59-.35-1.07v-2.07c0-.48.12-.84.35-1.07s.59-.35,1.07-.35h1.22c.48,0,.84.12,1.07.35.23.23.35.59.35,1.07v.88h-1.22v-.7c0-.24-.03-.39-.1-.46-.07-.07-.22-.1-.46-.1h-.5c-.23,0-.38.03-.45.1-.07.07-.11.22-.11.46v1.71c0,.23.04.38.11.45.07.07.22.11.45.11h.88c.48,0,.84.12,1.07.35.23.23.35.59.35,1.07v2.02c0,.48-.12.84-.35,1.07-.23.23-.59.35-1.07.35h-1.21c-.48,0-.84-.12-1.07-.35-.23-.23-.35-.59-.35-1.07v-.88h1.22v.7c0,.23.04.38.11.45.07.07.22.11.45.11h.49c.24,0,.39-.04.46-.11.07-.07.1-.22.1-.45Z"/>
      <path class="st12" d="M355.65,971.8h-1.24v-11.27h1.24v11.27ZM358.79,965.23h-1.24v-3.08c0-.24-.03-.39-.1-.46-.07-.07-.22-.1-.46-.1h-.72c-.22,0-.37.05-.47.14-.1.1-.14.26-.14.5v.61h-.07v-1.22c0-.41.1-.69.3-.86.2-.16.45-.24.77-.24h.72c.48,0,.84.12,1.07.35s.35.59.35,1.07v3.28ZM357.54,964.55h1.24v3.29c0,.48-.12.84-.35,1.07-.23.23-.59.35-1.07.35h-.72c-.31,0-.57-.08-.77-.24-.2-.16-.3-.45-.3-.85v-1.01l.07-.02v.41c0,.24.05.41.14.5.1.1.25.14.47.14h.72c.24,0,.39-.04.46-.11s.1-.22.1-.45v-3.1Z"/>
      <path class="st12" d="M362.01,969.26h-1.24v-8.73h1.24v8.73ZM363.68,960.53v1.08h-.54c-.76,0-1.13.45-1.13,1.35v.34h-.07v-1.31c0-.2.05-.42.15-.65s.25-.42.46-.58c.2-.16.46-.23.76-.23h.38Z"/>
      <path class="st12" d="M366.27,962.15v5.49c0,.23.04.38.11.45.07.07.22.11.45.11h.43v1.06h-.81c-.48,0-.84-.12-1.07-.35-.23-.23-.35-.59-.35-1.07v-5.89c0-.48.12-.84.35-1.07.23-.23.59-.35,1.07-.35h.94v1.06h-.56c-.23,0-.38.03-.45.1-.07.07-.11.22-.11.46ZM369.53,964.26v1.06h-3.96v-1.06h3.96ZM368.29,965.14v-2.99c0-.24-.03-.39-.1-.46-.07-.07-.22-.1-.46-.1h-.61v-1.06h.99c.48,0,.84.12,1.07.35s.35.59.35,1.07v3.19h-1.24ZM368.24,967.64v-.79h1.24v.99c0,.48-.12.84-.35,1.07-.23.23-.59.35-1.07.35h-.94v-1.06h.56c.24,0,.39-.04.46-.11s.1-.22.1-.45Z"/>
      <path class="st12" d="M374.1,967.66v-1.66c0-.24-.03-.39-.1-.46-.07-.07-.22-.1-.46-.1h-.88c-.48,0-.84-.12-1.07-.35s-.35-.59-.35-1.07v-2.07c0-.48.12-.84.35-1.07s.59-.35,1.07-.35h1.22c.48,0,.84.12,1.07.35.23.23.35.59.35,1.07v.88h-1.22v-.7c0-.24-.03-.39-.1-.46-.07-.07-.22-.1-.46-.1h-.5c-.23,0-.38.03-.45.1-.07.07-.11.22-.11.46v1.71c0,.23.04.38.11.45.07.07.22.11.45.11h.88c.48,0,.84.12,1.07.35.23.23.35.59.35,1.07v2.02c0,.48-.12.84-.35,1.07-.23.23-.59.35-1.07.35h-1.21c-.48,0-.84-.12-1.07-.35-.23-.23-.35-.59-.35-1.07v-.88h1.22v.7c0,.23.04.38.11.45.07.07.22.11.45.11h.49c.24,0,.39-.04.46-.11.07-.07.1-.22.1-.45Z"/>
      <path class="st12" d="M379.9,967.66v-1.66c0-.24-.03-.39-.1-.46-.07-.07-.22-.1-.46-.1h-.88c-.48,0-.84-.12-1.07-.35s-.35-.59-.35-1.07v-2.07c0-.48.12-.84.35-1.07s.59-.35,1.07-.35h1.22c.48,0,.84.12,1.07.35.23.23.35.59.35,1.07v.88h-1.22v-.7c0-.24-.03-.39-.1-.46-.07-.07-.22-.1-.46-.1h-.5c-.23,0-.38.03-.45.1-.07.07-.11.22-.11.46v1.71c0,.23.04.38.11.45.07.07.22.11.45.11h.88c.48,0,.84.12,1.07.35.23.23.35.59.35,1.07v2.02c0,.48-.12.84-.35,1.07-.23.23-.59.35-1.07.35h-1.21c-.48,0-.84-.12-1.07-.35-.23-.23-.35-.59-.35-1.07v-.88h1.22v.7c0,.23.04.38.11.45.07.07.22.11.45.11h.49c.24,0,.39-.04.46-.11.07-.07.1-.22.1-.45Z"/>
      <path class="st12" d="M384.15,962.15v4.59h-1.22v-4.79c0-.48.12-.84.35-1.07.23-.23.59-.35,1.07-.35h.97v1.06h-.61c-.23,0-.38.03-.45.1-.07.07-.11.22-.11.46ZM384.15,965.68v1.96c0,.23.04.38.11.45.07.07.22.11.45.11h.56v1.06h-.92c-.48,0-.84-.12-1.07-.35-.23-.23-.35-.59-.35-1.07v-2.16h1.22ZM386.38,967.64v-1.82h1.22v2.02c0,.48-.12.84-.35,1.07s-.59.35-1.07.35h-1.1v-1.06h.74c.24,0,.39-.04.46-.11.07-.07.1-.22.1-.45ZM386.38,966.72v-4.57c0-.24-.03-.39-.1-.46-.07-.07-.22-.1-.46-.1h-.61v-1.06h.97c.48,0,.84.12,1.07.35.23.23.35.59.35,1.07v4.77h-1.22Z"/>
      <path class="st12" d="M392.55,958.07h1.24v11.2h-1.24v-11.2ZM396.75,963.14v1.06h-3.4v-1.06h3.4ZM396.21,958.07h1.24v11.2h-1.24v-11.2Z"/>
      <path class="st12" d="M400.83,962.15v4.59h-1.22v-4.79c0-.48.12-.84.35-1.07s.59-.35,1.07-.35h.97v1.06h-.61c-.23,0-.38.03-.45.1-.07.07-.11.22-.11.46ZM400.83,965.68v1.96c0,.23.04.38.11.45.07.07.22.11.45.11h.56v1.06h-.92c-.48,0-.84-.12-1.07-.35-.23-.23-.35-.59-.35-1.07v-2.16h1.22ZM403.07,967.64v-1.82h1.22v2.02c0,.48-.12.84-.35,1.07s-.59.35-1.07.35h-1.1v-1.06h.74c.24,0,.39-.04.46-.11.07-.07.1-.22.1-.45ZM403.07,966.72v-4.57c0-.24-.03-.39-.1-.46-.07-.07-.22-.1-.46-.1h-.61v-1.06h.97c.48,0,.84.12,1.07.35.23.23.35.59.35,1.07v4.77h-1.22Z"/>
      <path class="st12" d="M407.51,969.26h-1.24v-8.73h1.24v8.73ZM409.19,960.53v1.08h-.54c-.76,0-1.13.45-1.13,1.35v.34h-.07v-1.31c0-.2.05-.42.15-.65.1-.23.25-.42.46-.58.2-.16.46-.23.76-.23h.38Z"/>
      <path class="st12" d="M411.67,962.15v4.59h-1.22v-4.79c0-.48.12-.84.35-1.07.23-.23.59-.35,1.07-.35h.97v1.06h-.61c-.23,0-.38.03-.45.1-.07.07-.11.22-.11.46ZM411.67,965.68v1.96c0,.23.04.38.11.45s.22.11.45.11h.56v1.06h-.92c-.48,0-.84-.12-1.07-.35-.23-.23-.35-.59-.35-1.07v-2.16h1.22ZM413.9,967.64v-1.82h1.22v2.02c0,.48-.12.84-.35,1.07-.23.23-.59.35-1.07.35h-1.1v-1.06h.74c.24,0,.39-.04.46-.11.07-.07.1-.22.1-.45ZM413.9,966.72v-4.57c0-.24-.03-.39-.1-.46-.07-.07-.22-.1-.46-.1h-.61v-1.06h.97c.48,0,.84.12,1.07.35s.35.59.35,1.07v4.77h-1.22Z"/>
      <path class="st12" d="M419.79,967.66v-1.66c0-.24-.03-.39-.1-.46-.07-.07-.22-.1-.46-.1h-.88c-.48,0-.84-.12-1.07-.35-.23-.23-.35-.59-.35-1.07v-2.07c0-.48.12-.84.35-1.07.23-.23.59-.35,1.07-.35h1.22c.48,0,.84.12,1.07.35s.35.59.35,1.07v.88h-1.22v-.7c0-.24-.03-.39-.1-.46-.07-.07-.22-.1-.46-.1h-.5c-.23,0-.38.03-.45.1-.07.07-.11.22-.11.46v1.71c0,.23.04.38.11.45.07.07.22.11.45.11h.88c.48,0,.84.12,1.07.35s.35.59.35,1.07v2.02c0,.48-.12.84-.35,1.07-.23.23-.59.35-1.07.35h-1.21c-.48,0-.84-.12-1.07-.35-.23-.23-.35-.59-.35-1.07v-.88h1.22v.7c0,.23.04.38.11.45.07.07.22.11.45.11h.49c.24,0,.39-.04.46-.11.07-.07.1-.22.1-.45Z"/>
      <path class="st12" d="M424.05,962.15v5.49c0,.23.04.38.11.45.07.07.22.11.45.11h.43v1.06h-.81c-.48,0-.84-.12-1.07-.35-.23-.23-.35-.59-.35-1.07v-5.89c0-.48.12-.84.35-1.07.23-.23.59-.35,1.07-.35h.94v1.06h-.56c-.23,0-.38.03-.45.1-.07.07-.11.22-.11.46ZM426.07,963.12v-.97c0-.24-.03-.39-.1-.46-.07-.07-.22-.1-.46-.1h-.61v-1.06h.99c.48,0,.84.12,1.07.35.23.23.35.59.35,1.07v1.17h-1.24ZM426.07,967.64v-.97h1.24v1.17c0,.48-.12.84-.35,1.07-.23.23-.59.35-1.07.35h-.99v-1.06h.61c.24,0,.39-.04.46-.11.07-.07.1-.22.1-.45Z"/>
      <path class="st12" d="M430.33,962.15v4.59h-1.22v-4.79c0-.48.12-.84.35-1.07.23-.23.59-.35,1.07-.35h.97v1.06h-.61c-.23,0-.38.03-.45.1-.07.07-.11.22-.11.46ZM430.33,965.68v1.96c0,.23.04.38.11.45s.22.11.45.11h.56v1.06h-.92c-.48,0-.84-.12-1.07-.35-.23-.23-.35-.59-.35-1.07v-2.16h1.22ZM432.57,967.64v-1.82h1.22v2.02c0,.48-.12.84-.35,1.07-.23.23-.59.35-1.07.35h-1.1v-1.06h.74c.24,0,.39-.04.46-.11.07-.07.1-.22.1-.45ZM432.57,966.72v-4.57c0-.24-.03-.39-.1-.46-.07-.07-.22-.1-.46-.1h-.61v-1.06h.97c.48,0,.84.12,1.07.35s.35.59.35,1.07v4.77h-1.22Z"/>
      <path class="st12" d="M437.01,971.8h-1.24v-11.27h1.24v11.27ZM440.14,965.23h-1.24v-3.08c0-.24-.03-.39-.1-.46s-.22-.1-.46-.1h-.72c-.22,0-.37.05-.47.14s-.14.26-.14.5v.61h-.07v-1.22c0-.41.1-.69.3-.86.2-.16.45-.24.76-.24h.72c.48,0,.84.12,1.07.35s.35.59.35,1.07v3.28ZM438.9,964.55h1.24v3.29c0,.48-.12.84-.35,1.07-.23.23-.59.35-1.07.35h-.72c-.31,0-.57-.08-.76-.24-.2-.16-.3-.45-.3-.85v-1.01l.07-.02v.41c0,.24.05.41.14.5.1.1.25.14.47.14h.72c.24,0,.39-.04.46-.11.07-.07.1-.22.1-.45v-3.1Z"/>
      <path class="st12" d="M443.37,962.15v5.49c0,.23.04.38.11.45s.22.11.45.11h.43v1.06h-.81c-.48,0-.84-.12-1.07-.35s-.35-.59-.35-1.07v-5.89c0-.48.12-.84.35-1.07.23-.23.59-.35,1.07-.35h.94v1.06h-.56c-.23,0-.38.03-.45.1-.07.07-.11.22-.11.46ZM446.62,964.26v1.06h-3.96v-1.06h3.96ZM445.38,965.14v-2.99c0-.24-.03-.39-.1-.46s-.22-.1-.46-.1h-.61v-1.06h.99c.48,0,.84.12,1.07.35s.35.59.35,1.07v3.19h-1.24ZM445.33,967.64v-.79h1.24v.99c0,.48-.12.84-.35,1.07-.23.23-.59.35-1.07.35h-.94v-1.06h.56c.24,0,.39-.04.46-.11.07-.07.1-.22.1-.45Z"/>
    </g>
    <g>
      <path class="st5" d="M377.24,148.57c.3-.04.69-.32.77-.64.06-.22,0-.37-.06-.46-.14-.23-.41-.29-.65-.34l-.09-.02c-.47-.09-.95-.18-1.4-.32-1.04-.34-1.61-1.13-1.61-2.22,0-.37.06-.78.17-1.19.21-.77.63-1.31,1.2-1.59.57-.27,1.26-.26,1.99.05.89.37,1.68.96,2.4,1.78,1.38,1.58,2.29,3.37,2.7,5.33.21.98.36,1.99.51,2.97l.06.39c.05.32.14.91.8.91h0c.65,0,.72-.57.75-.85v-.09c.08-.51.16-1.02.25-1.53l.09-.57c.41-2.55,1.32-4.64,2.79-6.38.7-.82,1.44-1.42,2.26-1.83.89-.44,1.74-.5,2.39-.15.65.34,1.09,1.07,1.23,2.06.04.3.06.55.05.77-.05,1.08-.59,1.8-1.61,2.13-.27.09-.56.15-.86.2-.25.05-.5.1-.74.17-.2.05-.65.37-.56.7.07.28.3.51.48.63.22.14.53.1.69.06.15-.03.3-.07.44-.1.46-.1.94-.2,1.39-.39,1.4-.6,2.17-1.71,2.23-3.21.03-.65-.05-1.31-.22-1.92-.32-1.14-1.01-2.02-1.93-2.47-.94-.46-2.08-.46-3.2,0-1.04.43-1.98,1.1-2.8,1.99-1.55,1.69-2.6,3.69-3.13,5.94l-.02-.09c-.53-2.26-1.6-4.25-3.19-5.94-1.04-1.11-2.15-1.8-3.4-2.12-1.82-.47-3.52.37-4.22,2.09-.26.63-.42,1.31-.47,1.97-.08,1.16.39,2.31,1.31,3.17.91.85,2.08,1.25,3.21,1.1Z"/>
      <path class="st8" d="M384.02,165.38c-10.39,0-18.84-8.45-18.84-18.84s8.45-18.84,18.84-18.84,18.84,8.45,18.84,18.84-8.45,18.84-18.84,18.84ZM384.02,129.18c-9.57,0-17.36,7.79-17.36,17.36s7.79,17.36,17.36,17.36,17.36-7.79,17.36-17.36-7.79-17.36-17.36-17.36Z"/>
      <g>
        <path class="st5" d="M368.16,326.34h-1.7l-2.29-14.11-2.02,14.11h-1.7l2.38-15.29h2.68l2.63,15.29ZM366.41,321v1.45h-4.28v-1.45h4.28Z"/>
        <path class="st5" d="M377.06,317.74v-4.47c0-.33-.05-.54-.14-.63-.09-.09-.3-.14-.63-.14h-3.96v-1.45h4.45c.65,0,1.14.16,1.46.48.32.32.48.81.48,1.46v5.01c0,.66-.16,1.14-.48,1.46-.32.32-.81.48-1.46.48h-3.44v-1.45h2.95c.33,0,.54-.05.63-.15.09-.1.14-.3.14-.61ZM372.34,311.05h1.67v15.29h-1.67v-15.29ZM375.24,319.31h1.75l2.53,7.03h-1.82l-2.46-7.03Z"/>
        <path class="st5" d="M383.99,311.05h1.67v15.29h-1.67v-15.29Z"/>
        <path class="st5" d="M391.07,311.05h1.7v15.29h-1.7v-15.29ZM396.79,311.05v1.45h-4.65v-1.45h4.65ZM396.06,317.66v1.45h-3.91v-1.45h3.91ZM396.96,324.89v1.45h-4.82v-1.45h4.82Z"/>
        <path class="st5" d="M405.27,324.13v-4.18c0-.33-.05-.54-.14-.63-.09-.09-.3-.13-.63-.13h-1.67c-.66,0-1.14-.16-1.46-.48s-.48-.81-.48-1.46v-4.25c0-.65.16-1.14.48-1.46s.81-.48,1.46-.48h2.16c.66,0,1.14.16,1.46.48s.48.81.48,1.46v2.36h-1.7v-2.09c0-.33-.04-.54-.13-.63s-.3-.14-.63-.14h-1.13c-.31,0-.52.04-.61.14-.1.09-.15.3-.15.63v3.71c0,.31.05.52.15.61s.3.15.61.15h1.67c.66,0,1.14.16,1.46.48.32.32.48.81.48,1.46v4.72c0,.66-.16,1.14-.48,1.46-.32.32-.81.48-1.46.48h-2.14c-.66,0-1.14-.16-1.46-.48-.32-.32-.48-.81-.48-1.46v-2.36h1.7v2.09c0,.31.05.52.15.61.1.1.3.15.62.15h1.11c.33,0,.54-.05.63-.15s.14-.3.14-.61Z"/>
      </g>
      <rect class="st5" x="328.83" y="300.15" width="110.39" height="1.6"/>
      <g>
        <g>
          <path class="st8" d="M374.27,210.38c6.57-1.52,13-1.5,19.51-.02.28-.75.51-1.36.73-1.98,1.85-5.17,4.89-9.53,8.97-13.18,4.59-4.1,10.04-5.91,16.11-6.15,4.97-.19,9.7.83,14.13,3.01,9.06,4.45,14.03,11.72,14.51,21.87.38,8.05-1.93,15.25-7.28,21.36-.7.81-.99,1.64-1.06,2.71-.31,5.14-2.25,9.65-5.59,13.55-.25.29-.56.53-.91.85-1.06-.32-1.9-.91-2.59-1.75-.69-.84-.94-1.67-.46-2.78.53-1.21.84-2.52,1.39-4.23-5.66,3.42-11.03,3.45-16.3.33-5.46-3.24-7.3-8.33-6.68-14.54-1.43.21-2.4.84-3.3,1.59-.72.6-.81,1.4-.75,2.28.12,1.73.21,3.46.25,5.19.1,4.39-1.18,8.38-3.55,12.04-2.09,3.22-4.61,6.05-7.66,8.39-.48.37-.95.77-1.49,1.21.36.92.71,1.8,1.04,2.68.6,1.58,1.05,3.18.89,4.91-.12,1.24-.57,2.3-1.73,2.88-.61.31-.9.73-1.1,1.36-.45,1.43-1.47,2.36-2.84,2.89-3,1.16-6.01,1.16-9.01,0-1.37-.53-2.34-1.48-2.85-2.89-.16-.44-.44-.97-.81-1.17-1.92-1.02-2.27-2.75-1.95-4.58.28-1.63.94-3.2,1.43-4.8.13-.42.28-.83.44-1.32-.56-.44-1.08-.86-1.61-1.27-3.39-2.65-6.15-5.86-8.3-9.58-2.23-3.85-3.03-8.02-2.76-12.43.07-1.17.09-2.35.23-3.52.15-1.28-.35-2.19-1.41-2.8-.76-.44-1.57-.78-2.69-1.32.68,6.43-1.13,11.53-6.57,14.78-5.24,3.13-10.59,3.17-16.01-.11-.12,1.14.43,2.06.64,3.04.2.94,1.12,1.73.54,2.85-.65,1.26-1.63,2.11-3.11,2.7-.33-.3-.77-.62-1.12-1.02-3.31-3.87-5.12-8.38-5.49-13.43-.08-1.14-.43-2-1.16-2.84-4.93-5.65-7.17-12.32-7.19-19.74-.03-11.46,6.32-20.45,17.09-24.4,6.35-2.33,12.75-2.63,19.25-.65,2.89.88,5.44,2.34,7.74,4.25,4.44,3.69,7.7,8.23,9.66,13.68.22.62.45,1.25.76,2.1ZM376.39,258.7c1.21-2.09,2.25-4.19,2.54-6.54.51-4.19.55-8.37-.71-12.47-.3-.96-.65-1.91-.89-2.88-.09-.36-.02-1.01.19-1.13.54-.29.73.25.9.67.04.1.07.21.11.32,2.62,7.51,3.14,14.92-.63,22.28-1.09,2.12-1.9,4.42-2.54,6.73-.74,2.65.01,3.71,2.63,4.4.49.13.99.2,1.47.34,1.55.43,3.1.88,4.51,1.29,2.03-.54,4.02-1.07,6.01-1.59,2.71-.71,3.39-1.77,2.8-4.5-.17-.76-.41-1.52-.7-2.24-.6-1.51-1.14-3.05-1.91-4.47-2.09-3.86-2.8-7.97-2.66-12.3.11-3.51.91-6.86,2.12-10.13.16-.44.29-1.03,1.06-.8.48.72.02,1.39-.22,2.04-1.72,4.74-2.02,9.61-1.3,14.55.34,2.33,1.35,4.4,2.55,6.51,4-2.78,7.01-6.18,9.34-10.21,1.77-3.07,2.68-6.38,2.59-9.94-.06-2.18-.15-4.36-.28-6.54-.16-2.76-.02-5.48,1.05-8.08.08-.18.07-.4.12-.65-.3-.03-.52-.07-.74-.07-4.22.13-7.33-2.04-10.07-4.92-.97-1.02-1.41-2.22-.92-3.69.31-.93.4-1.93.62-3.02-6.33-1.58-12.48-1.61-18.76.02.2,1,.29,1.9.56,2.73.57,1.77.01,3.18-1.24,4.39-2.77,2.69-5.85,4.7-9.93,4.49-.15,0-.31.07-.58.15.81,2.01,1.32,4.07,1.25,6.22-.06,2.07-.11,4.14-.26,6.2-.33,4.51.28,8.82,2.6,12.78,2.23,3.82,5.1,7.06,8.66,9.69.17.13.37.21.67.37ZM358.88,217.45c-1.99-2.63-4.3-4.78-7.23-6.22-3.59-1.77-7.25-1.7-10.88-.15-2.81,1.2-4.5,3.42-5.18,6.39-.24,1.04-.27,2.09.26,3.15.24-.1.46-.16.64-.27,5.08-3,10.25-3.21,15.5-.5.7.36,1.28.21,1.9-.08,1.61-.75,3.21-1.49,4.99-2.32ZM432.3,220.67c1.03-4-1.43-7.7-4.14-9.16-2.48-1.34-5.15-1.84-7.94-1.44-3.84.55-6.8,2.68-9.39,5.43-.59.62-1.09,1.32-1.61,1.96,1.69.79,3.21,1.46,4.7,2.21.93.47,1.7.42,2.66-.05,4.81-2.35,9.59-2.18,14.3.34.42.23.86.44,1.42.72ZM439.37,197.46c-.57-.51-.95-.89-1.38-1.23-2.69-2.17-5.76-3.6-9.05-4.58-1.3-.39-1.33-.4-2.06.68-1.92,2.82-3.18,5.91-3.44,9.32-.18,2.38-.23,4.78.6,7.11.92.18,1.78.35,2.59.51,4.54-7.28,6.69-9.29,12.75-11.8ZM344.1,208.74c.72-2.76.84-5.46.41-8.19-.48-3.03-1.65-5.78-3.37-8.31-.4-.58-.78-1-1.64-.73-3.55,1.1-6.9,2.58-9.77,5.01-.32.27-.59.61-.96,1,6,2.12,9.86,6.34,12.64,11.78.87-.18,1.69-.35,2.69-.56ZM355.26,211.77c.82.78,1.65,1.45,2.34,2.24.57.64,1.17.72,1.94.58,3.07-.57,5.91-1.67,8.43-3.52,1.27-.93,2.34-2.06,3.04-3.52.32-.67.3-1.22-.03-1.89-1.53-3.09-3.53-5.83-6-8.23-.2-.2-.5-.29-.75-.44-.81,6.32-4.15,10.96-8.97,14.78ZM446.25,209.14c-.66-3.21-2-5.82-3.74-8.24-1.87-2.6-2.3-2.71-5.19-1.19-3.93,2.07-6.77,5.23-8.85,9.1-.17.32-.24.7-.34,1.01,1.2.89,2.31,1.71,3.43,2.54,4.39-3.16,9.23-4.16,14.69-3.21ZM321.93,209.12c5.45-.96,10.32.14,14.61,3.23,1.22-.92,2.32-1.75,3.49-2.63-1.84-3.99-4.58-7.13-8.26-9.45-.89-.56-1.91-.91-2.87-1.35-.95-.43-1.65-.21-2.32.63-1.99,2.46-3.54,5.14-4.44,8.18-.12.4-.13.83-.21,1.38ZM403.9,196.98c-.28.08-.41.08-.48.14-.21.18-.41.38-.61.58-2.1,2.12-3.78,4.52-5.3,7.09-.94,1.58-.67,2.81.35,4.1.24.31.49.61.77.89,2.87,2.79,6.39,4.23,10.28,4.84.35.06.86.02,1.08-.19.91-.88,1.74-1.85,2.68-2.87-2.31-1.6-4.26-3.72-5.79-6.22-1.55-2.55-2.85-5.19-2.96-8.35ZM349.99,209c1.43.67,2.68,1.26,4.04,1.91,4.47-3.1,7.45-7.25,8.78-12.56.12-.48.1-1,.1-1.5,0-.94-.33-1.65-1.18-2.23-2.15-1.46-4.4-2.63-6.93-3.25-.34-.08-.71-.09-1.13-.15,1.69,6.6.8,12.54-3.68,17.78ZM414.37,191.19c-2.61.43-4.61,1.23-6.96,2.73-2.29,1.46-2.66,2.32-2.04,4.98.17.76.43,1.51.73,2.22,1.03,2.43,2.39,4.69,4.22,6.59,1.15,1.19,2.46,2.22,3.63,3.25,1.49-.71,2.74-1.3,4.15-1.97-4.58-5.21-5.32-11.19-3.73-17.79ZM426.27,191c-2.93-.74-5.6-.74-8.28-.53-2,.16-2.27.31-2.66,2.3-.99,4.97-.37,9.63,2.63,13.92,1.09,1.56,2.16,2.46,4.08,1.84.1-.03.18-.11.41-.25-1.23-6.16.03-11.9,3.83-17.28ZM345.62,208.35c3.42.61,2.63.72,4.35-1.55.3-.4.6-.81.86-1.24,2.51-4.21,2.94-8.69,1.77-13.39-.26-1.06-.86-1.56-1.96-1.66-2.74-.24-5.46-.23-8.17.3-.18.04-.33.22-.54.36,1.75,2.59,3.05,5.28,3.71,8.26.66,2.98.52,5.96-.01,8.92ZM372.08,208.39c-3.06,4.66-7.57,6.44-12.42,7.63.85,1.56,1.75,2.98,2.41,4.5.49,1.12,1.23,1.46,2.34,1.47,3.91.05,6.76-1.98,9.23-4.72.32-.36.5-1.05.42-1.54-.37-2.42-.92-4.8-1.98-7.34ZM396.11,208.59c-.14,0-.27.02-.41.03-.59,2.38-1.23,4.74-1.72,7.14-.1.5.2,1.25.56,1.66,1.82,2.03,3.94,3.67,6.66,4.28,1.02.23,2.11.26,3.16.19.46-.03,1.07-.42,1.31-.82.96-1.63,1.8-3.32,2.72-5.06-4.86-1.17-9.35-2.99-12.28-7.41ZM335.7,213.49c-.51-.36-.98-.75-1.5-1.05-3.28-1.91-6.79-2.78-10.59-2.3q-2.19.27-2.37,2.39c-.04.44-.12.89-.14,1.33-.13,2.1-.03,4.17.41,6.24.2-.04.27-.04.31-.06.14-.09.28-.18.4-.29,3.01-2.62,6.48-3.59,10.42-2.92.53.09,1.08.1,1.56.14.51-1.17.95-2.19,1.5-3.46ZM433.76,216.7c2.36.09,4.59,0,6.77.29,2.29.31,4.18,1.67,6.03,3.32.57-3.4.61-6.54-.02-9.62-4.36-1.61-11.71.01-14.07,3.03.46,1.06.92,2.13,1.29,2.98ZM434.03,218.46c-.15,1.07-.3,2.11-.46,3.26,3.7,1.97,7.15,4.31,9.83,7.88,1.15-1.93,1.73-3.9,2.45-5.81.51-1.36.19-2.32-.9-3.22-3.25-2.69-6.88-3.2-10.91-2.11ZM334,218.33c-1.25-.15-2.41-.37-3.57-.4-2.74-.06-5.14.86-7.26,2.6-1.07.88-1.52,1.84-.93,3.21.48,1.13.8,2.33,1.25,3.47.3.75.7,1.47,1.16,2.43,2.7-3.61,6.11-5.9,9.84-7.93-.16-1.08-.3-2.12-.49-3.39ZM414.17,222.73c1.03,2.28,2.59,3.94,4.66,5.16.21.12.55.16.79.08,1.35-.44,2.7-.92,4.2-1.45-.36-2.28-.29-4.69.71-7.18-4.05-.23-7.33.96-10.36,3.39ZM344.2,226.52c1.5.51,2.79.99,4.11,1.38.32.1.79.06,1.08-.11,2-1.21,3.54-2.83,4.5-5.09-3-2.35-6.25-3.62-10.22-3.32.72,2.48,1.14,4.83.54,7.14ZM347.28,236.1c-.23,2.79,1.2,6.32,3.11,7.57,3.21-1.48,5.61-3.74,6.86-7.06-2.3-.83-4.53-1.64-6.78-2.45-1,.6-2.08,1.25-3.2,1.93ZM417.95,243.79c1.95-2.29,2.97-4.82,2.92-7.63-1.23-.75-2.31-1.41-3.26-1.99-2.28.82-4.51,1.62-6.79,2.44,1.3,3.39,3.74,5.67,7.13,7.18ZM410.34,235.1c2.41-.18,4.35-.97,6.18-2.09.25-.15.45-.48.54-.77.33-1.04.6-2.1.85-2.99-1.66-1.8-3.29-3.57-4.99-5.41-3.07,3.11-3.31,6.96-2.58,11.26ZM355,223.72c-.86,1.12-1.53,2.16-2.35,3.04-.82.88-1.8,1.62-2.54,2.27.31,1.11.56,2.07.85,3.01.09.3.19.69.42.84,1.89,1.22,3.93,2.04,6.37,2.19.62-4.22.57-8.11-2.74-11.36ZM419.4,244.32c2.4.74,4.7.74,7.04.27.93-.19,1.3-.63,1.29-1.59-.03-2.84-1.03-5.31-2.66-7.6-.99.27-1.89.51-2.7.73-.33,1.46-.51,2.86-.98,4.15-.49,1.34-1.26,2.58-1.99,4.04ZM348.92,244.26c-2.07-2.51-2.9-5.25-3.11-8.13-1.06-.26-1.96-.48-2.87-.71-1.77,2.71-2.93,5.47-2.41,8.84,2.69.87,5.35.87,8.39,0ZM425.9,219.56c-1.18,2.28-1.34,4.55-.68,6.89.09.32.42.66.73.82.92.47,1.89.86,2.93,1.32,1.37-1.93,3.29-3.09,5.67-3.88-2.41-2.74-5.14-4.48-8.63-5.15ZM342.24,219.68c-3.24.29-7.43,2.88-8.44,5.2,2.3.57,4.07,1.95,5.45,3.7,1.02-.47,1.9-.82,2.73-1.27.35-.19.75-.53.85-.88.66-2.33.51-4.6-.59-6.75ZM428.15,230.23c-2.35-2.56-6.67-2.63-8.98-.17-1.23,1.32-1.01,3.04.53,3.97.99.6,2.08.84,3.22.57,2.48-.58,4.41-1.83,5.24-4.38ZM339.82,230.24c.37.65.66,1.26,1.04,1.81,1.55,2.19,4.99,3.23,7.14,2.19,1.98-.96,2.25-3.05.57-4.47-2.56-2.16-6.13-2.01-8.76.46ZM332.62,225.91c-1.4,2.01-2.42,4.11-2.81,6.72,2.24-.47,4.23-.07,6.16.72.8-1.31,1.54-2.54,2.32-3.82-1.37-1.98-3.18-3.23-5.66-3.61ZM432.11,233.35c1.95-.82,3.93-1.18,6.18-.72-.48-2.63-1.41-4.77-2.88-6.72-2.5.41-4.3,1.65-5.63,3.61.77,1.27,1.49,2.46,2.32,3.82ZM341.67,234.93c-1.06-1.22-1.99-2.29-2.99-3.45-.25.38-.48.68-.67,1.01-1.29,2.3-1.73,4.83-1.83,7.42-.07,1.77,1.01,3,2.95,3.39-.12-3.09.96-5.81,2.54-8.37ZM426.41,234.95c1.61,2.55,2.64,5.32,2.5,8.46,2.27-.79,3-1.74,2.94-3.76-.09-2.94-.74-5.71-2.45-8.2-1,1.17-1.93,2.25-2.99,3.51ZM334.89,239.02c.21-1.45.42-2.91.63-4.38-1.97-1.01-3.86-1.3-5.99-.56-.18,1.84-.27,3.63.13,5.29,1.79-.12,3.43-.23,5.23-.35ZM432.53,234.7c.25,1.55.49,3.01.71,4.33,1.81.12,3.49.23,5.29.34v-5.37c-2.16-.57-4.11-.44-6,.7ZM359.94,218.91c-2.32.04-3.92,1.2-5.73,2.2.9.84,1.74,1.63,2.53,2.38,1.64-.42,3.17-.82,4.83-1.24-.59-1.21-1.11-2.25-1.64-3.33ZM414.01,220.99c-1.7-.73-3.17-1.39-4.66-1.98-.51-.2-1.12-.28-1.45.4-.45.93-.91,1.86-1.39,2.87,1.78.43,3.33.81,4.85,1.18.83-.77,1.6-1.49,2.66-2.47ZM329.86,241.2c.45,1.38.91,2.77,1.36,4.14,1.43-.57,2.64-1.06,3.93-1.58-.13-1.05-.25-2.08-.37-3.15-1.73-.34-3.28-.63-4.92.59ZM433.25,240.69c-.11,1.13-.21,2.12-.31,3.09,1.29.51,2.53,1,3.93,1.55.44-1.38.88-2.79,1.34-4.24-1.69-.99-3.23-.93-4.96-.4ZM377.92,271.48c.39,1.29,1.09,1.83,1.92,2.15,2.77,1.06,5.57,1.06,8.35.02.89-.33,1.64-.91,1.99-2.14-1.95.41-3.8.41-5.29,1.72-.52.46-1.16.49-1.68.02-1.43-1.31-3.26-1.26-5.29-1.77ZM437.2,225.79c.6,1.35,1.29,2.67,1.76,4.07.47,1.4.72,2.87,1.15,4.64.88-1.2,1.64-2.2,2.34-3.24.12-.18.1-.58-.02-.77-1.3-2.02-3.08-3.53-5.23-4.69ZM327.81,234.29c.11-.01.23-.02.34-.03.32-3.11,1.3-6,2.86-8.72-2.26,1.42-4.25,3.04-5.67,5.45.83,1.11,1.65,2.21,2.47,3.3ZM335.43,245.2c-1.35.22-2.51.46-3.49,1.61.59.92,1.19,1.87,1.75,2.75,1.01-.57,1.82-1.02,2.7-1.52-.31-.92-.62-1.84-.97-2.84ZM431.67,248.06c.98.53,1.8.98,2.7,1.47.4-.6.81-1.18,1.19-1.8.2-.32.32-.69.47-1.01-1.25-1.13-1.63-1.28-3.44-1.37-.29.85-.59,1.73-.92,2.71ZM407.68,228.21c-.7-1.24-1.32-2.34-2.13-3.77-.66,1.97-1.09,3.57-.85,5.43,1.05-.59,1.97-1.09,2.98-1.66ZM363.55,229.97c-.22-1.97-.11-3.67-1.15-5.36-.73,1.33-1.35,2.47-1.98,3.61,1.02.57,1.93,1.07,3.13,1.74ZM408.94,227.82c.61-1.31,1.01-2.2,1.46-3.16-1.2-.49-2.3-.9-3.76-.86.77,1.35,1.44,2.52,2.3,4.02ZM361.32,223.96c-.07-.11-.13-.21-.2-.32-1.14.29-2.27.59-3.53.91.54,1.11.98,2.02,1.58,3.24.82-1.46,1.49-2.65,2.16-3.83ZM432.9,250.88l.26-.3c-.23-.43-.47-.85-1.5-.75.54.46.89.76,1.24,1.05ZM336.13,250.06l-.35-.38c-.31.3-.62.59-.93.89.09.1.18.2.26.3.34-.27.68-.54,1.01-.81Z"/>
          <path class="st8" d="M381.54,261.33c-.64-.31-1.15-.2-1.38.46-.23.65-.04,1.21.6,1.56.1.05.2.1.3.15q1.92.87,2.89,2.35c.13-.08.33-.12.38-.23.48-1.1,1.27-1.79,2.46-2.06.35-.08.79-.32.94-.61.18-.34.19-.85.11-1.25-.08-.42-.18-.4-1.23-.38-.04.1-.13.21-.11.28.13.45.57.96-.21,1.22-.56.18-1.17-.37-1.23-1.05-.07-.81.55-1.58,1.44-1.81,1.1-.28,2.2.28,2.58,1.32.5,1.36-.04,2.82-1.44,3.3-1.14.39-1.87,1.03-2.44,2.08-.34.63-.55,1.19-.46,1.88.05.39.06.78.06,1.17,0,.54-.29.84-.83.82-.53-.02-.8-.35-.81-.88,0-.22,0-.46.06-.66.28-.93,0-1.67-.5-2.5-.56-.92-1.18-1.5-2.21-1.86-1.68-.58-2.25-2.44-1.33-3.81.48-.72,1.17-1.01,2.02-.92.78.09,1.44.44,1.64,1.22.1.42,0,.98-.23,1.36-.13.23-.72.37-1.01.27-.49-.17-.33-.6-.1-.97.07-.11.01-.3.01-.46Z"/>
          <path class="st8" d="M377.51,239.94c-.98,0-1.82.14-2.59-.03-3.3-.73-6.07-2.44-8.44-4.82-.2-.2-.38-.41-.53-.65-.52-.79-.36-1.33.55-1.4,1.15-.09,2.37-.16,3.48.11,3.2.76,5.5,2.82,7.22,5.56.18.29.18.7.3,1.22ZM375.51,238.82c-1.36-2.78-4.98-4.83-7.91-4.44,2.33,2.18,4.8,3.7,7.91,4.44Z"/>
          <path class="st8" d="M402.47,233.53c-1.46,3.52-8.22,7.11-11.73,6.3-.05-1.47,2.02-4.04,4.38-5.45,2.61-1.55,5.46-1.91,7.35-.85ZM400.23,234.4c-3.15-.13-6.18,1.63-7.73,4.44,3.16-.75,5.64-2.25,7.73-4.44Z"/>
        </g>
        <path class="st8" d="M422.3,276.65c.29.3.57.6.86.91.13.14.29.28.36.46.05.12.03.36-.06.44-.08.07-.34.06-.43-.02-.32-.27-.59-.59-.89-.89-.12-.12-.24-.22-.45-.4-.04.26-.09.44-.09.61,0,1.34,0,2.68,0,4.02,0,.32.1.72-.36.82-.31.07-.47-.21-.47-.81,0-1.23,0-2.46,0-3.69,0-.27,0-.54-.16-.91-.28.28-.57.57-.85.85-.14.14-.26.31-.42.41-.12.07-.35.08-.43,0-.08-.07-.11-.32-.05-.43.14-.24.35-.43.53-.64.24-.26.48-.51.85-.91-1.04,0-1.86,0-2.69,0-.25,0-.51.02-.75-.03-.13-.03-.3-.2-.3-.31,0-.12.14-.32.26-.35.23-.07.5-.06.75-.06.83,0,1.66,0,2.49,0,.02-.06.04-.12.06-.18-.44-.45-.89-.89-1.33-1.34-.22-.23-.61-.49-.27-.83.34-.33.6.06.83.28.44.42.86.85,1.4,1.38.03-.36.07-.57.07-.77,0-1.17,0-2.35,0-3.52,0-.37-.13-.84.4-.97.3-.08.43.23.43,1.01,0,1.09,0,2.18,0,3.27,0,.27,0,.54,0,.98.56-.36.85-.76,1.2-1.08.18-.17.33-.4.54-.52.16-.09.44-.14.58-.06.25.15.13.4-.04.57-.41.42-.83.83-1.24,1.25-.11.11-.21.24-.41.49.77.01,1.4.03,2.03.04.36,0,.73,0,1.09.02.25.01.54.04.55.38,0,.35-.29.36-.54.37-.73,0-1.45,0-2.18,0-.27,0-.54,0-.81,0-.02.06-.04.13-.06.19Z"/>
        <path class="st8" d="M328.38,270.43c.04-.97-.3-1.74-.98-2.35-.68-.6-1.46-1.02-2.31-1.32-.16-.06-.33-.09-.47-.17-.29-.17-.28-.51.02-.65.17-.08.37-.1.56-.14.38-.09.77-.14,1.13-.28,1.16-.45,1.89-1.26,1.97-2.55.02-.28,0-.57.07-.83.04-.15.26-.33.4-.33.13,0,.33.2.37.35.08.32.09.66.12.99.12,1.32.95,2.03,2.11,2.43.34.12.71.16,1.06.23.29.06.67.04.69.46.02.36-.35.37-.59.48-.65.31-1.33.59-1.93.98-1.01.65-1.56,1.58-1.45,2.82,0,.08.01.17.01.25,0,.26-.14.47-.39.42-.16-.04-.31-.25-.41-.43-.06-.1.01-.27.02-.36ZM326.45,266.34c.82.72,1.6,1.4,2.31,2.03.76-.66,1.54-1.34,2.31-2.01-.4-.24-.85-.46-1.22-.77-.4-.33-.73-.74-1.09-1.11-.85,1.06-1.14,1.3-2.3,1.86Z"/>
        <path class="st8" d="M376.55,195.64c.04-.97-.3-1.74-.98-2.35-.68-.6-1.46-1.02-2.31-1.32-.16-.06-.33-.09-.47-.17-.29-.17-.28-.51.02-.65.17-.08.38-.1.56-.14.38-.09.77-.14,1.13-.28,1.16-.45,1.89-1.26,1.97-2.55.02-.28,0-.57.07-.83.04-.15.26-.33.4-.33.13,0,.33.2.37.35.08.32.09.66.12.99.12,1.32.95,2.03,2.11,2.43.34.12.71.16,1.06.23.29.06.67.04.69.46.02.36-.35.37-.59.48-.65.31-1.33.59-1.93.98-1.01.65-1.56,1.58-1.45,2.82,0,.08.01.17.01.25,0,.26-.14.47-.39.42-.16-.04-.31-.25-.41-.43-.06-.1.01-.27.02-.36ZM374.62,191.54c.82.72,1.6,1.4,2.31,2.03.76-.66,1.54-1.34,2.31-2.01-.4-.24-.85-.46-1.22-.77-.4-.33-.73-.74-1.09-1.11-.85,1.06-1.14,1.3-2.3,1.86Z"/>
        <path class="st8" d="M349.01,262.18c-.28-.32-.45-.44-.49-.59-.06-.24,0-.5-.06-.75-.14-.7-.27-1.42-.49-2.1-.2-.61-.7-.99-1.26-1.28-.22-.12-.45-.22-.66-.36-.5-.33-.51-.69-.02-1.05.36-.26.75-.49,1.08-.78.9-.8,1.4-1.79,1.38-3.02,0-.2,0-.39,0-.59.02-.27.13-.54.44-.47.15.03.28.28.36.46.05.11,0,.27,0,.41-.01,1.59.71,2.78,1.97,3.67.14.1.29.17.43.26.62.42.64.87-.06,1.16-1.78.74-2.25,2.19-2.32,3.91,0,.19,0,.39-.05.58-.04.15-.14.29-.26.53ZM348.85,258.71c.38-.51.64-.94.99-1.29.33-.34.75-.59,1.06-.82-.72-.82-1.39-1.58-1.99-2.27-.65.74-1.32,1.5-2.03,2.3.85.46,1.58,1.07,1.96,2.08Z"/>
        <path class="st8" d="M385.59,225.74c.4.43.81.85,1.2,1.28.19.2.41.4.51.64.07.17.04.5-.09.61-.11.1-.47.08-.6-.03-.45-.38-.83-.83-1.25-1.25-.16-.16-.34-.31-.63-.57-.06.37-.13.61-.13.86,0,1.89,0,3.77,0,5.66,0,.45.14,1.01-.51,1.15-.43.09-.66-.3-.67-1.14,0-1.73,0-3.46,0-5.19,0-.38,0-.77-.22-1.28-.4.4-.8.8-1.2,1.19-.19.19-.36.44-.59.57-.16.09-.49.11-.61,0-.12-.1-.16-.45-.07-.6.2-.33.49-.61.75-.9.33-.36.67-.72,1.2-1.28-1.46,0-2.62,0-3.78,0-.35,0-.72.03-1.06-.04-.18-.04-.42-.28-.43-.44,0-.17.2-.45.36-.5.33-.1.7-.09,1.05-.09,1.17,0,2.34,0,3.5,0,.03-.09.06-.17.09-.26-.62-.63-1.25-1.25-1.86-1.89-.31-.33-.86-.69-.38-1.16.47-.46.84.08,1.16.4.61.59,1.21,1.2,1.97,1.95.05-.51.1-.8.1-1.09,0-1.65,0-3.3.01-4.95,0-.52-.18-1.18.57-1.37.43-.11.6.32.6,1.42,0,1.53,0,3.07,0,4.6,0,.38,0,.76,0,1.38.78-.5,1.2-1.07,1.69-1.52.26-.24.47-.56.76-.73.23-.13.63-.2.82-.08.35.21.18.56-.05.8-.57.59-1.17,1.17-1.75,1.75-.16.16-.29.34-.58.69,1.08.02,1.97.04,2.86.05.51,0,1.02,0,1.53.03.35.02.76.06.77.54,0,.49-.4.51-.76.51-1.02,0-2.04,0-3.07-.01-.38,0-.76,0-1.13,0l-.08.27Z"/>
        <path class="st8" d="M420.2,259.88c0,.47-.38.86-.86.86s-.86-.38-.86-.86.38-.86.86-.86.86.38.86.86Z"/>
        <path class="st8" d="M339.78,273.63c0,.47-.38.86-.86.86s-.86-.38-.86-.86.38-.86.86-.86.86.38.86.86Z"/>
        <path class="st8" d="M344.52,184.25c0,.47-.38.86-.86.86s-.86-.38-.86-.86.38-.86.86-.86.86.38.86.86Z"/>
        <path class="st8" d="M390.94,204.38c0,.47-.38.86-.86.86s-.86-.38-.86-.86.38-.86.86-.86.86.38.86.86Z"/>
        <path class="st8" d="M439.38,183.4c0,.47-.38.86-.86.86s-.86-.38-.86-.86.38-.86.86-.86.86.38.86.86Z"/>
        <path class="st8" d="M405.65,265.2c0,.47-.38.86-.86.86s-.86-.38-.86-.86.38-.86.86-.86.86.38.86.86Z"/>
      </g>
    </g>
  </g>
  <text class="st7" transform="translate(226.34 470.54)"><tspan x="0" y="0">Celestial Perfection</tspan></text>
  <g class="st11">
    <text class="st6" transform="translate(275.88 499.05)"><tspan x="0" y="0">“Cosmic equilibrium found.”</tspan></text>
  </g>
  <g class="st11">
    <text class="st2" transform="translate(281.3 613.81)"><tspan x="0" y="0">• Excellent shot parameters!</tspan><tspan x="-6.17" y="24">• Maintain current grid setting</tspan><tspan x="-30.85" y="48" xml:space="preserve"> • Keep consistent puck preparation</tspan></text>
  </g>
  <g>
    <g>
      <path class="st5" d="M205.95,565.45v2.26h-2.76v-2.64c0-.75.2-1.34.61-1.75s1.08-.62,2-.62h2.3c.93,0,1.6.21,2.02.62.42.42.62,1,.62,1.75v1.7c0,.71-.08,1.31-.25,1.82-.17.51-.44,1.06-.83,1.63l-3.14,5.5h4.3v2.11h-7.56v-1.99l3.91-6.34c.34-.51.56-.97.67-1.37.11-.4.17-.87.17-1.42v-1.27c0-.26-.05-.43-.14-.52-.1-.09-.27-.13-.53-.13h-.7c-.27,0-.46.04-.55.13-.1.09-.14.26-.14.52Z"/>
      <path class="st5" d="M212.88,577.83v-3.24h2.93v3.24h-2.93Z"/>
      <path class="st5" d="M221.14,562.69v2.11h-3.46v-2.11h3.46ZM219.56,562.69h2.76v15.14h-2.76v-15.14Z"/>
      <path class="st5" d="M233.14,565.07v10.39c0,.75-.2,1.34-.61,1.75s-1.08.62-2,.62h-2.78c-.91,0-1.58-.21-1.99-.62-.42-.42-.62-1-.62-1.75v-10.39c0-.75.21-1.34.62-1.75.42-.42,1.08-.62,1.99-.62h2.78c.93,0,1.6.21,2,.62s.61,1,.61,1.75ZM230.38,575.07v-9.62c0-.26-.05-.43-.14-.52-.1-.09-.28-.13-.55-.13h-1.1c-.26,0-.43.04-.53.13-.1.09-.14.26-.14.52v9.62c0,.24.05.41.14.5.1.1.27.14.53.14h1.1c.27,0,.46-.05.55-.14s.14-.26.14-.5Z"/>
      <path class="st5" d="M235.64,569.29v-3.24h2.93v3.24h-2.93ZM235.64,577.83v-3.24h2.93v3.24h-2.93Z"/>
      <path class="st5" d="M243.89,562.69v2.11h-3.46v-2.11h3.46ZM242.31,562.69h2.76v15.14h-2.76v-15.14Z"/>
    </g>
    <g>
      <path class="st5" d="M293.97,565.45v2.26h-2.76v-2.64c0-.75.2-1.34.61-1.75s1.08-.62,2-.62h2.3c.93,0,1.6.21,2.02.62.42.42.62,1,.62,1.75v1.7c0,.71-.08,1.31-.25,1.82-.17.51-.44,1.06-.83,1.63l-3.14,5.5h4.3v2.11h-7.56v-1.99l3.91-6.34c.34-.51.56-.97.67-1.37.11-.4.17-.87.17-1.42v-1.27c0-.26-.05-.43-.14-.52-.1-.09-.27-.13-.53-.13h-.7c-.27,0-.46.04-.55.13-.1.09-.14.26-.14.52Z"/>
      <path class="st5" d="M303.81,571.79v3.31c0,.24.05.41.14.5.1.1.27.14.53.14h.74v2.09h-1.49c-.91,0-1.58-.21-1.99-.62s-.62-1-.62-1.75v-3.55c0-.46.08-.84.24-1.12.16-.28.42-.48.77-.61-.35-.13-.61-.35-.77-.66-.16-.31-.24-.7-.24-1.16v-3.29c0-.75.21-1.34.62-1.75s1.08-.62,1.99-.62h1.51v2.09h-.77c-.26,0-.43.04-.53.13-.1.09-.14.26-.14.52v3.17c0,.24.05.41.14.5.1.1.27.14.53.14h.77v1.9h-.77c-.26,0-.43.04-.53.13-.1.09-.14.26-.14.52ZM306.47,568.59v-3.17c0-.26-.05-.43-.14-.52-.1-.09-.28-.13-.55-.13h-.67v-2.09h1.42c.93,0,1.6.21,2,.62s.61,1,.61,1.75v3.29c0,.46-.08.85-.23,1.16-.15.31-.41.53-.78.66.37.13.63.33.78.61s.23.65.23,1.12v3.55c0,.75-.2,1.34-.61,1.75s-1.08.62-2,.62h-1.46v-2.09h.72c.27,0,.46-.05.55-.14.1-.1.14-.26.14-.5v-3.31c0-.26-.05-.43-.14-.52-.1-.09-.28-.13-.55-.13h-.74v-1.9h.74c.27,0,.46-.05.55-.14.1-.1.14-.26.14-.5Z"/>
      <path class="st5" d="M316.1,575.24v-1.66c0-.26-.05-.43-.14-.52-.1-.09-.28-.13-.55-.13h-1.3c-.91,0-1.57-.2-1.97-.61-.4-.41-.6-.99-.6-1.74v-2.16c0-.75.2-1.34.61-1.75.41-.42,1.08-.62,2-.62h1.9c.91,0,1.57.21,1.98.62.41.42.61,1,.61,1.75v1.1h-2.62v-.89c0-.25-.04-.43-.13-.52-.09-.09-.27-.13-.54-.13h-.48c-.27,0-.46.04-.55.13-.1.09-.14.26-.14.52v1.73c0,.26.05.43.14.52.1.09.28.13.55.13h1.3c.91,0,1.57.2,1.97.61.4.41.6.99.6,1.74v2.09c0,.75-.2,1.34-.61,1.75s-1.07.62-1.98.62h-1.94c-.93,0-1.6-.21-2-.62-.41-.42-.61-1-.61-1.75v-1.08h2.66v.86c0,.26.05.43.14.52.1.09.27.13.53.13h.48c.27,0,.46-.04.55-.13.1-.09.14-.26.14-.52Z"/>
    </g>
    <g>
      <path class="st5" d="M360.85,571.79v3.31c0,.24.05.41.14.5.1.1.27.14.53.14h.74v2.09h-1.49c-.91,0-1.58-.21-1.99-.62s-.62-1-.62-1.75v-3.55c0-.46.08-.84.24-1.12.16-.28.42-.48.77-.61-.35-.13-.61-.35-.77-.66-.16-.31-.24-.7-.24-1.16v-3.29c0-.75.21-1.34.62-1.75s1.08-.62,1.99-.62h1.51v2.09h-.77c-.26,0-.43.04-.53.13-.1.09-.14.26-.14.52v3.17c0,.24.05.41.14.5.1.1.27.14.53.14h.77v1.9h-.77c-.26,0-.43.04-.53.13-.1.09-.14.26-.14.52ZM363.51,568.59v-3.17c0-.26-.05-.43-.14-.52-.1-.09-.28-.13-.55-.13h-.67v-2.09h1.42c.93,0,1.6.21,2,.62s.61,1,.61,1.75v3.29c0,.46-.08.85-.23,1.16-.15.31-.41.53-.78.66.37.13.63.33.78.61s.23.65.23,1.12v3.55c0,.75-.2,1.34-.61,1.75s-1.08.62-2,.62h-1.46v-2.09h.72c.27,0,.46-.05.55-.14.1-.1.14-.26.14-.5v-3.31c0-.26-.05-.43-.14-.52-.1-.09-.28-.13-.55-.13h-.74v-1.9h.74c.27,0,.46-.05.55-.14.1-.1.14-.26.14-.5Z"/>
      <path class="st5" d="M368.65,577.83v-3.24h2.93v3.24h-2.93Z"/>
      <path class="st5" d="M373.16,574.91v-2.35l4.75-9.86h2.76l-6.05,12.22h-1.46ZM374.09,574.91v-2.14h8.62v2.14h-8.62ZM378.65,569.84h2.62v7.99h-2.62v-7.99Z"/>
      <path class="st5" d="M388.81,561.78h2.71v14.26l-.02.1v1.7h-2.69v-16.06ZM396.39,572.26h-2.74v-3.48c0-.26-.04-.43-.13-.52-.09-.09-.27-.13-.54-.13h-.72c-.26,0-.44.06-.56.18s-.18.33-.18.64v.74h-.12v-1.87c0-.61.16-1.06.48-1.36.32-.3.76-.44,1.32-.44h.72c.86,0,1.49.21,1.88.62.39.42.59,1,.59,1.75v3.86ZM393.65,571.57h2.74v3.89c0,.75-.2,1.34-.59,1.75-.39.42-1.02.62-1.88.62h-.72c-.56,0-1-.15-1.32-.44-.32-.3-.48-.75-.48-1.36v-1.7h.12v.6c0,.29.06.49.18.61.12.12.31.18.56.18h.72c.27,0,.45-.05.54-.14s.13-.26.13-.5v-3.5Z"/>
      <path class="st5" d="M401.41,572.29h-2.71v-3.86c0-.75.2-1.34.59-1.75.39-.42,1.01-.62,1.86-.62h.74c.56,0,1,.15,1.31.44.31.3.47.74.47,1.33v1.8h-.12v-.67c0-.29-.06-.49-.17-.61s-.3-.18-.58-.18h-.72c-.26,0-.43.04-.53.13-.1.09-.14.26-.14.52v3.48ZM398.69,571.59h2.71v3.48c0,.24.05.41.14.5.1.1.27.14.53.14h.72c.27,0,.46-.06.58-.18s.17-.32.17-.61v-.65h.12v1.75c0,.61-.16,1.06-.47,1.36-.31.3-.75.44-1.31.44h-.74c-.85,0-1.47-.21-1.86-.62-.39-.42-.59-1-.59-1.75v-3.86ZM406.28,577.83h-2.74v-9.94l.05-.12v-1.73h2.69v11.78Z"/>
      <path class="st5" d="M411.63,577.83h-2.71v-11.78h2.69v2.35l.02-.14v9.58ZM414.15,566v2.35h-1.01c-1.01,0-1.51.58-1.51,1.73v.55h-.12v-2.38c0-.38.08-.75.25-1.09s.42-.62.74-.84c.33-.22.73-.32,1.21-.32h.43Z"/>
    </g>
    <g>
      <path class="st5" d="M442.59,565.45v3.65c0,.24.05.41.14.5.1.1.27.14.53.14h2.64v1.99h-3.41c-.93,0-1.6-.2-2-.61-.41-.41-.61-1-.61-1.76v-4.3c0-.75.2-1.34.61-1.75.41-.42,1.08-.62,2-.62h1.46v2.11h-.7c-.26,0-.43.04-.53.13-.1.09-.14.26-.14.52ZM442.69,573.18v1.9c0,.24.05.41.14.5s.27.14.53.14h.7v2.11h-1.46c-.93,0-1.6-.21-2-.62s-.61-1-.61-1.75v-2.28h2.71ZM445.11,575.07v-9.62c0-.26-.04-.43-.13-.52-.09-.09-.27-.13-.54-.13h-.7v-2.11h1.46c.93,0,1.6.21,2,.62s.61,1,.61,1.75v10.39c0,.75-.2,1.34-.61,1.75s-1.08.62-2,.62h-1.44v-2.11h.67c.27,0,.45-.05.54-.14s.13-.26.13-.5Z"/>
      <path class="st5" d="M453.42,562.69v2.11h-3.46v-2.11h3.46ZM451.83,562.69h2.76v15.14h-2.76v-15.14Z"/>
      <path class="st5" d="M457.16,577.83v-3.24h2.93v3.24h-2.93Z"/>
      <path class="st5" d="M465.22,571.79v3.31c0,.24.05.41.14.5.1.1.27.14.53.14h.74v2.09h-1.49c-.91,0-1.58-.21-1.99-.62s-.62-1-.62-1.75v-3.55c0-.46.08-.84.24-1.12.16-.28.42-.48.77-.61-.35-.13-.61-.35-.77-.66-.16-.31-.24-.7-.24-1.16v-3.29c0-.75.21-1.34.62-1.75s1.08-.62,1.99-.62h1.51v2.09h-.77c-.26,0-.43.04-.53.13s-.14.26-.14.52v3.17c0,.24.05.41.14.5.1.1.27.14.53.14h.77v1.9h-.77c-.26,0-.43.04-.53.13-.1.09-.14.26-.14.52ZM467.89,568.59v-3.17c0-.26-.05-.43-.14-.52s-.28-.13-.55-.13h-.67v-2.09h1.42c.93,0,1.6.21,2,.62s.61,1,.61,1.75v3.29c0,.46-.08.85-.23,1.16-.15.31-.41.53-.78.66.37.13.63.33.78.61.15.28.23.65.23,1.12v3.55c0,.75-.2,1.34-.61,1.75s-1.08.62-2,.62h-1.46v-2.09h.72c.27,0,.46-.05.55-.14.1-.1.14-.26.14-.5v-3.31c0-.26-.05-.43-.14-.52-.1-.09-.28-.13-.55-.13h-.74v-1.9h.74c.27,0,.46-.05.55-.14.1-.1.14-.26.14-.5Z"/>
      <path class="st5" d="M479.05,564.44v3.5h-1.75v-3.58c0-.54.14-.96.42-1.25.28-.29.74-.43,1.38-.43h1.1v1.3h-.67c-.19,0-.32.03-.38.1s-.1.18-.1.36ZM479.05,567.32v1.94c0,.18.03.3.1.36.06.06.19.1.38.1h.65v1.3h-1.08c-.64,0-1.1-.15-1.38-.44-.28-.3-.42-.71-.42-1.24v-2.02h1.75ZM480.85,569.26v-1.9h1.75v1.97c0,.53-.14.94-.42,1.24-.28.3-.75.44-1.4.44h-.84v-1.3h.41c.19,0,.32-.03.4-.1.07-.06.11-.18.11-.36ZM480.85,567.95v-3.5c0-.18-.04-.3-.11-.36-.07-.06-.2-.1-.4-.1h-.34v-1.3h.77c.66,0,1.12.14,1.4.43.28.29.42.7.42,1.25v3.58h-1.75Z"/>
      <path class="st5" d="M487.61,565.35v9.84c0,.24.05.41.14.5s.27.14.53.14h.67v2.02h-1.51c-.91,0-1.58-.21-1.99-.62s-.62-1-.62-1.75v-10.42c0-.75.21-1.34.62-1.75s1.08-.62,1.99-.62h1.61v2.02h-.77c-.26,0-.43.04-.53.13-.1.09-.14.26-.14.52ZM490.09,567.71v-2.35c0-.25-.04-.43-.13-.52s-.27-.13-.54-.13h-.74v-2.02h1.58c.91,0,1.58.21,1.99.62.42.42.62,1,.62,1.75v2.64h-2.78ZM490.09,575.19v-2.3h2.78v2.59c0,.75-.21,1.34-.62,1.75-.42.42-1.08.62-1.99.62h-1.58v-2.02h.74c.27,0,.45-.05.54-.14.09-.1.13-.26.13-.5Z"/>
    </g>
    <g>
      <path class="st5" d="M537.64,565.07v10.39c0,.75-.2,1.34-.61,1.75s-1.08.62-2,.62h-2.78c-.91,0-1.58-.21-1.99-.62s-.62-1-.62-1.75v-10.39c0-.75.21-1.34.62-1.75s1.08-.62,1.99-.62h2.78c.93,0,1.6.21,2,.62s.61,1,.61,1.75ZM534.88,575.07v-9.62c0-.26-.05-.43-.14-.52-.1-.09-.28-.13-.55-.13h-1.1c-.26,0-.43.04-.53.13-.1.09-.14.26-.14.52v9.62c0,.24.05.41.14.5.1.1.27.14.53.14h1.1c.27,0,.46-.05.55-.14.1-.1.14-.26.14-.5Z"/>
      <path class="st5" d="M540.14,577.83v-3.24h2.93v3.24h-2.93Z"/>
      <path class="st5" d="M553.56,565.07v10.39c0,.75-.2,1.34-.61,1.75s-1.08.62-2,.62h-2.78c-.91,0-1.58-.21-1.99-.62-.42-.42-.62-1-.62-1.75v-10.39c0-.75.21-1.34.62-1.75.42-.42,1.08-.62,1.99-.62h2.78c.93,0,1.6.21,2,.62s.61,1,.61,1.75ZM550.8,575.07v-9.62c0-.26-.05-.43-.14-.52-.1-.09-.28-.13-.55-.13h-1.1c-.26,0-.43.04-.53.13-.1.09-.14.26-.14.52v9.62c0,.24.05.41.14.5s.27.14.53.14h1.1c.27,0,.46-.05.55-.14.1-.1.14-.26.14-.5Z"/>
      <path class="st5" d="M564.31,565.07v10.39c0,.75-.2,1.34-.61,1.75s-1.08.62-2,.62h-2.78c-.91,0-1.58-.21-1.99-.62s-.62-1-.62-1.75v-10.39c0-.75.21-1.34.62-1.75s1.08-.62,1.99-.62h2.78c.93,0,1.6.21,2,.62s.61,1,.61,1.75ZM561.55,575.07v-9.62c0-.26-.05-.43-.14-.52-.1-.09-.28-.13-.55-.13h-1.1c-.26,0-.43.04-.53.13-.1.09-.14.26-.14.52v9.62c0,.24.05.41.14.5.1.1.27.14.53.14h1.1c.27,0,.46-.05.55-.14.1-.1.14-.26.14-.5Z"/>
    </g>
  </g>
  <text class="st3" transform="translate(170.15 791.28)"><tspan x="0" y="0">Your Aries energy transcends through this peaceful supernova, </tspan><tspan x="83.01" y="21">creating cosmic harmony in every drop.</tspan></text>
  <text class="st4" transform="translate(201.72 835.3)"><tspan x="0" y="0" xml:space="preserve">seed: b99addb6   •   rule: sweet_spot   •   severity: perfect</tspan><tspan x="143.39" y="24">Aries • chill</tspan></text>
  <metadata>
    <sfw xmlns="http://ns.adobe.com/SaveForWeb/1.0/">
      <slices/>
      <sliceSourceBounds x="0" y="-1024" width="768" height="1024" bottomLeftOrigin="true"/>
    </sfw>
  </metadata>
  <metadata><?xpacket begin="﻿" id="W5M0MpCehiHzreSzNTczkc9d"?>
<x:xmpmeta xmlns:x="adobe:ns:meta/" x:xmptk="Adobe XMP Core 9.1-c003 1.000000, 0000/00/00-00:00:00        ">
   <rdf:RDF xmlns:rdf="http://www.w3.org/1999/02/22-rdf-syntax-ns#">
      <rdf:Description rdf:about=""
            xmlns:dc="http://purl.org/dc/elements/1.1/"
            xmlns:xmp="http://ns.adobe.com/xap/1.0/"
            xmlns:xmpGImg="http://ns.adobe.com/xap/1.0/g/img/"
            xmlns:xmpMM="http://ns.adobe.com/xap/1.0/mm/"
            xmlns:stRef="http://ns.adobe.com/xap/1.0/sType/ResourceRef#"
            xmlns:stEvt="http://ns.adobe.com/xap/1.0/sType/ResourceEvent#"
            xmlns:illustrator="http://ns.adobe.com/illustrator/1.0/"
            xmlns:xmpTPg="http://ns.adobe.com/xap/1.0/t/pg/"
            xmlns:stDim="http://ns.adobe.com/xap/1.0/sType/Dimensions#"
            xmlns:stFnt="http://ns.adobe.com/xap/1.0/sType/Font#"
            xmlns:xmpG="http://ns.adobe.com/xap/1.0/g/"
            xmlns:pdf="http://ns.adobe.com/pdf/1.3/"
            xmlns:pdfx="http://ns.adobe.com/pdfx/1.3/">
         <dc:format>image/svg+xml</dc:format>
         <dc:title>
            <rdf:Alt>
               <rdf:li xml:lang="x-default">card-design-aries</rdf:li>
            </rdf:Alt>
         </dc:title>
         <xmp:CreatorTool>Adobe Illustrator 29.8 (Macintosh)</xmp:CreatorTool>
         <xmp:CreateDate>2025-09-09T11:31:42+10:00</xmp:CreateDate>
         <xmp:ModifyDate>2025-09-09T11:31:42+10:00</xmp:ModifyDate>
         <xmp:MetadataDate>2025-09-09T11:31:42+10:00</xmp:MetadataDate>
         <xmp:Thumbnails>
            <rdf:Alt>
               <rdf:li rdf:parseType="Resource">
                  <xmpGImg:width>192</xmpGImg:width>
                  <xmpGImg:height>256</xmpGImg:height>
                  <xmpGImg:format>JPEG</xmpGImg:format>
                  <xmpGImg:image>/9j/4AAQSkZJRgABAgEAAAAAAAD/7QAsUGhvdG9zaG9wIDMuMAA4QklNA+0AAAAAABAAAAAAAAEA&#xA;AQAAAAAAAQAB/+4ADkFkb2JlAGTAAAAAAf/bAIQABgQEBAUEBgUFBgkGBQYJCwgGBggLDAoKCwoK&#xA;DBAMDAwMDAwQDA4PEA8ODBMTFBQTExwbGxscHx8fHx8fHx8fHwEHBwcNDA0YEBAYGhURFRofHx8f&#xA;Hx8fHx8fHx8fHx8fHx8fHx8fHx8fHx8fHx8fHx8fHx8fHx8fHx8fHx8fHx8f/8AAEQgBAADAAwER&#xA;AAIRAQMRAf/EAaIAAAAHAQEBAQEAAAAAAAAAAAQFAwIGAQAHCAkKCwEAAgIDAQEBAQEAAAAAAAAA&#xA;AQACAwQFBgcICQoLEAACAQMDAgQCBgcDBAIGAnMBAgMRBAAFIRIxQVEGE2EicYEUMpGhBxWxQiPB&#xA;UtHhMxZi8CRygvElQzRTkqKyY3PCNUQnk6OzNhdUZHTD0uIIJoMJChgZhJRFRqS0VtNVKBry4/PE&#xA;1OT0ZXWFlaW1xdXl9WZ2hpamtsbW5vY3R1dnd4eXp7fH1+f3OEhYaHiImKi4yNjo+Ck5SVlpeYmZ&#xA;qbnJ2en5KjpKWmp6ipqqusra6voRAAICAQIDBQUEBQYECAMDbQEAAhEDBCESMUEFURNhIgZxgZEy&#xA;obHwFMHR4SNCFVJicvEzJDRDghaSUyWiY7LCB3PSNeJEgxdUkwgJChgZJjZFGidkdFU38qOzwygp&#xA;0+PzhJSktMTU5PRldYWVpbXF1eX1RlZmdoaWprbG1ub2R1dnd4eXp7fH1+f3OEhYaHiImKi4yNjo&#xA;+DlJWWl5iZmpucnZ6fkqOkpaanqKmqq6ytrq+v/aAAwDAQACEQMRAD8A4JmwanYq7FXYq7FXYq7F&#xA;XYq7FXYq7FXYq7FXYq7FXYq7FXYq7FXYq7FXYq7FXYq7FXYqrL6aQK5jDszMPiLbBQp/ZI8cj1S1&#xA;60f++E+9/wDmrDXmi3etH/vhPvf/AJqxrzW3etH/AL4T73/5qxrzW3etH/vhPvf/AJqxrzW3etH/&#xA;AL4T73/5qxrzW3etH/vhPvf/AJqxrzW3etH/AL4T73/5qxrzW3etH/vhPvf/AJqxrzW3etH/AL4T&#xA;73/5qxrzW3etH/vhPvf/AJqxrzW3etH/AL4T73/5qxrzW3etH/vhPvf/AJqxrzW3etH/AL4T73/5&#xA;qxrzW3etH/vhPvf/AJqxrzW3etH/AL4T73/5qxrzW3etH/vhPvf/AJqxrzW3etH/AL4T73/5qxrz&#xA;W3etH/vhPvf/AJqxrzW229N4GcRhGVlHwltwwY/tE+GDqlRySHYq7FXYqqt/vLH/AK7/AKkwdV6K&#xA;WFXYq7FXYq7FXAEkACpOwA61wq7ArsVdirsVdirsVVLe3muJPThUu/Fn4jrRFLt+CnCBaqeBXYq7&#xA;FXYq7FVVf95ZP9dP1Pg6r0UsKuxV2KuxVVb/AHlj/wBd/wBSYOq9FLCrsVZP5Y8j6lrVje3QjMca&#xA;RH6k7fCJJgQQFr2oCCemXQxGQSI2xy5tri2neC4iaGaM0eNwVYH3ByoikKeBURYXK2t5DOyCRY2B&#xA;KsK7e3v4ZOEqNqCsup/XuJJuCx+oxbggoor4YJGzalSyKuALEKoqTsAOpOKuIKkqwoRsQeoOKuxV&#xA;2KvSfyo07QJHmuvWM2qohU2zrxEcbbFl3PPl0r26UzK08Rz6s4BiHm2y0Sz1qeHSLgzwBjyFBxja&#xA;u6I9fjA8afflOQAHZiUlytDsVdirsVVV/wB5ZP8AXT9T4Oq9FLCrsVdirsVVW/3lj/13/UmDqvRS&#xA;wq7FWReW/OepaLY31rFKSk0RFqp3EcxYDmvh8JY/OmWwyGIKQaY/JJJLI0kjF5HJZ3Ykkk9SScrQ&#xA;twK7FXYq7FWT+Vm0iGyd9QmubWKeUwSXtlx9WIn0/S5lgSsZUysQu7lQNhvlUxcqZDk35rbR5bON&#xA;9OmubuKCT0I768KmSUgyep6ZCqTEEELBW3QsRU1rjAVJTyYvlrF2KovS9TutNujc2zlJfTkjDD/i&#xA;xClforXJRlRUFCZFXYq7FXYq7FVVf95ZP9dP1Pg6r0UsKuxV2KuxVVb/AHlj/wBd/wBSYOq9FLCr&#xA;sVdirsVdirsVdiqItdPvrsObaCSYRirmNWalTQdAcEpAc1AV7JdatbqaO1SaO4jRjcwhWqI1+JvU&#xA;Qj7I/wAoZGXCRukWpSz6jqVwiu0lzN9iGNQWoOvFEXoPYDCAIjuXcrbjT762AN1BJbhq8PVRk5UN&#xA;CFqO2ESB5IIQ+FXYq7FXYq7FUzk0uBdFS++sIZWcj0wTuKD4f9YdcuOMcF2mtksylCqv+8sn+un6&#xA;nwdV6KWFXYq7FXYqqt/vLH/rv+pMHVeilhV2KuxVtVZmCqKsegGFWsCuxVtF5Oq1C8iByPQV7nEq&#xA;9NfSbF7WaCQ3J061llso7e3jgVwtPiSRTP6Zb1OD82IkLbcSPs67jN3tZ36/q/Y30h/MWlzxwyC5&#xA;kmimags54on9WRrmRhNbMZGirUy09MM3EJvQkgyxTHT8V1/aiQWeWdG4QhNNaQSE1v5JIWDrJBKv&#xA;GEGMygNzir6bFeYfapAo5snf8Px+lYx7kTBYWTWkUUfrHTbmWKyeOf0CTHuAsVJxF6nqB2LCrhjQ&#xA;KP2omRvzG/X9X7E080deLstQ3Ekch0NO4zYhoaxV2KuxV2Ktl3KBKngCSF7AmgJ/AYbVrAqqv+8s&#xA;n+un6nwdV6KWFXYq7FXYqqt/vLH/AK7/AKkwdV6KWFXYq7FWReUbCzmuTcSSq00QJS3oaiu3I16/&#xA;RmVp4Am2cAlut2VpaX7xW0wkSu6CtUP8pPQ5VliInZjIJflSHYq9R0XzVaS6LZSzywS6jITbG1Mc&#xA;kjmRZOZkWOMn4pBxLbKJD1b4c1uTCRI1y/H48m+M9knu9ah1aWK9t4puVlWCwvFlZZ7cQRmSNpQT&#xA;LySQhmNWrsfiy2OPh2PXn5sTK1tjrSaVPcahcpJyvAlvfXJkdprj6xH6krREGOix/AwoQfs/Fvhl&#xA;j4hQ6cvKlEq3TjVfOWnNoF1d2VzbG9otvHEkboxd3Egl9NiN46MUNG4HoxLZVDAeIAg0yMxTzDNi&#xA;0OxV2KuxV2KuxV2Kqq/7yyf66fqfB1XopYVdirsVdiqq3+8sf+u/6kwdV6KWFXYq7FVeyu5bS5W4&#xA;iNHStPpBGSjIxNhQVAkkkk1J3JOBXYFdiqObUVRrSeziFldWiqolhLVd1JJlYsxo3TYbfqyHBzB3&#xA;BTav5b1aDTNQMtwrvbSxmKdUoSVJDUKsQrA8aMD298GWBkNuaYmi35k1i21O/wDVt42W3jjWKESU&#xA;BVVJb4UQ8VArxC77e++DFjMRusjZQmqw2kN4UtLn63CUjb1+PCrMgZhxP8rEjJwJI3FIKEySHYqn&#xA;/lfSbW8Mss0qsQjIIB9ocwVLGvsdsycGMS5sohJry3S3uZIUlWZUNBIlaH78okKNMSo5FXYq7FVV&#xA;f95ZP9dP1Pg6r0UsKuxV2KuxVVb/AHlj/wBd/wBSYOq9FLCrsVdirsVdirsVdiqOtptEWFRc2lzL&#xA;OK83juY40O+1FaCQjb/Kx3Vk2leRrvVdOGpWGgXs1kbe4u1m/SFolYbMhZ2AeBWPAt0Aqe2QMq6p&#xA;p175HubHS7rVbrQ7uOxs0hkuZf0nZMVW5leGL4FhLnlJE4oB2r03x4lpjNzNojQsLa0uYpzTg8lz&#xA;HIg33qqwRk7f5WT3QgcVdiqta3U1s7PExUsjRmng4pkoyIUFRyKuxV2KuxVVX/eWT/XT9T4Oq9FL&#xA;CrsVdirsVVW/3lj/ANd/1Jg6r0UsKq17ZXVldSWt1GYp4zR0PUVFcJFKo4FdirsVdirsVdirKdN/&#xA;M3zppuixaLZ3wj02GC4tY4DDC1IrtxJMtWUn4nUHImAJtbUr38wvNF5pd5plxPE9tfww290fRiEj&#xA;RW9wbmNRIF5KBK1TxIrtXHhC2xvJK7FXYq7FXYq7FXYq7FVVf95ZP9dP1Pg6r0UsKuxV2KuxVVb/&#xA;AHlj/wBd/wBSYOq9G7K8nsruK7gIE0DB4yyhhUezAjJA0bVMfNHmK417VXvJQEjA4QRgAcUHQEjq&#xA;e+SyT4jaSbSjIIdirgCSAOp2GKvRdL/LO6m8qXJmKLqlyyTWq8gQqxg0UsKj4w5/DMqOD0+bMR2e&#xA;fXEEtvO8EoAkjPFwCGAI91JGYxFMFPArsVdirsVdirsVdirsVR+iaLe6zqEdjZgGR9yzEAKo6sfl&#xA;7ZKMTI0FAtO/PnlCTQ75ZoADp04URNUAhwoDKV69Ry2FN8sy4+E+SZCmK5ShVX/eWT/XT9T4Oq9F&#xA;LCrsVdirsVVW/wB5Y/8AXf8AUmDqvRSwq7FXYq7FXYqn9l5v1G18sXeirK3GZ1ETVNUiYN6qg9gx&#xA;C7e5y0ZCI0m9kgypDsVdirsVdiqpb281xKIoVLyNUhR7CuSAJNBVPpscirsVdiq+CeaCZJ4XMc0b&#xA;Bo3U0IYGoIwgqmHmPXrvXNTe9uD2CRp2VVHQD3O+SnPiNpJtLMghVX/eWT/XT9T4Oq9FLCrsVdir&#xA;sVVW/wB5Y/8AXf8AUmDqvRSwq7FXYq7FXYq7FXYquMcgFSpAFKkg/tbj78bVbirsVdiqN0rVJtOu&#xA;DNHuGUqynvtt9xyzHkMTaQaQ8jXFzK0zBpJJG+JgOrNvTbISlZsoUsCuxV2KuxV2Kqq/7yyf66fq&#xA;fB1XopYVdirsVdiqq3+8sf8Arv8AqTB1XopYVbRHduKKWY1oAKnYVwq1gV2Ks4h8waM2nWELaibb&#xA;S4oIIdR0FYGdp3RwZpA1BGDJu3PlyXoMwzilZ29XSVtvEKRt55g8ihLmGKOMwzrCsv1dCpmiW+hl&#xA;MRVbe0VWWJH33r3YmmQjiy7fjofMpMotLrHkJtUvOUdpFayQRos6wmQlg0pYxRtZqitxKKRwTp/e&#xA;VqS+Hl4Rzv8AH9L8dy3G16+aPK93HCt/cQhXg0xXjW2PFZLWCdZQ6+kyECR1p8LDiRRTTjg8GY5D&#xA;+d176814h9yTeZ9V8uy2GpWmksgSa+s7iGOONkQqlm6TlapGABM524r12FMuwwmCDLuP3/qYyI6J&#xA;3qvnzy3qnmD0LyF7jSY7qWeK8uHMoBMTRxcImhJji5EMyFX6DY/ZNMNNOMLH1V+OvNkcgJ8lC08y&#xA;+ULTVbOaCC1jjGpmW6k+ribjbi3hXmjNBEygzB3Coi8T0UbZKWHIYm7+nv62fNRIA/FbP5h8kXVn&#xA;aT31slxdzSW8upDjwn9b1ed3JVbcclk+L4TcUodlWmIxZASAdt6/R1/QjiiitK81aBaFYZ7yy9OL&#xA;UbS8MlrYvCjRoHVwgEQZXT4STtUVArU1jPDM7gH6SOaRMIO01nyPFBZtJFbOY4h6cJtS0kcgspUk&#xA;+suUKz+pclGTrx/yemTljyknn8/Pp3bIBixbzJdabd38VxYJGiyW1ublIo/SjFx6SibigCgDnXoK&#xA;eGZOKJAo95+TCRCVZYxdirsVVV/3lk/10/U+DqvRSwq7FXYq7FVVv95Y/wDXf9SYOq9FLCqaeXNc&#xA;fRdSF6sKTkI6BJFDbspAIJ6b9adq5OEuE2kGktlkMsryMAGdixCgKoJNdlGwHsMihbgV2KozR7jT&#xA;rfVLaXUrb63YK4F1b1cExtsxUo8R5KDyX4qVArtXEqyi11X8sFVjd6RcSSepUel6kaen6kXRWu5G&#xA;UmNXG7tRmrUigSFSTss1fV/y3nsZYtO0ie0uPrSvE55NS1JTmgZrh+L0U/aDjc0ArUEAqmI1T8l5&#xA;Ib4vpF/b85EFiiM0kqKEox5NcJHxLLuCCRXYsPsipLsoXWu/lXPp9px0O5i1AKn1xlJEfJyfWKcb&#xA;hQQoflGOA+JQD8O2NSXZDaxq/wCWs2gTw6fpFzFr0vEpeuSkSEyhnpGtwyD4KqPg+hcQJWqtNq/5&#xA;TsZHi0S7RhJG8MJd2RkE7GWN2+s8hyhKgMO/yLM1Jdkv17V/JptQvl3TXtriR7hJzdp6tIJWUxBG&#xA;eaYK8dCOQQGh6kjkxAPVDF8krsVdirsVdiqqv+8sn+un6nwdV6KWFXYq7FXYqqt/vLH/AK7/AKkw&#xA;dV6KWFXYq7FXYq7FXYq7FXYq7FXYq7FXYq7FXYqqWv1b6xH9a5/VuQ9b06c+Nd+PLavzwhUf5kOj&#xA;nWrr9DhhYcyI6moJ7lP8mv2clOr2UpZkFdiqqv8AvLJ/rp+p8HVeilhV2KuxV2Kqrf7yx/67/qTB&#xA;1XopYVdirsVZ55Q/K4+Y9BtNWW+ng+sai+nyolk00cSLB6gnab1EXj6rRxEGn2xQk/DkJTopATD8&#xA;wfyWfydZ6pcvq/139HSWsaBbSSJZfrCBnPql2jHDkPhUse7BKryEclqQ8zyxD2ey/wCcbrvUvL+l&#xA;anp2vIbrUxDSzu7SS3WMy2rXZBkDylhwUBSqb17dMq8XdlwvGMtYvTYfyO1a50/Q760vRNDrGly6&#xA;nKfSCCF0QtFbB3kVHkmOy7rsGNCFOV+ImkUP+cfNbn0e21i11W0FjNpNrq8nriVHRbi2luHTjGkt&#xA;eHoMAe+22DxQvCxD8tfJP+NvN9p5c+u/o83STMLr0vW4+lE0lOHKPrxp9rJzlQtADKb38kTZaRqu&#xA;r3esNa2GnNpLRy3Fm0fqwaqIuU396wAt2mZTQtUowqDkfETTH/zJ8gW3k6706O01Q6xaalareW96&#xA;LdreN45N0MZLycwVINex2yUJWpC3yN+XV35u0vzDeWlwUuNDtUuIbJIWmkunkZlWJArAgnjtQNU0&#xA;FMZTqkAMl/Mn8jH8k+X7nWDra3/1a/h08wC39HkZrZbjmG9WTpy40p7+2RhkspIeV5Yh2KuxVVX/&#xA;AHlk/wBdP1Pg6r0UsKuxV2KuxVVb/eWP/Xf9SYOq9FLCrsVdiqolxcInppK6xk8igYgV23p9GKtP&#xA;cTyAh5GYGhIZiegAHX2GKt29vcXM8dvbRPNcTMI4YY1Lu7saKqqKkknoBirJo/InnuTTob4QFLKS&#xA;BbmGWS7t4wISrBXo8qlRxDdegyPEFpcPyp/MAyTR/ohw8H96plhBA4hqir/FQNvT+Bx4wtLW/L3z&#xA;t6ktsIFZrJeVyn1qALCBLND8RaQKKPDJWhoO/XHiC02/kHzwj2ds8PGe+5x21s1zCGKwpzYEGSig&#xA;Kx2J9u+PEFpbZflv56me3a0sKyXKCS243FurMj+mAw/eA0/fpU++/Q0eMLSKT8rPzHlDxfo9yFHE&#xA;J9YhZX9MKeKkSFTwWWvWnXuDg4wmkq1zyZ5r0jT7e/1a0MNpIFSF2licjkCyoUV2dD1+FgKZISBR&#xA;SSRzSx19N2StK8SRWhqOnuMKue4nkHGSRnBINGYkVA4g7+22KrMVdirsVVV/3lk/10/U+DqvRSwq&#xA;7FXYq7FVVv8AeWP/AF3/AFJg6r0UsKuxV2KuxV2Kq9pCshkc3CW7QhXTmWDOTIq8Y+II5Dly+IgU&#xA;B3rQYq9RtPL6QSpZD8zVjsolSKNobrjGsTtKIwq/WB9hER3SlByK8qipqvySti0SGkjt+Y7QpcH9&#xA;4Rdq7PJGkY9RlFyGK15IvPiaAEVGG/JUn0+we5064u7rzvJbBrcPdQeuryTKzyu0KRm6R5CGZiVd&#xA;VqzE9DyJJ8lTeXS4bOeW7j/MgXcttD/o1Jf3xM0UycUMk7IjLsp4tUcjuuxIvyVUj8vXltJYx6h5&#xA;+u7C5vrQTwmWURqkKuqr8T3a1VgoMYPE7b8SvEi/JULoWmWk1rBqF/8AmLJZtJHWe0SdvrC+oxVk&#xA;r69P91Ixr2pWm2EnyVDal5US80CSSPzc2owabZtdyaa0iTLA8aABai4ZAGZuAKqSCQAGFWCJb8lp&#xA;5zliHYq7FXYq7FVVf95ZP9dP1Pg6r0UsKuxV2KuxVVb/AHlj/wBd/wBSYOq9FLCrsVdirsVcPfpi&#xA;rKtL1H8u4rS4S/0q8uJzLcG2f1fiETR8bZWdXiXkj/E59Lf5ChiQVR+r6j+VDXFnJpel3MUB9U3M&#xA;MpkkZR6bpGH/ANIj5/vOD0RloK1Zq0UASTsusdb/ACni9Az6HdO8bBpZOTNWkNAvBrjgf3tCajfc&#xA;0APANSXZya7+VC6fPG+gXMt4vE2bc3RK+hGH9Yi45sDMr0A6KfE0DUu9dm49T/KYyyS3Gm3TQPOq&#xA;wwoGWZIEtY15NS4WM8pw5puT1qtOLNSXZCw3v5ZSXVqXsbmGJJZGuQyyMjQfVj6aELcF2k9cDdWQ&#xA;MD+wOjUl2Rkmqfk9Layeno15bXCWkiqXkkkDXLFFjZVEw+yOTHkwXr8JqAGpLsiD5h/JqJ4ntvL9&#xA;3VJpDJ6vJ+ULRyBBRrtl5LI0dNtgDUscFS712Y75p1DyPcwhPL2mzWUiujerKznktHEikNNOOvDj&#xA;T/Kr2yUQeqGN5JXYq7FXYqqr/vLJ/rp+p8HVeilhV2KuxV2Kqrf7yx/67/qTB1XopYVdirsVdirs&#xA;VdirsVdirsVdirsVdirsVdirsVdirsVdiqqv+8sn+un6nwdV6KWFXYq7FXYqqt/vLH/rv+pMHVei&#xA;lhV2KuxV2KuxV2KuxV2KuxV2KuxV2KuxV2KuxV2KuxV2Kqq/7yyf66fqfB1XopYVdirsVdiqq3+8&#xA;sf8Arv8AqTB1XopYVdirsVdirsVdirsVdirsVdirsVdirsVdirsVdirsVdiqqv8AvLJ/rp+p8HVe&#xA;ilhV2KuxV2Kqrf7yx/67/qTB1XopYVdiqaaXaaDc27i/v2sLkN+7cxtLGV26hByGVzlIHYWkAImy&#xA;0zyo006XesskcYT0pUgk+M8iZAq0Y/YX4eXH4j4A5GU59I/akAd61NJ8tG5tkfXgkMpP1iYWszei&#xA;PSVwabF/3hZNvCvfHjnR9P2rQ70TD5f8qTz20UPmMfvuXqmW1aIRcd6uzyBPiHSje2ROWYB9P2p4&#xA;R3qD6R5bjnuLeTWzyhkdI5o7dpI5FWPkGBVv2pPh/HJcc6B4ftRQ71p0nyzwquvfEVYhWtJRRhz4&#xA;qSC32uKdK05e2PHP+b9q0O9dPpnlRLcPDrTzS1q0ZtnQleaLQbsK8Wdq8u1OpxE539P2rQ72pdM8&#xA;qtLILfWpFjDKIvWtXqVJoSxRm+z1O3y8MROfWP2rQ71SfSPKtvLbRyaw83JkNy0MPICN0DfCQx+J&#xA;W+Eg/h0wCczfpTQ71NtK8tO9YdZKxBJWb1IG5D0wvpilQCZWYig+zTvh459Y/aih3r00byqbgRt5&#xA;iCxEsDN9TnIADOFNOvxKqn/ZU7YPEnX0/aF4R3rLjTvKvrIsGrSCJkZ2keByVZY6iMqAu7SCgYGl&#xA;CK98InPqFIHeqHQ/K6RO0nmJfUEYaOOO1lfmzMRx5VAWigNvvvSlRg8Sf837U8I71GPSvLbMVOuF&#xA;aqxQm1k+0OXFW+LatF33Ar7YTOf837UUO9JmAVioIYA05DofcVplzFrFVVf95ZP9dP1Pg6r0UsKu&#xA;xV2KuxVVb/eWP/Xf9SYOq9F1jZy3l5DaxMiyTMEVpGCICfFjtkgLKpl5r8vHQdWay9ZJk4h0ZSCw&#xA;B7Ov7JyeSHCaSRSTZWhMrDy15j1G3+s6fpV5eW3Ip61vbyypyWhK8kUioqMNLSLj8k+bRKwOlTB4&#xA;lWSSORQvFWiadeYYinKONiAevTrjS0ncmn+cPUnt/wDClrHLCzhpVtaBSZAfgk5cGCGBqEE0Xn2r&#xA;lPgecvmz4vJR1y71uxgSfWfL1nBc3NwfRlMEUfI2jlZUaJPioXNCdq074Bp66mvepl5KGmXuvXEK&#xA;PYeXLOcAj05RZeoXaqRhV5VDsWj+yu9S3vicF9ZfNRLyVrG981+qZIvLEV2lxxJhk0+SaN2q8QcA&#xA;gnkX5CoO7CmJ099ZfNRI9y1JfM/1u2tB5Vt5LyaIva2w04mV4+IPMRqOT0C1qQfHvj4HnL5rxeSE&#xA;1PUtTtXf19EgsVvYUiaGS2CgsqhjLGpC8Gb1QQQNgRT3Iw95KDLyVbKfXb6FJrLyxBdQrGI0lhsZ&#xA;JFrC0XJyy1DNy4huVft0/ax8Hzl814vJESjzNAl0Y/K6Q27zGeSKWzZ2RYEIZWBC0RQrFjxFDU7Y&#xA;PA7yU8Xkh9V0XzNrNwJrfyw9gqRiiW1tJErD4AKctmZjKvED4jyUb7ZPHjMRzJ96JG+jHrzT7+yM&#xA;QvLeS3aeNZ4RKpQvE9eLqD1U02OWMUPgV2KuxVVX/eWT/XT9T4Oq9FLCrsVdirsVVW/3lj/13/Um&#xA;DqvRSwqq3V1cXdxJc3DmSaU8pHPUk4SbVSwKmeneaPM2mW5ttN1e9sbctzMNtcSxJyP7XFGUV2w2&#xA;ttN5m8yMzu2rXheRQsjG4lJZQjRgMeW4COy/Ikd8bW1zea/ND15axfNy5Fq3MxrzLFq/F3Mr1/1j&#xA;4nG1tQuNc1u5kiluNQuZpIZGmheSaRmSRzyZ1JJoxIqSMVR3le51SXUrawh1t9HgZuf1lp2hijMQ&#xA;eRW+2grUnjv1PviFCai18wQWK3dr5tty0TBUtk1B45eaTpTgCVFA85kDEgbO3apKUbYXGsx6XZ6s&#xA;3nC3hvkDy28PqCW+i4qYVQyt8aoyx09Pn04nia1CrDp9Z1i4lhlnvriWW2Ia3keV2aMgAAoSarsi&#xA;9PAYELrXXdbs7c21pqFzb25DAwxTSIlHKl/hUgfEUWvjQeGKqp8z+YmS5STUrmVbtStyJJWk5gsG&#xA;JPMneo69evicbW18nm3zTJKkp1a7DxsJIuE8iBGAUAoqkBdkUfD4DwxtbQN5qF/emJry5luWgjWC&#xA;EzO0hSJK8Y15E8VWuwG2KofArsVdiqqv+8sn+un6nwdV6KWFXYq7FXYqqt/vLH/rv+pMHVeilhV2&#xA;KuxV2KuxV2KuxV2KuxV2KuxV2KuxV2KuxVMfL2jNrGqw2Anjt/VO8khpt3Cj9pvAZOEeI0oFp/8A&#xA;mN5XttI1BLi1ljFvcKvG2LfvVKgKTx7q1K18cszY+EspBh+UMVVf95ZP9dP1Pg6r0UsKuxV2KuxV&#xA;Vb/eWP8A13/UmDqvRSwq7FXYq7FXYq7FXYq7FXYq7FXYq7FXYq7FXYq2rMrBlJVlNVYbEEdxhVGa&#xA;xq13q2oSXt0xaVwo+QUBQB92GUiTakoLIqqr/vLJ/rp+p8HVeilhV2KuxV2Kqrf7yx/67/qTB1Xo&#xA;pYVdirsVTHTdGnvra4nRlUQr8PJgKtUGhr0HGu5y2GIyBKQLS7KkOxV2Kq1rZXl3IYrSCS4kClyk&#xA;SM7BR1NFB2GFVX9Earx5fUp+JUuD6T04ihLdOm4xVv8AQ2r8Fk+o3HBmKK/pPQurcSoNOoYUp44q&#xA;0dI1YdbKfv8A7qf9k8T27HY4qhMCuxV2KuxV2KuxV2Kqq/7yyf66fqfB1XopYVdirsVdiqsvpvAq&#xA;GQIysx+INuGCj9kHwyPVLXox/wC/0+5/+acN+SKd6Mf+/wBPuf8A5pxvyWnejH/v9Puf/mnG/JaX&#xA;x1jSREuUCyrxkFH3AIb+XxGETI6JWejH/v8AT7n/AOacF+SKd6Mf+/0+5/8AmnG/Jad6Mf8Av9Pu&#xA;f/mnG/JaTHQdZ1DQdRXUNMvI4bpBRXKs3cHoUPdRjxHuSyN/za87shjXVIEhMD2qxLACqwyKiMo5&#xA;RsekS7k1w8Z7k21b/m157t7d7eLWIhDJdNesht0P755zcsQTFUAynlTp9GPGe5bXx/m555jWULqk&#xA;HKZZlZ/QHIfWXV5SCI+rFAKnp2x4z3LbCfRj/wB/p9z/APNOC/JjTvRj/wB/p9z/APNON+S070Y/&#xA;9/p9z/8ANON+S070Y/8Af6fc/wDzTjfktO9GP/f6fc//ADTjfktO9GP/AH+n3P8A80435LTvRj/3&#xA;+n3P/wA0435LTbemkDIJA7Myn4Q2wUMP2gPHB1So5JDsVdirsVdirsVdirsVdirsVdirsVdirsVd&#xA;irsVdirsVdirsVdirsVdirsVdirsVf/Z</xmpGImg:image>
               </rdf:li>
            </rdf:Alt>
         </xmp:Thumbnails>
         <xmpMM:RenditionClass>default</xmpMM:RenditionClass>
         <xmpMM:OriginalDocumentID>uuid:65E6390686CF11DBA6E2D887CEACB407</xmpMM:OriginalDocumentID>
         <xmpMM:DocumentID>xmp.did:14c58f63-532d-4aea-b3d3-a27f323bab97</xmpMM:DocumentID>
         <xmpMM:InstanceID>xmp.iid:14c58f63-532d-4aea-b3d3-a27f323bab97</xmpMM:InstanceID>
         <xmpMM:DerivedFrom rdf:parseType="Resource">
            <stRef:instanceID>uuid:a2c948e7-2a56-ea4f-906d-dc107c1545c0</stRef:instanceID>
            <stRef:documentID>xmp.did:7f780414-b9e0-463f-a48f-4d8ddecd6c12</stRef:documentID>
            <stRef:originalDocumentID>uuid:65E6390686CF11DBA6E2D887CEACB407</stRef:originalDocumentID>
            <stRef:renditionClass>default</stRef:renditionClass>
         </xmpMM:DerivedFrom>
         <xmpMM:History>
            <rdf:Seq>
               <rdf:li rdf:parseType="Resource">
                  <stEvt:action>saved</stEvt:action>
                  <stEvt:instanceID>xmp.iid:0fde3f1f-10dc-4d2e-8e90-b70d56e19404</stEvt:instanceID>
                  <stEvt:when>2025-09-09T09:35:59+10:00</stEvt:when>
                  <stEvt:softwareAgent>Adobe Illustrator 29.8 (Macintosh)</stEvt:softwareAgent>
                  <stEvt:changed>/</stEvt:changed>
               </rdf:li>
               <rdf:li rdf:parseType="Resource">
                  <stEvt:action>saved</stEvt:action>
                  <stEvt:instanceID>xmp.iid:14c58f63-532d-4aea-b3d3-a27f323bab97</stEvt:instanceID>
                  <stEvt:when>2025-09-09T11:31:42+10:00</stEvt:when>
                  <stEvt:softwareAgent>Adobe Illustrator 29.8 (Macintosh)</stEvt:softwareAgent>
                  <stEvt:changed>/</stEvt:changed>
               </rdf:li>
            </rdf:Seq>
         </xmpMM:History>
         <illustrator:StartupProfile>Web</illustrator:StartupProfile>
         <illustrator:CreatorSubTool>Adobe Illustrator</illustrator:CreatorSubTool>
         <illustrator:IsFileSavedViaInstantSave>False</illustrator:IsFileSavedViaInstantSave>
         <xmpTPg:NPages>1</xmpTPg:NPages>
         <xmpTPg:HasVisibleTransparency>True</xmpTPg:HasVisibleTransparency>
         <xmpTPg:HasVisibleOverprint>False</xmpTPg:HasVisibleOverprint>
         <xmpTPg:MaxPageSize rdf:parseType="Resource">
            <stDim:w>768.000000</stDim:w>
            <stDim:h>1024.000000</stDim:h>
            <stDim:unit>Pixels</stDim:unit>
         </xmpTPg:MaxPageSize>
         <xmpTPg:Fonts>
            <rdf:Bag>
               <rdf:li rdf:parseType="Resource">
                  <stFnt:fontName>ProximaNova-Regular</stFnt:fontName>
                  <stFnt:fontFamily>Proxima Nova</stFnt:fontFamily>
                  <stFnt:fontFace>Regular</stFnt:fontFace>
                  <stFnt:fontType>Open Type</stFnt:fontType>
                  <stFnt:versionString>15.0d2e3</stFnt:versionString>
                  <stFnt:composite>False</stFnt:composite>
                  <stFnt:fontFileName>ProximaNova.ttc</stFnt:fontFileName>
               </rdf:li>
               <rdf:li rdf:parseType="Resource">
                  <stFnt:fontName>ProximaNova-RegularIt</stFnt:fontName>
                  <stFnt:fontFamily>Proxima Nova</stFnt:fontFamily>
                  <stFnt:fontFace>Italic</stFnt:fontFace>
                  <stFnt:fontType>Open Type</stFnt:fontType>
                  <stFnt:versionString>15.0d2e3</stFnt:versionString>
                  <stFnt:composite>False</stFnt:composite>
                  <stFnt:fontFileName>ProximaNova.ttc</stFnt:fontFileName>
               </rdf:li>
               <rdf:li rdf:parseType="Resource">
                  <stFnt:fontName>ProximaNova-Semibold</stFnt:fontName>
                  <stFnt:fontFamily>Proxima Nova</stFnt:fontFamily>
                  <stFnt:fontFace>Semibold</stFnt:fontFace>
                  <stFnt:fontType>Open Type</stFnt:fontType>
                  <stFnt:versionString>15.0d2e3</stFnt:versionString>
                  <stFnt:composite>False</stFnt:composite>
                  <stFnt:fontFileName>ProximaNova.ttc</stFnt:fontFileName>
               </rdf:li>
               <rdf:li rdf:parseType="Resource">
                  <stFnt:fontName>Teko-Light</stFnt:fontName>
                  <stFnt:fontFamily>Teko</stFnt:fontFamily>
                  <stFnt:fontFace>Light</stFnt:fontFace>
                  <stFnt:fontType>TrueType</stFnt:fontType>
                  <stFnt:versionString>Version 2.000;gftools[0.9.28.dev9+g7d2139d.d20230707]</stFnt:versionString>
                  <stFnt:composite>False</stFnt:composite>
                  <stFnt:fontFileName>Teko-VariableFont_wght.ttf</stFnt:fontFileName>
               </rdf:li>
            </rdf:Bag>
         </xmpTPg:Fonts>
         <xmpTPg:PlateNames>
            <rdf:Seq>
               <rdf:li>Cyan</rdf:li>
               <rdf:li>Magenta</rdf:li>
               <rdf:li>Yellow</rdf:li>
               <rdf:li>Black</rdf:li>
            </rdf:Seq>
         </xmpTPg:PlateNames>
         <xmpTPg:SwatchGroups>
            <rdf:Seq>
               <rdf:li rdf:parseType="Resource">
                  <xmpG:groupName>Default Swatch Group</xmpG:groupName>
                  <xmpG:groupType>0</xmpG:groupType>
                  <xmpG:Colorants>
                     <rdf:Seq>
                        <rdf:li rdf:parseType="Resource">
                           <xmpG:swatchName>White</xmpG:swatchName>
                           <xmpG:mode>RGB</xmpG:mode>
                           <xmpG:type>PROCESS</xmpG:type>
                           <xmpG:red>255</xmpG:red>
                           <xmpG:green>255</xmpG:green>
                           <xmpG:blue>255</xmpG:blue>
                        </rdf:li>
                        <rdf:li rdf:parseType="Resource">
                           <xmpG:swatchName>Black</xmpG:swatchName>
                           <xmpG:mode>RGB</xmpG:mode>
                           <xmpG:type>PROCESS</xmpG:type>
                           <xmpG:red>0</xmpG:red>
                           <xmpG:green>0</xmpG:green>
                           <xmpG:blue>0</xmpG:blue>
                        </rdf:li>
                        <rdf:li rdf:parseType="Resource">
                           <xmpG:swatchName>RGB Red</xmpG:swatchName>
                           <xmpG:mode>RGB</xmpG:mode>
                           <xmpG:type>PROCESS</xmpG:type>
                           <xmpG:red>255</xmpG:red>
                           <xmpG:green>0</xmpG:green>
                           <xmpG:blue>0</xmpG:blue>
                        </rdf:li>
                        <rdf:li rdf:parseType="Resource">
                           <xmpG:swatchName>RGB Yellow</xmpG:swatchName>
                           <xmpG:mode>RGB</xmpG:mode>
                           <xmpG:type>PROCESS</xmpG:type>
                           <xmpG:red>255</xmpG:red>
                           <xmpG:green>255</xmpG:green>
                           <xmpG:blue>0</xmpG:blue>
                        </rdf:li>
                        <rdf:li rdf:parseType="Resource">
                           <xmpG:swatchName>RGB Green</xmpG:swatchName>
                           <xmpG:mode>RGB</xmpG:mode>
                           <xmpG:type>PROCESS</xmpG:type>
                           <xmpG:red>0</xmpG:red>
                           <xmpG:green>255</xmpG:green>
                           <xmpG:blue>0</xmpG:blue>
                        </rdf:li>
                        <rdf:li rdf:parseType="Resource">
                           <xmpG:swatchName>RGB Cyan</xmpG:swatchName>
                           <xmpG:mode>RGB</xmpG:mode>
                           <xmpG:type>PROCESS</xmpG:type>
                           <xmpG:red>0</xmpG:red>
                           <xmpG:green>255</xmpG:green>
                           <xmpG:blue>255</xmpG:blue>
                        </rdf:li>
                        <rdf:li rdf:parseType="Resource">
                           <xmpG:swatchName>RGB Blue</xmpG:swatchName>
                           <xmpG:mode>RGB</xmpG:mode>
                           <xmpG:type>PROCESS</xmpG:type>
                           <xmpG:red>0</xmpG:red>
                           <xmpG:green>0</xmpG:green>
                           <xmpG:blue>255</xmpG:blue>
                        </rdf:li>
                        <rdf:li rdf:parseType="Resource">
                           <xmpG:swatchName>RGB Magenta</xmpG:swatchName>
                           <xmpG:mode>RGB</xmpG:mode>
                           <xmpG:type>PROCESS</xmpG:type>
                           <xmpG:red>255</xmpG:red>
                           <xmpG:green>0</xmpG:green>
                           <xmpG:blue>255</xmpG:blue>
                        </rdf:li>
                        <rdf:li rdf:parseType="Resource">
                           <xmpG:swatchName>R=193 G=39 B=45</xmpG:swatchName>
                           <xmpG:mode>RGB</xmpG:mode>
                           <xmpG:type>PROCESS</xmpG:type>
                           <xmpG:red>193</xmpG:red>
                           <xmpG:green>39</xmpG:green>
                           <xmpG:blue>45</xmpG:blue>
                        </rdf:li>
                        <rdf:li rdf:parseType="Resource">
                           <xmpG:swatchName>R=237 G=28 B=36</xmpG:swatchName>
                           <xmpG:mode>RGB</xmpG:mode>
                           <xmpG:type>PROCESS</xmpG:type>
                           <xmpG:red>237</xmpG:red>
                           <xmpG:green>28</xmpG:green>
                           <xmpG:blue>36</xmpG:blue>
                        </rdf:li>
                        <rdf:li rdf:parseType="Resource">
                           <xmpG:swatchName>R=241 G=90 B=36</xmpG:swatchName>
                           <xmpG:mode>RGB</xmpG:mode>
                           <xmpG:type>PROCESS</xmpG:type>
                           <xmpG:red>241</xmpG:red>
                           <xmpG:green>90</xmpG:green>
                           <xmpG:blue>36</xmpG:blue>
                        </rdf:li>
                        <rdf:li rdf:parseType="Resource">
                           <xmpG:swatchName>R=247 G=147 B=30</xmpG:swatchName>
                           <xmpG:mode>RGB</xmpG:mode>
                           <xmpG:type>PROCESS</xmpG:type>
                           <xmpG:red>247</xmpG:red>
                           <xmpG:green>147</xmpG:green>
                           <xmpG:blue>30</xmpG:blue>
                        </rdf:li>
                        <rdf:li rdf:parseType="Resource">
                           <xmpG:swatchName>R=251 G=176 B=59</xmpG:swatchName>
                           <xmpG:mode>RGB</xmpG:mode>
                           <xmpG:type>PROCESS</xmpG:type>
                           <xmpG:red>251</xmpG:red>
                           <xmpG:green>176</xmpG:green>
                           <xmpG:blue>59</xmpG:blue>
                        </rdf:li>
                        <rdf:li rdf:parseType="Resource">
                           <xmpG:swatchName>R=252 G=238 B=33</xmpG:swatchName>
                           <xmpG:mode>RGB</xmpG:mode>
                           <xmpG:type>PROCESS</xmpG:type>
                           <xmpG:red>252</xmpG:red>
                           <xmpG:green>238</xmpG:green>
                           <xmpG:blue>33</xmpG:blue>
                        </rdf:li>
                        <rdf:li rdf:parseType="Resource">
                           <xmpG:swatchName>R=217 G=224 B=33</xmpG:swatchName>
                           <xmpG:mode>RGB</xmpG:mode>
                           <xmpG:type>PROCESS</xmpG:type>
                           <xmpG:red>217</xmpG:red>
                           <xmpG:green>224</xmpG:green>
                           <xmpG:blue>33</xmpG:blue>
                        </rdf:li>
                        <rdf:li rdf:parseType="Resource">
                           <xmpG:swatchName>R=140 G=198 B=63</xmpG:swatchName>
                           <xmpG:mode>RGB</xmpG:mode>
                           <xmpG:type>PROCESS</xmpG:type>
                           <xmpG:red>140</xmpG:red>
                           <xmpG:green>198</xmpG:green>
                           <xmpG:blue>63</xmpG:blue>
                        </rdf:li>
                        <rdf:li rdf:parseType="Resource">
                           <xmpG:swatchName>R=57 G=181 B=74</xmpG:swatchName>
                           <xmpG:mode>RGB</xmpG:mode>
                           <xmpG:type>PROCESS</xmpG:type>
                           <xmpG:red>57</xmpG:red>
                           <xmpG:green>181</xmpG:green>
                           <xmpG:blue>74</xmpG:blue>
                        </rdf:li>
                        <rdf:li rdf:parseType="Resource">
                           <xmpG:swatchName>R=0 G=146 B=69</xmpG:swatchName>
                           <xmpG:mode>RGB</xmpG:mode>
                           <xmpG:type>PROCESS</xmpG:type>
                           <xmpG:red>0</xmpG:red>
                           <xmpG:green>146</xmpG:green>
                           <xmpG:blue>69</xmpG:blue>
                        </rdf:li>
                        <rdf:li rdf:parseType="Resource">
                           <xmpG:swatchName>R=0 G=104 B=55</xmpG:swatchName>
                           <xmpG:mode>RGB</xmpG:mode>
                           <xmpG:type>PROCESS</xmpG:type>
                           <xmpG:red>0</xmpG:red>
                           <xmpG:green>104</xmpG:green>
                           <xmpG:blue>55</xmpG:blue>
                        </rdf:li>
                        <rdf:li rdf:parseType="Resource">
                           <xmpG:swatchName>R=34 G=181 B=115</xmpG:swatchName>
                           <xmpG:mode>RGB</xmpG:mode>
                           <xmpG:type>PROCESS</xmpG:type>
                           <xmpG:red>34</xmpG:red>
                           <xmpG:green>181</xmpG:green>
                           <xmpG:blue>115</xmpG:blue>
                        </rdf:li>
                        <rdf:li rdf:parseType="Resource">
                           <xmpG:swatchName>R=0 G=169 B=157</xmpG:swatchName>
                           <xmpG:mode>RGB</xmpG:mode>
                           <xmpG:type>PROCESS</xmpG:type>
                           <xmpG:red>0</xmpG:red>
                           <xmpG:green>169</xmpG:green>
                           <xmpG:blue>157</xmpG:blue>
                        </rdf:li>
                        <rdf:li rdf:parseType="Resource">
                           <xmpG:swatchName>R=41 G=171 B=226</xmpG:swatchName>
                           <xmpG:mode>RGB</xmpG:mode>
                           <xmpG:type>PROCESS</xmpG:type>
                           <xmpG:red>41</xmpG:red>
                           <xmpG:green>171</xmpG:green>
                           <xmpG:blue>226</xmpG:blue>
                        </rdf:li>
                        <rdf:li rdf:parseType="Resource">
                           <xmpG:swatchName>R=0 G=113 B=188</xmpG:swatchName>
                           <xmpG:mode>RGB</xmpG:mode>
                           <xmpG:type>PROCESS</xmpG:type>
                           <xmpG:red>0</xmpG:red>
                           <xmpG:green>113</xmpG:green>
                           <xmpG:blue>188</xmpG:blue>
                        </rdf:li>
                        <rdf:li rdf:parseType="Resource">
                           <xmpG:swatchName>R=46 G=49 B=146</xmpG:swatchName>
                           <xmpG:mode>RGB</xmpG:mode>
                           <xmpG:type>PROCESS</xmpG:type>
                           <xmpG:red>46</xmpG:red>
                           <xmpG:green>49</xmpG:green>
                           <xmpG:blue>146</xmpG:blue>
                        </rdf:li>
                        <rdf:li rdf:parseType="Resource">
                           <xmpG:swatchName>R=27 G=20 B=100</xmpG:swatchName>
                           <xmpG:mode>RGB</xmpG:mode>
                           <xmpG:type>PROCESS</xmpG:type>
                           <xmpG:red>27</xmpG:red>
                           <xmpG:green>20</xmpG:green>
                           <xmpG:blue>100</xmpG:blue>
                        </rdf:li>
                        <rdf:li rdf:parseType="Resource">
                           <xmpG:swatchName>R=102 G=45 B=145</xmpG:swatchName>
                           <xmpG:mode>RGB</xmpG:mode>
                           <xmpG:type>PROCESS</xmpG:type>
                           <xmpG:red>102</xmpG:red>
                           <xmpG:green>45</xmpG:green>
                           <xmpG:blue>145</xmpG:blue>
                        </rdf:li>
                        <rdf:li rdf:parseType="Resource">
                           <xmpG:swatchName>R=147 G=39 B=143</xmpG:swatchName>
                           <xmpG:mode>RGB</xmpG:mode>
                           <xmpG:type>PROCESS</xmpG:type>
                           <xmpG:red>147</xmpG:red>
                           <xmpG:green>39</xmpG:green>
                           <xmpG:blue>143</xmpG:blue>
                        </rdf:li>
                        <rdf:li rdf:parseType="Resource">
                           <xmpG:swatchName>R=158 G=0 B=93</xmpG:swatchName>
                           <xmpG:mode>RGB</xmpG:mode>
                           <xmpG:type>PROCESS</xmpG:type>
                           <xmpG:red>158</xmpG:red>
                           <xmpG:green>0</xmpG:green>
                           <xmpG:blue>93</xmpG:blue>
                        </rdf:li>
                        <rdf:li rdf:parseType="Resource">
                           <xmpG:swatchName>R=212 G=20 B=90</xmpG:swatchName>
                           <xmpG:mode>RGB</xmpG:mode>
                           <xmpG:type>PROCESS</xmpG:type>
                           <xmpG:red>212</xmpG:red>
                           <xmpG:green>20</xmpG:green>
                           <xmpG:blue>90</xmpG:blue>
                        </rdf:li>
                        <rdf:li rdf:parseType="Resource">
                           <xmpG:swatchName>R=237 G=30 B=121</xmpG:swatchName>
                           <xmpG:mode>RGB</xmpG:mode>
                           <xmpG:type>PROCESS</xmpG:type>
                           <xmpG:red>237</xmpG:red>
                           <xmpG:green>30</xmpG:green>
                           <xmpG:blue>121</xmpG:blue>
                        </rdf:li>
                        <rdf:li rdf:parseType="Resource">
                           <xmpG:swatchName>R=199 G=178 B=153</xmpG:swatchName>
                           <xmpG:mode>RGB</xmpG:mode>
                           <xmpG:type>PROCESS</xmpG:type>
                           <xmpG:red>199</xmpG:red>
                           <xmpG:green>178</xmpG:green>
                           <xmpG:blue>153</xmpG:blue>
                        </rdf:li>
                        <rdf:li rdf:parseType="Resource">
                           <xmpG:swatchName>R=153 G=134 B=117</xmpG:swatchName>
                           <xmpG:mode>RGB</xmpG:mode>
                           <xmpG:type>PROCESS</xmpG:type>
                           <xmpG:red>153</xmpG:red>
                           <xmpG:green>134</xmpG:green>
                           <xmpG:blue>117</xmpG:blue>
                        </rdf:li>
                        <rdf:li rdf:parseType="Resource">
                           <xmpG:swatchName>R=115 G=99 B=87</xmpG:swatchName>
                           <xmpG:mode>RGB</xmpG:mode>
                           <xmpG:type>PROCESS</xmpG:type>
                           <xmpG:red>115</xmpG:red>
                           <xmpG:green>99</xmpG:green>
                           <xmpG:blue>87</xmpG:blue>
                        </rdf:li>
                        <rdf:li rdf:parseType="Resource">
                           <xmpG:swatchName>R=83 G=71 B=65</xmpG:swatchName>
                           <xmpG:mode>RGB</xmpG:mode>
                           <xmpG:type>PROCESS</xmpG:type>
                           <xmpG:red>83</xmpG:red>
                           <xmpG:green>71</xmpG:green>
                           <xmpG:blue>65</xmpG:blue>
                        </rdf:li>
                        <rdf:li rdf:parseType="Resource">
                           <xmpG:swatchName>R=198 G=156 B=109</xmpG:swatchName>
                           <xmpG:mode>RGB</xmpG:mode>
                           <xmpG:type>PROCESS</xmpG:type>
                           <xmpG:red>198</xmpG:red>
                           <xmpG:green>156</xmpG:green>
                           <xmpG:blue>109</xmpG:blue>
                        </rdf:li>
                        <rdf:li rdf:parseType="Resource">
                           <xmpG:swatchName>R=166 G=124 B=82</xmpG:swatchName>
                           <xmpG:mode>RGB</xmpG:mode>
                           <xmpG:type>PROCESS</xmpG:type>
                           <xmpG:red>166</xmpG:red>
                           <xmpG:green>124</xmpG:green>
                           <xmpG:blue>82</xmpG:blue>
                        </rdf:li>
                        <rdf:li rdf:parseType="Resource">
                           <xmpG:swatchName>R=140 G=98 B=57</xmpG:swatchName>
                           <xmpG:mode>RGB</xmpG:mode>
                           <xmpG:type>PROCESS</xmpG:type>
                           <xmpG:red>140</xmpG:red>
                           <xmpG:green>98</xmpG:green>
                           <xmpG:blue>57</xmpG:blue>
                        </rdf:li>
                        <rdf:li rdf:parseType="Resource">
                           <xmpG:swatchName>R=117 G=76 B=36</xmpG:swatchName>
                           <xmpG:mode>RGB</xmpG:mode>
                           <xmpG:type>PROCESS</xmpG:type>
                           <xmpG:red>117</xmpG:red>
                           <xmpG:green>76</xmpG:green>
                           <xmpG:blue>36</xmpG:blue>
                        </rdf:li>
                        <rdf:li rdf:parseType="Resource">
                           <xmpG:swatchName>R=96 G=56 B=19</xmpG:swatchName>
                           <xmpG:mode>RGB</xmpG:mode>
                           <xmpG:type>PROCESS</xmpG:type>
                           <xmpG:red>96</xmpG:red>
                           <xmpG:green>56</xmpG:green>
                           <xmpG:blue>19</xmpG:blue>
                        </rdf:li>
                        <rdf:li rdf:parseType="Resource">
                           <xmpG:swatchName>R=66 G=33 B=11</xmpG:swatchName>
                           <xmpG:mode>RGB</xmpG:mode>
                           <xmpG:type>PROCESS</xmpG:type>
                           <xmpG:red>66</xmpG:red>
                           <xmpG:green>33</xmpG:green>
                           <xmpG:blue>11</xmpG:blue>
                        </rdf:li>
                     </rdf:Seq>
                  </xmpG:Colorants>
               </rdf:li>
               <rdf:li rdf:parseType="Resource">
                  <xmpG:groupName>Grays</xmpG:groupName>
                  <xmpG:groupType>1</xmpG:groupType>
                  <xmpG:Colorants>
                     <rdf:Seq>
                        <rdf:li rdf:parseType="Resource">
                           <xmpG:swatchName>R=0 G=0 B=0</xmpG:swatchName>
                           <xmpG:mode>RGB</xmpG:mode>
                           <xmpG:type>PROCESS</xmpG:type>
                           <xmpG:red>0</xmpG:red>
                           <xmpG:green>0</xmpG:green>
                           <xmpG:blue>0</xmpG:blue>
                        </rdf:li>
                        <rdf:li rdf:parseType="Resource">
                           <xmpG:swatchName>R=26 G=26 B=26</xmpG:swatchName>
                           <xmpG:mode>RGB</xmpG:mode>
                           <xmpG:type>PROCESS</xmpG:type>
                           <xmpG:red>26</xmpG:red>
                           <xmpG:green>26</xmpG:green>
                           <xmpG:blue>26</xmpG:blue>
                        </rdf:li>
                        <rdf:li rdf:parseType="Resource">
                           <xmpG:swatchName>R=51 G=51 B=51</xmpG:swatchName>
                           <xmpG:mode>RGB</xmpG:mode>
                           <xmpG:type>PROCESS</xmpG:type>
                           <xmpG:red>51</xmpG:red>
                           <xmpG:green>51</xmpG:green>
                           <xmpG:blue>51</xmpG:blue>
                        </rdf:li>
                        <rdf:li rdf:parseType="Resource">
                           <xmpG:swatchName>R=77 G=77 B=77</xmpG:swatchName>
                           <xmpG:mode>RGB</xmpG:mode>
                           <xmpG:type>PROCESS</xmpG:type>
                           <xmpG:red>77</xmpG:red>
                           <xmpG:green>77</xmpG:green>
                           <xmpG:blue>77</xmpG:blue>
                        </rdf:li>
                        <rdf:li rdf:parseType="Resource">
                           <xmpG:swatchName>R=102 G=102 B=102</xmpG:swatchName>
                           <xmpG:mode>RGB</xmpG:mode>
                           <xmpG:type>PROCESS</xmpG:type>
                           <xmpG:red>102</xmpG:red>
                           <xmpG:green>102</xmpG:green>
                           <xmpG:blue>102</xmpG:blue>
                        </rdf:li>
                        <rdf:li rdf:parseType="Resource">
                           <xmpG:swatchName>R=128 G=128 B=128</xmpG:swatchName>
                           <xmpG:mode>RGB</xmpG:mode>
                           <xmpG:type>PROCESS</xmpG:type>
                           <xmpG:red>128</xmpG:red>
                           <xmpG:green>128</xmpG:green>
                           <xmpG:blue>128</xmpG:blue>
                        </rdf:li>
                        <rdf:li rdf:parseType="Resource">
                           <xmpG:swatchName>R=153 G=153 B=153</xmpG:swatchName>
                           <xmpG:mode>RGB</xmpG:mode>
                           <xmpG:type>PROCESS</xmpG:type>
                           <xmpG:red>153</xmpG:red>
                           <xmpG:green>153</xmpG:green>
                           <xmpG:blue>153</xmpG:blue>
                        </rdf:li>
                        <rdf:li rdf:parseType="Resource">
                           <xmpG:swatchName>R=179 G=179 B=179</xmpG:swatchName>
                           <xmpG:mode>RGB</xmpG:mode>
                           <xmpG:type>PROCESS</xmpG:type>
                           <xmpG:red>179</xmpG:red>
                           <xmpG:green>179</xmpG:green>
                           <xmpG:blue>179</xmpG:blue>
                        </rdf:li>
                        <rdf:li rdf:parseType="Resource">
                           <xmpG:swatchName>R=204 G=204 B=204</xmpG:swatchName>
                           <xmpG:mode>RGB</xmpG:mode>
                           <xmpG:type>PROCESS</xmpG:type>
                           <xmpG:red>204</xmpG:red>
                           <xmpG:green>204</xmpG:green>
                           <xmpG:blue>204</xmpG:blue>
                        </rdf:li>
                        <rdf:li rdf:parseType="Resource">
                           <xmpG:swatchName>R=230 G=230 B=230</xmpG:swatchName>
                           <xmpG:mode>RGB</xmpG:mode>
                           <xmpG:type>PROCESS</xmpG:type>
                           <xmpG:red>230</xmpG:red>
                           <xmpG:green>230</xmpG:green>
                           <xmpG:blue>230</xmpG:blue>
                        </rdf:li>
                        <rdf:li rdf:parseType="Resource">
                           <xmpG:swatchName>R=242 G=242 B=242</xmpG:swatchName>
                           <xmpG:mode>RGB</xmpG:mode>
                           <xmpG:type>PROCESS</xmpG:type>
                           <xmpG:red>242</xmpG:red>
                           <xmpG:green>242</xmpG:green>
                           <xmpG:blue>242</xmpG:blue>
                        </rdf:li>
                     </rdf:Seq>
                  </xmpG:Colorants>
               </rdf:li>
               <rdf:li rdf:parseType="Resource">
                  <xmpG:groupName>Web Color Group</xmpG:groupName>
                  <xmpG:groupType>1</xmpG:groupType>
                  <xmpG:Colorants>
                     <rdf:Seq>
                        <rdf:li rdf:parseType="Resource">
                           <xmpG:swatchName>R=63 G=169 B=245</xmpG:swatchName>
                           <xmpG:mode>RGB</xmpG:mode>
                           <xmpG:type>PROCESS</xmpG:type>
                           <xmpG:red>63</xmpG:red>
                           <xmpG:green>169</xmpG:green>
                           <xmpG:blue>245</xmpG:blue>
                        </rdf:li>
                        <rdf:li rdf:parseType="Resource">
                           <xmpG:swatchName>R=122 G=201 B=67</xmpG:swatchName>
                           <xmpG:mode>RGB</xmpG:mode>
                           <xmpG:type>PROCESS</xmpG:type>
                           <xmpG:red>122</xmpG:red>
                           <xmpG:green>201</xmpG:green>
                           <xmpG:blue>67</xmpG:blue>
                        </rdf:li>
                        <rdf:li rdf:parseType="Resource">
                           <xmpG:swatchName>R=255 G=147 B=30</xmpG:swatchName>
                           <xmpG:mode>RGB</xmpG:mode>
                           <xmpG:type>PROCESS</xmpG:type>
                           <xmpG:red>255</xmpG:red>
                           <xmpG:green>147</xmpG:green>
                           <xmpG:blue>30</xmpG:blue>
                        </rdf:li>
                        <rdf:li rdf:parseType="Resource">
                           <xmpG:swatchName>R=255 G=29 B=37</xmpG:swatchName>
                           <xmpG:mode>RGB</xmpG:mode>
                           <xmpG:type>PROCESS</xmpG:type>
                           <xmpG:red>255</xmpG:red>
                           <xmpG:green>29</xmpG:green>
                           <xmpG:blue>37</xmpG:blue>
                        </rdf:li>
                        <rdf:li rdf:parseType="Resource">
                           <xmpG:swatchName>R=255 G=123 B=172</xmpG:swatchName>
                           <xmpG:mode>RGB</xmpG:mode>
                           <xmpG:type>PROCESS</xmpG:type>
                           <xmpG:red>255</xmpG:red>
                           <xmpG:green>123</xmpG:green>
                           <xmpG:blue>172</xmpG:blue>
                        </rdf:li>
                        <rdf:li rdf:parseType="Resource">
                           <xmpG:swatchName>R=189 G=204 B=212</xmpG:swatchName>
                           <xmpG:mode>RGB</xmpG:mode>
                           <xmpG:type>PROCESS</xmpG:type>
                           <xmpG:red>189</xmpG:red>
                           <xmpG:green>204</xmpG:green>
                           <xmpG:blue>212</xmpG:blue>
                        </rdf:li>
                     </rdf:Seq>
                  </xmpG:Colorants>
               </rdf:li>
            </rdf:Seq>
         </xmpTPg:SwatchGroups>
         <pdf:Producer>Adobe PDF library 17.00</pdf:Producer>
         <pdfx:CreatorVersion>21.0.0</pdfx:CreatorVersion>
      </rdf:Description>
   </rdf:RDF>
</x:xmpmeta>
                                                                                                    
                                                                                                    
                                                                                                    
                                                                                                    
                                                                                                    
                                                                                                    
                                                                                                    
                                                                                                    
                                                                                                    
                                                                                                    
                                                                                                    
                                                                                                    
                                                                                                    
                                                                                                    
                                                                                                    
                                                                                                    
                                                                                                    
                                                                                                    
                                                                                                    
                                                                                                    
                           
<?xpacket end="w"?>
  </metadata>
</svg>