<?xml version="1.0" encoding="UTF-8"?>
<svg id="Layer_1" data-name="Layer 1" xmlns="http://www.w3.org/2000/svg" viewBox="0 0 768 1024">
  <defs>
    <style>
      .cls-1 {
        fill: none;
        stroke: #bd9f5e;
        stroke-dasharray: .33 .66;
        stroke-linecap: round;
        stroke-linejoin: round;
        stroke-width: .31px;
      }

      .cls-2 {
        fill: #9988d2;
      }

      .cls-3, .cls-4, .cls-5 {
        font-family: ProximaNova-Regular, 'Proxima Nova';
      }

      .cls-3, .cls-6, .cls-7 {
        font-size: 18px;
      }

      .cls-3, .cls-6, .cls-8, .cls-9, .cls-10, .cls-11 {
        fill: #fff;
      }

      .cls-4 {
        font-size: 16px;
      }

      .cls-4, .cls-12, .cls-13 {
        fill: #bdac82;
      }

      .cls-6 {
        font-family: ProximaNova-RegularIt, 'Proxima Nova';
        font-style: italic;
      }

      .cls-12 {
        font-family: ProximaNova-Semibold, 'Proxima Nova';
        font-size: 36px;
        font-weight: 600;
      }

      .cls-7, .cls-8 {
        font-family: Teko-Light, Teko;
        font-variation-settings: 'wght' 300;
        font-weight: 300;
      }

      .cls-7, .cls-10 {
        letter-spacing: .02em;
      }

      .cls-7, .cls-5 {
        fill: #dad2ff;
      }

      .cls-14 {
        fill: #1c223f;
      }

      .cls-8 {
        font-size: 24.58px;
        letter-spacing: .1em;
      }

      .cls-15 {
        fill: #6754a4;
      }

      .cls-16 {
        letter-spacing: 0em;
      }

      .cls-17 {
        opacity: .81;
      }

      .cls-18 {
        letter-spacing: -.13em;
      }

      .cls-19 {
        letter-spacing: -.05em;
      }

      .cls-20 {
        letter-spacing: -.03em;
      }

      .cls-21 {
        letter-spacing: -.03em;
      }

      .cls-22 {
        letter-spacing: 0em;
      }

      .cls-10, .cls-11 {
        font-family: Teko-Medium, Teko;
        font-size: 24px;
        font-variation-settings: 'wght' 500;
        font-weight: 500;
      }

      .cls-11 {
        letter-spacing: .03em;
      }

      .cls-5 {
        font-size: 14px;
      }

      .cls-23 {
        letter-spacing: .02em;
      }

      .cls-24 {
        letter-spacing: .02em;
      }

      .cls-25 {
        letter-spacing: .03em;
      }

      .cls-26 {
        letter-spacing: 0em;
      }
    </style>
  </defs>
  <g>
    <rect class="cls-14" width="768" height="1024"/>
    <g>
      <path class="cls-15" d="M240.61,244.57c-5.94,1.95-10.95,6.26-14.43,11.46-3.48,5.2-5.83,11.16-6.97,17.31.64-6.04-1.05-12.3-4.63-17.21-3.58-4.91-8.3-9.46-14.25-10.7,11.33-3.93,19.61-15.37,19.81-27.36,1.14,5.73,3,11.11,6.09,16.07,3.09,4.96,8.57,9.89,14.39,10.44Z"/>
      <path class="cls-2" d="M294.66,379.02c-5.94,1.95-10.95,6.26-14.43,11.46-3.48,5.2-5.83,11.16-6.97,17.31.64-6.04-1.05-12.3-4.63-17.21-3.58-4.91-8.3-9.46-14.25-10.7,11.33-3.93,19.61-15.37,19.81-27.36,1.14,5.73,3,11.11,6.09,16.07,3.09,4.96,8.57,9.89,14.39,10.44Z"/>
      <path class="cls-15" d="M554.96,278.14c-5.09,1.67-9.38,5.36-12.36,9.82-2.98,4.46-4.99,9.56-5.97,14.83.54-5.18-.9-10.54-3.97-14.75-3.07-4.21-7.11-8.11-12.21-9.17,9.7-3.37,16.8-13.17,16.97-23.44.97,4.91,2.57,9.52,5.22,13.77,2.64,4.25,7.34,8.47,12.32,8.94Z"/>
      <path class="cls-2" d="M629.53,379.46c-5.09,1.67-9.38,5.36-12.36,9.82-2.98,4.46-4.99,9.56-5.97,14.83.54-5.18-.9-10.54-3.97-14.74-3.07-4.21-7.11-8.11-12.21-9.17,9.7-3.37,16.8-13.17,16.97-23.44.97,4.91,2.57,9.52,5.22,13.77s7.34,8.47,12.32,8.94Z"/>
      <path class="cls-2" d="M629.53,888.02c-5.09,1.67-9.38,5.36-12.36,9.82-2.98,4.46-4.99,9.56-5.97,14.83.54-5.18-.9-10.54-3.97-14.74-3.07-4.21-7.11-8.11-12.21-9.17,9.7-3.37,16.8-13.17,16.97-23.44.97,4.91,2.57,9.52,5.22,13.77s7.34,8.47,12.32,8.94Z"/>
      <path class="cls-15" d="M633.38,182.39c-3.12,1.02-5.74,3.28-7.56,6.01-1.82,2.73-3.05,5.85-3.65,9.07.33-3.17-.55-6.45-2.43-9.02-1.88-2.57-4.35-4.96-7.47-5.61,5.94-2.06,10.28-8.06,10.38-14.34.6,3,1.57,5.82,3.19,8.42,1.62,2.6,4.49,5.18,7.54,5.47Z"/>
      <path class="cls-2" d="M200.33,126.73c-5.09,1.67-9.38,5.36-12.36,9.82-2.98,4.46-4.99,9.56-5.97,14.83.55-5.18-.9-10.54-3.97-14.75-3.07-4.21-7.11-8.11-12.21-9.17,9.7-3.37,16.8-13.17,16.97-23.44.97,4.91,2.57,9.52,5.22,13.77s7.34,8.47,12.32,8.94Z"/>
      <path class="cls-2" d="M527.82,114.23c-6.19,2.03-11.4,6.51-15.02,11.93-3.62,5.41-6.06,11.61-7.25,18.02.66-6.29-1.09-12.81-4.82-17.91-3.73-5.11-8.64-9.85-14.84-11.14,11.79-4.09,20.41-16,20.62-28.48,1.18,5.96,3.13,11.56,6.34,16.73s8.92,10.29,14.97,10.86Z"/>
      <path class="cls-2" d="M141.96,356.16c-3.12,1.02-5.74,3.28-7.56,6.01-1.82,2.73-3.05,5.85-3.65,9.07.33-3.17-.55-6.45-2.43-9.02-1.88-2.57-4.35-4.96-7.47-5.61,5.94-2.06,10.28-8.06,10.38-14.34.6,3,1.57,5.82,3.19,8.42,1.62,2.6,4.49,5.18,7.54,5.47Z"/>
      <path class="cls-2" d="M141.96,825.06c-3.12,1.02-5.74,3.28-7.56,6.01-1.82,2.73-3.05,5.85-3.65,9.07.33-3.17-.55-6.45-2.43-9.02-1.88-2.57-4.35-4.96-7.47-5.61,5.94-2.06,10.28-8.06,10.38-14.34.6,3,1.57,5.82,3.19,8.42,1.62,2.6,4.49,5.18,7.54,5.47Z"/>
      <path class="cls-15" d="M224.48,954.18c-3.11,1.02-5.74,3.28-7.56,6.01-1.82,2.73-3.05,5.85-3.65,9.07.33-3.17-.55-6.45-2.43-9.02-1.88-2.57-4.35-4.96-7.47-5.61,5.94-2.06,10.28-8.06,10.38-14.34.6,3,1.57,5.82,3.19,8.42,1.62,2.6,4.49,5.18,7.54,5.47Z"/>
      <path class="cls-15" d="M486.08,419.18c-3.12,1.02-5.74,3.28-7.56,6.01-1.82,2.73-3.05,5.85-3.65,9.07.33-3.17-.55-6.45-2.43-9.02-1.88-2.57-4.35-4.96-7.47-5.61,5.94-2.06,10.28-8.06,10.38-14.34.6,3,1.57,5.82,3.19,8.42,1.62,2.6,4.49,5.18,7.54,5.47Z"/>
      <path class="cls-15" d="M295.39,103.56c-2.45.8-4.51,2.58-5.94,4.72-1.43,2.14-2.4,4.59-2.87,7.12.26-2.49-.43-5.06-1.91-7.09-1.48-2.02-3.42-3.9-5.87-4.4,4.66-1.62,8.07-6.33,8.15-11.26.47,2.36,1.24,4.57,2.51,6.62s3.53,4.07,5.92,4.3Z"/>
      <path class="cls-2" d="M586.84,527.09c-2.45.8-4.51,2.58-5.94,4.72s-2.4,4.59-2.87,7.13c.26-2.49-.43-5.07-1.91-7.09-1.47-2.02-3.42-3.9-5.87-4.4,4.66-1.62,8.07-6.33,8.15-11.26.47,2.36,1.24,4.57,2.51,6.62,1.27,2.04,3.53,4.07,5.92,4.3Z"/>
      <path class="cls-2" d="M163.77,486.38c-2.45.8-4.51,2.58-5.94,4.72-1.43,2.14-2.4,4.59-2.87,7.13.26-2.49-.43-5.06-1.91-7.09-1.47-2.02-3.42-3.9-5.87-4.4,4.66-1.62,8.07-6.33,8.15-11.26.47,2.36,1.24,4.57,2.51,6.62,1.27,2.04,3.53,4.07,5.92,4.3Z"/>
    </g>
    <path class="cls-1" d="M686.27,982.82H81.73c0-2.44-1.98-4.42-4.42-4.42V45.6c2.44,0,4.42-1.98,4.42-4.42h604.53c0,2.44,1.98,4.42,4.42,4.42v932.81c-2.44,0-4.42,1.98-4.42,4.42Z"/>
    <text class="cls-7" transform="translate(341.69 969.26)"><tspan x="0" y="0">Espresso Horoscope</tspan></text>
    <g>
      <path class="cls-9" d="M377.24,148.57c.3-.04.69-.32.77-.64.06-.22,0-.37-.06-.46-.14-.23-.41-.29-.65-.34l-.09-.02c-.47-.09-.95-.18-1.4-.32-1.04-.34-1.61-1.13-1.61-2.22,0-.37.06-.78.17-1.19.21-.77.63-1.31,1.2-1.59.57-.27,1.26-.26,1.99.05.89.37,1.68.96,2.4,1.78,1.38,1.58,2.29,3.37,2.7,5.33.21.98.36,1.99.51,2.97l.06.39c.05.32.14.91.8.91h0c.65,0,.72-.57.75-.85v-.09c.08-.51.16-1.02.25-1.53l.09-.57c.41-2.55,1.32-4.64,2.79-6.38.7-.82,1.44-1.42,2.26-1.83.89-.44,1.74-.5,2.39-.15.65.34,1.09,1.07,1.23,2.06.04.3.06.55.05.77-.05,1.08-.59,1.8-1.61,2.13-.27.09-.56.15-.86.2-.25.05-.5.1-.74.17-.2.05-.65.37-.56.7.07.28.3.51.48.63.22.14.53.1.69.06.15-.03.3-.07.44-.1.46-.1.94-.2,1.39-.39,1.4-.6,2.17-1.71,2.23-3.21.03-.65-.05-1.31-.22-1.92-.32-1.14-1.01-2.02-1.93-2.47-.94-.46-2.08-.46-3.2,0-1.04.43-1.98,1.1-2.8,1.99-1.55,1.69-2.6,3.69-3.13,5.94l-.02-.09c-.53-2.26-1.6-4.25-3.19-5.94-1.04-1.11-2.15-1.8-3.4-2.12-1.82-.47-3.52.37-4.22,2.09-.26.63-.42,1.31-.47,1.97-.08,1.16.39,2.31,1.31,3.17.91.85,2.08,1.25,3.21,1.1Z"/>
      <path class="cls-13" d="M384.02,165.38c-10.39,0-18.84-8.45-18.84-18.84s8.45-18.84,18.84-18.84,18.84,8.45,18.84,18.84-8.45,18.84-18.84,18.84ZM384.02,129.18c-9.57,0-17.36,7.79-17.36,17.36s7.79,17.36,17.36,17.36,17.36-7.79,17.36-17.36-7.79-17.36-17.36-17.36Z"/>
      <text class="cls-8" transform="translate(360.1 326.34)"><tspan x="0" y="0">ARIES</tspan></text>
      <rect class="cls-9" x="328.83" y="300.15" width="110.39" height="1.6"/>
      <g>
        <g>
          <path class="cls-13" d="M374.27,210.38c6.57-1.52,13-1.5,19.51-.02.28-.75.51-1.36.73-1.98,1.85-5.17,4.89-9.53,8.97-13.18,4.59-4.1,10.04-5.91,16.11-6.15,4.97-.19,9.7.83,14.13,3.01,9.06,4.45,14.03,11.72,14.51,21.87.38,8.05-1.93,15.25-7.28,21.36-.7.81-.99,1.64-1.06,2.71-.31,5.14-2.25,9.65-5.59,13.55-.25.29-.56.53-.91.85-1.06-.32-1.9-.91-2.59-1.75-.69-.84-.94-1.67-.46-2.78.53-1.21.84-2.52,1.39-4.23-5.66,3.42-11.03,3.45-16.3.33-5.46-3.24-7.3-8.33-6.68-14.54-1.43.21-2.4.84-3.3,1.59-.72.6-.81,1.4-.75,2.28.12,1.73.21,3.46.25,5.19.1,4.39-1.18,8.38-3.55,12.04-2.09,3.22-4.61,6.05-7.66,8.39-.48.37-.95.77-1.49,1.21.36.92.71,1.8,1.04,2.68.6,1.58,1.05,3.18.89,4.91-.12,1.24-.57,2.3-1.73,2.88-.61.31-.9.73-1.1,1.36-.45,1.43-1.47,2.36-2.84,2.89-3,1.16-6.01,1.16-9.01,0-1.37-.53-2.34-1.48-2.85-2.89-.16-.44-.44-.97-.81-1.17-1.92-1.02-2.27-2.75-1.95-4.58.28-1.63.94-3.2,1.43-4.8.13-.42.28-.83.44-1.32-.56-.44-1.08-.86-1.61-1.27-3.39-2.65-6.15-5.86-8.3-9.58-2.23-3.85-3.03-8.02-2.76-12.43.07-1.17.09-2.35.23-3.52.15-1.28-.35-2.19-1.41-2.8-.76-.44-1.57-.78-2.69-1.32.68,6.43-1.13,11.53-6.57,14.78-5.24,3.13-10.59,3.17-16.01-.11-.12,1.14.43,2.06.64,3.04.2.94,1.12,1.73.54,2.85-.65,1.26-1.63,2.11-3.11,2.7-.33-.3-.77-.62-1.12-1.02-3.31-3.87-5.12-8.38-5.49-13.43-.08-1.14-.43-2-1.16-2.84-4.93-5.65-7.17-12.32-7.19-19.74-.03-11.46,6.32-20.45,17.09-24.4,6.35-2.33,12.75-2.63,19.25-.65,2.89.88,5.44,2.34,7.74,4.25,4.44,3.69,7.7,8.23,9.66,13.68.22.62.45,1.25.76,2.1ZM376.39,258.7c1.21-2.09,2.25-4.19,2.54-6.54.51-4.19.55-8.37-.71-12.47-.3-.96-.65-1.91-.89-2.88-.09-.36-.02-1.01.19-1.13.54-.29.73.25.9.67.04.1.07.21.11.32,2.62,7.51,3.14,14.92-.63,22.28-1.09,2.12-1.9,4.42-2.54,6.73-.74,2.65.01,3.71,2.63,4.4.49.13.99.2,1.47.34,1.55.43,3.1.88,4.51,1.29,2.03-.54,4.02-1.07,6.01-1.59,2.71-.71,3.39-1.77,2.8-4.5-.17-.76-.41-1.52-.7-2.24-.6-1.51-1.14-3.05-1.91-4.47-2.09-3.86-2.8-7.97-2.66-12.3.11-3.51.91-6.86,2.12-10.13.16-.44.29-1.03,1.06-.8.48.72.02,1.39-.22,2.04-1.72,4.74-2.02,9.61-1.3,14.55.34,2.33,1.35,4.4,2.55,6.51,4-2.78,7.01-6.18,9.34-10.21,1.77-3.07,2.68-6.38,2.59-9.94-.06-2.18-.15-4.36-.28-6.54-.16-2.76-.02-5.48,1.05-8.08.08-.18.07-.4.12-.65-.3-.03-.52-.07-.74-.07-4.22.13-7.33-2.04-10.07-4.92-.97-1.02-1.41-2.22-.92-3.69.31-.93.4-1.93.62-3.02-6.33-1.58-12.48-1.61-18.76.02.2,1,.29,1.9.56,2.73.57,1.77.01,3.18-1.24,4.39-2.77,2.69-5.85,4.7-9.93,4.49-.15,0-.31.07-.58.15.81,2.01,1.32,4.07,1.25,6.22-.06,2.07-.11,4.14-.26,6.2-.33,4.51.28,8.82,2.6,12.78,2.23,3.82,5.1,7.06,8.66,9.69.17.13.37.21.67.37ZM358.88,217.45c-1.99-2.63-4.3-4.78-7.23-6.22-3.59-1.77-7.25-1.7-10.88-.15-2.81,1.2-4.5,3.42-5.18,6.39-.24,1.04-.27,2.09.26,3.15.24-.1.46-.16.64-.27,5.08-3,10.25-3.21,15.5-.5.7.36,1.28.21,1.9-.08,1.61-.75,3.21-1.49,4.99-2.32ZM432.3,220.67c1.03-4-1.43-7.7-4.14-9.16-2.48-1.34-5.15-1.84-7.94-1.44-3.84.55-6.8,2.68-9.39,5.43-.59.62-1.09,1.32-1.61,1.96,1.69.79,3.21,1.46,4.7,2.21.93.47,1.7.42,2.66-.05,4.81-2.35,9.59-2.18,14.3.34.42.23.86.44,1.42.72ZM439.37,197.46c-.57-.51-.95-.89-1.38-1.23-2.69-2.17-5.76-3.6-9.05-4.58-1.3-.39-1.33-.4-2.06.68-1.92,2.82-3.18,5.91-3.44,9.32-.18,2.38-.23,4.78.6,7.11.92.18,1.78.35,2.59.51,4.54-7.28,6.69-9.29,12.75-11.8ZM344.1,208.74c.72-2.76.84-5.46.41-8.19-.48-3.03-1.65-5.78-3.37-8.31-.4-.58-.78-1-1.64-.73-3.55,1.1-6.9,2.58-9.77,5.01-.32.27-.59.61-.96,1,6,2.12,9.86,6.34,12.64,11.78.87-.18,1.69-.35,2.69-.56ZM355.26,211.77c.82.78,1.65,1.45,2.34,2.24.57.64,1.17.72,1.94.58,3.07-.57,5.91-1.67,8.43-3.52,1.27-.93,2.34-2.06,3.04-3.52.32-.67.3-1.22-.03-1.89-1.53-3.09-3.53-5.83-6-8.23-.2-.2-.5-.29-.75-.44-.81,6.32-4.15,10.96-8.97,14.78ZM446.25,209.14c-.66-3.21-2-5.82-3.74-8.24-1.87-2.6-2.3-2.71-5.19-1.19-3.93,2.07-6.77,5.23-8.85,9.1-.17.32-.24.7-.34,1.01,1.2.89,2.31,1.71,3.43,2.54,4.39-3.16,9.23-4.16,14.69-3.21ZM321.93,209.12c5.45-.96,10.32.14,14.61,3.23,1.22-.92,2.32-1.75,3.49-2.63-1.84-3.99-4.58-7.13-8.26-9.45-.89-.56-1.91-.91-2.87-1.35-.95-.43-1.65-.21-2.32.63-1.99,2.46-3.54,5.14-4.44,8.18-.12.4-.13.83-.21,1.38ZM403.9,196.98c-.28.08-.41.08-.48.14-.21.18-.41.38-.61.58-2.1,2.12-3.78,4.52-5.3,7.09-.94,1.58-.67,2.81.35,4.1.24.31.49.61.77.89,2.87,2.79,6.39,4.23,10.28,4.84.35.06.86.02,1.08-.19.91-.88,1.74-1.85,2.68-2.87-2.31-1.6-4.26-3.72-5.79-6.22-1.55-2.55-2.85-5.19-2.96-8.35ZM349.99,209c1.43.67,2.68,1.26,4.04,1.91,4.47-3.1,7.45-7.25,8.78-12.56.12-.48.1-1,.1-1.5,0-.94-.33-1.65-1.18-2.23-2.15-1.46-4.4-2.63-6.93-3.25-.34-.08-.71-.09-1.13-.15,1.69,6.6.8,12.54-3.68,17.78ZM414.37,191.19c-2.61.43-4.61,1.23-6.96,2.73-2.29,1.46-2.66,2.32-2.04,4.98.17.76.43,1.51.73,2.22,1.03,2.43,2.39,4.69,4.22,6.59,1.15,1.19,2.46,2.22,3.63,3.25,1.49-.71,2.74-1.3,4.15-1.97-4.58-5.21-5.32-11.19-3.73-17.79ZM426.27,191c-2.93-.74-5.6-.74-8.28-.53-2,.16-2.27.31-2.66,2.3-.99,4.97-.37,9.63,2.63,13.92,1.09,1.56,2.16,2.46,4.08,1.84.1-.03.18-.11.41-.25-1.23-6.16.03-11.9,3.83-17.28ZM345.62,208.35c3.42.61,2.63.72,4.35-1.55.3-.4.6-.81.86-1.24,2.51-4.21,2.94-8.69,1.77-13.39-.26-1.06-.86-1.56-1.96-1.66-2.74-.24-5.46-.23-8.17.3-.18.04-.33.22-.54.36,1.75,2.59,3.05,5.28,3.71,8.26.66,2.98.52,5.96-.01,8.92ZM372.08,208.39c-3.06,4.66-7.57,6.44-12.42,7.63.85,1.56,1.75,2.98,2.41,4.5.49,1.12,1.23,1.46,2.34,1.47,3.91.05,6.76-1.98,9.23-4.72.32-.36.5-1.05.42-1.54-.37-2.42-.92-4.8-1.98-7.34ZM396.11,208.59c-.14,0-.27.02-.41.03-.59,2.38-1.23,4.74-1.72,7.14-.1.5.2,1.25.56,1.66,1.82,2.03,3.94,3.67,6.66,4.28,1.02.23,2.11.26,3.16.19.46-.03,1.07-.42,1.31-.82.96-1.63,1.8-3.32,2.72-5.06-4.86-1.17-9.35-2.99-12.28-7.41ZM335.7,213.49c-.51-.36-.98-.75-1.5-1.05-3.28-1.91-6.79-2.78-10.59-2.3q-2.19.27-2.37,2.39c-.04.44-.12.89-.14,1.33-.13,2.1-.03,4.17.41,6.24.2-.04.27-.04.31-.06.14-.09.28-.18.4-.29,3.01-2.62,6.48-3.59,10.42-2.92.53.09,1.08.1,1.56.14.51-1.17.95-2.19,1.5-3.46ZM433.76,216.7c2.36.09,4.59,0,6.77.29,2.29.31,4.18,1.67,6.03,3.32.57-3.4.61-6.54-.02-9.62-4.36-1.61-11.71.01-14.07,3.03.46,1.06.92,2.13,1.29,2.98ZM434.03,218.46c-.15,1.07-.3,2.11-.46,3.26,3.7,1.97,7.15,4.31,9.83,7.88,1.15-1.93,1.73-3.9,2.45-5.81.51-1.36.19-2.32-.9-3.22-3.25-2.69-6.88-3.2-10.91-2.11ZM334,218.33c-1.25-.15-2.41-.37-3.57-.4-2.74-.06-5.14.86-7.26,2.6-1.07.88-1.52,1.84-.93,3.21.48,1.13.8,2.33,1.25,3.47.3.75.7,1.47,1.16,2.43,2.7-3.61,6.11-5.9,9.84-7.93-.16-1.08-.3-2.12-.49-3.39ZM414.17,222.73c1.03,2.28,2.59,3.94,4.66,5.16.21.12.55.16.79.08,1.35-.44,2.7-.92,4.2-1.45-.36-2.28-.29-4.69.71-7.18-4.05-.23-7.33.96-10.36,3.39ZM344.2,226.52c1.5.51,2.79.99,4.11,1.38.32.1.79.06,1.08-.11,2-1.21,3.54-2.83,4.5-5.09-3-2.35-6.25-3.62-10.22-3.32.72,2.48,1.14,4.83.54,7.14ZM347.28,236.1c-.23,2.79,1.2,6.32,3.11,7.57,3.21-1.48,5.61-3.74,6.86-7.06-2.3-.83-4.53-1.64-6.78-2.45-1,.6-2.08,1.25-3.2,1.93ZM417.95,243.79c1.95-2.29,2.97-4.82,2.92-7.63-1.23-.75-2.31-1.41-3.26-1.99-2.28.82-4.51,1.62-6.79,2.44,1.3,3.39,3.74,5.67,7.13,7.18ZM410.34,235.1c2.41-.18,4.35-.97,6.18-2.09.25-.15.45-.48.54-.77.33-1.04.6-2.1.85-2.99-1.66-1.8-3.29-3.57-4.99-5.41-3.07,3.11-3.31,6.96-2.58,11.26ZM355,223.72c-.86,1.12-1.53,2.16-2.35,3.04-.82.88-1.8,1.62-2.54,2.27.31,1.11.56,2.07.85,3.01.09.3.19.69.42.84,1.89,1.22,3.93,2.04,6.37,2.19.62-4.22.57-8.11-2.74-11.36ZM419.4,244.32c2.4.74,4.7.74,7.04.27.93-.19,1.3-.63,1.29-1.59-.03-2.84-1.03-5.31-2.66-7.6-.99.27-1.89.51-2.7.73-.33,1.46-.51,2.86-.98,4.15-.49,1.34-1.26,2.58-1.99,4.04ZM348.92,244.26c-2.07-2.51-2.9-5.25-3.11-8.13-1.06-.26-1.96-.48-2.87-.71-1.77,2.71-2.93,5.47-2.41,8.84,2.69.87,5.35.87,8.39,0ZM425.9,219.56c-1.18,2.28-1.34,4.55-.68,6.89.09.32.42.66.73.82.92.47,1.89.86,2.93,1.32,1.37-1.93,3.29-3.09,5.67-3.88-2.41-2.74-5.14-4.48-8.63-5.15ZM342.24,219.68c-3.24.29-7.43,2.88-8.44,5.2,2.3.57,4.07,1.95,5.45,3.7,1.02-.47,1.9-.82,2.73-1.27.35-.19.75-.53.85-.88.66-2.33.51-4.6-.59-6.75ZM428.15,230.23c-2.35-2.56-6.67-2.63-8.98-.17-1.23,1.32-1.01,3.04.53,3.97.99.6,2.08.84,3.22.57,2.48-.58,4.41-1.83,5.24-4.38ZM339.82,230.24c.37.65.66,1.26,1.04,1.81,1.55,2.19,4.99,3.23,7.14,2.19,1.98-.96,2.25-3.05.57-4.47-2.56-2.16-6.13-2.01-8.76.46ZM332.62,225.91c-1.4,2.01-2.42,4.11-2.81,6.72,2.24-.47,4.23-.07,6.16.72.8-1.31,1.54-2.54,2.32-3.82-1.37-1.98-3.18-3.23-5.66-3.61ZM432.11,233.35c1.95-.82,3.93-1.18,6.18-.72-.48-2.63-1.41-4.77-2.88-6.72-2.5.41-4.3,1.65-5.63,3.61.77,1.27,1.49,2.46,2.32,3.82ZM341.67,234.93c-1.06-1.22-1.99-2.29-2.99-3.45-.25.38-.48.68-.67,1.01-1.29,2.3-1.73,4.83-1.83,7.42-.07,1.77,1.01,3,2.95,3.39-.12-3.09.96-5.81,2.54-8.37ZM426.41,234.95c1.61,2.55,2.64,5.32,2.5,8.46,2.27-.79,3-1.74,2.94-3.76-.09-2.94-.74-5.71-2.45-8.2-1,1.17-1.93,2.25-2.99,3.51ZM334.89,239.02c.21-1.45.42-2.91.63-4.38-1.97-1.01-3.86-1.3-5.99-.56-.18,1.84-.27,3.63.13,5.29,1.79-.12,3.43-.23,5.23-.35ZM432.53,234.7c.25,1.55.49,3.01.71,4.33,1.81.12,3.49.23,5.29.34v-5.37c-2.16-.57-4.11-.44-6,.7ZM359.94,218.91c-2.32.04-3.92,1.2-5.73,2.2.9.84,1.74,1.63,2.53,2.38,1.64-.42,3.17-.82,4.83-1.24-.59-1.21-1.11-2.25-1.64-3.33ZM414.01,220.99c-1.7-.73-3.17-1.39-4.66-1.98-.51-.2-1.12-.28-1.45.4-.45.93-.91,1.86-1.39,2.87,1.78.43,3.33.81,4.85,1.18.83-.77,1.6-1.49,2.66-2.47ZM329.86,241.2c.45,1.38.91,2.77,1.36,4.14,1.43-.57,2.64-1.06,3.93-1.58-.13-1.05-.25-2.08-.37-3.15-1.73-.34-3.28-.63-4.92.59ZM433.25,240.69c-.11,1.13-.21,2.12-.31,3.09,1.29.51,2.53,1,3.93,1.55.44-1.38.88-2.79,1.34-4.24-1.69-.99-3.23-.93-4.96-.4ZM377.92,271.48c.39,1.29,1.09,1.83,1.92,2.15,2.77,1.06,5.57,1.06,8.35.02.89-.33,1.64-.91,1.99-2.14-1.95.41-3.8.41-5.29,1.72-.52.46-1.16.49-1.68.02-1.43-1.31-3.26-1.26-5.29-1.77ZM437.2,225.79c.6,1.35,1.29,2.67,1.76,4.07.47,1.4.72,2.87,1.15,4.64.88-1.2,1.64-2.2,2.34-3.24.12-.18.1-.58-.02-.77-1.3-2.02-3.08-3.53-5.23-4.69ZM327.81,234.29c.11-.01.23-.02.34-.03.32-3.11,1.3-6,2.86-8.72-2.26,1.42-4.25,3.04-5.67,5.45.83,1.11,1.65,2.21,2.47,3.3ZM335.43,245.2c-1.35.22-2.51.46-3.49,1.61.59.92,1.19,1.87,1.75,2.75,1.01-.57,1.82-1.02,2.7-1.52-.31-.92-.62-1.84-.97-2.84ZM431.67,248.06c.98.53,1.8.98,2.7,1.47.4-.6.81-1.18,1.19-1.8.2-.32.32-.69.47-1.01-1.25-1.13-1.63-1.28-3.44-1.37-.29.85-.59,1.73-.92,2.71ZM407.68,228.21c-.7-1.24-1.32-2.34-2.13-3.77-.66,1.97-1.09,3.57-.85,5.43,1.05-.59,1.97-1.09,2.98-1.66ZM363.55,229.97c-.22-1.97-.11-3.67-1.15-5.36-.73,1.33-1.35,2.47-1.98,3.61,1.02.57,1.93,1.07,3.13,1.74ZM408.94,227.82c.61-1.31,1.01-2.2,1.46-3.16-1.2-.49-2.3-.9-3.76-.86.77,1.35,1.44,2.52,2.3,4.02ZM361.32,223.96c-.07-.11-.13-.21-.2-.32-1.14.29-2.27.59-3.53.91.54,1.11.98,2.02,1.58,3.24.82-1.46,1.49-2.65,2.16-3.83ZM432.9,250.88l.26-.3c-.23-.43-.47-.85-1.5-.75.54.46.89.76,1.24,1.05ZM336.13,250.06l-.35-.38c-.31.3-.62.59-.93.89.09.1.18.2.26.3.34-.27.68-.54,1.01-.81Z"/>
          <path class="cls-13" d="M381.54,261.33c-.64-.31-1.15-.2-1.38.46-.23.65-.04,1.21.6,1.56.1.05.2.1.3.15q1.92.87,2.89,2.35c.13-.08.33-.12.38-.23.48-1.1,1.27-1.79,2.46-2.06.35-.08.79-.32.94-.61.18-.34.19-.85.11-1.25-.08-.42-.18-.4-1.23-.38-.04.1-.13.21-.11.28.13.45.57.96-.21,1.22-.56.18-1.17-.37-1.23-1.05-.07-.81.55-1.58,1.44-1.81,1.1-.28,2.2.28,2.58,1.32.5,1.36-.04,2.82-1.44,3.3-1.14.39-1.87,1.03-2.44,2.08-.34.63-.55,1.19-.46,1.88.05.39.06.78.06,1.17,0,.54-.29.84-.83.82-.53-.02-.8-.35-.81-.88,0-.22,0-.46.06-.66.28-.93,0-1.67-.5-2.5-.56-.92-1.18-1.5-2.21-1.86-1.68-.58-2.25-2.44-1.33-3.81.48-.72,1.17-1.01,2.02-.92.78.09,1.44.44,1.64,1.22.1.42,0,.98-.23,1.36-.13.23-.72.37-1.01.27-.49-.17-.33-.6-.1-.97.07-.11.01-.3.01-.46Z"/>
          <path class="cls-13" d="M377.51,239.94c-.98,0-1.82.14-2.59-.03-3.3-.73-6.07-2.44-8.44-4.82-.2-.2-.38-.41-.53-.65-.52-.79-.36-1.33.55-1.4,1.15-.09,2.37-.16,3.48.11,3.2.76,5.5,2.82,7.22,5.56.18.29.18.7.3,1.22ZM375.51,238.82c-1.36-2.78-4.98-4.83-7.91-4.44,2.33,2.18,4.8,3.7,7.91,4.44Z"/>
          <path class="cls-13" d="M402.47,233.53c-1.46,3.52-8.22,7.11-11.73,6.3-.05-1.47,2.02-4.04,4.38-5.45,2.61-1.55,5.46-1.91,7.35-.85ZM400.23,234.4c-3.15-.13-6.18,1.63-7.73,4.44,3.16-.75,5.64-2.25,7.73-4.44Z"/>
        </g>
        <path class="cls-13" d="M422.3,276.65c.29.3.57.6.86.91.13.14.29.28.36.46.05.12.03.36-.06.44-.08.07-.34.06-.43-.02-.32-.27-.59-.59-.89-.89-.12-.12-.24-.22-.45-.4-.04.26-.09.44-.09.61,0,1.34,0,2.68,0,4.02,0,.32.1.72-.36.82-.31.07-.47-.21-.47-.81,0-1.23,0-2.46,0-3.69,0-.27,0-.54-.16-.91-.28.28-.57.57-.85.85-.14.14-.26.31-.42.41-.12.07-.35.08-.43,0-.08-.07-.11-.32-.05-.43.14-.24.35-.43.53-.64.24-.26.48-.51.85-.91-1.04,0-1.86,0-2.69,0-.25,0-.51.02-.75-.03-.13-.03-.3-.2-.3-.31,0-.12.14-.32.26-.35.23-.07.5-.06.75-.06.83,0,1.66,0,2.49,0,.02-.06.04-.12.06-.18-.44-.45-.89-.89-1.33-1.34-.22-.23-.61-.49-.27-.83.34-.33.6.06.83.28.44.42.86.85,1.4,1.38.03-.36.07-.57.07-.77,0-1.17,0-2.35,0-3.52,0-.37-.13-.84.4-.97.3-.08.43.23.43,1.01,0,1.09,0,2.18,0,3.27,0,.27,0,.54,0,.98.56-.36.85-.76,1.2-1.08.18-.17.33-.4.54-.52.16-.09.44-.14.58-.06.25.15.13.4-.04.57-.41.42-.83.83-1.24,1.25-.11.11-.21.24-.41.49.77.01,1.4.03,2.03.04.36,0,.73,0,1.09.02.25.01.54.04.55.38,0,.35-.29.36-.54.37-.73,0-1.45,0-2.18,0-.27,0-.54,0-.81,0-.02.06-.04.13-.06.19Z"/>
        <path class="cls-13" d="M328.38,270.43c.04-.97-.3-1.74-.98-2.35-.68-.6-1.46-1.02-2.31-1.32-.16-.06-.33-.09-.47-.17-.29-.17-.28-.51.02-.65.17-.08.37-.1.56-.14.38-.09.77-.14,1.13-.28,1.16-.45,1.89-1.26,1.97-2.55.02-.28,0-.57.07-.83.04-.15.26-.33.4-.33.13,0,.33.2.37.35.08.32.09.66.12.99.12,1.32.95,2.03,2.11,2.43.34.12.71.16,1.06.23.29.06.67.04.69.46.02.36-.35.37-.59.48-.65.31-1.33.59-1.93.98-1.01.65-1.56,1.58-1.45,2.82,0,.08.01.17.01.25,0,.26-.14.47-.39.42-.16-.04-.31-.25-.41-.43-.06-.1.01-.27.02-.36ZM326.45,266.34c.82.72,1.6,1.4,2.31,2.03.76-.66,1.54-1.34,2.31-2.01-.4-.24-.85-.46-1.22-.77-.4-.33-.73-.74-1.09-1.11-.85,1.06-1.14,1.3-2.3,1.86Z"/>
        <path class="cls-13" d="M376.55,195.64c.04-.97-.3-1.74-.98-2.35-.68-.6-1.46-1.02-2.31-1.32-.16-.06-.33-.09-.47-.17-.29-.17-.28-.51.02-.65.17-.08.38-.1.56-.14.38-.09.77-.14,1.13-.28,1.16-.45,1.89-1.26,1.97-2.55.02-.28,0-.57.07-.83.04-.15.26-.33.4-.33.13,0,.33.2.37.35.08.32.09.66.12.99.12,1.32.95,2.03,2.11,2.43.34.12.71.16,1.06.23.29.06.67.04.69.46.02.36-.35.37-.59.48-.65.31-1.33.59-1.93.98-1.01.65-1.56,1.58-1.45,2.82,0,.08.01.17.01.25,0,.26-.14.47-.39.42-.16-.04-.31-.25-.41-.43-.06-.1.01-.27.02-.36ZM374.62,191.54c.82.72,1.6,1.4,2.31,2.03.76-.66,1.54-1.34,2.31-2.01-.4-.24-.85-.46-1.22-.77-.4-.33-.73-.74-1.09-1.11-.85,1.06-1.14,1.3-2.3,1.86Z"/>
        <path class="cls-13" d="M349.01,262.18c-.28-.32-.45-.44-.49-.59-.06-.24,0-.5-.06-.75-.14-.7-.27-1.42-.49-2.1-.2-.61-.7-.99-1.26-1.28-.22-.12-.45-.22-.66-.36-.5-.33-.51-.69-.02-1.05.36-.26.75-.49,1.08-.78.9-.8,1.4-1.79,1.38-3.02,0-.2,0-.39,0-.59.02-.27.13-.54.44-.47.15.03.28.28.36.46.05.11,0,.27,0,.41-.01,1.59.71,2.78,1.97,3.67.14.1.29.17.43.26.62.42.64.87-.06,1.16-1.78.74-2.25,2.19-2.32,3.91,0,.19,0,.39-.05.58-.04.15-.14.29-.26.53ZM348.85,258.71c.38-.51.64-.94.99-1.29.33-.34.75-.59,1.06-.82-.72-.82-1.39-1.58-1.99-2.27-.65.74-1.32,1.5-2.03,2.3.85.46,1.58,1.07,1.96,2.08Z"/>
        <path class="cls-13" d="M385.59,225.74c.4.43.81.85,1.2,1.28.19.2.41.4.51.64.07.17.04.5-.09.61-.11.1-.47.08-.6-.03-.45-.38-.83-.83-1.25-1.25-.16-.16-.34-.31-.63-.57-.06.37-.13.61-.13.86,0,1.89,0,3.77,0,5.66,0,.45.14,1.01-.51,1.15-.43.09-.66-.3-.67-1.14,0-1.73,0-3.46,0-5.19,0-.38,0-.77-.22-1.28-.4.4-.8.8-1.2,1.19-.19.19-.36.44-.59.57-.16.09-.49.11-.61,0-.12-.1-.16-.45-.07-.6.2-.33.49-.61.75-.9.33-.36.67-.72,1.2-1.28-1.46,0-2.62,0-3.78,0-.35,0-.72.03-1.06-.04-.18-.04-.42-.28-.43-.44,0-.17.2-.45.36-.5.33-.1.7-.09,1.05-.09,1.17,0,2.34,0,3.5,0,.03-.09.06-.17.09-.26-.62-.63-1.25-1.25-1.86-1.89-.31-.33-.86-.69-.38-1.16.47-.46.84.08,1.16.4.61.59,1.21,1.2,1.97,1.95.05-.51.1-.8.1-1.09,0-1.65,0-3.3.01-4.95,0-.52-.18-1.18.57-1.37.43-.11.6.32.6,1.42,0,1.53,0,3.07,0,4.6,0,.38,0,.76,0,1.38.78-.5,1.2-1.07,1.69-1.52.26-.24.47-.56.76-.73.23-.13.63-.2.82-.08.35.21.18.56-.05.8-.57.59-1.17,1.17-1.75,1.75-.16.16-.29.34-.58.69,1.08.02,1.97.04,2.86.05.51,0,1.02,0,1.53.03.35.02.76.06.77.54,0,.49-.4.51-.76.51-1.02,0-2.04,0-3.07-.01-.38,0-.76,0-1.13,0l-.08.27Z"/>
        <path class="cls-13" d="M420.2,259.88c0,.47-.38.86-.86.86s-.86-.38-.86-.86.38-.86.86-.86.86.38.86.86Z"/>
        <path class="cls-13" d="M339.78,273.63c0,.47-.38.86-.86.86s-.86-.38-.86-.86.38-.86.86-.86.86.38.86.86Z"/>
        <path class="cls-13" d="M344.52,184.25c0,.47-.38.86-.86.86s-.86-.38-.86-.86.38-.86.86-.86.86.38.86.86Z"/>
        <path class="cls-13" d="M390.94,204.38c0,.47-.38.86-.86.86s-.86-.38-.86-.86.38-.86.86-.86.86.38.86.86Z"/>
        <path class="cls-13" d="M439.38,183.4c0,.47-.38.86-.86.86s-.86-.38-.86-.86.38-.86.86-.86.86.38.86.86Z"/>
        <path class="cls-13" d="M405.65,265.2c0,.47-.38.86-.86.86s-.86-.38-.86-.86.38-.86.86-.86.86.38.86.86Z"/>
      </g>
    </g>
  </g>
  <text class="cls-12" transform="translate(226.61 470.54)"><tspan class="cls-24" x="0" y="0">Celestial </tspan><tspan class="cls-26" x="156.71" y="0">P</tspan><tspan class="cls-24" x="178.95" y="0">erfection</tspan></text>
  <g class="cls-17">
    <text class="cls-6" transform="translate(276.59 499.05)"><tspan class="cls-23" x="0" y="0">“</tspan><tspan class="cls-25" x="7.42" y="0">Cosmic equilibrium found</tspan><tspan class="cls-19" x="218.71" y="0">.</tspan><tspan class="cls-25" x="221.94" y="0">”</tspan></text>
  </g>
  <g class="cls-17">
    <text class="cls-3" transform="translate(281.58 613.81)"><tspan x="0" y="0">• E</tspan><tspan class="cls-21" x="21.33" y="0">x</tspan><tspan x="29.52" y="0">cellent shot parameters!</tspan><tspan x="-6.45" y="24">• Maintain current grid setting</tspan><tspan x="-30.82" y="48" xml:space="preserve"> • </tspan><tspan class="cls-20" x="-15.09" y="48">K</tspan><tspan x="-4.89" y="48">eep consistent puck preparation</tspan></text>
  </g>
  <g>
    <text class="cls-10" transform="translate(202.61 577.83)"><tspan x="0" y="0">2.10:1</tspan></text>
    <text class="cls-11" transform="translate(290.63 577.83)"><tspan x="0" y="0">28s</tspan></text>
    <text class="cls-11" transform="translate(357.13 577.83)"><tspan x="0" y="0">8.4 bar</tspan></text>
    <text class="cls-11" transform="translate(439.02 577.83)"><tspan x="0" y="0">91.8 ºC</tspan></text>
    <text class="cls-11" transform="translate(528.57 577.83)"><tspan x="0" y="0">0.00</tspan></text>
  </g>
  <text class="cls-4" transform="translate(171.16 791.28)"><tspan class="cls-18" x="0" y="0">Y</tspan><tspan class="cls-16" x="7.98" y="0">our Aries energy transcends through this peaceful supernova, </tspan><tspan x="82.05" y="21">creating cosmic harmony in every dro</tspan><tspan class="cls-22" x="344.89" y="21">p</tspan><tspan x="353.96" y="21">.</tspan></text>
  <text class="cls-5" transform="translate(201.72 835.3)"><tspan x="0" y="0" xml:space="preserve">seed: b99addb6   •   rule: sweet_spot   •   severity: perfect</tspan><tspan x="143.39" y="24">Aries • chill</tspan></text>
</svg>